M48
INCH,TZ
T1C0.0157
T2C0.0300
T3C0.0315
T4C0.0394
T5C0.0433
T6C0.0591
T7C0.0630
%
G90
G05
T1
X37953Y-48278
X38258Y-52156
X38484Y-33199
X40502Y-54232
X41102Y-28219
X41368Y-37707
X42323Y-36850
X42338Y-40354
X45719Y-43061
X45787Y-30512
X47402Y-32648
X47579Y-43957
X47638Y-42894
X48632Y-28189
X48740Y-47096
X50581Y-47047
X52008Y-39429
X52431Y-30463
X53878Y-41112
X54026Y-37579
X54833Y-43514
X55098Y-32657
X55256Y-51949
X56250Y-51230
X56791Y-39724
X57047Y-36604
X57421Y-43907
X57894Y-36644
X58553Y-47530
X58671Y-40561
X59035Y-43789
X59114Y-31191
X59715Y-36516
X59921Y-35443
X60177Y-46939
X60571Y-49272
X61555Y-39547
X61722Y-42106
X62165Y-43346
X62175Y-54636
X62559Y-38514
X63071Y-34449
X63110Y-41969
X64193Y-33563
X64439Y-29892
X64744Y-41348
X65276Y-44902
X65315Y-37569
X65315Y-46811
X65984Y-30620
X66152Y-34508
X66240Y-48937
X66339Y-31368
X66762Y-30108
X66978Y-38819
X67539Y-44035
X67569Y-36703
X67835Y-28965
X68406Y-30118
X68711Y-40935
X68907Y-51289
X69232Y-33563
X69301Y-48553
X69498Y-30915
X69518Y-44016
X69941Y-38455
X70059Y-37264
X71201Y-39616
X71801Y-36014
X71959Y-39498
X71998Y-42480
X72165Y-37520
X72638Y-53346
X72776Y-35974
X72972Y-37411
X73986Y-54350
X74016Y-38681
X74026Y-43967
X74705Y-32854
X74724Y-35423
X75315Y-46555
X75906Y-52333
X75925Y-32854
X75935Y-35423
T2
X60915Y-47766
X61309Y-52490
X62096Y-47766
X64065Y-47766
X64852Y-52490
X65246Y-47766
T3
X43642Y-42332
X43642Y-43710
X43720Y-46357
X43720Y-47735
X47638Y-48622
X47638Y-50000
X49195Y-31969
X49882Y-42027
X49882Y-43404
X49982Y-31969
X50730Y-29055
X51518Y-29055
X53091Y-36734
X53091Y-37522
X56594Y-37815
X57594Y-37815
X58594Y-37815
X62274Y-44575
X62274Y-45362
X63179Y-36911
X63179Y-37699
X66860Y-37894
X67860Y-37894
X68860Y-37894
X72618Y-44626
X72618Y-45413
T4
X38976Y-40354
X38976Y-41354
X38976Y-42354
X38976Y-43354
X38976Y-44354
X38976Y-45354
X38976Y-46354
X38976Y-47354
X39976Y-40354
X39976Y-41354
X39976Y-42354
X39976Y-43354
X39976Y-44354
X39976Y-45354
X39976Y-46354
X39976Y-47354
T5
X39370Y-35630
X39370Y-36614
T6
X72254Y-29921
X74055Y-49577
T7
X71215Y-28951
X71215Y-30951
X73016Y-48606
X73016Y-50606
X73215Y-28951
X73215Y-30951
X75016Y-48606
X75016Y-50606
T0
M30
