G04 #@! TF.GenerationSoftware,KiCad,Pcbnew,6.0.9-8da3e8f707~117~ubuntu20.04.1*
G04 #@! TF.CreationDate,2022-12-08T18:46:39-05:00*
G04 #@! TF.ProjectId,sdt_qse_1496,7364745f-7173-4655-9f31-3439362e6b69,1.0*
G04 #@! TF.SameCoordinates,Original*
G04 #@! TF.FileFunction,Soldermask,Bot*
G04 #@! TF.FilePolarity,Negative*
%FSLAX46Y46*%
G04 Gerber Fmt 4.6, Leading zero omitted, Abs format (unit mm)*
G04 Created by KiCad (PCBNEW 6.0.9-8da3e8f707~117~ubuntu20.04.1) date 2022-12-08 18:46:39*
%MOMM*%
%LPD*%
G01*
G04 APERTURE LIST*
G04 Aperture macros list*
%AMRoundRect*
0 Rectangle with rounded corners*
0 $1 Rounding radius*
0 $2 $3 $4 $5 $6 $7 $8 $9 X,Y pos of 4 corners*
0 Add a 4 corners polygon primitive as box body*
4,1,4,$2,$3,$4,$5,$6,$7,$8,$9,$2,$3,0*
0 Add four circle primitives for the rounded corners*
1,1,$1+$1,$2,$3*
1,1,$1+$1,$4,$5*
1,1,$1+$1,$6,$7*
1,1,$1+$1,$8,$9*
0 Add four rect primitives between the rounded corners*
20,1,$1+$1,$2,$3,$4,$5,0*
20,1,$1+$1,$4,$5,$6,$7,0*
20,1,$1+$1,$6,$7,$8,$9,0*
20,1,$1+$1,$8,$9,$2,$3,0*%
G04 Aperture macros list end*
%ADD10RoundRect,0.250000X-0.600000X-0.600000X0.600000X-0.600000X0.600000X0.600000X-0.600000X0.600000X0*%
%ADD11C,1.700000*%
%ADD12C,2.600000*%
%ADD13C,2.500000*%
%ADD14R,1.600000X1.600000*%
%ADD15C,1.600000*%
%ADD16C,1.440000*%
%ADD17C,1.524000*%
%ADD18C,2.100000*%
G04 APERTURE END LIST*
D10*
X99000000Y-102500000D03*
D11*
X101540000Y-102500000D03*
X99000000Y-105040000D03*
X101540000Y-105040000D03*
X99000000Y-107580000D03*
X101540000Y-107580000D03*
X99000000Y-110120000D03*
X101540000Y-110120000D03*
X99000000Y-112660000D03*
X101540000Y-112660000D03*
X99000000Y-115200000D03*
X101540000Y-115200000D03*
X99000000Y-117740000D03*
X101540000Y-117740000D03*
X99000000Y-120280000D03*
X101540000Y-120280000D03*
D12*
X185460000Y-123460000D03*
X190540000Y-128540000D03*
X185460000Y-128540000D03*
X190540000Y-123460000D03*
D13*
X188100000Y-125925000D03*
D14*
X121000000Y-123500000D03*
D15*
X121000000Y-127000000D03*
D12*
X180885000Y-73535000D03*
X185965000Y-73535000D03*
X185965000Y-78615000D03*
X180885000Y-78615000D03*
D13*
X183525000Y-76000000D03*
D14*
X110850000Y-107522349D03*
D15*
X110850000Y-111022349D03*
D14*
X126955113Y-81200000D03*
D15*
X124955113Y-81200000D03*
D16*
X143750000Y-96050000D03*
X146290000Y-96050000D03*
X148830000Y-96050000D03*
D14*
X126700000Y-106747349D03*
D15*
X126700000Y-110247349D03*
D16*
X169825000Y-96250000D03*
X172365000Y-96250000D03*
X174905000Y-96250000D03*
D14*
X130855113Y-73800000D03*
D15*
X128855113Y-73800000D03*
D14*
X184450000Y-113350000D03*
D15*
X184450000Y-115350000D03*
D14*
X158490000Y-111850000D03*
D15*
X158490000Y-113850000D03*
D14*
X111050000Y-117747349D03*
D15*
X111050000Y-121247349D03*
D14*
X160475000Y-95755113D03*
D15*
X160475000Y-93755113D03*
D11*
X105837500Y-77500000D03*
X98837500Y-77500000D03*
D17*
X165725000Y-121325000D03*
X162725000Y-121325000D03*
X157725000Y-121325000D03*
X154725000Y-121325000D03*
X164725000Y-133325000D03*
X155725000Y-133325000D03*
D14*
X134850000Y-95305112D03*
D15*
X134850000Y-93305112D03*
D18*
X100000000Y-93000000D03*
X100000000Y-90500000D03*
M02*
