G04 #@! TF.GenerationSoftware,KiCad,Pcbnew,6.0.9-8da3e8f707~117~ubuntu20.04.1*
G04 #@! TF.CreationDate,2022-12-08T14:13:37-05:00*
G04 #@! TF.ProjectId,sdt_qse_1496,7364745f-7173-4655-9f31-3439362e6b69,1.0*
G04 #@! TF.SameCoordinates,Original*
G04 #@! TF.FileFunction,Paste,Top*
G04 #@! TF.FilePolarity,Positive*
%FSLAX46Y46*%
G04 Gerber Fmt 4.6, Leading zero omitted, Abs format (unit mm)*
G04 Created by KiCad (PCBNEW 6.0.9-8da3e8f707~117~ubuntu20.04.1) date 2022-12-08 14:13:37*
%MOMM*%
%LPD*%
G01*
G04 APERTURE LIST*
G04 Aperture macros list*
%AMRoundRect*
0 Rectangle with rounded corners*
0 $1 Rounding radius*
0 $2 $3 $4 $5 $6 $7 $8 $9 X,Y pos of 4 corners*
0 Add a 4 corners polygon primitive as box body*
4,1,4,$2,$3,$4,$5,$6,$7,$8,$9,$2,$3,0*
0 Add four circle primitives for the rounded corners*
1,1,$1+$1,$2,$3*
1,1,$1+$1,$4,$5*
1,1,$1+$1,$6,$7*
1,1,$1+$1,$8,$9*
0 Add four rect primitives between the rounded corners*
20,1,$1+$1,$2,$3,$4,$5,0*
20,1,$1+$1,$4,$5,$6,$7,0*
20,1,$1+$1,$6,$7,$8,$9,0*
20,1,$1+$1,$8,$9,$2,$3,0*%
G04 Aperture macros list end*
%ADD10RoundRect,0.250000X0.700000X-0.275000X0.700000X0.275000X-0.700000X0.275000X-0.700000X-0.275000X0*%
%ADD11R,1.600200X0.558800*%
%ADD12R,2.200000X2.800000*%
%ADD13R,2.800000X2.800000*%
%ADD14R,2.600000X2.800000*%
%ADD15RoundRect,0.250000X-0.625000X0.312500X-0.625000X-0.312500X0.625000X-0.312500X0.625000X0.312500X0*%
%ADD16RoundRect,0.250000X-0.312500X-0.625000X0.312500X-0.625000X0.312500X0.625000X-0.312500X0.625000X0*%
%ADD17RoundRect,0.020500X-0.764500X-0.184500X0.764500X-0.184500X0.764500X0.184500X-0.764500X0.184500X0*%
%ADD18RoundRect,0.250000X0.625000X-0.312500X0.625000X0.312500X-0.625000X0.312500X-0.625000X-0.312500X0*%
%ADD19RoundRect,0.250000X0.325000X0.650000X-0.325000X0.650000X-0.325000X-0.650000X0.325000X-0.650000X0*%
%ADD20RoundRect,0.250000X0.312500X0.625000X-0.312500X0.625000X-0.312500X-0.625000X0.312500X-0.625000X0*%
%ADD21RoundRect,0.150000X-0.587500X-0.150000X0.587500X-0.150000X0.587500X0.150000X-0.587500X0.150000X0*%
%ADD22RoundRect,0.150000X0.150000X-0.587500X0.150000X0.587500X-0.150000X0.587500X-0.150000X-0.587500X0*%
%ADD23RoundRect,0.250000X-0.650000X0.325000X-0.650000X-0.325000X0.650000X-0.325000X0.650000X0.325000X0*%
%ADD24RoundRect,0.250000X-0.325000X-0.650000X0.325000X-0.650000X0.325000X0.650000X-0.325000X0.650000X0*%
%ADD25RoundRect,0.150000X-0.150000X0.587500X-0.150000X-0.587500X0.150000X-0.587500X0.150000X0.587500X0*%
%ADD26RoundRect,0.250000X0.650000X-0.325000X0.650000X0.325000X-0.650000X0.325000X-0.650000X-0.325000X0*%
G04 APERTURE END LIST*
D10*
X191500000Y-104025000D03*
X191500000Y-100875000D03*
D11*
X171947300Y-102540000D03*
X171947300Y-103810000D03*
X171947300Y-105080000D03*
X171947300Y-106350000D03*
X171947300Y-107620000D03*
X171947300Y-108890000D03*
X171947300Y-110160000D03*
X177052700Y-110160000D03*
X177052700Y-108890000D03*
X177052700Y-107620000D03*
X177052700Y-106350000D03*
X177052700Y-105080000D03*
X177052700Y-103810000D03*
X177052700Y-102540000D03*
X145947300Y-102065000D03*
X145947300Y-103335000D03*
X145947300Y-104605000D03*
X145947300Y-105875000D03*
X145947300Y-107145000D03*
X145947300Y-108415000D03*
X145947300Y-109685000D03*
X151052700Y-109685000D03*
X151052700Y-108415000D03*
X151052700Y-107145000D03*
X151052700Y-105875000D03*
X151052700Y-104605000D03*
X151052700Y-103335000D03*
X151052700Y-102065000D03*
D12*
X97737500Y-81200000D03*
D13*
X107137500Y-81200000D03*
D12*
X99737500Y-73800000D03*
D14*
X111137500Y-76750000D03*
D15*
X174760000Y-80457500D03*
X174760000Y-83382500D03*
D16*
X148012500Y-123650000D03*
X150937500Y-123650000D03*
D17*
X165755000Y-75175000D03*
X165755000Y-75825000D03*
X165755000Y-76475000D03*
X165755000Y-77125000D03*
X165755000Y-77775000D03*
X165755000Y-78425000D03*
X165755000Y-79075000D03*
X171495000Y-79075000D03*
X171495000Y-78425000D03*
X171495000Y-77775000D03*
X171495000Y-77125000D03*
X171495000Y-76475000D03*
X171495000Y-75825000D03*
X171495000Y-75175000D03*
D18*
X164350000Y-100862500D03*
X164350000Y-97937500D03*
D19*
X162845000Y-72825000D03*
X159895000Y-72825000D03*
D15*
X180850000Y-102462500D03*
X180850000Y-105387500D03*
D20*
X180592500Y-83400000D03*
X177667500Y-83400000D03*
D21*
X131412500Y-121850000D03*
X131412500Y-123750000D03*
X133287500Y-122800000D03*
D16*
X113537500Y-81250000D03*
X116462500Y-81250000D03*
X151012500Y-116750000D03*
X153937500Y-116750000D03*
D15*
X124250000Y-73787500D03*
X124250000Y-76712500D03*
X136850000Y-106212500D03*
X136850000Y-109137500D03*
D22*
X114050000Y-98637500D03*
X115950000Y-98637500D03*
X115000000Y-96762500D03*
D23*
X142625000Y-109300000D03*
X142625000Y-112250000D03*
D16*
X144662500Y-117225000D03*
X147587500Y-117225000D03*
D15*
X167975000Y-100787500D03*
X167975000Y-103712500D03*
D20*
X144022500Y-90940000D03*
X141097500Y-90940000D03*
X168797500Y-91280000D03*
X165872500Y-91280000D03*
D16*
X118087500Y-117750000D03*
X121012500Y-117750000D03*
X171632500Y-91280000D03*
X174557500Y-91280000D03*
D24*
X177650000Y-87200000D03*
X180600000Y-87200000D03*
D16*
X115037500Y-73750000D03*
X117962500Y-73750000D03*
X147047500Y-90940000D03*
X149972500Y-90940000D03*
D23*
X133275000Y-125600000D03*
X133275000Y-128550000D03*
D15*
X185350000Y-96837500D03*
X185350000Y-99762500D03*
D18*
X179900000Y-99187500D03*
X179900000Y-96262500D03*
X180850000Y-110837500D03*
X180850000Y-107912500D03*
D20*
X173662500Y-122850000D03*
X170737500Y-122850000D03*
D23*
X189800000Y-113325000D03*
X189800000Y-116275000D03*
D15*
X161860000Y-78427500D03*
X161860000Y-81352500D03*
D18*
X120500000Y-81212500D03*
X120500000Y-78287500D03*
D15*
X127850000Y-121687500D03*
X127850000Y-124612500D03*
X141725000Y-100487500D03*
X141725000Y-103412500D03*
D16*
X140087500Y-106200000D03*
X143012500Y-106200000D03*
D20*
X168022500Y-82240000D03*
X165097500Y-82240000D03*
D15*
X154675000Y-102137500D03*
X154675000Y-105062500D03*
D16*
X158762500Y-89625000D03*
X161687500Y-89625000D03*
D23*
X174575000Y-113250000D03*
X174575000Y-116200000D03*
D21*
X123262500Y-96850000D03*
X123262500Y-98750000D03*
X125137500Y-97800000D03*
D15*
X162925000Y-106612500D03*
X162925000Y-109537500D03*
D20*
X168962500Y-116425000D03*
X166037500Y-116425000D03*
D24*
X148350000Y-113175000D03*
X151300000Y-113175000D03*
D18*
X138300000Y-100837500D03*
X138300000Y-97912500D03*
X180800000Y-128862500D03*
X180800000Y-125937500D03*
D25*
X127500000Y-117062500D03*
X125600000Y-117062500D03*
X126550000Y-118937500D03*
D16*
X133062500Y-89025000D03*
X135987500Y-89025000D03*
D26*
X176650000Y-76500000D03*
X176650000Y-73550000D03*
D18*
X154675000Y-110462500D03*
X154675000Y-107537500D03*
D16*
X120837500Y-114050000D03*
X123762500Y-114050000D03*
D24*
X110850000Y-102275000D03*
X113800000Y-102275000D03*
D18*
X177000000Y-128862500D03*
X177000000Y-125937500D03*
X153700000Y-99012500D03*
X153700000Y-96087500D03*
D23*
X128775000Y-97800000D03*
X128775000Y-100750000D03*
X168375000Y-109700000D03*
X168375000Y-112650000D03*
D15*
X154575000Y-90037500D03*
X154575000Y-92962500D03*
D20*
X120262500Y-106800000D03*
X117337500Y-106800000D03*
D18*
X158275000Y-105087500D03*
X158275000Y-102162500D03*
D16*
X107537500Y-98600000D03*
X110462500Y-98600000D03*
X116912500Y-92825000D03*
X119837500Y-92825000D03*
D18*
X184675000Y-105387500D03*
X184675000Y-102462500D03*
D23*
X163025000Y-113200000D03*
X163025000Y-116150000D03*
D15*
X119825000Y-95837500D03*
X119825000Y-98762500D03*
D26*
X118100000Y-114725000D03*
X118100000Y-111775000D03*
D24*
X165075000Y-85350000D03*
X168025000Y-85350000D03*
D20*
X179912500Y-132025000D03*
X176987500Y-132025000D03*
X173662500Y-119500000D03*
X170737500Y-119500000D03*
D16*
X166212500Y-106600000D03*
X169137500Y-106600000D03*
M02*
