G04 #@! TF.GenerationSoftware,KiCad,Pcbnew,6.0.9-8da3e8f707~117~ubuntu20.04.1*
G04 #@! TF.CreationDate,2022-12-08T18:46:39-05:00*
G04 #@! TF.ProjectId,sdt_qse_1496,7364745f-7173-4655-9f31-3439362e6b69,1.0*
G04 #@! TF.SameCoordinates,Original*
G04 #@! TF.FileFunction,Soldermask,Top*
G04 #@! TF.FilePolarity,Negative*
%FSLAX46Y46*%
G04 Gerber Fmt 4.6, Leading zero omitted, Abs format (unit mm)*
G04 Created by KiCad (PCBNEW 6.0.9-8da3e8f707~117~ubuntu20.04.1) date 2022-12-08 18:46:39*
%MOMM*%
%LPD*%
G01*
G04 APERTURE LIST*
G04 Aperture macros list*
%AMRoundRect*
0 Rectangle with rounded corners*
0 $1 Rounding radius*
0 $2 $3 $4 $5 $6 $7 $8 $9 X,Y pos of 4 corners*
0 Add a 4 corners polygon primitive as box body*
4,1,4,$2,$3,$4,$5,$6,$7,$8,$9,$2,$3,0*
0 Add four circle primitives for the rounded corners*
1,1,$1+$1,$2,$3*
1,1,$1+$1,$4,$5*
1,1,$1+$1,$6,$7*
1,1,$1+$1,$8,$9*
0 Add four rect primitives between the rounded corners*
20,1,$1+$1,$2,$3,$4,$5,0*
20,1,$1+$1,$4,$5,$6,$7,0*
20,1,$1+$1,$6,$7,$8,$9,0*
20,1,$1+$1,$8,$9,$2,$3,0*%
G04 Aperture macros list end*
%ADD10RoundRect,0.250000X0.325000X0.650000X-0.325000X0.650000X-0.325000X-0.650000X0.325000X-0.650000X0*%
%ADD11RoundRect,0.250000X-0.650000X0.325000X-0.650000X-0.325000X0.650000X-0.325000X0.650000X0.325000X0*%
%ADD12RoundRect,0.250000X-0.312500X-0.625000X0.312500X-0.625000X0.312500X0.625000X-0.312500X0.625000X0*%
%ADD13RoundRect,0.250000X-0.600000X-0.600000X0.600000X-0.600000X0.600000X0.600000X-0.600000X0.600000X0*%
%ADD14C,1.700000*%
%ADD15R,1.600200X0.558800*%
%ADD16RoundRect,0.250000X-0.625000X0.312500X-0.625000X-0.312500X0.625000X-0.312500X0.625000X0.312500X0*%
%ADD17RoundRect,0.020500X-0.764500X-0.184500X0.764500X-0.184500X0.764500X0.184500X-0.764500X0.184500X0*%
%ADD18RoundRect,0.250000X0.625000X-0.312500X0.625000X0.312500X-0.625000X0.312500X-0.625000X-0.312500X0*%
%ADD19RoundRect,0.250000X0.312500X0.625000X-0.312500X0.625000X-0.312500X-0.625000X0.312500X-0.625000X0*%
%ADD20RoundRect,0.150000X-0.587500X-0.150000X0.587500X-0.150000X0.587500X0.150000X-0.587500X0.150000X0*%
%ADD21C,2.600000*%
%ADD22C,2.500000*%
%ADD23R,1.600000X1.600000*%
%ADD24C,1.600000*%
%ADD25RoundRect,0.150000X0.150000X-0.587500X0.150000X0.587500X-0.150000X0.587500X-0.150000X-0.587500X0*%
%ADD26RoundRect,0.250000X0.700000X-0.275000X0.700000X0.275000X-0.700000X0.275000X-0.700000X-0.275000X0*%
%ADD27RoundRect,0.250000X-0.325000X-0.650000X0.325000X-0.650000X0.325000X0.650000X-0.325000X0.650000X0*%
%ADD28C,1.440000*%
%ADD29R,2.200000X2.800000*%
%ADD30R,2.800000X2.800000*%
%ADD31R,2.600000X2.800000*%
%ADD32RoundRect,0.150000X-0.150000X0.587500X-0.150000X-0.587500X0.150000X-0.587500X0.150000X0.587500X0*%
%ADD33C,1.524000*%
%ADD34RoundRect,0.250000X0.650000X-0.325000X0.650000X0.325000X-0.650000X0.325000X-0.650000X-0.325000X0*%
%ADD35C,2.100000*%
G04 APERTURE END LIST*
D10*
X117585000Y-77110000D03*
X114635000Y-77110000D03*
D11*
X120460000Y-83765000D03*
X120460000Y-86715000D03*
D12*
X170712500Y-122800000D03*
X173637500Y-122800000D03*
X144657500Y-120360000D03*
X147582500Y-120360000D03*
X158862500Y-117325000D03*
X161787500Y-117325000D03*
D13*
X99000000Y-102500000D03*
D14*
X101540000Y-102500000D03*
X99000000Y-105040000D03*
X101540000Y-105040000D03*
X99000000Y-107580000D03*
X101540000Y-107580000D03*
X99000000Y-110120000D03*
X101540000Y-110120000D03*
X99000000Y-112660000D03*
X101540000Y-112660000D03*
X99000000Y-115200000D03*
X101540000Y-115200000D03*
X99000000Y-117740000D03*
X101540000Y-117740000D03*
X99000000Y-120280000D03*
X101540000Y-120280000D03*
D15*
X145947300Y-102065000D03*
X145947300Y-103335000D03*
X145947300Y-104605000D03*
X145947300Y-105875000D03*
X145947300Y-107145000D03*
X145947300Y-108415000D03*
X145947300Y-109685000D03*
X151052700Y-109685000D03*
X151052700Y-108415000D03*
X151052700Y-107145000D03*
X151052700Y-105875000D03*
X151052700Y-104605000D03*
X151052700Y-103335000D03*
X151052700Y-102065000D03*
D16*
X174760000Y-80457500D03*
X174760000Y-83382500D03*
D12*
X148012500Y-123650000D03*
X150937500Y-123650000D03*
D17*
X165755000Y-75175000D03*
X165755000Y-75825000D03*
X165755000Y-76475000D03*
X165755000Y-77125000D03*
X165755000Y-77775000D03*
X165755000Y-78425000D03*
X165755000Y-79075000D03*
X171495000Y-79075000D03*
X171495000Y-78425000D03*
X171495000Y-77775000D03*
X171495000Y-77125000D03*
X171495000Y-76475000D03*
X171495000Y-75825000D03*
X171495000Y-75175000D03*
D18*
X164350000Y-100862500D03*
X164350000Y-97937500D03*
D10*
X162845000Y-72825000D03*
X159895000Y-72825000D03*
D16*
X180850000Y-102462500D03*
X180850000Y-105387500D03*
D19*
X180592500Y-83400000D03*
X177667500Y-83400000D03*
D20*
X131412500Y-121850000D03*
X131412500Y-123750000D03*
X133287500Y-122800000D03*
D12*
X113537500Y-81250000D03*
X116462500Y-81250000D03*
X151012500Y-116750000D03*
X153937500Y-116750000D03*
D21*
X185460000Y-123460000D03*
X190540000Y-128540000D03*
X185460000Y-128540000D03*
X190540000Y-123460000D03*
D22*
X188100000Y-125925000D03*
D16*
X124250000Y-73787500D03*
X124250000Y-76712500D03*
D23*
X121000000Y-123500000D03*
D24*
X121000000Y-127000000D03*
D16*
X136850000Y-106212500D03*
X136850000Y-109137500D03*
D21*
X180885000Y-73535000D03*
X185965000Y-73535000D03*
X185965000Y-78615000D03*
X180885000Y-78615000D03*
D22*
X183525000Y-76000000D03*
D25*
X114050000Y-98637500D03*
X115950000Y-98637500D03*
X115000000Y-96762500D03*
D11*
X142625000Y-109300000D03*
X142625000Y-112250000D03*
D12*
X144662500Y-117225000D03*
X147587500Y-117225000D03*
D16*
X167975000Y-100787500D03*
X167975000Y-103712500D03*
D19*
X144022500Y-90940000D03*
X141097500Y-90940000D03*
D26*
X191500000Y-104025000D03*
X191500000Y-100875000D03*
D19*
X168797500Y-91280000D03*
X165872500Y-91280000D03*
D12*
X118087500Y-117750000D03*
X121012500Y-117750000D03*
X171632500Y-91280000D03*
X174557500Y-91280000D03*
D23*
X110850000Y-107522349D03*
D24*
X110850000Y-111022349D03*
D27*
X177650000Y-87200000D03*
X180600000Y-87200000D03*
D12*
X115037500Y-73750000D03*
X117962500Y-73750000D03*
D23*
X126955113Y-81200000D03*
D24*
X124955113Y-81200000D03*
D15*
X171947300Y-102540000D03*
X171947300Y-103810000D03*
X171947300Y-105080000D03*
X171947300Y-106350000D03*
X171947300Y-107620000D03*
X171947300Y-108890000D03*
X171947300Y-110160000D03*
X177052700Y-110160000D03*
X177052700Y-108890000D03*
X177052700Y-107620000D03*
X177052700Y-106350000D03*
X177052700Y-105080000D03*
X177052700Y-103810000D03*
X177052700Y-102540000D03*
D12*
X147047500Y-90940000D03*
X149972500Y-90940000D03*
D11*
X133275000Y-125600000D03*
X133275000Y-128550000D03*
D16*
X185350000Y-96837500D03*
X185350000Y-99762500D03*
D18*
X179900000Y-99187500D03*
X179900000Y-96262500D03*
X180850000Y-110837500D03*
X180850000Y-107912500D03*
D19*
X173637500Y-126325000D03*
X170712500Y-126325000D03*
D11*
X189800000Y-113325000D03*
X189800000Y-116275000D03*
D28*
X143750000Y-96050000D03*
X146290000Y-96050000D03*
X148830000Y-96050000D03*
D16*
X161860000Y-78427500D03*
X161860000Y-81352500D03*
D18*
X120500000Y-81212500D03*
X120500000Y-78287500D03*
D16*
X127850000Y-121687500D03*
X127850000Y-124612500D03*
D23*
X126700000Y-106747349D03*
D24*
X126700000Y-110247349D03*
D16*
X141725000Y-100487500D03*
X141725000Y-103412500D03*
D12*
X140087500Y-106200000D03*
X143012500Y-106200000D03*
D19*
X168022500Y-82240000D03*
X165097500Y-82240000D03*
D16*
X154675000Y-102137500D03*
X154675000Y-105062500D03*
D28*
X169825000Y-96250000D03*
X172365000Y-96250000D03*
X174905000Y-96250000D03*
D12*
X158762500Y-89625000D03*
X161687500Y-89625000D03*
D11*
X174575000Y-113250000D03*
X174575000Y-116200000D03*
D23*
X130855113Y-73800000D03*
D24*
X128855113Y-73800000D03*
D20*
X123262500Y-96850000D03*
X123262500Y-98750000D03*
X125137500Y-97800000D03*
D16*
X162925000Y-106612500D03*
X162925000Y-109537500D03*
D19*
X168962500Y-116425000D03*
X166037500Y-116425000D03*
D23*
X184450000Y-113350000D03*
D24*
X184450000Y-115350000D03*
D27*
X148350000Y-113175000D03*
X151300000Y-113175000D03*
D18*
X138300000Y-100837500D03*
X138300000Y-97912500D03*
D23*
X158490000Y-111850000D03*
D24*
X158490000Y-113850000D03*
D23*
X111050000Y-117747349D03*
D24*
X111050000Y-121247349D03*
D23*
X160475000Y-95755113D03*
D24*
X160475000Y-93755113D03*
D18*
X180800000Y-128862500D03*
X180800000Y-125937500D03*
D14*
X105837500Y-77500000D03*
X98837500Y-77500000D03*
D29*
X97737500Y-81200000D03*
D30*
X107137500Y-81200000D03*
D29*
X99737500Y-73800000D03*
D31*
X111137500Y-76750000D03*
D32*
X127500000Y-117062500D03*
X125600000Y-117062500D03*
X126550000Y-118937500D03*
D33*
X165725000Y-121325000D03*
X162725000Y-121325000D03*
X157725000Y-121325000D03*
X154725000Y-121325000D03*
X164725000Y-133325000D03*
X155725000Y-133325000D03*
D12*
X139412500Y-87775000D03*
X142337500Y-87775000D03*
D23*
X134850000Y-95305112D03*
D24*
X134850000Y-93305112D03*
D34*
X176650000Y-76500000D03*
X176650000Y-73550000D03*
D18*
X154150000Y-110362500D03*
X154150000Y-107437500D03*
D12*
X120837500Y-114050000D03*
X123762500Y-114050000D03*
D27*
X110850000Y-102275000D03*
X113800000Y-102275000D03*
D18*
X177000000Y-128862500D03*
X177000000Y-125937500D03*
X153700000Y-99012500D03*
X153700000Y-96087500D03*
D11*
X128775000Y-97800000D03*
X128775000Y-100750000D03*
X168375000Y-109700000D03*
X168375000Y-112650000D03*
D16*
X154575000Y-90037500D03*
X154575000Y-92962500D03*
D19*
X120262500Y-106800000D03*
X117337500Y-106800000D03*
D18*
X158275000Y-105087500D03*
X158275000Y-102162500D03*
D12*
X107537500Y-98600000D03*
X110462500Y-98600000D03*
D35*
X100000000Y-93000000D03*
X100000000Y-90500000D03*
D12*
X116912500Y-92825000D03*
X119837500Y-92825000D03*
D18*
X184675000Y-105387500D03*
X184675000Y-102462500D03*
D11*
X163280000Y-111925000D03*
X163280000Y-114875000D03*
D16*
X119825000Y-95837500D03*
X119825000Y-98762500D03*
D34*
X118100000Y-114725000D03*
X118100000Y-111775000D03*
D27*
X165075000Y-85350000D03*
X168025000Y-85350000D03*
D19*
X179912500Y-132025000D03*
X176987500Y-132025000D03*
X173662500Y-119500000D03*
X170737500Y-119500000D03*
D12*
X166212500Y-106600000D03*
X169137500Y-106600000D03*
M02*
