G04 #@! TF.GenerationSoftware,KiCad,Pcbnew,6.0.9-8da3e8f707~117~ubuntu20.04.1*
G04 #@! TF.CreationDate,2022-12-08T14:13:37-05:00*
G04 #@! TF.ProjectId,sdt_qse_1496,7364745f-7173-4655-9f31-3439362e6b69,1.0*
G04 #@! TF.SameCoordinates,Original*
G04 #@! TF.FileFunction,Copper,L2,Bot*
G04 #@! TF.FilePolarity,Positive*
%FSLAX46Y46*%
G04 Gerber Fmt 4.6, Leading zero omitted, Abs format (unit mm)*
G04 Created by KiCad (PCBNEW 6.0.9-8da3e8f707~117~ubuntu20.04.1) date 2022-12-08 14:13:37*
%MOMM*%
%LPD*%
G01*
G04 APERTURE LIST*
G04 Aperture macros list*
%AMRoundRect*
0 Rectangle with rounded corners*
0 $1 Rounding radius*
0 $2 $3 $4 $5 $6 $7 $8 $9 X,Y pos of 4 corners*
0 Add a 4 corners polygon primitive as box body*
4,1,4,$2,$3,$4,$5,$6,$7,$8,$9,$2,$3,0*
0 Add four circle primitives for the rounded corners*
1,1,$1+$1,$2,$3*
1,1,$1+$1,$4,$5*
1,1,$1+$1,$6,$7*
1,1,$1+$1,$8,$9*
0 Add four rect primitives between the rounded corners*
20,1,$1+$1,$2,$3,$4,$5,0*
20,1,$1+$1,$4,$5,$6,$7,0*
20,1,$1+$1,$6,$7,$8,$9,0*
20,1,$1+$1,$8,$9,$2,$3,0*%
G04 Aperture macros list end*
G04 #@! TA.AperFunction,ComponentPad*
%ADD10RoundRect,0.250000X-0.600000X-0.600000X0.600000X-0.600000X0.600000X0.600000X-0.600000X0.600000X0*%
G04 #@! TD*
G04 #@! TA.AperFunction,ComponentPad*
%ADD11C,1.700000*%
G04 #@! TD*
G04 #@! TA.AperFunction,ComponentPad*
%ADD12C,2.600000*%
G04 #@! TD*
G04 #@! TA.AperFunction,ComponentPad*
%ADD13C,2.500000*%
G04 #@! TD*
G04 #@! TA.AperFunction,ComponentPad*
%ADD14R,1.600000X1.600000*%
G04 #@! TD*
G04 #@! TA.AperFunction,ComponentPad*
%ADD15C,1.600000*%
G04 #@! TD*
G04 #@! TA.AperFunction,ComponentPad*
%ADD16C,1.440000*%
G04 #@! TD*
G04 #@! TA.AperFunction,ComponentPad*
%ADD17C,1.524000*%
G04 #@! TD*
G04 #@! TA.AperFunction,ComponentPad*
%ADD18C,2.100000*%
G04 #@! TD*
G04 #@! TA.AperFunction,ViaPad*
%ADD19C,1.000000*%
G04 #@! TD*
G04 #@! TA.AperFunction,ViaPad*
%ADD20C,0.800000*%
G04 #@! TD*
G04 #@! TA.AperFunction,Conductor*
%ADD21C,0.500000*%
G04 #@! TD*
G04 #@! TA.AperFunction,Conductor*
%ADD22C,0.200000*%
G04 #@! TD*
G04 APERTURE END LIST*
D10*
X99000000Y-102500000D03*
D11*
X101540000Y-102500000D03*
X99000000Y-105040000D03*
X101540000Y-105040000D03*
X99000000Y-107580000D03*
X101540000Y-107580000D03*
X99000000Y-110120000D03*
X101540000Y-110120000D03*
X99000000Y-112660000D03*
X101540000Y-112660000D03*
X99000000Y-115200000D03*
X101540000Y-115200000D03*
X99000000Y-117740000D03*
X101540000Y-117740000D03*
X99000000Y-120280000D03*
X101540000Y-120280000D03*
D12*
X185460000Y-123460000D03*
X190540000Y-128540000D03*
X185460000Y-128540000D03*
X190540000Y-123460000D03*
D13*
X188100000Y-125925000D03*
D14*
X121000000Y-123500000D03*
D15*
X121000000Y-127000000D03*
D12*
X180885000Y-73535000D03*
X185965000Y-73535000D03*
X185965000Y-78615000D03*
X180885000Y-78615000D03*
D13*
X183525000Y-76000000D03*
D14*
X110850000Y-107522349D03*
D15*
X110850000Y-111022349D03*
D14*
X126955113Y-81200000D03*
D15*
X124955113Y-81200000D03*
D16*
X143750000Y-96050000D03*
X146290000Y-96050000D03*
X148830000Y-96050000D03*
D14*
X126700000Y-106747349D03*
D15*
X126700000Y-110247349D03*
D16*
X169825000Y-96250000D03*
X172365000Y-96250000D03*
X174905000Y-96250000D03*
D14*
X130855113Y-73800000D03*
D15*
X128855113Y-73800000D03*
D14*
X184450000Y-113350000D03*
D15*
X184450000Y-115350000D03*
D14*
X158175000Y-113219888D03*
D15*
X158175000Y-115219888D03*
D14*
X111050000Y-117747349D03*
D15*
X111050000Y-121247349D03*
D14*
X160475000Y-95755113D03*
D15*
X160475000Y-93755113D03*
D17*
X165725000Y-121325000D03*
X162725000Y-121325000D03*
X157725000Y-121325000D03*
X154725000Y-121325000D03*
X164725000Y-133325000D03*
X155725000Y-133325000D03*
D14*
X134850000Y-95305112D03*
D15*
X134850000Y-93305112D03*
D18*
X100000000Y-93000000D03*
X100000000Y-90500000D03*
D19*
X183300000Y-95300000D03*
X188000000Y-98250000D03*
X120400000Y-82925000D03*
X139275000Y-110525000D03*
X128475000Y-119500000D03*
X157925000Y-138775000D03*
X140350000Y-131950000D03*
X142875000Y-130125000D03*
X148725000Y-120725000D03*
X152850000Y-119225000D03*
X153850000Y-125150000D03*
X168250000Y-124300000D03*
X165900000Y-118900000D03*
X165800000Y-114050000D03*
X157900000Y-110100000D03*
X149950000Y-111225000D03*
X145850000Y-111525000D03*
X149025000Y-103025000D03*
X171550000Y-111850000D03*
X174525000Y-103975000D03*
X170125000Y-98600000D03*
X165900000Y-95425000D03*
X177950000Y-94650000D03*
X177650000Y-97675000D03*
X182775000Y-100325000D03*
X182375000Y-91475000D03*
X192875000Y-89975000D03*
X192850000Y-83450000D03*
X189800000Y-89975000D03*
X189750000Y-83450000D03*
X176525000Y-78525000D03*
X175850000Y-85250000D03*
X168500000Y-79675000D03*
X163050000Y-85250000D03*
X164450000Y-105025000D03*
X158900000Y-97825000D03*
X160200000Y-87500000D03*
X151675000Y-92750000D03*
X144900000Y-92975000D03*
X137225000Y-95450000D03*
X144250000Y-100900000D03*
X132100000Y-100150000D03*
X150150000Y-79225000D03*
X139950000Y-82950000D03*
X133175000Y-77375000D03*
X116300000Y-77500000D03*
X123525000Y-71600000D03*
X104400000Y-71675000D03*
X97750000Y-84325000D03*
X107500000Y-93600000D03*
X105075000Y-95775000D03*
X121000000Y-108950000D03*
X116125000Y-109375000D03*
X123800000Y-119625000D03*
X96400000Y-122625000D03*
X102875000Y-137750000D03*
X97175000Y-132475000D03*
X188025000Y-111675000D03*
X191300000Y-118250000D03*
X176575000Y-111800000D03*
X176025000Y-123325000D03*
X175025000Y-130275000D03*
X184500000Y-135500000D03*
X187925000Y-138050000D03*
X192800000Y-132925000D03*
D20*
X167600000Y-77775000D03*
X169575000Y-76475000D03*
X173750000Y-76500000D03*
X163675000Y-75925000D03*
X172300000Y-73570000D03*
D19*
X107537500Y-102500000D03*
X120850000Y-111650000D03*
D20*
X185350000Y-95025000D03*
X171625000Y-93225000D03*
X156775000Y-106950000D03*
X168025000Y-87650000D03*
X182875000Y-107900000D03*
X184850000Y-91375000D03*
X147050000Y-93075000D03*
X152200000Y-90025000D03*
X160300000Y-106600000D03*
X156350000Y-100450000D03*
X180850000Y-100625000D03*
X136850000Y-104425000D03*
D21*
X166275000Y-100625000D02*
X180850000Y-100625000D01*
X157325000Y-104750000D02*
X155837500Y-106237500D01*
X155837500Y-106237500D02*
X155700000Y-106375000D01*
X155700000Y-106375000D02*
X155700000Y-107525000D01*
X155700000Y-107525000D02*
X156300000Y-108125000D01*
D22*
X168900000Y-76475000D02*
X167600000Y-77775000D01*
X169575000Y-76475000D02*
X168900000Y-76475000D01*
X173750000Y-76500000D02*
X173750000Y-75025000D01*
X172300000Y-73570000D02*
X172300000Y-73575000D01*
X172300000Y-73575000D02*
X173750000Y-75025000D01*
X163675000Y-75925000D02*
X166030000Y-73570000D01*
X166030000Y-73570000D02*
X172300000Y-73570000D01*
D21*
X120850000Y-111650000D02*
X111700000Y-102500000D01*
X111700000Y-102500000D02*
X107537500Y-102500000D01*
D22*
X171625000Y-93225000D02*
X183550000Y-93225000D01*
X183550000Y-93225000D02*
X185350000Y-95025000D01*
X168025000Y-95700000D02*
X168025000Y-87650000D01*
X156775000Y-106950000D02*
X168025000Y-95700000D01*
X186650000Y-104125000D02*
X186650000Y-93175000D01*
X182875000Y-107900000D02*
X186650000Y-104125000D01*
X186650000Y-93175000D02*
X184850000Y-91375000D01*
X152200000Y-90025000D02*
X149150000Y-93075000D01*
X149150000Y-93075000D02*
X147050000Y-93075000D01*
D21*
X158775000Y-108125000D02*
X160300000Y-106600000D01*
X136850000Y-104425000D02*
X152375000Y-104425000D01*
X156300000Y-108125000D02*
X158200000Y-108125000D01*
X166275000Y-100625000D02*
X160300000Y-106600000D01*
X158200000Y-108125000D02*
X158775000Y-108125000D01*
X156350000Y-100450000D02*
X157325000Y-101425000D01*
X152375000Y-104425000D02*
X156350000Y-100450000D01*
X157325000Y-101425000D02*
X157325000Y-104750000D01*
G04 #@! TA.AperFunction,Conductor*
G36*
X194433621Y-70528502D02*
G01*
X194480114Y-70582158D01*
X194491500Y-70634500D01*
X194491500Y-139365500D01*
X194471498Y-139433621D01*
X194417842Y-139480114D01*
X194365500Y-139491500D01*
X95634500Y-139491500D01*
X95566379Y-139471498D01*
X95519886Y-139417842D01*
X95508500Y-139365500D01*
X95508500Y-136500000D01*
X95986540Y-136500000D01*
X96006359Y-136815020D01*
X96065505Y-137125072D01*
X96163044Y-137425266D01*
X96164731Y-137428852D01*
X96164733Y-137428856D01*
X96295750Y-137707283D01*
X96295754Y-137707290D01*
X96297438Y-137710869D01*
X96466568Y-137977375D01*
X96667767Y-138220582D01*
X96897860Y-138436654D01*
X97153221Y-138622184D01*
X97429821Y-138774247D01*
X97433490Y-138775700D01*
X97433495Y-138775702D01*
X97719628Y-138888990D01*
X97723298Y-138890443D01*
X98029025Y-138968940D01*
X98342179Y-139008500D01*
X98657821Y-139008500D01*
X98970975Y-138968940D01*
X99276702Y-138890443D01*
X99280372Y-138888990D01*
X99566505Y-138775702D01*
X99566510Y-138775700D01*
X99570179Y-138774247D01*
X99846779Y-138622184D01*
X100102140Y-138436654D01*
X100332233Y-138220582D01*
X100533432Y-137977375D01*
X100702562Y-137710869D01*
X100704246Y-137707290D01*
X100704250Y-137707283D01*
X100835267Y-137428856D01*
X100835269Y-137428852D01*
X100836956Y-137425266D01*
X100934495Y-137125072D01*
X100993641Y-136815020D01*
X101013460Y-136500000D01*
X188986540Y-136500000D01*
X189006359Y-136815020D01*
X189065505Y-137125072D01*
X189163044Y-137425266D01*
X189164731Y-137428852D01*
X189164733Y-137428856D01*
X189295750Y-137707283D01*
X189295754Y-137707290D01*
X189297438Y-137710869D01*
X189466568Y-137977375D01*
X189667767Y-138220582D01*
X189897860Y-138436654D01*
X190153221Y-138622184D01*
X190429821Y-138774247D01*
X190433490Y-138775700D01*
X190433495Y-138775702D01*
X190719628Y-138888990D01*
X190723298Y-138890443D01*
X191029025Y-138968940D01*
X191342179Y-139008500D01*
X191657821Y-139008500D01*
X191970975Y-138968940D01*
X192276702Y-138890443D01*
X192280372Y-138888990D01*
X192566505Y-138775702D01*
X192566510Y-138775700D01*
X192570179Y-138774247D01*
X192846779Y-138622184D01*
X193102140Y-138436654D01*
X193332233Y-138220582D01*
X193533432Y-137977375D01*
X193702562Y-137710869D01*
X193704246Y-137707290D01*
X193704250Y-137707283D01*
X193835267Y-137428856D01*
X193835269Y-137428852D01*
X193836956Y-137425266D01*
X193934495Y-137125072D01*
X193993641Y-136815020D01*
X194013460Y-136500000D01*
X193993641Y-136184980D01*
X193934495Y-135874928D01*
X193836956Y-135574734D01*
X193830667Y-135561369D01*
X193704250Y-135292717D01*
X193704246Y-135292710D01*
X193702562Y-135289131D01*
X193533432Y-135022625D01*
X193332233Y-134779418D01*
X193102140Y-134563346D01*
X192846779Y-134377816D01*
X192836206Y-134372003D01*
X192573648Y-134227660D01*
X192573647Y-134227659D01*
X192570179Y-134225753D01*
X192566510Y-134224300D01*
X192566505Y-134224298D01*
X192280372Y-134111010D01*
X192280371Y-134111010D01*
X192276702Y-134109557D01*
X191970975Y-134031060D01*
X191657821Y-133991500D01*
X191342179Y-133991500D01*
X191029025Y-134031060D01*
X190723298Y-134109557D01*
X190719629Y-134111010D01*
X190719628Y-134111010D01*
X190433495Y-134224298D01*
X190433490Y-134224300D01*
X190429821Y-134225753D01*
X190426353Y-134227659D01*
X190426352Y-134227660D01*
X190163795Y-134372003D01*
X190153221Y-134377816D01*
X189897860Y-134563346D01*
X189667767Y-134779418D01*
X189466568Y-135022625D01*
X189297438Y-135289131D01*
X189295754Y-135292710D01*
X189295750Y-135292717D01*
X189169333Y-135561369D01*
X189163044Y-135574734D01*
X189065505Y-135874928D01*
X189006359Y-136184980D01*
X188988833Y-136463559D01*
X188986540Y-136500000D01*
X101013460Y-136500000D01*
X100993641Y-136184980D01*
X100934495Y-135874928D01*
X100836956Y-135574734D01*
X100830667Y-135561369D01*
X100704250Y-135292717D01*
X100704246Y-135292710D01*
X100702562Y-135289131D01*
X100533432Y-135022625D01*
X100332233Y-134779418D01*
X100102140Y-134563346D01*
X99854984Y-134383777D01*
X155030777Y-134383777D01*
X155040074Y-134395793D01*
X155083069Y-134425898D01*
X155092555Y-134431376D01*
X155283993Y-134520645D01*
X155294285Y-134524391D01*
X155498309Y-134579059D01*
X155509104Y-134580962D01*
X155719525Y-134599372D01*
X155730475Y-134599372D01*
X155940896Y-134580962D01*
X155951691Y-134579059D01*
X156155715Y-134524391D01*
X156166007Y-134520645D01*
X156357445Y-134431376D01*
X156366931Y-134425898D01*
X156410764Y-134395207D01*
X156419139Y-134384729D01*
X156412071Y-134371281D01*
X155737812Y-133697022D01*
X155723868Y-133689408D01*
X155722035Y-133689539D01*
X155715420Y-133693790D01*
X155037207Y-134372003D01*
X155030777Y-134383777D01*
X99854984Y-134383777D01*
X99846779Y-134377816D01*
X99836206Y-134372003D01*
X99573648Y-134227660D01*
X99573647Y-134227659D01*
X99570179Y-134225753D01*
X99566510Y-134224300D01*
X99566505Y-134224298D01*
X99280372Y-134111010D01*
X99280371Y-134111010D01*
X99276702Y-134109557D01*
X98970975Y-134031060D01*
X98657821Y-133991500D01*
X98342179Y-133991500D01*
X98029025Y-134031060D01*
X97723298Y-134109557D01*
X97719629Y-134111010D01*
X97719628Y-134111010D01*
X97433495Y-134224298D01*
X97433490Y-134224300D01*
X97429821Y-134225753D01*
X97426353Y-134227659D01*
X97426352Y-134227660D01*
X97163795Y-134372003D01*
X97153221Y-134377816D01*
X96897860Y-134563346D01*
X96667767Y-134779418D01*
X96466568Y-135022625D01*
X96297438Y-135289131D01*
X96295754Y-135292710D01*
X96295750Y-135292717D01*
X96169333Y-135561369D01*
X96163044Y-135574734D01*
X96065505Y-135874928D01*
X96006359Y-136184980D01*
X95988833Y-136463559D01*
X95986540Y-136500000D01*
X95508500Y-136500000D01*
X95508500Y-133330475D01*
X154450628Y-133330475D01*
X154469038Y-133540896D01*
X154470941Y-133551691D01*
X154525609Y-133755715D01*
X154529355Y-133766007D01*
X154618623Y-133957441D01*
X154624103Y-133966932D01*
X154654794Y-134010765D01*
X154665271Y-134019140D01*
X154678718Y-134012072D01*
X155352978Y-133337812D01*
X155359356Y-133326132D01*
X156089408Y-133326132D01*
X156089539Y-133327965D01*
X156093790Y-133334580D01*
X156772003Y-134012793D01*
X156783777Y-134019223D01*
X156795793Y-134009926D01*
X156825897Y-133966932D01*
X156831377Y-133957441D01*
X156920645Y-133766007D01*
X156924391Y-133755715D01*
X156979059Y-133551691D01*
X156980962Y-133540896D01*
X156999372Y-133330475D01*
X156999372Y-133325000D01*
X163449647Y-133325000D01*
X163469022Y-133546463D01*
X163526560Y-133761196D01*
X163528882Y-133766177D01*
X163528883Y-133766178D01*
X163618186Y-133957689D01*
X163618189Y-133957694D01*
X163620512Y-133962676D01*
X163623668Y-133967183D01*
X163623669Y-133967185D01*
X163669085Y-134032045D01*
X163748023Y-134144781D01*
X163905219Y-134301977D01*
X163909727Y-134305134D01*
X163909730Y-134305136D01*
X163985495Y-134358187D01*
X164087323Y-134429488D01*
X164092305Y-134431811D01*
X164092310Y-134431814D01*
X164282810Y-134520645D01*
X164288804Y-134523440D01*
X164294112Y-134524862D01*
X164294114Y-134524863D01*
X164359949Y-134542503D01*
X164503537Y-134580978D01*
X164725000Y-134600353D01*
X164946463Y-134580978D01*
X165090051Y-134542503D01*
X165155886Y-134524863D01*
X165155888Y-134524862D01*
X165161196Y-134523440D01*
X165167190Y-134520645D01*
X165357690Y-134431814D01*
X165357695Y-134431811D01*
X165362677Y-134429488D01*
X165464505Y-134358187D01*
X165540270Y-134305136D01*
X165540273Y-134305134D01*
X165544781Y-134301977D01*
X165701977Y-134144781D01*
X165780916Y-134032045D01*
X165826331Y-133967185D01*
X165826332Y-133967183D01*
X165829488Y-133962676D01*
X165831811Y-133957694D01*
X165831814Y-133957689D01*
X165921117Y-133766178D01*
X165921118Y-133766177D01*
X165923440Y-133761196D01*
X165980978Y-133546463D01*
X166000353Y-133325000D01*
X165980978Y-133103537D01*
X165923440Y-132888804D01*
X165921117Y-132883822D01*
X165831814Y-132692311D01*
X165831811Y-132692306D01*
X165829488Y-132687324D01*
X165826331Y-132682815D01*
X165705136Y-132509730D01*
X165705134Y-132509727D01*
X165701977Y-132505219D01*
X165544781Y-132348023D01*
X165540273Y-132344866D01*
X165540270Y-132344864D01*
X165464505Y-132291813D01*
X165362677Y-132220512D01*
X165357695Y-132218189D01*
X165357690Y-132218186D01*
X165166178Y-132128883D01*
X165166177Y-132128882D01*
X165161196Y-132126560D01*
X165155888Y-132125138D01*
X165155886Y-132125137D01*
X165090051Y-132107497D01*
X164946463Y-132069022D01*
X164725000Y-132049647D01*
X164503537Y-132069022D01*
X164359949Y-132107497D01*
X164294114Y-132125137D01*
X164294112Y-132125138D01*
X164288804Y-132126560D01*
X164283823Y-132128882D01*
X164283822Y-132128883D01*
X164092311Y-132218186D01*
X164092306Y-132218189D01*
X164087324Y-132220512D01*
X164082817Y-132223668D01*
X164082815Y-132223669D01*
X163909730Y-132344864D01*
X163909727Y-132344866D01*
X163905219Y-132348023D01*
X163748023Y-132505219D01*
X163744866Y-132509727D01*
X163744864Y-132509730D01*
X163623669Y-132682815D01*
X163620512Y-132687324D01*
X163618189Y-132692306D01*
X163618186Y-132692311D01*
X163528883Y-132883822D01*
X163526560Y-132888804D01*
X163469022Y-133103537D01*
X163449647Y-133325000D01*
X156999372Y-133325000D01*
X156999372Y-133319525D01*
X156980962Y-133109104D01*
X156979059Y-133098309D01*
X156924391Y-132894285D01*
X156920645Y-132883993D01*
X156831377Y-132692559D01*
X156825897Y-132683068D01*
X156795206Y-132639235D01*
X156784729Y-132630860D01*
X156771282Y-132637928D01*
X156097022Y-133312188D01*
X156089408Y-133326132D01*
X155359356Y-133326132D01*
X155360592Y-133323868D01*
X155360461Y-133322035D01*
X155356210Y-133315420D01*
X154677997Y-132637207D01*
X154666223Y-132630777D01*
X154654207Y-132640074D01*
X154624103Y-132683068D01*
X154618623Y-132692559D01*
X154529355Y-132883993D01*
X154525609Y-132894285D01*
X154470941Y-133098309D01*
X154469038Y-133109104D01*
X154450628Y-133319525D01*
X154450628Y-133330475D01*
X95508500Y-133330475D01*
X95508500Y-132265271D01*
X155030860Y-132265271D01*
X155037928Y-132278718D01*
X155712188Y-132952978D01*
X155726132Y-132960592D01*
X155727965Y-132960461D01*
X155734580Y-132956210D01*
X156412793Y-132277997D01*
X156419223Y-132266223D01*
X156409926Y-132254207D01*
X156366931Y-132224102D01*
X156357445Y-132218624D01*
X156166007Y-132129355D01*
X156155715Y-132125609D01*
X155951691Y-132070941D01*
X155940896Y-132069038D01*
X155730475Y-132050628D01*
X155719525Y-132050628D01*
X155509104Y-132069038D01*
X155498309Y-132070941D01*
X155294285Y-132125609D01*
X155283993Y-132129355D01*
X155092559Y-132218623D01*
X155083068Y-132224103D01*
X155039235Y-132254794D01*
X155030860Y-132265271D01*
X95508500Y-132265271D01*
X95508500Y-129984906D01*
X184379839Y-129984906D01*
X184388553Y-129996427D01*
X184495452Y-130074809D01*
X184503351Y-130079745D01*
X184732905Y-130200519D01*
X184741454Y-130204236D01*
X184986327Y-130289749D01*
X184995336Y-130292163D01*
X185250166Y-130340544D01*
X185259423Y-130341598D01*
X185518607Y-130351783D01*
X185527921Y-130351457D01*
X185785753Y-130323220D01*
X185794930Y-130321519D01*
X186045758Y-130255481D01*
X186054574Y-130252445D01*
X186292880Y-130150062D01*
X186301167Y-130145748D01*
X186521718Y-130009266D01*
X186529268Y-130003780D01*
X186534559Y-129999301D01*
X186542997Y-129986497D01*
X186542065Y-129984906D01*
X189459839Y-129984906D01*
X189468553Y-129996427D01*
X189575452Y-130074809D01*
X189583351Y-130079745D01*
X189812905Y-130200519D01*
X189821454Y-130204236D01*
X190066327Y-130289749D01*
X190075336Y-130292163D01*
X190330166Y-130340544D01*
X190339423Y-130341598D01*
X190598607Y-130351783D01*
X190607921Y-130351457D01*
X190865753Y-130323220D01*
X190874930Y-130321519D01*
X191125758Y-130255481D01*
X191134574Y-130252445D01*
X191372880Y-130150062D01*
X191381167Y-130145748D01*
X191601718Y-130009266D01*
X191609268Y-130003780D01*
X191614559Y-129999301D01*
X191622997Y-129986497D01*
X191616935Y-129976145D01*
X190552812Y-128912022D01*
X190538868Y-128904408D01*
X190537035Y-128904539D01*
X190530420Y-128908790D01*
X189466497Y-129972713D01*
X189459839Y-129984906D01*
X186542065Y-129984906D01*
X186536935Y-129976145D01*
X185472812Y-128912022D01*
X185458868Y-128904408D01*
X185457035Y-128904539D01*
X185450420Y-128908790D01*
X184386497Y-129972713D01*
X184379839Y-129984906D01*
X95508500Y-129984906D01*
X95508500Y-128497211D01*
X183647775Y-128497211D01*
X183660220Y-128756288D01*
X183661356Y-128765543D01*
X183711961Y-129019945D01*
X183714449Y-129028917D01*
X183802095Y-129273033D01*
X183805895Y-129281568D01*
X183928658Y-129510042D01*
X183933666Y-129517904D01*
X184003720Y-129611716D01*
X184014979Y-129620165D01*
X184027397Y-129613393D01*
X185087978Y-128552812D01*
X185095592Y-128538868D01*
X185095461Y-128537035D01*
X185091210Y-128530420D01*
X184025816Y-127465026D01*
X184012507Y-127457758D01*
X184002472Y-127464878D01*
X183986937Y-127483556D01*
X183981531Y-127491135D01*
X183846965Y-127712891D01*
X183842736Y-127721192D01*
X183742432Y-127960389D01*
X183739471Y-127969239D01*
X183675628Y-128220625D01*
X183674006Y-128229822D01*
X183648020Y-128487885D01*
X183647775Y-128497211D01*
X95508500Y-128497211D01*
X95508500Y-128086062D01*
X120278493Y-128086062D01*
X120287789Y-128098077D01*
X120338994Y-128133931D01*
X120348489Y-128139414D01*
X120545947Y-128231490D01*
X120556239Y-128235236D01*
X120766688Y-128291625D01*
X120777481Y-128293528D01*
X120994525Y-128312517D01*
X121005475Y-128312517D01*
X121222519Y-128293528D01*
X121233312Y-128291625D01*
X121443761Y-128235236D01*
X121454053Y-128231490D01*
X121651511Y-128139414D01*
X121661006Y-128133931D01*
X121713048Y-128097491D01*
X121721424Y-128087012D01*
X121714356Y-128073566D01*
X121012812Y-127372022D01*
X120998868Y-127364408D01*
X120997035Y-127364539D01*
X120990420Y-127368790D01*
X120284923Y-128074287D01*
X120278493Y-128086062D01*
X95508500Y-128086062D01*
X95508500Y-127005475D01*
X119687483Y-127005475D01*
X119706472Y-127222519D01*
X119708375Y-127233312D01*
X119764764Y-127443761D01*
X119768510Y-127454053D01*
X119860586Y-127651511D01*
X119866069Y-127661006D01*
X119902509Y-127713048D01*
X119912988Y-127721424D01*
X119926434Y-127714356D01*
X120627978Y-127012812D01*
X120634356Y-127001132D01*
X121364408Y-127001132D01*
X121364539Y-127002965D01*
X121368790Y-127009580D01*
X122074287Y-127715077D01*
X122086062Y-127721507D01*
X122098077Y-127712211D01*
X122133931Y-127661006D01*
X122139414Y-127651511D01*
X122231490Y-127454053D01*
X122235236Y-127443761D01*
X122291625Y-127233312D01*
X122293528Y-127222519D01*
X122304887Y-127092689D01*
X184377102Y-127092689D01*
X184381675Y-127102465D01*
X186896094Y-129616884D01*
X186908474Y-129623644D01*
X186916815Y-129617400D01*
X187050832Y-129409048D01*
X187055275Y-129400864D01*
X187161807Y-129164370D01*
X187164997Y-129155605D01*
X187235402Y-128905972D01*
X187237262Y-128896830D01*
X187270187Y-128638019D01*
X187270668Y-128631733D01*
X187272987Y-128543160D01*
X187272836Y-128536851D01*
X187253501Y-128276663D01*
X187252125Y-128267457D01*
X187194878Y-128014467D01*
X187192154Y-128005556D01*
X187098143Y-127763806D01*
X187094132Y-127755397D01*
X187004200Y-127598049D01*
X186987763Y-127528982D01*
X187011276Y-127461992D01*
X187067274Y-127418348D01*
X187137978Y-127411908D01*
X187172260Y-127424018D01*
X187392684Y-127539989D01*
X187392689Y-127539991D01*
X187396834Y-127542172D01*
X187643590Y-127628344D01*
X187648183Y-127629216D01*
X187895785Y-127676224D01*
X187895788Y-127676224D01*
X187900374Y-127677095D01*
X188030958Y-127682226D01*
X188156875Y-127687174D01*
X188156881Y-127687174D01*
X188161543Y-127687357D01*
X188240977Y-127678657D01*
X188416707Y-127659412D01*
X188416712Y-127659411D01*
X188421360Y-127658902D01*
X188534116Y-127629216D01*
X188669594Y-127593548D01*
X188669596Y-127593547D01*
X188674117Y-127592357D01*
X188678416Y-127590510D01*
X188678419Y-127590509D01*
X188756733Y-127556863D01*
X188827217Y-127548351D01*
X188891114Y-127579297D01*
X188928138Y-127639875D01*
X188926533Y-127710854D01*
X188922667Y-127721357D01*
X188822432Y-127960389D01*
X188819471Y-127969239D01*
X188755628Y-128220625D01*
X188754006Y-128229822D01*
X188728020Y-128487885D01*
X188727775Y-128497211D01*
X188740220Y-128756288D01*
X188741356Y-128765543D01*
X188791961Y-129019945D01*
X188794449Y-129028917D01*
X188882095Y-129273033D01*
X188885895Y-129281568D01*
X189008658Y-129510042D01*
X189013666Y-129517904D01*
X189083720Y-129611716D01*
X189094979Y-129620165D01*
X189107397Y-129613393D01*
X190179658Y-128541132D01*
X190904408Y-128541132D01*
X190904539Y-128542965D01*
X190908790Y-128549580D01*
X191976094Y-129616884D01*
X191988474Y-129623644D01*
X191996815Y-129617400D01*
X192130832Y-129409048D01*
X192135275Y-129400864D01*
X192241807Y-129164370D01*
X192244997Y-129155605D01*
X192315402Y-128905972D01*
X192317262Y-128896830D01*
X192350187Y-128638019D01*
X192350668Y-128631733D01*
X192352987Y-128543160D01*
X192352836Y-128536851D01*
X192333501Y-128276663D01*
X192332125Y-128267457D01*
X192274878Y-128014467D01*
X192272154Y-128005556D01*
X192178143Y-127763806D01*
X192174132Y-127755397D01*
X192045422Y-127530202D01*
X192040211Y-127522476D01*
X191996996Y-127467658D01*
X191985071Y-127459187D01*
X191973537Y-127465673D01*
X190912022Y-128527188D01*
X190904408Y-128541132D01*
X190179658Y-128541132D01*
X191614349Y-127106441D01*
X191620733Y-127094751D01*
X191611321Y-127082641D01*
X191464045Y-126980471D01*
X191456010Y-126975738D01*
X191223376Y-126861016D01*
X191214743Y-126857528D01*
X190967703Y-126778450D01*
X190958643Y-126776274D01*
X190702630Y-126734580D01*
X190693343Y-126733768D01*
X190433992Y-126730373D01*
X190424681Y-126730943D01*
X190167682Y-126765919D01*
X190158546Y-126767860D01*
X189909543Y-126840439D01*
X189900806Y-126843705D01*
X189846046Y-126868950D01*
X189775808Y-126879305D01*
X189711122Y-126850043D01*
X189672526Y-126790454D01*
X189672272Y-126719458D01*
X189678412Y-126702774D01*
X189755160Y-126532398D01*
X189755160Y-126532397D01*
X189757083Y-126528129D01*
X189810425Y-126338994D01*
X189826760Y-126281076D01*
X189826761Y-126281073D01*
X189828030Y-126276572D01*
X189844832Y-126144496D01*
X189860616Y-126020421D01*
X189860616Y-126020417D01*
X189861014Y-126017291D01*
X189863431Y-125925000D01*
X189847333Y-125708375D01*
X189844407Y-125669000D01*
X189844406Y-125668996D01*
X189844061Y-125664348D01*
X189832725Y-125614248D01*
X189787408Y-125413980D01*
X189786377Y-125409423D01*
X189769279Y-125365455D01*
X189751594Y-125319976D01*
X189745547Y-125249238D01*
X189778704Y-125186459D01*
X189840538Y-125151573D01*
X189910568Y-125155355D01*
X190066327Y-125209749D01*
X190075336Y-125212163D01*
X190330166Y-125260544D01*
X190339423Y-125261598D01*
X190598607Y-125271783D01*
X190607921Y-125271457D01*
X190865753Y-125243220D01*
X190874930Y-125241519D01*
X191125758Y-125175481D01*
X191134574Y-125172445D01*
X191372880Y-125070062D01*
X191381167Y-125065748D01*
X191601718Y-124929266D01*
X191609268Y-124923780D01*
X191614559Y-124919301D01*
X191622997Y-124906497D01*
X191616935Y-124896145D01*
X190181922Y-123461132D01*
X190904408Y-123461132D01*
X190904539Y-123462965D01*
X190908790Y-123469580D01*
X191976094Y-124536884D01*
X191988474Y-124543644D01*
X191996815Y-124537400D01*
X192130832Y-124329048D01*
X192135275Y-124320864D01*
X192241807Y-124084370D01*
X192244997Y-124075605D01*
X192315402Y-123825972D01*
X192317262Y-123816830D01*
X192350187Y-123558019D01*
X192350668Y-123551733D01*
X192352987Y-123463160D01*
X192352836Y-123456851D01*
X192333501Y-123196663D01*
X192332125Y-123187457D01*
X192274878Y-122934467D01*
X192272154Y-122925556D01*
X192178143Y-122683806D01*
X192174132Y-122675397D01*
X192045422Y-122450202D01*
X192040211Y-122442476D01*
X191996996Y-122387658D01*
X191985071Y-122379187D01*
X191973537Y-122385673D01*
X190912022Y-123447188D01*
X190904408Y-123461132D01*
X190181922Y-123461132D01*
X189105816Y-122385026D01*
X189092507Y-122377758D01*
X189082472Y-122384878D01*
X189066937Y-122403556D01*
X189061531Y-122411135D01*
X188926965Y-122632891D01*
X188922736Y-122641192D01*
X188822432Y-122880389D01*
X188819471Y-122889239D01*
X188755628Y-123140625D01*
X188754006Y-123149822D01*
X188728020Y-123407885D01*
X188727775Y-123417211D01*
X188740220Y-123676288D01*
X188741356Y-123685543D01*
X188791961Y-123939945D01*
X188794449Y-123948917D01*
X188850859Y-124106034D01*
X188855053Y-124176907D01*
X188820264Y-124238796D01*
X188757538Y-124272052D01*
X188693858Y-124268613D01*
X188516123Y-124211720D01*
X188511665Y-124210293D01*
X188253693Y-124168279D01*
X188139942Y-124166790D01*
X187997022Y-124164919D01*
X187997019Y-124164919D01*
X187992345Y-124164858D01*
X187733362Y-124200104D01*
X187482433Y-124273243D01*
X187478180Y-124275203D01*
X187478179Y-124275204D01*
X187276438Y-124368208D01*
X187206201Y-124378563D01*
X187141515Y-124349300D01*
X187102918Y-124289712D01*
X187102665Y-124218716D01*
X187108805Y-124202032D01*
X187161807Y-124084370D01*
X187164997Y-124075605D01*
X187235402Y-123825972D01*
X187237262Y-123816830D01*
X187270187Y-123558019D01*
X187270668Y-123551733D01*
X187272987Y-123463160D01*
X187272836Y-123456851D01*
X187253501Y-123196663D01*
X187252125Y-123187457D01*
X187194878Y-122934467D01*
X187192154Y-122925556D01*
X187098143Y-122683806D01*
X187094132Y-122675397D01*
X186965422Y-122450202D01*
X186960211Y-122442476D01*
X186916996Y-122387658D01*
X186905071Y-122379187D01*
X186893537Y-122385673D01*
X184386497Y-124892713D01*
X184379839Y-124904906D01*
X184388553Y-124916427D01*
X184495452Y-124994809D01*
X184503351Y-124999745D01*
X184732905Y-125120519D01*
X184741454Y-125124236D01*
X184986327Y-125209749D01*
X184995336Y-125212163D01*
X185250166Y-125260544D01*
X185259423Y-125261598D01*
X185518607Y-125271783D01*
X185527921Y-125271457D01*
X185785753Y-125243220D01*
X185794930Y-125241519D01*
X186045758Y-125175481D01*
X186054574Y-125172445D01*
X186292880Y-125070062D01*
X186301170Y-125065746D01*
X186307038Y-125062115D01*
X186375490Y-125043278D01*
X186443259Y-125064440D01*
X186488830Y-125118882D01*
X186497732Y-125189318D01*
X186489536Y-125217984D01*
X186427697Y-125365455D01*
X186363359Y-125618783D01*
X186337173Y-125878839D01*
X186337397Y-125883505D01*
X186337397Y-125883511D01*
X186339459Y-125926434D01*
X186349713Y-126139908D01*
X186400704Y-126396256D01*
X186489026Y-126642252D01*
X186592730Y-126835255D01*
X186607352Y-126904730D01*
X186582093Y-126971081D01*
X186524972Y-127013243D01*
X186454124Y-127017830D01*
X186409916Y-126998419D01*
X186384047Y-126980473D01*
X186376010Y-126975738D01*
X186143376Y-126861016D01*
X186134743Y-126857528D01*
X185887703Y-126778450D01*
X185878643Y-126776274D01*
X185622630Y-126734580D01*
X185613343Y-126733768D01*
X185353992Y-126730373D01*
X185344681Y-126730943D01*
X185087682Y-126765919D01*
X185078546Y-126767860D01*
X184829543Y-126840439D01*
X184820800Y-126843707D01*
X184585252Y-126952296D01*
X184577097Y-126956816D01*
X184386240Y-127081947D01*
X184377102Y-127092689D01*
X122304887Y-127092689D01*
X122312517Y-127005475D01*
X122312517Y-126994525D01*
X122293528Y-126777481D01*
X122291625Y-126766688D01*
X122235236Y-126556239D01*
X122231490Y-126545947D01*
X122139414Y-126348489D01*
X122133931Y-126338994D01*
X122097491Y-126286952D01*
X122087012Y-126278576D01*
X122073566Y-126285644D01*
X121372022Y-126987188D01*
X121364408Y-127001132D01*
X120634356Y-127001132D01*
X120635592Y-126998868D01*
X120635461Y-126997035D01*
X120631210Y-126990420D01*
X119925713Y-126284923D01*
X119913938Y-126278493D01*
X119901923Y-126287789D01*
X119866069Y-126338994D01*
X119860586Y-126348489D01*
X119768510Y-126545947D01*
X119764764Y-126556239D01*
X119708375Y-126766688D01*
X119706472Y-126777481D01*
X119687483Y-126994525D01*
X119687483Y-127005475D01*
X95508500Y-127005475D01*
X95508500Y-125912988D01*
X120278576Y-125912988D01*
X120285644Y-125926434D01*
X120987188Y-126627978D01*
X121001132Y-126635592D01*
X121002965Y-126635461D01*
X121009580Y-126631210D01*
X121715077Y-125925713D01*
X121721507Y-125913938D01*
X121712211Y-125901923D01*
X121661006Y-125866069D01*
X121651511Y-125860586D01*
X121454053Y-125768510D01*
X121443761Y-125764764D01*
X121233312Y-125708375D01*
X121222519Y-125706472D01*
X121005475Y-125687483D01*
X120994525Y-125687483D01*
X120777481Y-125706472D01*
X120766688Y-125708375D01*
X120556239Y-125764764D01*
X120545947Y-125768510D01*
X120348489Y-125860586D01*
X120338994Y-125866069D01*
X120286952Y-125902509D01*
X120278576Y-125912988D01*
X95508500Y-125912988D01*
X95508500Y-124348134D01*
X119691500Y-124348134D01*
X119698255Y-124410316D01*
X119749385Y-124546705D01*
X119836739Y-124663261D01*
X119953295Y-124750615D01*
X120089684Y-124801745D01*
X120151866Y-124808500D01*
X121848134Y-124808500D01*
X121910316Y-124801745D01*
X122046705Y-124750615D01*
X122163261Y-124663261D01*
X122250615Y-124546705D01*
X122301745Y-124410316D01*
X122308500Y-124348134D01*
X122308500Y-123417211D01*
X183647775Y-123417211D01*
X183660220Y-123676288D01*
X183661356Y-123685543D01*
X183711961Y-123939945D01*
X183714449Y-123948917D01*
X183802095Y-124193033D01*
X183805895Y-124201568D01*
X183928658Y-124430042D01*
X183933666Y-124437904D01*
X184003720Y-124531716D01*
X184014979Y-124540165D01*
X184027397Y-124533393D01*
X185087978Y-123472812D01*
X185095592Y-123458868D01*
X185095461Y-123457035D01*
X185091210Y-123450420D01*
X184025816Y-122385026D01*
X184012507Y-122377758D01*
X184002472Y-122384878D01*
X183986937Y-122403556D01*
X183981531Y-122411135D01*
X183846965Y-122632891D01*
X183842736Y-122641192D01*
X183742432Y-122880389D01*
X183739471Y-122889239D01*
X183675628Y-123140625D01*
X183674006Y-123149822D01*
X183648020Y-123407885D01*
X183647775Y-123417211D01*
X122308500Y-123417211D01*
X122308500Y-122651866D01*
X122301745Y-122589684D01*
X122250615Y-122453295D01*
X122163261Y-122336739D01*
X122046705Y-122249385D01*
X121910316Y-122198255D01*
X121848134Y-122191500D01*
X120151866Y-122191500D01*
X120089684Y-122198255D01*
X119953295Y-122249385D01*
X119836739Y-122336739D01*
X119749385Y-122453295D01*
X119698255Y-122589684D01*
X119691500Y-122651866D01*
X119691500Y-124348134D01*
X95508500Y-124348134D01*
X95508500Y-122333411D01*
X110328493Y-122333411D01*
X110337789Y-122345426D01*
X110388994Y-122381280D01*
X110398489Y-122386763D01*
X110595947Y-122478839D01*
X110606239Y-122482585D01*
X110816688Y-122538974D01*
X110827481Y-122540877D01*
X111044525Y-122559866D01*
X111055475Y-122559866D01*
X111272519Y-122540877D01*
X111283312Y-122538974D01*
X111493761Y-122482585D01*
X111504053Y-122478839D01*
X111701511Y-122386763D01*
X111711006Y-122381280D01*
X111763048Y-122344840D01*
X111771424Y-122334361D01*
X111764356Y-122320915D01*
X111062812Y-121619371D01*
X111048868Y-121611757D01*
X111047035Y-121611888D01*
X111040420Y-121616139D01*
X110334923Y-122321636D01*
X110328493Y-122333411D01*
X95508500Y-122333411D01*
X95508500Y-121404853D01*
X98239977Y-121404853D01*
X98245258Y-121411907D01*
X98406756Y-121506279D01*
X98416042Y-121510729D01*
X98615001Y-121586703D01*
X98624899Y-121589579D01*
X98833595Y-121632038D01*
X98843823Y-121633257D01*
X99056650Y-121641062D01*
X99066936Y-121640595D01*
X99278185Y-121613534D01*
X99288262Y-121611392D01*
X99492255Y-121550191D01*
X99501842Y-121546433D01*
X99693098Y-121452738D01*
X99701944Y-121447465D01*
X99749247Y-121413723D01*
X99756211Y-121404853D01*
X100779977Y-121404853D01*
X100785258Y-121411907D01*
X100946756Y-121506279D01*
X100956042Y-121510729D01*
X101155001Y-121586703D01*
X101164899Y-121589579D01*
X101373595Y-121632038D01*
X101383823Y-121633257D01*
X101596650Y-121641062D01*
X101606936Y-121640595D01*
X101818185Y-121613534D01*
X101828262Y-121611392D01*
X102032255Y-121550191D01*
X102041842Y-121546433D01*
X102233098Y-121452738D01*
X102241944Y-121447465D01*
X102289247Y-121413723D01*
X102297648Y-121403023D01*
X102290660Y-121389870D01*
X102153614Y-121252824D01*
X109737483Y-121252824D01*
X109756472Y-121469868D01*
X109758375Y-121480661D01*
X109814764Y-121691110D01*
X109818510Y-121701402D01*
X109910586Y-121898860D01*
X109916069Y-121908355D01*
X109952509Y-121960397D01*
X109962988Y-121968773D01*
X109976434Y-121961705D01*
X110677978Y-121260161D01*
X110684356Y-121248481D01*
X111414408Y-121248481D01*
X111414539Y-121250314D01*
X111418790Y-121256929D01*
X112124287Y-121962426D01*
X112136062Y-121968856D01*
X112148077Y-121959560D01*
X112183931Y-121908355D01*
X112189414Y-121898860D01*
X112281490Y-121701402D01*
X112285236Y-121691110D01*
X112341625Y-121480661D01*
X112343528Y-121469868D01*
X112356202Y-121325000D01*
X153449647Y-121325000D01*
X153469022Y-121546463D01*
X153526560Y-121761196D01*
X153528882Y-121766177D01*
X153528883Y-121766178D01*
X153618186Y-121957689D01*
X153618189Y-121957694D01*
X153620512Y-121962676D01*
X153623668Y-121967183D01*
X153623669Y-121967185D01*
X153665161Y-122026441D01*
X153748023Y-122144781D01*
X153905219Y-122301977D01*
X153909727Y-122305134D01*
X153909730Y-122305136D01*
X153967270Y-122345426D01*
X154087323Y-122429488D01*
X154092305Y-122431811D01*
X154092310Y-122431814D01*
X154283822Y-122521117D01*
X154288804Y-122523440D01*
X154294112Y-122524862D01*
X154294114Y-122524863D01*
X154346777Y-122538974D01*
X154503537Y-122580978D01*
X154725000Y-122600353D01*
X154946463Y-122580978D01*
X155103223Y-122538974D01*
X155155886Y-122524863D01*
X155155888Y-122524862D01*
X155161196Y-122523440D01*
X155166178Y-122521117D01*
X155357690Y-122431814D01*
X155357695Y-122431811D01*
X155362677Y-122429488D01*
X155482730Y-122345426D01*
X155540270Y-122305136D01*
X155540273Y-122305134D01*
X155544781Y-122301977D01*
X155701977Y-122144781D01*
X155784840Y-122026441D01*
X155826331Y-121967185D01*
X155826332Y-121967183D01*
X155829488Y-121962676D01*
X155831811Y-121957694D01*
X155831814Y-121957689D01*
X155921117Y-121766178D01*
X155921118Y-121766177D01*
X155923440Y-121761196D01*
X155980978Y-121546463D01*
X156000353Y-121325000D01*
X156449647Y-121325000D01*
X156469022Y-121546463D01*
X156526560Y-121761196D01*
X156528882Y-121766177D01*
X156528883Y-121766178D01*
X156618186Y-121957689D01*
X156618189Y-121957694D01*
X156620512Y-121962676D01*
X156623668Y-121967183D01*
X156623669Y-121967185D01*
X156665161Y-122026441D01*
X156748023Y-122144781D01*
X156905219Y-122301977D01*
X156909727Y-122305134D01*
X156909730Y-122305136D01*
X156967270Y-122345426D01*
X157087323Y-122429488D01*
X157092305Y-122431811D01*
X157092310Y-122431814D01*
X157283822Y-122521117D01*
X157288804Y-122523440D01*
X157294112Y-122524862D01*
X157294114Y-122524863D01*
X157346777Y-122538974D01*
X157503537Y-122580978D01*
X157725000Y-122600353D01*
X157946463Y-122580978D01*
X158103223Y-122538974D01*
X158155886Y-122524863D01*
X158155888Y-122524862D01*
X158161196Y-122523440D01*
X158166178Y-122521117D01*
X158357690Y-122431814D01*
X158357695Y-122431811D01*
X158362677Y-122429488D01*
X158482730Y-122345426D01*
X158540270Y-122305136D01*
X158540273Y-122305134D01*
X158544781Y-122301977D01*
X158701977Y-122144781D01*
X158784840Y-122026441D01*
X158826331Y-121967185D01*
X158826332Y-121967183D01*
X158829488Y-121962676D01*
X158831811Y-121957694D01*
X158831814Y-121957689D01*
X158921117Y-121766178D01*
X158921118Y-121766177D01*
X158923440Y-121761196D01*
X158980978Y-121546463D01*
X159000353Y-121325000D01*
X161449647Y-121325000D01*
X161469022Y-121546463D01*
X161526560Y-121761196D01*
X161528882Y-121766177D01*
X161528883Y-121766178D01*
X161618186Y-121957689D01*
X161618189Y-121957694D01*
X161620512Y-121962676D01*
X161623668Y-121967183D01*
X161623669Y-121967185D01*
X161665161Y-122026441D01*
X161748023Y-122144781D01*
X161905219Y-122301977D01*
X161909727Y-122305134D01*
X161909730Y-122305136D01*
X161967270Y-122345426D01*
X162087323Y-122429488D01*
X162092305Y-122431811D01*
X162092310Y-122431814D01*
X162283822Y-122521117D01*
X162288804Y-122523440D01*
X162294112Y-122524862D01*
X162294114Y-122524863D01*
X162346777Y-122538974D01*
X162503537Y-122580978D01*
X162725000Y-122600353D01*
X162946463Y-122580978D01*
X163103223Y-122538974D01*
X163155886Y-122524863D01*
X163155888Y-122524862D01*
X163161196Y-122523440D01*
X163166178Y-122521117D01*
X163357690Y-122431814D01*
X163357695Y-122431811D01*
X163362677Y-122429488D01*
X163482730Y-122345426D01*
X163540270Y-122305136D01*
X163540273Y-122305134D01*
X163544781Y-122301977D01*
X163701977Y-122144781D01*
X163784840Y-122026441D01*
X163826331Y-121967185D01*
X163826332Y-121967183D01*
X163829488Y-121962676D01*
X163831811Y-121957694D01*
X163831814Y-121957689D01*
X163921117Y-121766178D01*
X163921118Y-121766177D01*
X163923440Y-121761196D01*
X163980978Y-121546463D01*
X164000353Y-121325000D01*
X164449647Y-121325000D01*
X164469022Y-121546463D01*
X164526560Y-121761196D01*
X164528882Y-121766177D01*
X164528883Y-121766178D01*
X164618186Y-121957689D01*
X164618189Y-121957694D01*
X164620512Y-121962676D01*
X164623668Y-121967183D01*
X164623669Y-121967185D01*
X164665161Y-122026441D01*
X164748023Y-122144781D01*
X164905219Y-122301977D01*
X164909727Y-122305134D01*
X164909730Y-122305136D01*
X164967270Y-122345426D01*
X165087323Y-122429488D01*
X165092305Y-122431811D01*
X165092310Y-122431814D01*
X165283822Y-122521117D01*
X165288804Y-122523440D01*
X165294112Y-122524862D01*
X165294114Y-122524863D01*
X165346777Y-122538974D01*
X165503537Y-122580978D01*
X165725000Y-122600353D01*
X165946463Y-122580978D01*
X166103223Y-122538974D01*
X166155886Y-122524863D01*
X166155888Y-122524862D01*
X166161196Y-122523440D01*
X166166178Y-122521117D01*
X166357690Y-122431814D01*
X166357695Y-122431811D01*
X166362677Y-122429488D01*
X166482730Y-122345426D01*
X166540270Y-122305136D01*
X166540273Y-122305134D01*
X166544781Y-122301977D01*
X166701977Y-122144781D01*
X166784840Y-122026441D01*
X166794469Y-122012689D01*
X184377102Y-122012689D01*
X184381675Y-122022465D01*
X185447188Y-123087978D01*
X185461132Y-123095592D01*
X185462965Y-123095461D01*
X185469580Y-123091210D01*
X186534349Y-122026441D01*
X186540733Y-122014751D01*
X186539130Y-122012689D01*
X189457102Y-122012689D01*
X189461675Y-122022465D01*
X190527188Y-123087978D01*
X190541132Y-123095592D01*
X190542965Y-123095461D01*
X190549580Y-123091210D01*
X191614349Y-122026441D01*
X191620733Y-122014751D01*
X191611321Y-122002641D01*
X191464045Y-121900471D01*
X191456010Y-121895738D01*
X191223376Y-121781016D01*
X191214743Y-121777528D01*
X190967703Y-121698450D01*
X190958643Y-121696274D01*
X190702630Y-121654580D01*
X190693343Y-121653768D01*
X190433992Y-121650373D01*
X190424681Y-121650943D01*
X190167682Y-121685919D01*
X190158546Y-121687860D01*
X189909543Y-121760439D01*
X189900800Y-121763707D01*
X189665252Y-121872296D01*
X189657097Y-121876816D01*
X189466240Y-122001947D01*
X189457102Y-122012689D01*
X186539130Y-122012689D01*
X186531321Y-122002641D01*
X186384045Y-121900471D01*
X186376010Y-121895738D01*
X186143376Y-121781016D01*
X186134743Y-121777528D01*
X185887703Y-121698450D01*
X185878643Y-121696274D01*
X185622630Y-121654580D01*
X185613343Y-121653768D01*
X185353992Y-121650373D01*
X185344681Y-121650943D01*
X185087682Y-121685919D01*
X185078546Y-121687860D01*
X184829543Y-121760439D01*
X184820800Y-121763707D01*
X184585252Y-121872296D01*
X184577097Y-121876816D01*
X184386240Y-122001947D01*
X184377102Y-122012689D01*
X166794469Y-122012689D01*
X166826331Y-121967185D01*
X166826332Y-121967183D01*
X166829488Y-121962676D01*
X166831811Y-121957694D01*
X166831814Y-121957689D01*
X166921117Y-121766178D01*
X166921118Y-121766177D01*
X166923440Y-121761196D01*
X166980978Y-121546463D01*
X167000353Y-121325000D01*
X166980978Y-121103537D01*
X166923440Y-120888804D01*
X166871152Y-120776672D01*
X166831814Y-120692311D01*
X166831811Y-120692306D01*
X166829488Y-120687324D01*
X166826331Y-120682815D01*
X166705136Y-120509730D01*
X166705134Y-120509727D01*
X166701977Y-120505219D01*
X166544781Y-120348023D01*
X166540273Y-120344866D01*
X166540270Y-120344864D01*
X166429337Y-120267188D01*
X166362677Y-120220512D01*
X166357695Y-120218189D01*
X166357690Y-120218186D01*
X166166178Y-120128883D01*
X166166177Y-120128882D01*
X166161196Y-120126560D01*
X166155888Y-120125138D01*
X166155886Y-120125137D01*
X166090051Y-120107497D01*
X165946463Y-120069022D01*
X165725000Y-120049647D01*
X165503537Y-120069022D01*
X165359949Y-120107497D01*
X165294114Y-120125137D01*
X165294112Y-120125138D01*
X165288804Y-120126560D01*
X165283823Y-120128882D01*
X165283822Y-120128883D01*
X165092311Y-120218186D01*
X165092306Y-120218189D01*
X165087324Y-120220512D01*
X165082817Y-120223668D01*
X165082815Y-120223669D01*
X164909730Y-120344864D01*
X164909727Y-120344866D01*
X164905219Y-120348023D01*
X164748023Y-120505219D01*
X164744866Y-120509727D01*
X164744864Y-120509730D01*
X164623669Y-120682815D01*
X164620512Y-120687324D01*
X164618189Y-120692306D01*
X164618186Y-120692311D01*
X164578848Y-120776672D01*
X164526560Y-120888804D01*
X164469022Y-121103537D01*
X164449647Y-121325000D01*
X164000353Y-121325000D01*
X163980978Y-121103537D01*
X163923440Y-120888804D01*
X163871152Y-120776672D01*
X163831814Y-120692311D01*
X163831811Y-120692306D01*
X163829488Y-120687324D01*
X163826331Y-120682815D01*
X163705136Y-120509730D01*
X163705134Y-120509727D01*
X163701977Y-120505219D01*
X163544781Y-120348023D01*
X163540273Y-120344866D01*
X163540270Y-120344864D01*
X163429337Y-120267188D01*
X163362677Y-120220512D01*
X163357695Y-120218189D01*
X163357690Y-120218186D01*
X163166178Y-120128883D01*
X163166177Y-120128882D01*
X163161196Y-120126560D01*
X163155888Y-120125138D01*
X163155886Y-120125137D01*
X163090051Y-120107497D01*
X162946463Y-120069022D01*
X162725000Y-120049647D01*
X162503537Y-120069022D01*
X162359949Y-120107497D01*
X162294114Y-120125137D01*
X162294112Y-120125138D01*
X162288804Y-120126560D01*
X162283823Y-120128882D01*
X162283822Y-120128883D01*
X162092311Y-120218186D01*
X162092306Y-120218189D01*
X162087324Y-120220512D01*
X162082817Y-120223668D01*
X162082815Y-120223669D01*
X161909730Y-120344864D01*
X161909727Y-120344866D01*
X161905219Y-120348023D01*
X161748023Y-120505219D01*
X161744866Y-120509727D01*
X161744864Y-120509730D01*
X161623669Y-120682815D01*
X161620512Y-120687324D01*
X161618189Y-120692306D01*
X161618186Y-120692311D01*
X161578848Y-120776672D01*
X161526560Y-120888804D01*
X161469022Y-121103537D01*
X161449647Y-121325000D01*
X159000353Y-121325000D01*
X158980978Y-121103537D01*
X158923440Y-120888804D01*
X158871152Y-120776672D01*
X158831814Y-120692311D01*
X158831811Y-120692306D01*
X158829488Y-120687324D01*
X158826331Y-120682815D01*
X158705136Y-120509730D01*
X158705134Y-120509727D01*
X158701977Y-120505219D01*
X158544781Y-120348023D01*
X158540273Y-120344866D01*
X158540270Y-120344864D01*
X158429337Y-120267188D01*
X158362677Y-120220512D01*
X158357695Y-120218189D01*
X158357690Y-120218186D01*
X158166178Y-120128883D01*
X158166177Y-120128882D01*
X158161196Y-120126560D01*
X158155888Y-120125138D01*
X158155886Y-120125137D01*
X158090051Y-120107497D01*
X157946463Y-120069022D01*
X157725000Y-120049647D01*
X157503537Y-120069022D01*
X157359949Y-120107497D01*
X157294114Y-120125137D01*
X157294112Y-120125138D01*
X157288804Y-120126560D01*
X157283823Y-120128882D01*
X157283822Y-120128883D01*
X157092311Y-120218186D01*
X157092306Y-120218189D01*
X157087324Y-120220512D01*
X157082817Y-120223668D01*
X157082815Y-120223669D01*
X156909730Y-120344864D01*
X156909727Y-120344866D01*
X156905219Y-120348023D01*
X156748023Y-120505219D01*
X156744866Y-120509727D01*
X156744864Y-120509730D01*
X156623669Y-120682815D01*
X156620512Y-120687324D01*
X156618189Y-120692306D01*
X156618186Y-120692311D01*
X156578848Y-120776672D01*
X156526560Y-120888804D01*
X156469022Y-121103537D01*
X156449647Y-121325000D01*
X156000353Y-121325000D01*
X155980978Y-121103537D01*
X155923440Y-120888804D01*
X155871152Y-120776672D01*
X155831814Y-120692311D01*
X155831811Y-120692306D01*
X155829488Y-120687324D01*
X155826331Y-120682815D01*
X155705136Y-120509730D01*
X155705134Y-120509727D01*
X155701977Y-120505219D01*
X155544781Y-120348023D01*
X155540273Y-120344866D01*
X155540270Y-120344864D01*
X155429337Y-120267188D01*
X155362677Y-120220512D01*
X155357695Y-120218189D01*
X155357690Y-120218186D01*
X155166178Y-120128883D01*
X155166177Y-120128882D01*
X155161196Y-120126560D01*
X155155888Y-120125138D01*
X155155886Y-120125137D01*
X155090051Y-120107497D01*
X154946463Y-120069022D01*
X154725000Y-120049647D01*
X154503537Y-120069022D01*
X154359949Y-120107497D01*
X154294114Y-120125137D01*
X154294112Y-120125138D01*
X154288804Y-120126560D01*
X154283823Y-120128882D01*
X154283822Y-120128883D01*
X154092311Y-120218186D01*
X154092306Y-120218189D01*
X154087324Y-120220512D01*
X154082817Y-120223668D01*
X154082815Y-120223669D01*
X153909730Y-120344864D01*
X153909727Y-120344866D01*
X153905219Y-120348023D01*
X153748023Y-120505219D01*
X153744866Y-120509727D01*
X153744864Y-120509730D01*
X153623669Y-120682815D01*
X153620512Y-120687324D01*
X153618189Y-120692306D01*
X153618186Y-120692311D01*
X153578848Y-120776672D01*
X153526560Y-120888804D01*
X153469022Y-121103537D01*
X153449647Y-121325000D01*
X112356202Y-121325000D01*
X112362517Y-121252824D01*
X112362517Y-121241874D01*
X112343528Y-121024830D01*
X112341625Y-121014037D01*
X112285236Y-120803588D01*
X112281490Y-120793296D01*
X112189414Y-120595838D01*
X112183931Y-120586343D01*
X112147491Y-120534301D01*
X112137012Y-120525925D01*
X112123566Y-120532993D01*
X111422022Y-121234537D01*
X111414408Y-121248481D01*
X110684356Y-121248481D01*
X110685592Y-121246217D01*
X110685461Y-121244384D01*
X110681210Y-121237769D01*
X109975713Y-120532272D01*
X109963938Y-120525842D01*
X109951923Y-120535138D01*
X109916069Y-120586343D01*
X109910586Y-120595838D01*
X109818510Y-120793296D01*
X109814764Y-120803588D01*
X109758375Y-121014037D01*
X109756472Y-121024830D01*
X109737483Y-121241874D01*
X109737483Y-121252824D01*
X102153614Y-121252824D01*
X101552812Y-120652022D01*
X101538868Y-120644408D01*
X101537035Y-120644539D01*
X101530420Y-120648790D01*
X100786737Y-121392473D01*
X100779977Y-121404853D01*
X99756211Y-121404853D01*
X99757648Y-121403023D01*
X99750660Y-121389870D01*
X99012812Y-120652022D01*
X98998868Y-120644408D01*
X98997035Y-120644539D01*
X98990420Y-120648790D01*
X98246737Y-121392473D01*
X98239977Y-121404853D01*
X95508500Y-121404853D01*
X95508500Y-120251863D01*
X97638050Y-120251863D01*
X97650309Y-120464477D01*
X97651745Y-120474697D01*
X97698565Y-120682446D01*
X97701645Y-120692275D01*
X97781770Y-120889603D01*
X97786413Y-120898794D01*
X97866460Y-121029420D01*
X97876916Y-121038880D01*
X97885694Y-121035096D01*
X98627978Y-120292812D01*
X98634356Y-120281132D01*
X99364408Y-120281132D01*
X99364539Y-120282965D01*
X99368790Y-120289580D01*
X100110474Y-121031264D01*
X100122484Y-121037823D01*
X100134223Y-121028855D01*
X100168022Y-120981819D01*
X100169149Y-120982629D01*
X100216659Y-120938881D01*
X100286596Y-120926661D01*
X100352038Y-120954191D01*
X100379870Y-120986029D01*
X100406459Y-121029419D01*
X100416916Y-121038880D01*
X100425694Y-121035096D01*
X101167978Y-120292812D01*
X101174356Y-120281132D01*
X101904408Y-120281132D01*
X101904539Y-120282965D01*
X101908790Y-120289580D01*
X102650474Y-121031264D01*
X102662484Y-121037823D01*
X102674223Y-121028855D01*
X102705004Y-120986019D01*
X102710315Y-120977180D01*
X102804670Y-120786267D01*
X102808469Y-120776672D01*
X102870376Y-120572915D01*
X102872555Y-120562834D01*
X102900590Y-120349887D01*
X102901109Y-120343212D01*
X102902572Y-120283364D01*
X102902378Y-120276646D01*
X102892816Y-120160337D01*
X110328576Y-120160337D01*
X110335644Y-120173783D01*
X111037188Y-120875327D01*
X111051132Y-120882941D01*
X111052965Y-120882810D01*
X111059580Y-120878559D01*
X111765077Y-120173062D01*
X111771507Y-120161287D01*
X111762211Y-120149272D01*
X111711006Y-120113418D01*
X111701511Y-120107935D01*
X111504053Y-120015859D01*
X111493761Y-120012113D01*
X111283312Y-119955724D01*
X111272519Y-119953821D01*
X111055475Y-119934832D01*
X111044525Y-119934832D01*
X110827481Y-119953821D01*
X110816688Y-119955724D01*
X110606239Y-120012113D01*
X110595947Y-120015859D01*
X110398489Y-120107935D01*
X110388994Y-120113418D01*
X110336952Y-120149858D01*
X110328576Y-120160337D01*
X102892816Y-120160337D01*
X102884781Y-120062604D01*
X102883096Y-120052424D01*
X102831214Y-119845875D01*
X102827894Y-119836124D01*
X102742972Y-119640814D01*
X102738105Y-119631739D01*
X102673063Y-119531197D01*
X102662377Y-119521995D01*
X102652812Y-119526398D01*
X101912022Y-120267188D01*
X101904408Y-120281132D01*
X101174356Y-120281132D01*
X101175592Y-120278868D01*
X101175461Y-120277035D01*
X101171210Y-120270420D01*
X100429849Y-119529059D01*
X100418313Y-119522759D01*
X100406028Y-119532384D01*
X100373192Y-119580520D01*
X100318281Y-119625523D01*
X100247756Y-119633694D01*
X100184009Y-119602440D01*
X100163311Y-119577955D01*
X100133062Y-119531197D01*
X100122377Y-119521995D01*
X100112812Y-119526398D01*
X99372022Y-120267188D01*
X99364408Y-120281132D01*
X98634356Y-120281132D01*
X98635592Y-120278868D01*
X98635461Y-120277035D01*
X98631210Y-120270420D01*
X97889849Y-119529059D01*
X97878313Y-119522759D01*
X97866031Y-119532382D01*
X97818089Y-119602662D01*
X97813004Y-119611613D01*
X97723338Y-119804783D01*
X97719775Y-119814470D01*
X97662864Y-120019681D01*
X97660933Y-120029800D01*
X97638302Y-120241574D01*
X97638050Y-120251863D01*
X95508500Y-120251863D01*
X95508500Y-117706695D01*
X97637251Y-117706695D01*
X97637548Y-117711848D01*
X97637548Y-117711851D01*
X97643011Y-117806590D01*
X97650110Y-117929715D01*
X97651247Y-117934761D01*
X97651248Y-117934767D01*
X97671119Y-118022939D01*
X97699222Y-118147639D01*
X97783266Y-118354616D01*
X97834019Y-118437438D01*
X97897291Y-118540688D01*
X97899987Y-118545088D01*
X98046250Y-118713938D01*
X98218126Y-118856632D01*
X98291955Y-118899774D01*
X98340679Y-118951412D01*
X98353750Y-119021195D01*
X98327019Y-119086967D01*
X98286562Y-119120327D01*
X98278460Y-119124544D01*
X98269734Y-119130039D01*
X98249677Y-119145099D01*
X98241223Y-119156427D01*
X98247968Y-119168758D01*
X98987188Y-119907978D01*
X99001132Y-119915592D01*
X99002965Y-119915461D01*
X99009580Y-119911210D01*
X99753389Y-119167401D01*
X99760410Y-119154544D01*
X99753611Y-119145213D01*
X99749559Y-119142521D01*
X99712602Y-119122120D01*
X99662631Y-119071687D01*
X99647859Y-119002245D01*
X99672975Y-118935839D01*
X99700327Y-118909232D01*
X99723797Y-118892491D01*
X99879860Y-118781173D01*
X100038096Y-118623489D01*
X100097594Y-118540689D01*
X100168453Y-118442077D01*
X100169776Y-118443028D01*
X100216645Y-118399857D01*
X100286580Y-118387625D01*
X100352026Y-118415144D01*
X100379875Y-118446994D01*
X100439987Y-118545088D01*
X100586250Y-118713938D01*
X100758126Y-118856632D01*
X100831955Y-118899774D01*
X100880679Y-118951412D01*
X100893750Y-119021195D01*
X100867019Y-119086967D01*
X100826562Y-119120327D01*
X100818460Y-119124544D01*
X100809734Y-119130039D01*
X100789677Y-119145099D01*
X100781223Y-119156427D01*
X100787968Y-119168758D01*
X101527188Y-119907978D01*
X101541132Y-119915592D01*
X101542965Y-119915461D01*
X101549580Y-119911210D01*
X102293389Y-119167401D01*
X102300410Y-119154544D01*
X102293611Y-119145213D01*
X102289559Y-119142521D01*
X102252602Y-119122120D01*
X102202631Y-119071687D01*
X102187859Y-119002245D01*
X102212975Y-118935839D01*
X102240327Y-118909232D01*
X102263797Y-118892491D01*
X102419860Y-118781173D01*
X102578096Y-118623489D01*
X102598220Y-118595483D01*
X109741500Y-118595483D01*
X109748255Y-118657665D01*
X109799385Y-118794054D01*
X109886739Y-118910610D01*
X110003295Y-118997964D01*
X110139684Y-119049094D01*
X110201866Y-119055849D01*
X111898134Y-119055849D01*
X111960316Y-119049094D01*
X112096705Y-118997964D01*
X112213261Y-118910610D01*
X112300615Y-118794054D01*
X112351745Y-118657665D01*
X112358500Y-118595483D01*
X112358500Y-116899215D01*
X112351745Y-116837033D01*
X112300615Y-116700644D01*
X112213261Y-116584088D01*
X112096705Y-116496734D01*
X111960316Y-116445604D01*
X111898134Y-116438849D01*
X110201866Y-116438849D01*
X110139684Y-116445604D01*
X110003295Y-116496734D01*
X109886739Y-116584088D01*
X109799385Y-116700644D01*
X109748255Y-116837033D01*
X109741500Y-116899215D01*
X109741500Y-118595483D01*
X102598220Y-118595483D01*
X102637594Y-118540689D01*
X102705435Y-118446277D01*
X102708453Y-118442077D01*
X102729320Y-118399857D01*
X102805136Y-118246453D01*
X102805137Y-118246451D01*
X102807430Y-118241811D01*
X102872370Y-118028069D01*
X102901529Y-117806590D01*
X102903156Y-117740000D01*
X102884852Y-117517361D01*
X102830431Y-117300702D01*
X102741354Y-117095840D01*
X102620014Y-116908277D01*
X102469670Y-116743051D01*
X102465619Y-116739852D01*
X102465615Y-116739848D01*
X102298414Y-116607800D01*
X102298410Y-116607798D01*
X102294359Y-116604598D01*
X102252569Y-116581529D01*
X102202598Y-116531097D01*
X102187826Y-116461654D01*
X102212942Y-116395248D01*
X102240293Y-116368642D01*
X102289247Y-116333723D01*
X102297648Y-116323023D01*
X102290660Y-116309870D01*
X102286740Y-116305950D01*
X157453493Y-116305950D01*
X157462789Y-116317965D01*
X157513994Y-116353819D01*
X157523489Y-116359302D01*
X157720947Y-116451378D01*
X157731239Y-116455124D01*
X157941688Y-116511513D01*
X157952481Y-116513416D01*
X158169525Y-116532405D01*
X158180475Y-116532405D01*
X158397519Y-116513416D01*
X158408312Y-116511513D01*
X158618761Y-116455124D01*
X158629053Y-116451378D01*
X158661898Y-116436062D01*
X183728493Y-116436062D01*
X183737789Y-116448077D01*
X183788994Y-116483931D01*
X183798489Y-116489414D01*
X183995947Y-116581490D01*
X184006239Y-116585236D01*
X184216688Y-116641625D01*
X184227481Y-116643528D01*
X184444525Y-116662517D01*
X184455475Y-116662517D01*
X184672519Y-116643528D01*
X184683312Y-116641625D01*
X184893761Y-116585236D01*
X184904053Y-116581490D01*
X185101511Y-116489414D01*
X185111006Y-116483931D01*
X185163048Y-116447491D01*
X185171424Y-116437012D01*
X185164356Y-116423566D01*
X184462812Y-115722022D01*
X184448868Y-115714408D01*
X184447035Y-115714539D01*
X184440420Y-115718790D01*
X183734923Y-116424287D01*
X183728493Y-116436062D01*
X158661898Y-116436062D01*
X158826511Y-116359302D01*
X158836006Y-116353819D01*
X158888048Y-116317379D01*
X158896424Y-116306900D01*
X158889356Y-116293454D01*
X158187812Y-115591910D01*
X158173868Y-115584296D01*
X158172035Y-115584427D01*
X158165420Y-115588678D01*
X157459923Y-116294175D01*
X157453493Y-116305950D01*
X102286740Y-116305950D01*
X101552812Y-115572022D01*
X101538868Y-115564408D01*
X101537035Y-115564539D01*
X101530420Y-115568790D01*
X100786737Y-116312473D01*
X100779977Y-116324853D01*
X100785258Y-116331907D01*
X100831969Y-116359203D01*
X100880693Y-116410841D01*
X100893764Y-116480624D01*
X100867033Y-116546396D01*
X100826584Y-116579752D01*
X100813607Y-116586507D01*
X100809474Y-116589610D01*
X100809471Y-116589612D01*
X100650392Y-116709052D01*
X100634965Y-116720635D01*
X100480629Y-116882138D01*
X100373201Y-117039621D01*
X100318293Y-117084621D01*
X100247768Y-117092792D01*
X100184021Y-117061538D01*
X100163324Y-117037054D01*
X100082822Y-116912617D01*
X100082820Y-116912614D01*
X100080014Y-116908277D01*
X99929670Y-116743051D01*
X99925619Y-116739852D01*
X99925615Y-116739848D01*
X99758414Y-116607800D01*
X99758410Y-116607798D01*
X99754359Y-116604598D01*
X99712569Y-116581529D01*
X99662598Y-116531097D01*
X99647826Y-116461654D01*
X99672942Y-116395248D01*
X99700293Y-116368642D01*
X99749247Y-116333723D01*
X99757648Y-116323023D01*
X99750660Y-116309870D01*
X99012812Y-115572022D01*
X98998868Y-115564408D01*
X98997035Y-115564539D01*
X98990420Y-115568790D01*
X98246737Y-116312473D01*
X98239977Y-116324853D01*
X98245258Y-116331907D01*
X98291969Y-116359203D01*
X98340693Y-116410841D01*
X98353764Y-116480624D01*
X98327033Y-116546396D01*
X98286584Y-116579752D01*
X98273607Y-116586507D01*
X98269474Y-116589610D01*
X98269471Y-116589612D01*
X98110392Y-116709052D01*
X98094965Y-116720635D01*
X97940629Y-116882138D01*
X97814743Y-117066680D01*
X97720688Y-117269305D01*
X97660989Y-117484570D01*
X97637251Y-117706695D01*
X95508500Y-117706695D01*
X95508500Y-115171863D01*
X97638050Y-115171863D01*
X97650309Y-115384477D01*
X97651745Y-115394697D01*
X97698565Y-115602446D01*
X97701645Y-115612275D01*
X97781770Y-115809603D01*
X97786413Y-115818794D01*
X97866460Y-115949420D01*
X97876916Y-115958880D01*
X97885694Y-115955096D01*
X98627978Y-115212812D01*
X98634356Y-115201132D01*
X99364408Y-115201132D01*
X99364539Y-115202965D01*
X99368790Y-115209580D01*
X100110474Y-115951264D01*
X100122484Y-115957823D01*
X100134223Y-115948855D01*
X100168022Y-115901819D01*
X100169149Y-115902629D01*
X100216659Y-115858881D01*
X100286596Y-115846661D01*
X100352038Y-115874191D01*
X100379870Y-115906029D01*
X100406459Y-115949419D01*
X100416916Y-115958880D01*
X100425694Y-115955096D01*
X101167978Y-115212812D01*
X101174356Y-115201132D01*
X101904408Y-115201132D01*
X101904539Y-115202965D01*
X101908790Y-115209580D01*
X102650474Y-115951264D01*
X102662484Y-115957823D01*
X102674223Y-115948855D01*
X102705004Y-115906019D01*
X102710315Y-115897180D01*
X102804670Y-115706267D01*
X102808469Y-115696672D01*
X102870376Y-115492915D01*
X102872555Y-115482834D01*
X102900590Y-115269887D01*
X102901109Y-115263212D01*
X102902034Y-115225363D01*
X156862483Y-115225363D01*
X156881472Y-115442407D01*
X156883375Y-115453200D01*
X156939764Y-115663649D01*
X156943510Y-115673941D01*
X157035586Y-115871399D01*
X157041069Y-115880894D01*
X157077509Y-115932936D01*
X157087988Y-115941312D01*
X157101434Y-115934244D01*
X158085905Y-114949773D01*
X158148217Y-114915747D01*
X158219032Y-114920812D01*
X158264095Y-114949773D01*
X159249287Y-115934965D01*
X159261062Y-115941395D01*
X159273077Y-115932099D01*
X159308931Y-115880894D01*
X159314414Y-115871399D01*
X159406490Y-115673941D01*
X159410236Y-115663649D01*
X159466625Y-115453200D01*
X159468528Y-115442407D01*
X159476134Y-115355475D01*
X183137483Y-115355475D01*
X183156472Y-115572519D01*
X183158375Y-115583312D01*
X183214764Y-115793761D01*
X183218510Y-115804053D01*
X183310586Y-116001511D01*
X183316069Y-116011006D01*
X183352509Y-116063048D01*
X183362988Y-116071424D01*
X183376434Y-116064356D01*
X184360905Y-115079885D01*
X184423217Y-115045859D01*
X184494032Y-115050924D01*
X184539095Y-115079885D01*
X185524287Y-116065077D01*
X185536062Y-116071507D01*
X185548077Y-116062211D01*
X185583931Y-116011006D01*
X185589414Y-116001511D01*
X185681490Y-115804053D01*
X185685236Y-115793761D01*
X185741625Y-115583312D01*
X185743528Y-115572519D01*
X185762517Y-115355475D01*
X185762517Y-115344525D01*
X185743528Y-115127481D01*
X185741625Y-115116688D01*
X185685236Y-114906239D01*
X185681490Y-114895947D01*
X185589414Y-114698489D01*
X185583929Y-114688989D01*
X185583299Y-114688090D01*
X185583144Y-114687630D01*
X185581182Y-114684232D01*
X185581865Y-114683838D01*
X185560612Y-114620816D01*
X185577898Y-114551956D01*
X185600934Y-114526197D01*
X185599730Y-114524993D01*
X185606081Y-114518642D01*
X185613261Y-114513261D01*
X185618642Y-114506081D01*
X185618645Y-114506078D01*
X185695229Y-114403891D01*
X185700615Y-114396705D01*
X185751745Y-114260316D01*
X185758500Y-114198134D01*
X185758500Y-112501866D01*
X185751745Y-112439684D01*
X185700615Y-112303295D01*
X185613261Y-112186739D01*
X185496705Y-112099385D01*
X185360316Y-112048255D01*
X185298134Y-112041500D01*
X183601866Y-112041500D01*
X183539684Y-112048255D01*
X183403295Y-112099385D01*
X183286739Y-112186739D01*
X183199385Y-112303295D01*
X183148255Y-112439684D01*
X183141500Y-112501866D01*
X183141500Y-114198134D01*
X183148255Y-114260316D01*
X183199385Y-114396705D01*
X183204771Y-114403891D01*
X183281355Y-114506078D01*
X183281358Y-114506081D01*
X183286739Y-114513261D01*
X183293919Y-114518642D01*
X183300270Y-114524993D01*
X183298128Y-114527135D01*
X183331564Y-114571846D01*
X183336594Y-114642664D01*
X183318477Y-114684035D01*
X183318818Y-114684232D01*
X183317048Y-114687298D01*
X183316701Y-114688090D01*
X183316071Y-114688989D01*
X183310586Y-114698489D01*
X183218510Y-114895947D01*
X183214764Y-114906239D01*
X183158375Y-115116688D01*
X183156472Y-115127481D01*
X183137483Y-115344525D01*
X183137483Y-115355475D01*
X159476134Y-115355475D01*
X159487517Y-115225363D01*
X159487517Y-115214413D01*
X159468528Y-114997369D01*
X159466625Y-114986576D01*
X159410236Y-114776127D01*
X159406490Y-114765835D01*
X159314414Y-114568377D01*
X159308929Y-114558877D01*
X159308299Y-114557978D01*
X159308144Y-114557518D01*
X159306182Y-114554120D01*
X159306865Y-114553726D01*
X159285612Y-114490704D01*
X159302898Y-114421844D01*
X159325934Y-114396085D01*
X159324730Y-114394881D01*
X159331081Y-114388530D01*
X159338261Y-114383149D01*
X159343642Y-114375969D01*
X159343645Y-114375966D01*
X159420229Y-114273779D01*
X159425615Y-114266593D01*
X159476745Y-114130204D01*
X159483500Y-114068022D01*
X159483500Y-112371754D01*
X159476745Y-112309572D01*
X159425615Y-112173183D01*
X159338261Y-112056627D01*
X159221705Y-111969273D01*
X159085316Y-111918143D01*
X159023134Y-111911388D01*
X157326866Y-111911388D01*
X157264684Y-111918143D01*
X157128295Y-111969273D01*
X157011739Y-112056627D01*
X156924385Y-112173183D01*
X156873255Y-112309572D01*
X156866500Y-112371754D01*
X156866500Y-114068022D01*
X156873255Y-114130204D01*
X156924385Y-114266593D01*
X156929771Y-114273779D01*
X157006355Y-114375966D01*
X157006358Y-114375969D01*
X157011739Y-114383149D01*
X157018919Y-114388530D01*
X157025270Y-114394881D01*
X157023128Y-114397023D01*
X157056564Y-114441734D01*
X157061594Y-114512552D01*
X157043477Y-114553923D01*
X157043818Y-114554120D01*
X157042048Y-114557186D01*
X157041701Y-114557978D01*
X157041071Y-114558877D01*
X157035586Y-114568377D01*
X156943510Y-114765835D01*
X156939764Y-114776127D01*
X156883375Y-114986576D01*
X156881472Y-114997369D01*
X156862483Y-115214413D01*
X156862483Y-115225363D01*
X102902034Y-115225363D01*
X102902572Y-115203364D01*
X102902378Y-115196646D01*
X102884781Y-114982604D01*
X102883096Y-114972424D01*
X102831214Y-114765875D01*
X102827894Y-114756124D01*
X102742972Y-114560814D01*
X102738105Y-114551739D01*
X102673063Y-114451197D01*
X102662377Y-114441995D01*
X102652812Y-114446398D01*
X101912022Y-115187188D01*
X101904408Y-115201132D01*
X101174356Y-115201132D01*
X101175592Y-115198868D01*
X101175461Y-115197035D01*
X101171210Y-115190420D01*
X100429849Y-114449059D01*
X100418313Y-114442759D01*
X100406028Y-114452384D01*
X100373192Y-114500520D01*
X100318281Y-114545523D01*
X100247756Y-114553694D01*
X100184009Y-114522440D01*
X100163311Y-114497955D01*
X100133062Y-114451197D01*
X100122377Y-114441995D01*
X100112812Y-114446398D01*
X99372022Y-115187188D01*
X99364408Y-115201132D01*
X98634356Y-115201132D01*
X98635592Y-115198868D01*
X98635461Y-115197035D01*
X98631210Y-115190420D01*
X97889849Y-114449059D01*
X97878313Y-114442759D01*
X97866031Y-114452382D01*
X97818089Y-114522662D01*
X97813004Y-114531613D01*
X97723338Y-114724783D01*
X97719775Y-114734470D01*
X97662864Y-114939681D01*
X97660933Y-114949800D01*
X97638302Y-115161574D01*
X97638050Y-115171863D01*
X95508500Y-115171863D01*
X95508500Y-112626695D01*
X97637251Y-112626695D01*
X97637548Y-112631848D01*
X97637548Y-112631851D01*
X97643011Y-112726590D01*
X97650110Y-112849715D01*
X97651247Y-112854761D01*
X97651248Y-112854767D01*
X97671119Y-112942939D01*
X97699222Y-113067639D01*
X97783266Y-113274616D01*
X97834019Y-113357438D01*
X97897291Y-113460688D01*
X97899987Y-113465088D01*
X98046250Y-113633938D01*
X98218126Y-113776632D01*
X98291955Y-113819774D01*
X98340679Y-113871412D01*
X98353750Y-113941195D01*
X98327019Y-114006967D01*
X98286562Y-114040327D01*
X98278460Y-114044544D01*
X98269734Y-114050039D01*
X98249677Y-114065099D01*
X98241223Y-114076427D01*
X98247968Y-114088758D01*
X98987188Y-114827978D01*
X99001132Y-114835592D01*
X99002965Y-114835461D01*
X99009580Y-114831210D01*
X99753389Y-114087401D01*
X99760410Y-114074544D01*
X99753611Y-114065213D01*
X99749559Y-114062521D01*
X99712602Y-114042120D01*
X99662631Y-113991687D01*
X99647859Y-113922245D01*
X99672975Y-113855839D01*
X99700327Y-113829232D01*
X99723797Y-113812491D01*
X99879860Y-113701173D01*
X100038096Y-113543489D01*
X100097594Y-113460689D01*
X100168453Y-113362077D01*
X100169776Y-113363028D01*
X100216645Y-113319857D01*
X100286580Y-113307625D01*
X100352026Y-113335144D01*
X100379875Y-113366994D01*
X100439987Y-113465088D01*
X100586250Y-113633938D01*
X100758126Y-113776632D01*
X100831955Y-113819774D01*
X100880679Y-113871412D01*
X100893750Y-113941195D01*
X100867019Y-114006967D01*
X100826562Y-114040327D01*
X100818460Y-114044544D01*
X100809734Y-114050039D01*
X100789677Y-114065099D01*
X100781223Y-114076427D01*
X100787968Y-114088758D01*
X101527188Y-114827978D01*
X101541132Y-114835592D01*
X101542965Y-114835461D01*
X101549580Y-114831210D01*
X102293389Y-114087401D01*
X102300410Y-114074544D01*
X102293611Y-114065213D01*
X102289559Y-114062521D01*
X102252602Y-114042120D01*
X102202631Y-113991687D01*
X102187859Y-113922245D01*
X102212975Y-113855839D01*
X102240327Y-113829232D01*
X102263797Y-113812491D01*
X102419860Y-113701173D01*
X102578096Y-113543489D01*
X102637594Y-113460689D01*
X102705435Y-113366277D01*
X102708453Y-113362077D01*
X102729320Y-113319857D01*
X102805136Y-113166453D01*
X102805137Y-113166451D01*
X102807430Y-113161811D01*
X102872370Y-112948069D01*
X102901529Y-112726590D01*
X102903156Y-112660000D01*
X102884852Y-112437361D01*
X102830431Y-112220702D01*
X102781605Y-112108411D01*
X110128493Y-112108411D01*
X110137789Y-112120426D01*
X110188994Y-112156280D01*
X110198489Y-112161763D01*
X110395947Y-112253839D01*
X110406239Y-112257585D01*
X110616688Y-112313974D01*
X110627481Y-112315877D01*
X110844525Y-112334866D01*
X110855475Y-112334866D01*
X111072519Y-112315877D01*
X111083312Y-112313974D01*
X111293761Y-112257585D01*
X111304053Y-112253839D01*
X111501511Y-112161763D01*
X111511006Y-112156280D01*
X111563048Y-112119840D01*
X111571424Y-112109361D01*
X111564356Y-112095915D01*
X110862812Y-111394371D01*
X110848868Y-111386757D01*
X110847035Y-111386888D01*
X110840420Y-111391139D01*
X110134923Y-112096636D01*
X110128493Y-112108411D01*
X102781605Y-112108411D01*
X102741354Y-112015840D01*
X102653711Y-111880365D01*
X102622822Y-111832617D01*
X102622820Y-111832614D01*
X102620014Y-111828277D01*
X102469670Y-111663051D01*
X102465619Y-111659852D01*
X102465615Y-111659848D01*
X102298414Y-111527800D01*
X102298410Y-111527798D01*
X102294359Y-111524598D01*
X102252569Y-111501529D01*
X102202598Y-111451097D01*
X102187826Y-111381654D01*
X102212942Y-111315248D01*
X102240293Y-111288642D01*
X102289247Y-111253723D01*
X102297648Y-111243023D01*
X102290660Y-111229870D01*
X102088614Y-111027824D01*
X109537483Y-111027824D01*
X109556472Y-111244868D01*
X109558375Y-111255661D01*
X109614764Y-111466110D01*
X109618510Y-111476402D01*
X109710586Y-111673860D01*
X109716069Y-111683355D01*
X109752509Y-111735397D01*
X109762988Y-111743773D01*
X109776434Y-111736705D01*
X110477978Y-111035161D01*
X110484356Y-111023481D01*
X111214408Y-111023481D01*
X111214539Y-111025314D01*
X111218790Y-111031929D01*
X111924287Y-111737426D01*
X111936062Y-111743856D01*
X111948077Y-111734560D01*
X111983931Y-111683355D01*
X111989414Y-111673860D01*
X112081490Y-111476402D01*
X112085236Y-111466110D01*
X112141625Y-111255661D01*
X112143528Y-111244868D01*
X112162517Y-111027824D01*
X112162517Y-111016874D01*
X112143528Y-110799830D01*
X112141625Y-110789037D01*
X112085236Y-110578588D01*
X112081490Y-110568296D01*
X111989414Y-110370838D01*
X111983931Y-110361343D01*
X111947491Y-110309301D01*
X111937012Y-110300925D01*
X111923566Y-110307993D01*
X111222022Y-111009537D01*
X111214408Y-111023481D01*
X110484356Y-111023481D01*
X110485592Y-111021217D01*
X110485461Y-111019384D01*
X110481210Y-111012769D01*
X109775713Y-110307272D01*
X109763938Y-110300842D01*
X109751923Y-110310138D01*
X109716069Y-110361343D01*
X109710586Y-110370838D01*
X109618510Y-110568296D01*
X109614764Y-110578588D01*
X109558375Y-110789037D01*
X109556472Y-110799830D01*
X109537483Y-111016874D01*
X109537483Y-111027824D01*
X102088614Y-111027824D01*
X101552812Y-110492022D01*
X101538868Y-110484408D01*
X101537035Y-110484539D01*
X101530420Y-110488790D01*
X100786737Y-111232473D01*
X100779977Y-111244853D01*
X100785258Y-111251907D01*
X100831969Y-111279203D01*
X100880693Y-111330841D01*
X100893764Y-111400624D01*
X100867033Y-111466396D01*
X100826584Y-111499752D01*
X100813607Y-111506507D01*
X100809474Y-111509610D01*
X100809471Y-111509612D01*
X100767830Y-111540877D01*
X100634965Y-111640635D01*
X100480629Y-111802138D01*
X100373201Y-111959621D01*
X100318293Y-112004621D01*
X100247768Y-112012792D01*
X100184021Y-111981538D01*
X100163324Y-111957054D01*
X100082822Y-111832617D01*
X100082820Y-111832614D01*
X100080014Y-111828277D01*
X99929670Y-111663051D01*
X99925619Y-111659852D01*
X99925615Y-111659848D01*
X99758414Y-111527800D01*
X99758410Y-111527798D01*
X99754359Y-111524598D01*
X99712569Y-111501529D01*
X99662598Y-111451097D01*
X99647826Y-111381654D01*
X99672942Y-111315248D01*
X99700293Y-111288642D01*
X99749247Y-111253723D01*
X99757648Y-111243023D01*
X99750660Y-111229870D01*
X99012812Y-110492022D01*
X98998868Y-110484408D01*
X98997035Y-110484539D01*
X98990420Y-110488790D01*
X98246737Y-111232473D01*
X98239977Y-111244853D01*
X98245258Y-111251907D01*
X98291969Y-111279203D01*
X98340693Y-111330841D01*
X98353764Y-111400624D01*
X98327033Y-111466396D01*
X98286584Y-111499752D01*
X98273607Y-111506507D01*
X98269474Y-111509610D01*
X98269471Y-111509612D01*
X98227830Y-111540877D01*
X98094965Y-111640635D01*
X97940629Y-111802138D01*
X97937720Y-111806403D01*
X97937714Y-111806411D01*
X97922798Y-111828277D01*
X97814743Y-111986680D01*
X97800612Y-112017123D01*
X97724269Y-112181591D01*
X97720688Y-112189305D01*
X97660989Y-112404570D01*
X97637251Y-112626695D01*
X95508500Y-112626695D01*
X95508500Y-110091863D01*
X97638050Y-110091863D01*
X97650309Y-110304477D01*
X97651745Y-110314697D01*
X97698565Y-110522446D01*
X97701645Y-110532275D01*
X97781770Y-110729603D01*
X97786413Y-110738794D01*
X97866460Y-110869420D01*
X97876916Y-110878880D01*
X97885694Y-110875096D01*
X98627978Y-110132812D01*
X98634356Y-110121132D01*
X99364408Y-110121132D01*
X99364539Y-110122965D01*
X99368790Y-110129580D01*
X100110474Y-110871264D01*
X100122484Y-110877823D01*
X100134223Y-110868855D01*
X100168022Y-110821819D01*
X100169149Y-110822629D01*
X100216659Y-110778881D01*
X100286596Y-110766661D01*
X100352038Y-110794191D01*
X100379870Y-110826029D01*
X100406459Y-110869419D01*
X100416916Y-110878880D01*
X100425694Y-110875096D01*
X101167978Y-110132812D01*
X101174356Y-110121132D01*
X101904408Y-110121132D01*
X101904539Y-110122965D01*
X101908790Y-110129580D01*
X102650474Y-110871264D01*
X102662484Y-110877823D01*
X102674223Y-110868855D01*
X102705004Y-110826019D01*
X102710315Y-110817180D01*
X102804670Y-110626267D01*
X102808469Y-110616672D01*
X102870376Y-110412915D01*
X102872555Y-110402834D01*
X102900590Y-110189887D01*
X102901109Y-110183212D01*
X102902572Y-110123364D01*
X102902378Y-110116646D01*
X102887472Y-109935337D01*
X110128576Y-109935337D01*
X110135644Y-109948783D01*
X110837188Y-110650327D01*
X110851132Y-110657941D01*
X110852965Y-110657810D01*
X110859580Y-110653559D01*
X111565077Y-109948062D01*
X111571507Y-109936287D01*
X111562211Y-109924272D01*
X111511006Y-109888418D01*
X111501511Y-109882935D01*
X111304053Y-109790859D01*
X111293761Y-109787113D01*
X111083312Y-109730724D01*
X111072519Y-109728821D01*
X110855475Y-109709832D01*
X110844525Y-109709832D01*
X110627481Y-109728821D01*
X110616688Y-109730724D01*
X110406239Y-109787113D01*
X110395947Y-109790859D01*
X110198489Y-109882935D01*
X110188994Y-109888418D01*
X110136952Y-109924858D01*
X110128576Y-109935337D01*
X102887472Y-109935337D01*
X102884781Y-109902604D01*
X102883096Y-109892424D01*
X102831214Y-109685875D01*
X102827894Y-109676124D01*
X102742972Y-109480814D01*
X102738105Y-109471739D01*
X102673063Y-109371197D01*
X102662377Y-109361995D01*
X102652812Y-109366398D01*
X101912022Y-110107188D01*
X101904408Y-110121132D01*
X101174356Y-110121132D01*
X101175592Y-110118868D01*
X101175461Y-110117035D01*
X101171210Y-110110420D01*
X100429849Y-109369059D01*
X100418313Y-109362759D01*
X100406028Y-109372384D01*
X100373192Y-109420520D01*
X100318281Y-109465523D01*
X100247756Y-109473694D01*
X100184009Y-109442440D01*
X100163311Y-109417955D01*
X100133062Y-109371197D01*
X100122377Y-109361995D01*
X100112812Y-109366398D01*
X99372022Y-110107188D01*
X99364408Y-110121132D01*
X98634356Y-110121132D01*
X98635592Y-110118868D01*
X98635461Y-110117035D01*
X98631210Y-110110420D01*
X97889849Y-109369059D01*
X97878313Y-109362759D01*
X97866031Y-109372382D01*
X97818089Y-109442662D01*
X97813004Y-109451613D01*
X97723338Y-109644783D01*
X97719775Y-109654470D01*
X97662864Y-109859681D01*
X97660933Y-109869800D01*
X97638302Y-110081574D01*
X97638050Y-110091863D01*
X95508500Y-110091863D01*
X95508500Y-107546695D01*
X97637251Y-107546695D01*
X97637548Y-107551848D01*
X97637548Y-107551851D01*
X97643011Y-107646590D01*
X97650110Y-107769715D01*
X97651247Y-107774761D01*
X97651248Y-107774767D01*
X97665034Y-107835936D01*
X97699222Y-107987639D01*
X97783266Y-108194616D01*
X97826563Y-108265271D01*
X97897291Y-108380688D01*
X97899987Y-108385088D01*
X98046250Y-108553938D01*
X98149814Y-108639918D01*
X98202121Y-108683344D01*
X98218126Y-108696632D01*
X98246260Y-108713072D01*
X98291955Y-108739774D01*
X98340679Y-108791412D01*
X98353750Y-108861195D01*
X98327019Y-108926967D01*
X98286562Y-108960327D01*
X98278460Y-108964544D01*
X98269734Y-108970039D01*
X98249677Y-108985099D01*
X98241223Y-108996427D01*
X98247968Y-109008758D01*
X98987188Y-109747978D01*
X99001132Y-109755592D01*
X99002965Y-109755461D01*
X99009580Y-109751210D01*
X99753389Y-109007401D01*
X99760410Y-108994544D01*
X99753611Y-108985213D01*
X99749559Y-108982521D01*
X99712602Y-108962120D01*
X99662631Y-108911687D01*
X99647859Y-108842245D01*
X99672975Y-108775839D01*
X99700327Y-108749232D01*
X99746049Y-108716619D01*
X99879860Y-108621173D01*
X99887148Y-108613911D01*
X100034435Y-108467137D01*
X100038096Y-108463489D01*
X100054929Y-108440064D01*
X100168453Y-108282077D01*
X100169776Y-108283028D01*
X100216645Y-108239857D01*
X100286580Y-108227625D01*
X100352026Y-108255144D01*
X100379875Y-108286994D01*
X100439987Y-108385088D01*
X100586250Y-108553938D01*
X100689814Y-108639918D01*
X100742121Y-108683344D01*
X100758126Y-108696632D01*
X100786260Y-108713072D01*
X100831955Y-108739774D01*
X100880679Y-108791412D01*
X100893750Y-108861195D01*
X100867019Y-108926967D01*
X100826562Y-108960327D01*
X100818460Y-108964544D01*
X100809734Y-108970039D01*
X100789677Y-108985099D01*
X100781223Y-108996427D01*
X100787968Y-109008758D01*
X101527188Y-109747978D01*
X101541132Y-109755592D01*
X101542965Y-109755461D01*
X101549580Y-109751210D01*
X102293389Y-109007401D01*
X102300410Y-108994544D01*
X102293611Y-108985213D01*
X102289559Y-108982521D01*
X102252602Y-108962120D01*
X102202631Y-108911687D01*
X102187859Y-108842245D01*
X102212975Y-108775839D01*
X102240327Y-108749232D01*
X102286049Y-108716619D01*
X102419860Y-108621173D01*
X102427148Y-108613911D01*
X102574435Y-108467137D01*
X102578096Y-108463489D01*
X102594929Y-108440064D01*
X102644927Y-108370483D01*
X109541500Y-108370483D01*
X109548255Y-108432665D01*
X109599385Y-108569054D01*
X109686739Y-108685610D01*
X109803295Y-108772964D01*
X109939684Y-108824094D01*
X110001866Y-108830849D01*
X111698134Y-108830849D01*
X111760316Y-108824094D01*
X111896705Y-108772964D01*
X112013261Y-108685610D01*
X112100615Y-108569054D01*
X112151745Y-108432665D01*
X112158500Y-108370483D01*
X112158500Y-106674215D01*
X112151745Y-106612033D01*
X112100615Y-106475644D01*
X112013261Y-106359088D01*
X111896705Y-106271734D01*
X111760316Y-106220604D01*
X111698134Y-106213849D01*
X110001866Y-106213849D01*
X109939684Y-106220604D01*
X109803295Y-106271734D01*
X109686739Y-106359088D01*
X109599385Y-106475644D01*
X109548255Y-106612033D01*
X109541500Y-106674215D01*
X109541500Y-108370483D01*
X102644927Y-108370483D01*
X102705435Y-108286277D01*
X102708453Y-108282077D01*
X102710825Y-108277279D01*
X102805136Y-108086453D01*
X102805137Y-108086451D01*
X102807430Y-108081811D01*
X102860674Y-107906565D01*
X102870865Y-107873023D01*
X102870865Y-107873021D01*
X102872370Y-107868069D01*
X102901529Y-107646590D01*
X102901611Y-107643240D01*
X102903074Y-107583365D01*
X102903074Y-107583361D01*
X102903156Y-107580000D01*
X102884852Y-107357361D01*
X102830431Y-107140702D01*
X102741354Y-106935840D01*
X102620014Y-106748277D01*
X102469670Y-106583051D01*
X102465619Y-106579852D01*
X102465615Y-106579848D01*
X102298414Y-106447800D01*
X102298410Y-106447798D01*
X102294359Y-106444598D01*
X102253053Y-106421796D01*
X102203084Y-106371364D01*
X102188312Y-106301921D01*
X102213428Y-106235516D01*
X102240780Y-106208909D01*
X102284603Y-106177650D01*
X102419860Y-106081173D01*
X102432303Y-106068774D01*
X102574435Y-105927137D01*
X102578096Y-105923489D01*
X102582579Y-105917251D01*
X102705435Y-105746277D01*
X102708453Y-105742077D01*
X102714506Y-105729831D01*
X102805136Y-105546453D01*
X102805137Y-105546451D01*
X102807430Y-105541811D01*
X102872370Y-105328069D01*
X102901529Y-105106590D01*
X102901716Y-105098955D01*
X102903074Y-105043365D01*
X102903074Y-105043361D01*
X102903156Y-105040000D01*
X102884852Y-104817361D01*
X102830431Y-104600702D01*
X102741354Y-104395840D01*
X102673838Y-104291476D01*
X102622822Y-104212617D01*
X102622820Y-104212614D01*
X102620014Y-104208277D01*
X102469670Y-104043051D01*
X102465616Y-104039849D01*
X102465615Y-104039848D01*
X102298414Y-103907800D01*
X102298410Y-103907798D01*
X102294359Y-103904598D01*
X102253053Y-103881796D01*
X102203084Y-103831364D01*
X102188312Y-103761921D01*
X102213428Y-103695516D01*
X102240780Y-103668909D01*
X102295896Y-103629595D01*
X102419860Y-103541173D01*
X102444620Y-103516500D01*
X102530892Y-103430528D01*
X102578096Y-103383489D01*
X102708453Y-103202077D01*
X102735608Y-103147134D01*
X102805136Y-103006453D01*
X102805137Y-103006451D01*
X102807430Y-103001811D01*
X102846551Y-102873050D01*
X102870865Y-102793023D01*
X102870865Y-102793021D01*
X102872370Y-102788069D01*
X102901529Y-102566590D01*
X102903156Y-102500000D01*
X102901993Y-102485851D01*
X106524219Y-102485851D01*
X106540768Y-102682934D01*
X106542467Y-102688858D01*
X106572336Y-102793023D01*
X106595283Y-102873050D01*
X106598102Y-102878535D01*
X106658912Y-102996857D01*
X106685687Y-103048956D01*
X106808535Y-103203953D01*
X106813228Y-103207947D01*
X106813229Y-103207948D01*
X106927369Y-103305088D01*
X106959150Y-103332136D01*
X107131794Y-103428624D01*
X107319892Y-103489740D01*
X107516277Y-103513158D01*
X107522412Y-103512686D01*
X107522414Y-103512686D01*
X107707330Y-103498457D01*
X107707334Y-103498456D01*
X107713472Y-103497984D01*
X107903963Y-103444798D01*
X107909467Y-103442018D01*
X107909469Y-103442017D01*
X108074995Y-103358404D01*
X108074997Y-103358403D01*
X108080496Y-103355625D01*
X108170621Y-103285211D01*
X108236616Y-103259033D01*
X108248195Y-103258500D01*
X111333629Y-103258500D01*
X111401750Y-103278502D01*
X111422724Y-103295405D01*
X119810856Y-111683537D01*
X119844882Y-111745849D01*
X119847319Y-111762089D01*
X119853268Y-111832934D01*
X119854967Y-111838858D01*
X119905716Y-112015840D01*
X119907783Y-112023050D01*
X119910602Y-112028535D01*
X119989263Y-112181591D01*
X119998187Y-112198956D01*
X120121035Y-112353953D01*
X120125728Y-112357947D01*
X120125729Y-112357948D01*
X120225104Y-112442522D01*
X120271650Y-112482136D01*
X120444294Y-112578624D01*
X120632392Y-112639740D01*
X120828777Y-112663158D01*
X120834912Y-112662686D01*
X120834914Y-112662686D01*
X121019830Y-112648457D01*
X121019834Y-112648456D01*
X121025972Y-112647984D01*
X121216463Y-112594798D01*
X121221967Y-112592018D01*
X121221969Y-112592017D01*
X121387495Y-112508404D01*
X121387497Y-112508403D01*
X121392996Y-112505625D01*
X121548847Y-112383861D01*
X121678078Y-112234145D01*
X121775769Y-112062179D01*
X121838197Y-111874513D01*
X121862985Y-111678295D01*
X121863380Y-111650000D01*
X121844080Y-111453167D01*
X121829042Y-111403357D01*
X121807923Y-111333411D01*
X125978493Y-111333411D01*
X125987789Y-111345426D01*
X126038994Y-111381280D01*
X126048489Y-111386763D01*
X126245947Y-111478839D01*
X126256239Y-111482585D01*
X126466688Y-111538974D01*
X126477481Y-111540877D01*
X126694525Y-111559866D01*
X126705475Y-111559866D01*
X126922519Y-111540877D01*
X126933312Y-111538974D01*
X127143761Y-111482585D01*
X127154053Y-111478839D01*
X127351511Y-111386763D01*
X127361006Y-111381280D01*
X127413048Y-111344840D01*
X127421424Y-111334361D01*
X127414356Y-111320915D01*
X126712812Y-110619371D01*
X126698868Y-110611757D01*
X126697035Y-110611888D01*
X126690420Y-110616139D01*
X125984923Y-111321636D01*
X125978493Y-111333411D01*
X121807923Y-111333411D01*
X121786916Y-111263831D01*
X121694066Y-111089204D01*
X121623709Y-111002938D01*
X121572960Y-110940713D01*
X121572957Y-110940710D01*
X121569065Y-110935938D01*
X121535723Y-110908355D01*
X121421425Y-110813799D01*
X121421421Y-110813797D01*
X121416675Y-110809870D01*
X121242701Y-110715802D01*
X121053768Y-110657318D01*
X121047646Y-110656675D01*
X121047643Y-110656674D01*
X121002878Y-110651969D01*
X120959836Y-110647446D01*
X120894180Y-110620433D01*
X120883912Y-110611231D01*
X120525505Y-110252824D01*
X125387483Y-110252824D01*
X125406472Y-110469868D01*
X125408375Y-110480661D01*
X125464764Y-110691110D01*
X125468510Y-110701402D01*
X125560586Y-110898860D01*
X125566069Y-110908355D01*
X125602509Y-110960397D01*
X125612988Y-110968773D01*
X125626434Y-110961705D01*
X126327978Y-110260161D01*
X126334356Y-110248481D01*
X127064408Y-110248481D01*
X127064539Y-110250314D01*
X127068790Y-110256929D01*
X127774287Y-110962426D01*
X127786062Y-110968856D01*
X127798077Y-110959560D01*
X127833931Y-110908355D01*
X127839414Y-110898860D01*
X127931490Y-110701402D01*
X127935236Y-110691110D01*
X127991625Y-110480661D01*
X127993528Y-110469868D01*
X128012517Y-110252824D01*
X128012517Y-110241874D01*
X127993528Y-110024830D01*
X127991625Y-110014037D01*
X127935236Y-109803588D01*
X127931490Y-109793296D01*
X127839414Y-109595838D01*
X127833931Y-109586343D01*
X127797491Y-109534301D01*
X127787012Y-109525925D01*
X127773566Y-109532993D01*
X127072022Y-110234537D01*
X127064408Y-110248481D01*
X126334356Y-110248481D01*
X126335592Y-110246217D01*
X126335461Y-110244384D01*
X126331210Y-110237769D01*
X125625713Y-109532272D01*
X125613938Y-109525842D01*
X125601923Y-109535138D01*
X125566069Y-109586343D01*
X125560586Y-109595838D01*
X125468510Y-109793296D01*
X125464764Y-109803588D01*
X125408375Y-110014037D01*
X125406472Y-110024830D01*
X125387483Y-110241874D01*
X125387483Y-110252824D01*
X120525505Y-110252824D01*
X119433018Y-109160337D01*
X125978576Y-109160337D01*
X125985644Y-109173783D01*
X126687188Y-109875327D01*
X126701132Y-109882941D01*
X126702965Y-109882810D01*
X126709580Y-109878559D01*
X127415077Y-109173062D01*
X127421507Y-109161287D01*
X127412211Y-109149272D01*
X127361006Y-109113418D01*
X127351511Y-109107935D01*
X127154053Y-109015859D01*
X127143761Y-109012113D01*
X126933312Y-108955724D01*
X126922519Y-108953821D01*
X126705475Y-108934832D01*
X126694525Y-108934832D01*
X126477481Y-108953821D01*
X126466688Y-108955724D01*
X126256239Y-109012113D01*
X126245947Y-109015859D01*
X126048489Y-109107935D01*
X126038994Y-109113418D01*
X125986952Y-109149858D01*
X125978576Y-109160337D01*
X119433018Y-109160337D01*
X117868164Y-107595483D01*
X125391500Y-107595483D01*
X125398255Y-107657665D01*
X125449385Y-107794054D01*
X125536739Y-107910610D01*
X125653295Y-107997964D01*
X125789684Y-108049094D01*
X125851866Y-108055849D01*
X127548134Y-108055849D01*
X127610316Y-108049094D01*
X127746705Y-107997964D01*
X127863261Y-107910610D01*
X127950615Y-107794054D01*
X128001745Y-107657665D01*
X128008500Y-107595483D01*
X128008500Y-105899215D01*
X128001745Y-105837033D01*
X127950615Y-105700644D01*
X127863261Y-105584088D01*
X127746705Y-105496734D01*
X127610316Y-105445604D01*
X127548134Y-105438849D01*
X125851866Y-105438849D01*
X125789684Y-105445604D01*
X125653295Y-105496734D01*
X125536739Y-105584088D01*
X125449385Y-105700644D01*
X125398255Y-105837033D01*
X125391500Y-105899215D01*
X125391500Y-107595483D01*
X117868164Y-107595483D01*
X114697681Y-104425000D01*
X135936496Y-104425000D01*
X135937186Y-104431565D01*
X135954877Y-104599882D01*
X135956458Y-104614928D01*
X136015473Y-104796556D01*
X136018776Y-104802278D01*
X136018777Y-104802279D01*
X136052686Y-104861010D01*
X136110960Y-104961944D01*
X136115378Y-104966851D01*
X136115379Y-104966852D01*
X136206286Y-105067814D01*
X136238747Y-105103866D01*
X136291025Y-105141848D01*
X136387904Y-105212235D01*
X136393248Y-105216118D01*
X136399276Y-105218802D01*
X136399278Y-105218803D01*
X136561681Y-105291109D01*
X136567712Y-105293794D01*
X136661112Y-105313647D01*
X136748056Y-105332128D01*
X136748061Y-105332128D01*
X136754513Y-105333500D01*
X136945487Y-105333500D01*
X136951939Y-105332128D01*
X136951944Y-105332128D01*
X137038888Y-105313647D01*
X137132288Y-105293794D01*
X137138319Y-105291109D01*
X137300722Y-105218803D01*
X137300724Y-105218802D01*
X137306752Y-105216118D01*
X137312091Y-105212239D01*
X137312098Y-105212235D01*
X137318528Y-105207563D01*
X137392587Y-105183500D01*
X152307930Y-105183500D01*
X152326880Y-105184933D01*
X152341115Y-105187099D01*
X152341119Y-105187099D01*
X152348349Y-105188199D01*
X152355641Y-105187606D01*
X152355644Y-105187606D01*
X152401018Y-105183915D01*
X152411233Y-105183500D01*
X152419293Y-105183500D01*
X152432583Y-105181951D01*
X152447507Y-105180211D01*
X152451882Y-105179778D01*
X152517339Y-105174454D01*
X152517342Y-105174453D01*
X152524637Y-105173860D01*
X152531601Y-105171604D01*
X152537560Y-105170413D01*
X152543415Y-105169029D01*
X152550681Y-105168182D01*
X152619327Y-105143265D01*
X152623455Y-105141848D01*
X152685936Y-105121607D01*
X152685938Y-105121606D01*
X152692899Y-105119351D01*
X152699154Y-105115555D01*
X152704628Y-105113049D01*
X152710058Y-105110330D01*
X152716937Y-105107833D01*
X152723058Y-105103820D01*
X152777976Y-105067814D01*
X152781680Y-105065477D01*
X152844107Y-105027595D01*
X152852484Y-105020197D01*
X152852508Y-105020224D01*
X152855500Y-105017571D01*
X152858733Y-105014868D01*
X152864852Y-105010856D01*
X152918128Y-104954617D01*
X152920506Y-104952175D01*
X156260905Y-101611776D01*
X156323217Y-101577750D01*
X156394032Y-101582815D01*
X156439095Y-101611776D01*
X156529595Y-101702276D01*
X156563621Y-101764588D01*
X156566500Y-101791371D01*
X156566500Y-104383629D01*
X156546498Y-104451750D01*
X156529595Y-104472724D01*
X155211089Y-105791230D01*
X155196677Y-105803616D01*
X155185082Y-105812149D01*
X155185077Y-105812154D01*
X155179182Y-105816492D01*
X155174443Y-105822070D01*
X155174440Y-105822073D01*
X155144965Y-105856768D01*
X155138035Y-105864284D01*
X155132340Y-105869979D01*
X155130060Y-105872861D01*
X155114719Y-105892251D01*
X155111928Y-105895655D01*
X155086110Y-105926045D01*
X155064667Y-105951285D01*
X155061339Y-105957801D01*
X155057972Y-105962850D01*
X155054805Y-105967979D01*
X155050266Y-105973716D01*
X155019345Y-106039875D01*
X155017442Y-106043769D01*
X154984231Y-106108808D01*
X154982492Y-106115916D01*
X154980393Y-106121559D01*
X154978476Y-106127322D01*
X154975378Y-106133950D01*
X154973888Y-106141112D01*
X154973888Y-106141113D01*
X154960514Y-106205412D01*
X154959544Y-106209696D01*
X154942192Y-106280610D01*
X154941500Y-106291764D01*
X154941464Y-106291762D01*
X154941225Y-106295755D01*
X154940851Y-106299947D01*
X154939360Y-106307115D01*
X154939558Y-106314432D01*
X154941454Y-106384521D01*
X154941500Y-106387928D01*
X154941500Y-107457930D01*
X154940067Y-107476880D01*
X154938078Y-107489957D01*
X154936801Y-107498349D01*
X154937394Y-107505641D01*
X154937394Y-107505644D01*
X154941085Y-107551018D01*
X154941500Y-107561233D01*
X154941500Y-107569293D01*
X154941925Y-107572937D01*
X154944789Y-107597507D01*
X154945222Y-107601882D01*
X154949760Y-107657665D01*
X154951140Y-107674637D01*
X154953396Y-107681601D01*
X154954587Y-107687560D01*
X154955971Y-107693415D01*
X154956818Y-107700681D01*
X154981735Y-107769327D01*
X154983152Y-107773455D01*
X155002055Y-107831804D01*
X155005649Y-107842899D01*
X155009445Y-107849154D01*
X155011951Y-107854628D01*
X155014670Y-107860058D01*
X155017167Y-107866937D01*
X155021180Y-107873057D01*
X155021180Y-107873058D01*
X155057186Y-107927976D01*
X155059523Y-107931680D01*
X155097405Y-107994107D01*
X155101121Y-107998315D01*
X155101122Y-107998316D01*
X155104803Y-108002484D01*
X155104776Y-108002508D01*
X155107429Y-108005500D01*
X155110132Y-108008733D01*
X155114144Y-108014852D01*
X155119456Y-108019884D01*
X155170383Y-108068128D01*
X155172825Y-108070506D01*
X155716230Y-108613911D01*
X155728616Y-108628323D01*
X155737149Y-108639918D01*
X155737154Y-108639923D01*
X155741492Y-108645818D01*
X155747070Y-108650557D01*
X155747073Y-108650560D01*
X155781768Y-108680035D01*
X155789284Y-108686965D01*
X155794979Y-108692660D01*
X155797861Y-108694940D01*
X155817251Y-108710281D01*
X155820655Y-108713072D01*
X155863218Y-108749232D01*
X155876285Y-108760333D01*
X155882801Y-108763661D01*
X155887850Y-108767028D01*
X155892979Y-108770195D01*
X155898716Y-108774734D01*
X155964875Y-108805655D01*
X155968769Y-108807558D01*
X156033808Y-108840769D01*
X156040916Y-108842508D01*
X156046559Y-108844607D01*
X156052322Y-108846524D01*
X156058950Y-108849622D01*
X156114590Y-108861195D01*
X156130412Y-108864486D01*
X156134696Y-108865456D01*
X156205610Y-108882808D01*
X156211212Y-108883156D01*
X156211215Y-108883156D01*
X156216764Y-108883500D01*
X156216762Y-108883536D01*
X156220755Y-108883775D01*
X156224947Y-108884149D01*
X156232115Y-108885640D01*
X156309520Y-108883546D01*
X156312928Y-108883500D01*
X158707930Y-108883500D01*
X158726880Y-108884933D01*
X158741115Y-108887099D01*
X158741119Y-108887099D01*
X158748349Y-108888199D01*
X158755641Y-108887606D01*
X158755644Y-108887606D01*
X158801018Y-108883915D01*
X158811233Y-108883500D01*
X158819293Y-108883500D01*
X158836680Y-108881473D01*
X158847507Y-108880211D01*
X158851882Y-108879778D01*
X158917339Y-108874454D01*
X158917342Y-108874453D01*
X158924637Y-108873860D01*
X158931601Y-108871604D01*
X158937560Y-108870413D01*
X158943415Y-108869029D01*
X158950681Y-108868182D01*
X159019327Y-108843265D01*
X159023455Y-108841848D01*
X159085936Y-108821607D01*
X159085938Y-108821606D01*
X159092899Y-108819351D01*
X159099154Y-108815555D01*
X159104628Y-108813049D01*
X159110058Y-108810330D01*
X159116937Y-108807833D01*
X159141983Y-108791412D01*
X159177976Y-108767814D01*
X159181680Y-108765477D01*
X159244107Y-108727595D01*
X159252484Y-108720197D01*
X159252508Y-108720224D01*
X159255500Y-108717571D01*
X159258733Y-108714868D01*
X159264852Y-108710856D01*
X159318128Y-108654617D01*
X159320506Y-108652175D01*
X160456331Y-107516350D01*
X160519228Y-107482199D01*
X160575824Y-107470169D01*
X160575833Y-107470166D01*
X160582288Y-107468794D01*
X160606689Y-107457930D01*
X160750722Y-107393803D01*
X160750724Y-107393802D01*
X160756752Y-107391118D01*
X160911253Y-107278866D01*
X161039040Y-107136944D01*
X161123012Y-106991500D01*
X161131223Y-106977279D01*
X161131224Y-106977278D01*
X161134527Y-106971556D01*
X161189387Y-106802714D01*
X161220125Y-106752556D01*
X166552276Y-101420405D01*
X166614588Y-101386379D01*
X166641371Y-101383500D01*
X180307413Y-101383500D01*
X180381472Y-101407563D01*
X180387902Y-101412235D01*
X180387909Y-101412239D01*
X180393248Y-101416118D01*
X180399276Y-101418802D01*
X180399278Y-101418803D01*
X180553101Y-101487289D01*
X180567712Y-101493794D01*
X180639909Y-101509140D01*
X180748056Y-101532128D01*
X180748061Y-101532128D01*
X180754513Y-101533500D01*
X180945487Y-101533500D01*
X180951939Y-101532128D01*
X180951944Y-101532128D01*
X181060091Y-101509140D01*
X181132288Y-101493794D01*
X181146899Y-101487289D01*
X181300722Y-101418803D01*
X181300724Y-101418802D01*
X181306752Y-101416118D01*
X181312097Y-101412235D01*
X181398289Y-101349612D01*
X181461253Y-101303866D01*
X181486917Y-101275363D01*
X181584621Y-101166852D01*
X181584622Y-101166851D01*
X181589040Y-101161944D01*
X181647314Y-101061010D01*
X181681223Y-101002279D01*
X181681224Y-101002278D01*
X181684527Y-100996556D01*
X181743542Y-100814928D01*
X181763504Y-100625000D01*
X181743542Y-100435072D01*
X181684527Y-100253444D01*
X181589040Y-100088056D01*
X181580386Y-100078444D01*
X181465675Y-99951045D01*
X181465674Y-99951044D01*
X181461253Y-99946134D01*
X181351647Y-99866500D01*
X181312094Y-99837763D01*
X181312093Y-99837762D01*
X181306752Y-99833882D01*
X181300724Y-99831198D01*
X181300722Y-99831197D01*
X181138319Y-99758891D01*
X181138318Y-99758891D01*
X181132288Y-99756206D01*
X181038887Y-99736353D01*
X180951944Y-99717872D01*
X180951939Y-99717872D01*
X180945487Y-99716500D01*
X180754513Y-99716500D01*
X180748061Y-99717872D01*
X180748056Y-99717872D01*
X180661112Y-99736353D01*
X180567712Y-99756206D01*
X180561682Y-99758891D01*
X180561681Y-99758891D01*
X180399278Y-99831197D01*
X180399276Y-99831198D01*
X180393248Y-99833882D01*
X180387909Y-99837761D01*
X180387902Y-99837765D01*
X180381472Y-99842437D01*
X180307413Y-99866500D01*
X166342070Y-99866500D01*
X166323120Y-99865067D01*
X166308885Y-99862901D01*
X166308881Y-99862901D01*
X166301651Y-99861801D01*
X166294359Y-99862394D01*
X166294356Y-99862394D01*
X166248982Y-99866085D01*
X166238767Y-99866500D01*
X166230707Y-99866500D01*
X166217417Y-99868049D01*
X166202493Y-99869789D01*
X166198118Y-99870222D01*
X166132661Y-99875546D01*
X166132658Y-99875547D01*
X166125363Y-99876140D01*
X166118399Y-99878396D01*
X166112440Y-99879587D01*
X166106585Y-99880971D01*
X166099319Y-99881818D01*
X166030673Y-99906735D01*
X166026545Y-99908152D01*
X165964064Y-99928393D01*
X165964062Y-99928394D01*
X165957101Y-99930649D01*
X165950846Y-99934445D01*
X165945372Y-99936951D01*
X165939942Y-99939670D01*
X165933063Y-99942167D01*
X165926943Y-99946180D01*
X165926942Y-99946180D01*
X165872024Y-99982186D01*
X165868320Y-99984523D01*
X165805893Y-100022405D01*
X165797516Y-100029803D01*
X165797492Y-100029776D01*
X165794500Y-100032429D01*
X165791267Y-100035132D01*
X165785148Y-100039144D01*
X165780116Y-100044456D01*
X165731872Y-100095383D01*
X165729494Y-100097825D01*
X160143669Y-105683650D01*
X160080772Y-105717801D01*
X160024176Y-105729831D01*
X160024167Y-105729834D01*
X160017712Y-105731206D01*
X160011682Y-105733891D01*
X160011681Y-105733891D01*
X159849278Y-105806197D01*
X159849276Y-105806198D01*
X159843248Y-105808882D01*
X159688747Y-105921134D01*
X159684326Y-105926044D01*
X159684325Y-105926045D01*
X159578321Y-106043775D01*
X159560960Y-106063056D01*
X159557659Y-106068774D01*
X159476752Y-106208909D01*
X159465473Y-106228444D01*
X159430319Y-106336638D01*
X159410613Y-106397285D01*
X159379875Y-106447444D01*
X158497724Y-107329595D01*
X158435412Y-107363621D01*
X158408629Y-107366500D01*
X157768348Y-107366500D01*
X157700227Y-107346498D01*
X157653734Y-107292842D01*
X157643630Y-107222568D01*
X157648515Y-107201563D01*
X157666503Y-107146203D01*
X157668542Y-107139928D01*
X157688504Y-106950000D01*
X157688316Y-106948214D01*
X157707816Y-106881804D01*
X157724719Y-106860830D01*
X168380125Y-96205424D01*
X168442437Y-96171398D01*
X168513252Y-96176463D01*
X168570088Y-96219010D01*
X168594741Y-96283537D01*
X168610542Y-96464142D01*
X168611966Y-96469455D01*
X168611966Y-96469457D01*
X168653476Y-96624371D01*
X168666178Y-96671777D01*
X168668500Y-96676757D01*
X168668501Y-96676759D01*
X168722897Y-96793410D01*
X168757024Y-96866596D01*
X168880319Y-97042681D01*
X169032319Y-97194681D01*
X169208403Y-97317976D01*
X169213381Y-97320297D01*
X169213384Y-97320299D01*
X169397231Y-97406028D01*
X169403223Y-97408822D01*
X169408531Y-97410244D01*
X169408533Y-97410245D01*
X169605543Y-97463034D01*
X169605545Y-97463034D01*
X169610858Y-97464458D01*
X169825000Y-97483193D01*
X170039142Y-97464458D01*
X170044455Y-97463034D01*
X170044457Y-97463034D01*
X170241467Y-97410245D01*
X170241469Y-97410244D01*
X170246777Y-97408822D01*
X170252769Y-97406028D01*
X170436616Y-97320299D01*
X170436619Y-97320297D01*
X170441597Y-97317976D01*
X170497802Y-97278621D01*
X171700933Y-97278621D01*
X171710227Y-97290635D01*
X171744146Y-97314385D01*
X171753641Y-97319868D01*
X171938413Y-97406028D01*
X171948705Y-97409774D01*
X172145632Y-97462540D01*
X172156425Y-97464443D01*
X172359525Y-97482212D01*
X172370475Y-97482212D01*
X172573575Y-97464443D01*
X172584368Y-97462540D01*
X172781295Y-97409774D01*
X172791587Y-97406028D01*
X172976359Y-97319868D01*
X172985854Y-97314385D01*
X173020607Y-97290051D01*
X173028983Y-97279572D01*
X173021916Y-97266127D01*
X172377811Y-96622021D01*
X172363868Y-96614408D01*
X172362034Y-96614539D01*
X172355420Y-96618790D01*
X171707360Y-97266851D01*
X171700933Y-97278621D01*
X170497802Y-97278621D01*
X170617681Y-97194681D01*
X170769681Y-97042681D01*
X170892976Y-96866596D01*
X170923183Y-96801818D01*
X170981081Y-96677656D01*
X171027999Y-96624371D01*
X171096276Y-96604910D01*
X171164236Y-96625452D01*
X171209471Y-96677656D01*
X171295135Y-96861364D01*
X171300613Y-96870850D01*
X171324949Y-96905607D01*
X171335428Y-96913983D01*
X171348872Y-96906917D01*
X171992979Y-96262811D01*
X171999356Y-96251132D01*
X172729408Y-96251132D01*
X172729539Y-96252966D01*
X172733790Y-96259580D01*
X173381851Y-96907640D01*
X173393621Y-96914067D01*
X173405635Y-96904772D01*
X173429387Y-96870850D01*
X173434865Y-96861364D01*
X173520529Y-96677656D01*
X173567446Y-96624371D01*
X173635724Y-96604910D01*
X173703683Y-96625452D01*
X173748919Y-96677656D01*
X173806817Y-96801818D01*
X173837024Y-96866596D01*
X173960319Y-97042681D01*
X174112319Y-97194681D01*
X174288403Y-97317976D01*
X174293381Y-97320297D01*
X174293384Y-97320299D01*
X174477231Y-97406028D01*
X174483223Y-97408822D01*
X174488531Y-97410244D01*
X174488533Y-97410245D01*
X174685543Y-97463034D01*
X174685545Y-97463034D01*
X174690858Y-97464458D01*
X174905000Y-97483193D01*
X175119142Y-97464458D01*
X175124455Y-97463034D01*
X175124457Y-97463034D01*
X175321467Y-97410245D01*
X175321469Y-97410244D01*
X175326777Y-97408822D01*
X175332769Y-97406028D01*
X175516616Y-97320299D01*
X175516619Y-97320297D01*
X175521597Y-97317976D01*
X175697681Y-97194681D01*
X175849681Y-97042681D01*
X175972976Y-96866596D01*
X176007104Y-96793410D01*
X176061499Y-96676759D01*
X176061500Y-96676757D01*
X176063822Y-96671777D01*
X176076525Y-96624371D01*
X176118034Y-96469457D01*
X176118034Y-96469455D01*
X176119458Y-96464142D01*
X176138193Y-96250000D01*
X176119458Y-96035858D01*
X176092031Y-95933500D01*
X176065245Y-95833533D01*
X176065244Y-95833531D01*
X176063822Y-95828223D01*
X176061081Y-95822344D01*
X175975299Y-95638385D01*
X175975297Y-95638382D01*
X175972976Y-95633404D01*
X175849681Y-95457319D01*
X175697681Y-95305319D01*
X175521597Y-95182024D01*
X175516619Y-95179703D01*
X175516616Y-95179701D01*
X175331759Y-95093501D01*
X175331758Y-95093500D01*
X175326777Y-95091178D01*
X175321469Y-95089756D01*
X175321467Y-95089755D01*
X175124457Y-95036966D01*
X175124455Y-95036966D01*
X175119142Y-95035542D01*
X174905000Y-95016807D01*
X174690858Y-95035542D01*
X174685545Y-95036966D01*
X174685543Y-95036966D01*
X174488533Y-95089755D01*
X174488531Y-95089756D01*
X174483223Y-95091178D01*
X174478243Y-95093500D01*
X174478241Y-95093501D01*
X174293385Y-95179701D01*
X174293382Y-95179703D01*
X174288404Y-95182024D01*
X174112319Y-95305319D01*
X173960319Y-95457319D01*
X173837024Y-95633404D01*
X173834703Y-95638382D01*
X173834701Y-95638385D01*
X173748919Y-95822344D01*
X173702001Y-95875629D01*
X173633724Y-95895090D01*
X173565764Y-95874548D01*
X173520529Y-95822344D01*
X173434865Y-95638636D01*
X173429387Y-95629150D01*
X173405051Y-95594393D01*
X173394572Y-95586017D01*
X173381128Y-95593083D01*
X172737021Y-96237189D01*
X172729408Y-96251132D01*
X171999356Y-96251132D01*
X172000592Y-96248868D01*
X172000461Y-96247034D01*
X171996210Y-96240420D01*
X171348149Y-95592360D01*
X171336379Y-95585933D01*
X171324365Y-95595228D01*
X171300613Y-95629150D01*
X171295135Y-95638636D01*
X171209471Y-95822344D01*
X171162554Y-95875629D01*
X171094276Y-95895090D01*
X171026317Y-95874548D01*
X170981081Y-95822344D01*
X170895299Y-95638385D01*
X170895297Y-95638382D01*
X170892976Y-95633404D01*
X170769681Y-95457319D01*
X170617681Y-95305319D01*
X170496444Y-95220428D01*
X171701017Y-95220428D01*
X171708083Y-95233872D01*
X172352189Y-95877979D01*
X172366132Y-95885592D01*
X172367966Y-95885461D01*
X172374580Y-95881210D01*
X173022640Y-95233149D01*
X173029067Y-95221379D01*
X173019773Y-95209365D01*
X172985854Y-95185615D01*
X172976359Y-95180132D01*
X172791587Y-95093972D01*
X172781295Y-95090226D01*
X172584368Y-95037460D01*
X172573575Y-95035557D01*
X172370475Y-95017788D01*
X172359525Y-95017788D01*
X172156425Y-95035557D01*
X172145632Y-95037460D01*
X171948705Y-95090226D01*
X171938413Y-95093972D01*
X171753636Y-95180135D01*
X171744150Y-95185613D01*
X171709393Y-95209949D01*
X171701017Y-95220428D01*
X170496444Y-95220428D01*
X170441597Y-95182024D01*
X170436619Y-95179703D01*
X170436616Y-95179701D01*
X170251759Y-95093501D01*
X170251758Y-95093500D01*
X170246777Y-95091178D01*
X170241469Y-95089756D01*
X170241467Y-95089755D01*
X170044457Y-95036966D01*
X170044455Y-95036966D01*
X170039142Y-95035542D01*
X169825000Y-95016807D01*
X169610858Y-95035542D01*
X169605545Y-95036966D01*
X169605543Y-95036966D01*
X169408533Y-95089755D01*
X169408531Y-95089756D01*
X169403223Y-95091178D01*
X169398243Y-95093500D01*
X169398241Y-95093501D01*
X169213385Y-95179701D01*
X169213382Y-95179703D01*
X169208404Y-95182024D01*
X169032319Y-95305319D01*
X168880319Y-95457319D01*
X168862712Y-95482465D01*
X168807256Y-95526792D01*
X168736637Y-95534101D01*
X168673276Y-95502070D01*
X168637291Y-95440869D01*
X168633500Y-95410193D01*
X168633500Y-93225000D01*
X170711496Y-93225000D01*
X170712186Y-93231565D01*
X170728452Y-93386323D01*
X170731458Y-93414928D01*
X170790473Y-93596556D01*
X170793776Y-93602278D01*
X170793777Y-93602279D01*
X170798052Y-93609684D01*
X170885960Y-93761944D01*
X170890378Y-93766851D01*
X170890379Y-93766852D01*
X170987926Y-93875189D01*
X171013747Y-93903866D01*
X171168248Y-94016118D01*
X171174276Y-94018802D01*
X171174278Y-94018803D01*
X171336681Y-94091109D01*
X171342712Y-94093794D01*
X171436112Y-94113647D01*
X171523056Y-94132128D01*
X171523061Y-94132128D01*
X171529513Y-94133500D01*
X171720487Y-94133500D01*
X171726939Y-94132128D01*
X171726944Y-94132128D01*
X171813887Y-94113647D01*
X171907288Y-94093794D01*
X171913319Y-94091109D01*
X172075722Y-94018803D01*
X172075724Y-94018802D01*
X172081752Y-94016118D01*
X172143746Y-93971077D01*
X172221383Y-93914670D01*
X172236253Y-93903866D01*
X172262074Y-93875189D01*
X172322520Y-93837950D01*
X172355710Y-93833500D01*
X183245761Y-93833500D01*
X183313882Y-93853502D01*
X183334856Y-93870405D01*
X184400281Y-94935830D01*
X184434307Y-94998142D01*
X184436841Y-95021716D01*
X184436496Y-95025000D01*
X184437186Y-95031565D01*
X184452756Y-95179701D01*
X184456458Y-95214928D01*
X184515473Y-95396556D01*
X184610960Y-95561944D01*
X184615378Y-95566851D01*
X184615379Y-95566852D01*
X184640177Y-95594393D01*
X184738747Y-95703866D01*
X184825723Y-95767058D01*
X184858561Y-95790916D01*
X184893248Y-95816118D01*
X184899276Y-95818802D01*
X184899278Y-95818803D01*
X185049290Y-95885592D01*
X185067712Y-95893794D01*
X185161112Y-95913647D01*
X185248056Y-95932128D01*
X185248061Y-95932128D01*
X185254513Y-95933500D01*
X185445487Y-95933500D01*
X185451939Y-95932128D01*
X185451944Y-95932128D01*
X185538887Y-95913647D01*
X185632288Y-95893794D01*
X185650710Y-95885592D01*
X185800722Y-95818803D01*
X185800724Y-95818802D01*
X185806752Y-95816118D01*
X185841441Y-95790915D01*
X185908306Y-95767058D01*
X185977457Y-95783138D01*
X186026938Y-95834051D01*
X186041500Y-95892852D01*
X186041500Y-103820761D01*
X186021498Y-103888882D01*
X186004595Y-103909856D01*
X182959856Y-106954595D01*
X182897544Y-106988621D01*
X182870761Y-106991500D01*
X182779513Y-106991500D01*
X182773061Y-106992872D01*
X182773056Y-106992872D01*
X182686113Y-107011353D01*
X182592712Y-107031206D01*
X182586682Y-107033891D01*
X182586681Y-107033891D01*
X182424278Y-107106197D01*
X182424276Y-107106198D01*
X182418248Y-107108882D01*
X182263747Y-107221134D01*
X182259326Y-107226044D01*
X182259325Y-107226045D01*
X182165988Y-107329707D01*
X182135960Y-107363056D01*
X182118208Y-107393803D01*
X182053637Y-107505644D01*
X182040473Y-107528444D01*
X181981458Y-107710072D01*
X181980768Y-107716633D01*
X181980768Y-107716635D01*
X181975189Y-107769715D01*
X181961496Y-107900000D01*
X181962186Y-107906565D01*
X181979417Y-108070506D01*
X181981458Y-108089928D01*
X182040473Y-108271556D01*
X182135960Y-108436944D01*
X182263747Y-108578866D01*
X182347778Y-108639918D01*
X182402994Y-108680035D01*
X182418248Y-108691118D01*
X182424276Y-108693802D01*
X182424278Y-108693803D01*
X182552512Y-108750896D01*
X182592712Y-108768794D01*
X182686113Y-108788647D01*
X182773056Y-108807128D01*
X182773061Y-108807128D01*
X182779513Y-108808500D01*
X182970487Y-108808500D01*
X182976939Y-108807128D01*
X182976944Y-108807128D01*
X183063888Y-108788647D01*
X183157288Y-108768794D01*
X183197488Y-108750896D01*
X183325722Y-108693803D01*
X183325724Y-108693802D01*
X183331752Y-108691118D01*
X183347007Y-108680035D01*
X183402222Y-108639918D01*
X183486253Y-108578866D01*
X183614040Y-108436944D01*
X183709527Y-108271556D01*
X183768542Y-108089928D01*
X183770584Y-108070506D01*
X183787814Y-107906565D01*
X183788504Y-107900000D01*
X183788316Y-107898214D01*
X183807816Y-107831804D01*
X183824719Y-107810830D01*
X187046234Y-104589315D01*
X187058625Y-104578448D01*
X187077437Y-104564013D01*
X187083987Y-104558987D01*
X187108474Y-104527075D01*
X187108480Y-104527069D01*
X187176496Y-104438429D01*
X187176497Y-104438427D01*
X187181524Y-104431876D01*
X187187092Y-104418435D01*
X187222983Y-104331783D01*
X187222984Y-104331781D01*
X187239679Y-104291476D01*
X187242838Y-104283850D01*
X187258500Y-104164885D01*
X187258500Y-104164878D01*
X187263750Y-104125000D01*
X187259578Y-104093307D01*
X187258500Y-104076864D01*
X187258500Y-93223136D01*
X187259578Y-93206690D01*
X187262672Y-93183188D01*
X187263750Y-93175000D01*
X187258500Y-93135122D01*
X187258500Y-93135115D01*
X187242838Y-93016150D01*
X187181524Y-92868125D01*
X187149981Y-92827017D01*
X187108477Y-92772928D01*
X187108474Y-92772925D01*
X187083987Y-92741013D01*
X187077432Y-92735983D01*
X187058621Y-92721548D01*
X187046230Y-92710681D01*
X185799719Y-91464170D01*
X185765693Y-91401858D01*
X185763159Y-91378284D01*
X185763504Y-91375000D01*
X185746554Y-91213728D01*
X185744232Y-91191635D01*
X185744232Y-91191633D01*
X185743542Y-91185072D01*
X185684527Y-91003444D01*
X185675328Y-90987510D01*
X185643353Y-90932128D01*
X185589040Y-90838056D01*
X185565793Y-90812237D01*
X185465675Y-90701045D01*
X185465674Y-90701044D01*
X185461253Y-90696134D01*
X185306752Y-90583882D01*
X185300724Y-90581198D01*
X185300722Y-90581197D01*
X185138319Y-90508891D01*
X185138318Y-90508891D01*
X185132288Y-90506206D01*
X185038887Y-90486353D01*
X184951944Y-90467872D01*
X184951939Y-90467872D01*
X184945487Y-90466500D01*
X184754513Y-90466500D01*
X184748061Y-90467872D01*
X184748056Y-90467872D01*
X184661113Y-90486353D01*
X184567712Y-90506206D01*
X184561682Y-90508891D01*
X184561681Y-90508891D01*
X184399278Y-90581197D01*
X184399276Y-90581198D01*
X184393248Y-90583882D01*
X184238747Y-90696134D01*
X184234326Y-90701044D01*
X184234325Y-90701045D01*
X184134208Y-90812237D01*
X184110960Y-90838056D01*
X184056647Y-90932128D01*
X184024673Y-90987510D01*
X184015473Y-91003444D01*
X183956458Y-91185072D01*
X183955768Y-91191633D01*
X183955768Y-91191635D01*
X183953446Y-91213728D01*
X183936496Y-91375000D01*
X183937186Y-91381565D01*
X183938855Y-91397440D01*
X183956458Y-91564928D01*
X184015473Y-91746556D01*
X184110960Y-91911944D01*
X184115378Y-91916851D01*
X184115379Y-91916852D01*
X184234325Y-92048955D01*
X184238747Y-92053866D01*
X184393248Y-92166118D01*
X184399276Y-92168802D01*
X184399278Y-92168803D01*
X184538583Y-92230825D01*
X184567712Y-92243794D01*
X184661113Y-92263647D01*
X184748056Y-92282128D01*
X184748061Y-92282128D01*
X184754513Y-92283500D01*
X184845761Y-92283500D01*
X184913882Y-92303502D01*
X184934856Y-92320405D01*
X186004595Y-93390144D01*
X186038621Y-93452456D01*
X186041500Y-93479239D01*
X186041500Y-94157148D01*
X186021498Y-94225269D01*
X185967842Y-94271762D01*
X185897568Y-94281866D01*
X185841441Y-94259085D01*
X185806752Y-94233882D01*
X185800724Y-94231198D01*
X185800722Y-94231197D01*
X185638319Y-94158891D01*
X185638318Y-94158891D01*
X185632288Y-94156206D01*
X185538888Y-94136353D01*
X185451944Y-94117872D01*
X185451939Y-94117872D01*
X185445487Y-94116500D01*
X185354239Y-94116500D01*
X185286118Y-94096498D01*
X185265144Y-94079595D01*
X184014315Y-92828766D01*
X184003448Y-92816375D01*
X183989013Y-92797563D01*
X183983987Y-92791013D01*
X183952075Y-92766526D01*
X183952072Y-92766523D01*
X183879298Y-92710681D01*
X183863429Y-92698504D01*
X183863427Y-92698503D01*
X183856876Y-92693476D01*
X183708851Y-92632162D01*
X183700664Y-92631084D01*
X183700663Y-92631084D01*
X183689458Y-92629609D01*
X183658262Y-92625502D01*
X183589885Y-92616500D01*
X183589882Y-92616500D01*
X183589874Y-92616499D01*
X183558189Y-92612328D01*
X183550000Y-92611250D01*
X183518307Y-92615422D01*
X183501864Y-92616500D01*
X172355710Y-92616500D01*
X172287589Y-92596498D01*
X172262074Y-92574811D01*
X172240668Y-92551037D01*
X172240666Y-92551036D01*
X172236253Y-92546134D01*
X172202650Y-92521720D01*
X172087094Y-92437763D01*
X172087093Y-92437762D01*
X172081752Y-92433882D01*
X172075724Y-92431198D01*
X172075722Y-92431197D01*
X171913319Y-92358891D01*
X171913318Y-92358891D01*
X171907288Y-92356206D01*
X171813887Y-92336353D01*
X171726944Y-92317872D01*
X171726939Y-92317872D01*
X171720487Y-92316500D01*
X171529513Y-92316500D01*
X171523061Y-92317872D01*
X171523056Y-92317872D01*
X171436112Y-92336353D01*
X171342712Y-92356206D01*
X171336682Y-92358891D01*
X171336681Y-92358891D01*
X171174278Y-92431197D01*
X171174276Y-92431198D01*
X171168248Y-92433882D01*
X171162907Y-92437762D01*
X171162906Y-92437763D01*
X171130118Y-92461585D01*
X171013747Y-92546134D01*
X171009326Y-92551044D01*
X171009325Y-92551045D01*
X170903928Y-92668101D01*
X170885960Y-92688056D01*
X170790473Y-92853444D01*
X170731458Y-93035072D01*
X170711496Y-93225000D01*
X168633500Y-93225000D01*
X168633500Y-88380290D01*
X168653502Y-88312169D01*
X168665864Y-88295980D01*
X168759621Y-88191852D01*
X168759622Y-88191851D01*
X168764040Y-88186944D01*
X168859527Y-88021556D01*
X168918542Y-87839928D01*
X168938504Y-87650000D01*
X168918542Y-87460072D01*
X168859527Y-87278444D01*
X168764040Y-87113056D01*
X168636253Y-86971134D01*
X168481752Y-86858882D01*
X168475724Y-86856198D01*
X168475722Y-86856197D01*
X168313319Y-86783891D01*
X168313318Y-86783891D01*
X168307288Y-86781206D01*
X168213887Y-86761353D01*
X168126944Y-86742872D01*
X168126939Y-86742872D01*
X168120487Y-86741500D01*
X167929513Y-86741500D01*
X167923061Y-86742872D01*
X167923056Y-86742872D01*
X167836112Y-86761353D01*
X167742712Y-86781206D01*
X167736682Y-86783891D01*
X167736681Y-86783891D01*
X167574278Y-86856197D01*
X167574276Y-86856198D01*
X167568248Y-86858882D01*
X167413747Y-86971134D01*
X167285960Y-87113056D01*
X167190473Y-87278444D01*
X167131458Y-87460072D01*
X167111496Y-87650000D01*
X167131458Y-87839928D01*
X167190473Y-88021556D01*
X167285960Y-88186944D01*
X167290378Y-88191851D01*
X167290379Y-88191852D01*
X167384136Y-88295980D01*
X167414854Y-88359987D01*
X167416500Y-88380290D01*
X167416500Y-95395761D01*
X167396498Y-95463882D01*
X167379595Y-95484856D01*
X158298595Y-104565856D01*
X158236283Y-104599882D01*
X158165468Y-104594817D01*
X158108632Y-104552270D01*
X158083821Y-104485750D01*
X158083500Y-104476761D01*
X158083500Y-101492069D01*
X158084933Y-101473118D01*
X158087099Y-101458883D01*
X158087099Y-101458881D01*
X158088199Y-101451651D01*
X158086170Y-101426697D01*
X158083915Y-101398982D01*
X158083500Y-101388767D01*
X158083500Y-101380707D01*
X158080211Y-101352493D01*
X158079778Y-101348118D01*
X158074454Y-101282661D01*
X158074453Y-101282658D01*
X158073860Y-101275363D01*
X158071604Y-101268399D01*
X158070413Y-101262440D01*
X158069029Y-101256585D01*
X158068182Y-101249319D01*
X158043265Y-101180673D01*
X158041848Y-101176545D01*
X158021607Y-101114064D01*
X158021606Y-101114062D01*
X158019351Y-101107101D01*
X158015555Y-101100846D01*
X158013049Y-101095372D01*
X158010330Y-101089942D01*
X158007833Y-101083063D01*
X157967809Y-101022016D01*
X157965472Y-101018312D01*
X157930509Y-100960693D01*
X157930505Y-100960688D01*
X157927595Y-100955892D01*
X157920197Y-100947516D01*
X157920223Y-100947493D01*
X157917574Y-100944503D01*
X157914866Y-100941264D01*
X157910856Y-100935148D01*
X157905549Y-100930121D01*
X157905546Y-100930117D01*
X157854617Y-100881872D01*
X157852175Y-100879494D01*
X157270125Y-100297444D01*
X157239387Y-100247285D01*
X157190426Y-100096598D01*
X157184527Y-100078444D01*
X157156429Y-100029776D01*
X157108164Y-99946180D01*
X157089040Y-99913056D01*
X157058905Y-99879587D01*
X156965675Y-99776045D01*
X156965674Y-99776044D01*
X156961253Y-99771134D01*
X156806752Y-99658882D01*
X156800724Y-99656198D01*
X156800722Y-99656197D01*
X156638319Y-99583891D01*
X156638318Y-99583891D01*
X156632288Y-99581206D01*
X156538888Y-99561353D01*
X156451944Y-99542872D01*
X156451939Y-99542872D01*
X156445487Y-99541500D01*
X156254513Y-99541500D01*
X156248061Y-99542872D01*
X156248056Y-99542872D01*
X156161112Y-99561353D01*
X156067712Y-99581206D01*
X156061682Y-99583891D01*
X156061681Y-99583891D01*
X155899278Y-99656197D01*
X155899276Y-99656198D01*
X155893248Y-99658882D01*
X155738747Y-99771134D01*
X155734326Y-99776044D01*
X155734325Y-99776045D01*
X155641096Y-99879587D01*
X155610960Y-99913056D01*
X155591836Y-99946180D01*
X155543572Y-100029776D01*
X155515473Y-100078444D01*
X155509575Y-100096598D01*
X155460613Y-100247285D01*
X155429875Y-100297444D01*
X152097724Y-103629595D01*
X152035412Y-103663621D01*
X152008629Y-103666500D01*
X137392587Y-103666500D01*
X137318528Y-103642437D01*
X137312098Y-103637765D01*
X137312091Y-103637761D01*
X137306752Y-103633882D01*
X137300724Y-103631198D01*
X137300722Y-103631197D01*
X137138319Y-103558891D01*
X137138318Y-103558891D01*
X137132288Y-103556206D01*
X137038888Y-103536353D01*
X136951944Y-103517872D01*
X136951939Y-103517872D01*
X136945487Y-103516500D01*
X136754513Y-103516500D01*
X136748061Y-103517872D01*
X136748056Y-103517872D01*
X136661112Y-103536353D01*
X136567712Y-103556206D01*
X136561682Y-103558891D01*
X136561681Y-103558891D01*
X136399278Y-103631197D01*
X136399276Y-103631198D01*
X136393248Y-103633882D01*
X136387907Y-103637762D01*
X136387906Y-103637763D01*
X136381473Y-103642437D01*
X136238747Y-103746134D01*
X136234326Y-103751044D01*
X136234325Y-103751045D01*
X136116596Y-103881797D01*
X136110960Y-103888056D01*
X136099561Y-103907800D01*
X136019269Y-104046870D01*
X136015473Y-104053444D01*
X135956458Y-104235072D01*
X135955768Y-104241633D01*
X135955768Y-104241635D01*
X135946293Y-104331783D01*
X135936496Y-104425000D01*
X114697681Y-104425000D01*
X112283770Y-102011089D01*
X112271384Y-101996677D01*
X112262851Y-101985082D01*
X112262846Y-101985077D01*
X112258508Y-101979182D01*
X112252930Y-101974443D01*
X112252927Y-101974440D01*
X112218232Y-101944965D01*
X112210716Y-101938035D01*
X112205021Y-101932340D01*
X112192896Y-101922747D01*
X112182749Y-101914719D01*
X112179345Y-101911928D01*
X112129297Y-101869409D01*
X112129295Y-101869408D01*
X112123715Y-101864667D01*
X112117199Y-101861339D01*
X112112150Y-101857972D01*
X112107021Y-101854805D01*
X112101284Y-101850266D01*
X112035125Y-101819345D01*
X112031225Y-101817439D01*
X111966192Y-101784231D01*
X111959084Y-101782492D01*
X111953441Y-101780393D01*
X111947678Y-101778476D01*
X111941050Y-101775378D01*
X111869583Y-101760513D01*
X111865299Y-101759543D01*
X111794390Y-101742192D01*
X111788788Y-101741844D01*
X111788785Y-101741844D01*
X111783236Y-101741500D01*
X111783238Y-101741464D01*
X111779245Y-101741225D01*
X111775053Y-101740851D01*
X111767885Y-101739360D01*
X111701675Y-101741151D01*
X111690479Y-101741454D01*
X111687072Y-101741500D01*
X108248212Y-101741500D01*
X108180091Y-101721498D01*
X108167897Y-101712585D01*
X108146206Y-101694641D01*
X108104175Y-101659870D01*
X107930201Y-101565802D01*
X107741268Y-101507318D01*
X107735143Y-101506674D01*
X107735142Y-101506674D01*
X107550704Y-101487289D01*
X107550702Y-101487289D01*
X107544575Y-101486645D01*
X107466021Y-101493794D01*
X107353751Y-101504011D01*
X107353748Y-101504012D01*
X107347612Y-101504570D01*
X107341706Y-101506308D01*
X107341702Y-101506309D01*
X107286075Y-101522681D01*
X107157881Y-101560410D01*
X107152423Y-101563263D01*
X107152419Y-101563265D01*
X107106648Y-101587194D01*
X106982610Y-101652040D01*
X106828475Y-101775968D01*
X106701346Y-101927474D01*
X106698379Y-101932872D01*
X106698375Y-101932877D01*
X106630714Y-102055954D01*
X106606067Y-102100787D01*
X106546265Y-102289306D01*
X106524219Y-102485851D01*
X102901993Y-102485851D01*
X102884852Y-102277361D01*
X102830431Y-102060702D01*
X102741354Y-101855840D01*
X102692545Y-101780393D01*
X102622822Y-101672617D01*
X102622820Y-101672614D01*
X102620014Y-101668277D01*
X102469670Y-101503051D01*
X102465619Y-101499852D01*
X102465615Y-101499848D01*
X102298414Y-101367800D01*
X102298410Y-101367798D01*
X102294359Y-101364598D01*
X102264506Y-101348118D01*
X102242136Y-101335769D01*
X102098789Y-101256638D01*
X102093920Y-101254914D01*
X102093916Y-101254912D01*
X101893087Y-101183795D01*
X101893083Y-101183794D01*
X101888212Y-101182069D01*
X101883119Y-101181162D01*
X101883116Y-101181161D01*
X101673373Y-101143800D01*
X101673367Y-101143799D01*
X101668284Y-101142894D01*
X101594452Y-101141992D01*
X101450081Y-101140228D01*
X101450079Y-101140228D01*
X101444911Y-101140165D01*
X101224091Y-101173955D01*
X101011756Y-101243357D01*
X100950273Y-101275363D01*
X100891678Y-101305866D01*
X100813607Y-101346507D01*
X100809474Y-101349610D01*
X100809471Y-101349612D01*
X100639100Y-101477530D01*
X100634965Y-101480635D01*
X100537320Y-101582815D01*
X100501027Y-101620793D01*
X100439503Y-101656223D01*
X100368590Y-101652766D01*
X100310804Y-101611520D01*
X100295833Y-101587194D01*
X100293865Y-101582994D01*
X100291550Y-101576054D01*
X100198478Y-101425652D01*
X100073303Y-101300695D01*
X99989956Y-101249319D01*
X99928968Y-101211725D01*
X99928966Y-101211724D01*
X99922738Y-101207885D01*
X99799027Y-101166852D01*
X99761389Y-101154368D01*
X99761387Y-101154368D01*
X99754861Y-101152203D01*
X99748025Y-101151503D01*
X99748022Y-101151502D01*
X99704969Y-101147091D01*
X99650400Y-101141500D01*
X98349600Y-101141500D01*
X98346354Y-101141837D01*
X98346350Y-101141837D01*
X98250692Y-101151762D01*
X98250688Y-101151763D01*
X98243834Y-101152474D01*
X98237298Y-101154655D01*
X98237296Y-101154655D01*
X98157849Y-101181161D01*
X98076054Y-101208450D01*
X97925652Y-101301522D01*
X97920479Y-101306704D01*
X97862686Y-101364598D01*
X97800695Y-101426697D01*
X97796855Y-101432927D01*
X97796854Y-101432928D01*
X97712466Y-101569831D01*
X97707885Y-101577262D01*
X97686367Y-101642138D01*
X97663001Y-101712585D01*
X97652203Y-101745139D01*
X97651503Y-101751975D01*
X97651502Y-101751978D01*
X97650210Y-101764588D01*
X97641500Y-101849600D01*
X97641500Y-103150400D01*
X97641837Y-103153646D01*
X97641837Y-103153650D01*
X97647298Y-103206277D01*
X97652474Y-103256166D01*
X97654655Y-103262702D01*
X97654655Y-103262704D01*
X97698728Y-103394806D01*
X97708450Y-103423946D01*
X97801522Y-103574348D01*
X97926697Y-103699305D01*
X97932927Y-103703145D01*
X97932928Y-103703146D01*
X97945855Y-103711114D01*
X98077262Y-103792115D01*
X98084209Y-103794419D01*
X98086276Y-103795383D01*
X98139561Y-103842299D01*
X98159023Y-103910576D01*
X98138482Y-103978536D01*
X98108681Y-104010337D01*
X98094965Y-104020635D01*
X97940629Y-104182138D01*
X97814743Y-104366680D01*
X97720688Y-104569305D01*
X97660989Y-104784570D01*
X97637251Y-105006695D01*
X97637548Y-105011848D01*
X97637548Y-105011851D01*
X97646691Y-105170413D01*
X97650110Y-105229715D01*
X97651247Y-105234761D01*
X97651248Y-105234767D01*
X97663946Y-105291109D01*
X97699222Y-105447639D01*
X97783266Y-105654616D01*
X97821986Y-105717801D01*
X97897291Y-105840688D01*
X97899987Y-105845088D01*
X98046250Y-106013938D01*
X98218126Y-106156632D01*
X98288595Y-106197811D01*
X98291445Y-106199476D01*
X98340169Y-106251114D01*
X98353240Y-106320897D01*
X98326509Y-106386669D01*
X98286055Y-106420027D01*
X98273607Y-106426507D01*
X98269474Y-106429610D01*
X98269471Y-106429612D01*
X98196964Y-106484052D01*
X98094965Y-106560635D01*
X97940629Y-106722138D01*
X97814743Y-106906680D01*
X97720688Y-107109305D01*
X97660989Y-107324570D01*
X97637251Y-107546695D01*
X95508500Y-107546695D01*
X95508500Y-93000000D01*
X98436681Y-93000000D01*
X98455928Y-93244557D01*
X98457082Y-93249364D01*
X98457083Y-93249370D01*
X98469151Y-93299637D01*
X98513195Y-93483092D01*
X98515088Y-93487663D01*
X98515089Y-93487665D01*
X98534064Y-93533474D01*
X98607073Y-93709732D01*
X98642076Y-93766852D01*
X98728415Y-93907745D01*
X98735248Y-93918896D01*
X98738463Y-93922660D01*
X98738465Y-93922663D01*
X98818284Y-94016118D01*
X98894567Y-94105433D01*
X98898323Y-94108641D01*
X99074468Y-94259084D01*
X99081104Y-94264752D01*
X99085327Y-94267340D01*
X99085330Y-94267342D01*
X99154515Y-94309738D01*
X99290268Y-94392927D01*
X99358706Y-94421275D01*
X99512335Y-94484911D01*
X99512337Y-94484912D01*
X99516908Y-94486805D01*
X99590605Y-94504498D01*
X99750630Y-94542917D01*
X99750636Y-94542918D01*
X99755443Y-94544072D01*
X100000000Y-94563319D01*
X100244557Y-94544072D01*
X100249364Y-94542918D01*
X100249370Y-94542917D01*
X100409395Y-94504498D01*
X100483092Y-94486805D01*
X100487663Y-94484912D01*
X100487665Y-94484911D01*
X100641294Y-94421275D01*
X100709732Y-94392927D01*
X100845485Y-94309738D01*
X100914670Y-94267342D01*
X100914673Y-94267340D01*
X100918896Y-94264752D01*
X100925533Y-94259084D01*
X101101677Y-94108641D01*
X101105433Y-94105433D01*
X101181716Y-94016118D01*
X101261535Y-93922663D01*
X101261537Y-93922660D01*
X101264752Y-93918896D01*
X101271586Y-93907745D01*
X101357924Y-93766852D01*
X101392927Y-93709732D01*
X101465936Y-93533474D01*
X101484911Y-93487665D01*
X101484912Y-93487663D01*
X101486805Y-93483092D01*
X101528220Y-93310587D01*
X133537483Y-93310587D01*
X133556472Y-93527631D01*
X133558375Y-93538424D01*
X133614764Y-93748873D01*
X133618510Y-93759165D01*
X133710586Y-93956623D01*
X133716071Y-93966123D01*
X133716701Y-93967022D01*
X133716856Y-93967482D01*
X133718818Y-93970880D01*
X133718135Y-93971274D01*
X133739388Y-94034296D01*
X133722102Y-94103156D01*
X133699066Y-94128915D01*
X133700270Y-94130119D01*
X133693919Y-94136470D01*
X133686739Y-94141851D01*
X133681358Y-94149031D01*
X133681355Y-94149034D01*
X133636289Y-94209166D01*
X133599385Y-94258407D01*
X133548255Y-94394796D01*
X133541500Y-94456978D01*
X133541500Y-96153246D01*
X133548255Y-96215428D01*
X133599385Y-96351817D01*
X133686739Y-96468373D01*
X133803295Y-96555727D01*
X133939684Y-96606857D01*
X134001866Y-96613612D01*
X135698134Y-96613612D01*
X135760316Y-96606857D01*
X135896705Y-96555727D01*
X136013261Y-96468373D01*
X136100615Y-96351817D01*
X136151745Y-96215428D01*
X136158500Y-96153246D01*
X136158500Y-96050000D01*
X142516807Y-96050000D01*
X142535542Y-96264142D01*
X142536966Y-96269455D01*
X142536966Y-96269457D01*
X142578476Y-96424371D01*
X142591178Y-96471777D01*
X142593500Y-96476757D01*
X142593501Y-96476759D01*
X142659732Y-96618790D01*
X142682024Y-96666596D01*
X142805319Y-96842681D01*
X142957319Y-96994681D01*
X143133403Y-97117976D01*
X143138381Y-97120297D01*
X143138384Y-97120299D01*
X143304672Y-97197840D01*
X143328223Y-97208822D01*
X143333531Y-97210244D01*
X143333533Y-97210245D01*
X143530543Y-97263034D01*
X143530545Y-97263034D01*
X143535858Y-97264458D01*
X143750000Y-97283193D01*
X143964142Y-97264458D01*
X143969455Y-97263034D01*
X143969457Y-97263034D01*
X144166467Y-97210245D01*
X144166469Y-97210244D01*
X144171777Y-97208822D01*
X144195328Y-97197840D01*
X144361616Y-97120299D01*
X144361619Y-97120297D01*
X144366597Y-97117976D01*
X144422802Y-97078621D01*
X145625933Y-97078621D01*
X145635227Y-97090635D01*
X145669146Y-97114385D01*
X145678641Y-97119868D01*
X145863413Y-97206028D01*
X145873705Y-97209774D01*
X146070632Y-97262540D01*
X146081425Y-97264443D01*
X146284525Y-97282212D01*
X146295475Y-97282212D01*
X146498575Y-97264443D01*
X146509368Y-97262540D01*
X146706295Y-97209774D01*
X146716587Y-97206028D01*
X146901359Y-97119868D01*
X146910854Y-97114385D01*
X146945607Y-97090051D01*
X146953983Y-97079572D01*
X146946916Y-97066127D01*
X146302811Y-96422021D01*
X146288868Y-96414408D01*
X146287034Y-96414539D01*
X146280420Y-96418790D01*
X145632360Y-97066851D01*
X145625933Y-97078621D01*
X144422802Y-97078621D01*
X144542681Y-96994681D01*
X144694681Y-96842681D01*
X144817976Y-96666596D01*
X144838762Y-96622021D01*
X144906081Y-96477656D01*
X144952999Y-96424371D01*
X145021276Y-96404910D01*
X145089236Y-96425452D01*
X145134471Y-96477656D01*
X145220135Y-96661364D01*
X145225613Y-96670850D01*
X145249949Y-96705607D01*
X145260428Y-96713983D01*
X145273872Y-96706917D01*
X145917979Y-96062811D01*
X145924356Y-96051132D01*
X146654408Y-96051132D01*
X146654539Y-96052966D01*
X146658790Y-96059580D01*
X147306851Y-96707640D01*
X147318621Y-96714067D01*
X147330635Y-96704772D01*
X147354387Y-96670850D01*
X147359865Y-96661364D01*
X147445529Y-96477656D01*
X147492446Y-96424371D01*
X147560724Y-96404910D01*
X147628683Y-96425452D01*
X147673919Y-96477656D01*
X147741238Y-96622021D01*
X147762024Y-96666596D01*
X147885319Y-96842681D01*
X148037319Y-96994681D01*
X148213403Y-97117976D01*
X148218381Y-97120297D01*
X148218384Y-97120299D01*
X148384672Y-97197840D01*
X148408223Y-97208822D01*
X148413531Y-97210244D01*
X148413533Y-97210245D01*
X148610543Y-97263034D01*
X148610545Y-97263034D01*
X148615858Y-97264458D01*
X148830000Y-97283193D01*
X149044142Y-97264458D01*
X149049455Y-97263034D01*
X149049457Y-97263034D01*
X149246467Y-97210245D01*
X149246469Y-97210244D01*
X149251777Y-97208822D01*
X149275328Y-97197840D01*
X149441616Y-97120299D01*
X149441619Y-97120297D01*
X149446597Y-97117976D01*
X149622681Y-96994681D01*
X149774681Y-96842681D01*
X149897976Y-96666596D01*
X149920269Y-96618790D01*
X149986499Y-96476759D01*
X149986500Y-96476757D01*
X149988822Y-96471777D01*
X150001525Y-96424371D01*
X150043034Y-96269457D01*
X150043034Y-96269455D01*
X150044458Y-96264142D01*
X150063193Y-96050000D01*
X150044458Y-95835858D01*
X150002154Y-95677979D01*
X149990245Y-95633533D01*
X149990244Y-95633531D01*
X149988822Y-95628223D01*
X149960204Y-95566852D01*
X149900299Y-95438385D01*
X149900297Y-95438382D01*
X149897976Y-95433404D01*
X149774681Y-95257319D01*
X149622681Y-95105319D01*
X149446597Y-94982024D01*
X149441619Y-94979703D01*
X149441616Y-94979701D01*
X149256759Y-94893501D01*
X149256758Y-94893500D01*
X149251777Y-94891178D01*
X149246469Y-94889756D01*
X149246467Y-94889755D01*
X149049457Y-94836966D01*
X149049455Y-94836966D01*
X149044142Y-94835542D01*
X148830000Y-94816807D01*
X148615858Y-94835542D01*
X148610545Y-94836966D01*
X148610543Y-94836966D01*
X148413533Y-94889755D01*
X148413531Y-94889756D01*
X148408223Y-94891178D01*
X148403243Y-94893500D01*
X148403241Y-94893501D01*
X148218385Y-94979701D01*
X148218382Y-94979703D01*
X148213404Y-94982024D01*
X148037319Y-95105319D01*
X147885319Y-95257319D01*
X147762024Y-95433404D01*
X147759703Y-95438382D01*
X147759701Y-95438385D01*
X147673919Y-95622344D01*
X147627001Y-95675629D01*
X147558724Y-95695090D01*
X147490764Y-95674548D01*
X147445529Y-95622344D01*
X147359865Y-95438636D01*
X147354387Y-95429150D01*
X147330051Y-95394393D01*
X147319572Y-95386017D01*
X147306128Y-95393083D01*
X146662021Y-96037189D01*
X146654408Y-96051132D01*
X145924356Y-96051132D01*
X145925592Y-96048868D01*
X145925461Y-96047034D01*
X145921210Y-96040420D01*
X145273149Y-95392360D01*
X145261379Y-95385933D01*
X145249365Y-95395228D01*
X145225613Y-95429150D01*
X145220135Y-95438636D01*
X145134471Y-95622344D01*
X145087554Y-95675629D01*
X145019276Y-95695090D01*
X144951317Y-95674548D01*
X144906081Y-95622344D01*
X144820299Y-95438385D01*
X144820297Y-95438382D01*
X144817976Y-95433404D01*
X144694681Y-95257319D01*
X144542681Y-95105319D01*
X144421444Y-95020428D01*
X145626017Y-95020428D01*
X145633083Y-95033872D01*
X146277189Y-95677979D01*
X146291132Y-95685592D01*
X146292966Y-95685461D01*
X146299580Y-95681210D01*
X146947640Y-95033149D01*
X146954067Y-95021379D01*
X146944773Y-95009365D01*
X146910854Y-94985615D01*
X146901359Y-94980132D01*
X146716587Y-94893972D01*
X146706295Y-94890226D01*
X146509368Y-94837460D01*
X146498575Y-94835557D01*
X146295475Y-94817788D01*
X146284525Y-94817788D01*
X146081425Y-94835557D01*
X146070632Y-94837460D01*
X145873705Y-94890226D01*
X145863413Y-94893972D01*
X145678636Y-94980135D01*
X145669150Y-94985613D01*
X145634393Y-95009949D01*
X145626017Y-95020428D01*
X144421444Y-95020428D01*
X144366597Y-94982024D01*
X144361619Y-94979703D01*
X144361616Y-94979701D01*
X144176759Y-94893501D01*
X144176758Y-94893500D01*
X144171777Y-94891178D01*
X144166469Y-94889756D01*
X144166467Y-94889755D01*
X143969457Y-94836966D01*
X143969455Y-94836966D01*
X143964142Y-94835542D01*
X143750000Y-94816807D01*
X143535858Y-94835542D01*
X143530545Y-94836966D01*
X143530543Y-94836966D01*
X143333533Y-94889755D01*
X143333531Y-94889756D01*
X143328223Y-94891178D01*
X143323243Y-94893500D01*
X143323241Y-94893501D01*
X143138385Y-94979701D01*
X143138382Y-94979703D01*
X143133404Y-94982024D01*
X142957319Y-95105319D01*
X142805319Y-95257319D01*
X142682024Y-95433404D01*
X142679703Y-95438382D01*
X142679701Y-95438385D01*
X142619796Y-95566852D01*
X142591178Y-95628223D01*
X142589756Y-95633531D01*
X142589755Y-95633533D01*
X142577846Y-95677979D01*
X142535542Y-95835858D01*
X142516807Y-96050000D01*
X136158500Y-96050000D01*
X136158500Y-94456978D01*
X136151745Y-94394796D01*
X136100615Y-94258407D01*
X136063711Y-94209166D01*
X136018645Y-94149034D01*
X136018642Y-94149031D01*
X136013261Y-94141851D01*
X136006081Y-94136470D01*
X135999730Y-94130119D01*
X136001872Y-94127977D01*
X135968436Y-94083266D01*
X135963406Y-94012448D01*
X135981523Y-93971077D01*
X135981182Y-93970880D01*
X135982952Y-93967814D01*
X135983299Y-93967022D01*
X135983929Y-93966123D01*
X135989414Y-93956623D01*
X136081490Y-93759165D01*
X136085236Y-93748873D01*
X136141625Y-93538424D01*
X136143528Y-93527631D01*
X136162517Y-93310587D01*
X136162517Y-93299637D01*
X136143528Y-93082593D01*
X136142189Y-93075000D01*
X146136496Y-93075000D01*
X146137186Y-93081565D01*
X146152066Y-93223136D01*
X146156458Y-93264928D01*
X146215473Y-93446556D01*
X146218776Y-93452278D01*
X146218777Y-93452279D01*
X146239207Y-93487665D01*
X146310960Y-93611944D01*
X146315378Y-93616851D01*
X146315379Y-93616852D01*
X146402807Y-93713951D01*
X146438747Y-93753866D01*
X146456621Y-93766852D01*
X146575884Y-93853502D01*
X146593248Y-93866118D01*
X146599276Y-93868802D01*
X146599278Y-93868803D01*
X146761681Y-93941109D01*
X146767712Y-93943794D01*
X146861113Y-93963647D01*
X146948056Y-93982128D01*
X146948061Y-93982128D01*
X146954513Y-93983500D01*
X147145487Y-93983500D01*
X147151939Y-93982128D01*
X147151944Y-93982128D01*
X147238887Y-93963647D01*
X147332288Y-93943794D01*
X147338319Y-93941109D01*
X147500722Y-93868803D01*
X147500724Y-93868802D01*
X147506752Y-93866118D01*
X147524117Y-93853502D01*
X147652001Y-93760588D01*
X159162483Y-93760588D01*
X159181472Y-93977632D01*
X159183375Y-93988425D01*
X159239764Y-94198874D01*
X159243510Y-94209166D01*
X159335586Y-94406624D01*
X159341071Y-94416124D01*
X159341701Y-94417023D01*
X159341856Y-94417483D01*
X159343818Y-94420881D01*
X159343135Y-94421275D01*
X159364388Y-94484297D01*
X159347102Y-94553157D01*
X159324066Y-94578916D01*
X159325270Y-94580120D01*
X159318919Y-94586471D01*
X159311739Y-94591852D01*
X159306358Y-94599032D01*
X159306355Y-94599035D01*
X159258708Y-94662611D01*
X159224385Y-94708408D01*
X159173255Y-94844797D01*
X159166500Y-94906979D01*
X159166500Y-96603247D01*
X159173255Y-96665429D01*
X159224385Y-96801818D01*
X159311739Y-96918374D01*
X159428295Y-97005728D01*
X159564684Y-97056858D01*
X159626866Y-97063613D01*
X161323134Y-97063613D01*
X161385316Y-97056858D01*
X161521705Y-97005728D01*
X161638261Y-96918374D01*
X161725615Y-96801818D01*
X161776745Y-96665429D01*
X161783500Y-96603247D01*
X161783500Y-94906979D01*
X161776745Y-94844797D01*
X161725615Y-94708408D01*
X161691292Y-94662611D01*
X161643645Y-94599035D01*
X161643642Y-94599032D01*
X161638261Y-94591852D01*
X161631081Y-94586471D01*
X161624730Y-94580120D01*
X161626872Y-94577978D01*
X161593436Y-94533267D01*
X161588406Y-94462449D01*
X161606523Y-94421078D01*
X161606182Y-94420881D01*
X161607952Y-94417815D01*
X161608299Y-94417023D01*
X161608929Y-94416124D01*
X161614414Y-94406624D01*
X161706490Y-94209166D01*
X161710236Y-94198874D01*
X161766625Y-93988425D01*
X161768528Y-93977632D01*
X161787517Y-93760588D01*
X161787517Y-93749638D01*
X161768528Y-93532594D01*
X161766625Y-93521801D01*
X161710236Y-93311352D01*
X161706490Y-93301060D01*
X161614414Y-93103602D01*
X161608931Y-93094107D01*
X161572491Y-93042065D01*
X161562012Y-93033689D01*
X161548566Y-93040757D01*
X160564095Y-94025228D01*
X160501783Y-94059254D01*
X160430968Y-94054189D01*
X160385905Y-94025228D01*
X159400713Y-93040036D01*
X159388938Y-93033606D01*
X159376923Y-93042902D01*
X159341069Y-93094107D01*
X159335586Y-93103602D01*
X159243510Y-93301060D01*
X159239764Y-93311352D01*
X159183375Y-93521801D01*
X159181472Y-93532594D01*
X159162483Y-93749638D01*
X159162483Y-93760588D01*
X147652001Y-93760588D01*
X147653960Y-93759165D01*
X147661253Y-93753866D01*
X147687074Y-93725189D01*
X147747520Y-93687950D01*
X147780710Y-93683500D01*
X149101864Y-93683500D01*
X149118307Y-93684578D01*
X149150000Y-93688750D01*
X149158189Y-93687672D01*
X149189874Y-93683501D01*
X149189884Y-93683500D01*
X149189885Y-93683500D01*
X149289457Y-93670391D01*
X149300664Y-93668916D01*
X149300666Y-93668915D01*
X149308851Y-93667838D01*
X149456876Y-93606524D01*
X149469867Y-93596556D01*
X149552072Y-93533477D01*
X149552075Y-93533474D01*
X149559690Y-93527631D01*
X149583987Y-93508987D01*
X149589017Y-93502432D01*
X149603452Y-93483621D01*
X149614319Y-93471230D01*
X150417448Y-92668101D01*
X159753576Y-92668101D01*
X159760644Y-92681547D01*
X160462188Y-93383091D01*
X160476132Y-93390705D01*
X160477965Y-93390574D01*
X160484580Y-93386323D01*
X161190077Y-92680826D01*
X161196507Y-92669051D01*
X161187211Y-92657036D01*
X161136006Y-92621182D01*
X161126511Y-92615699D01*
X160929053Y-92523623D01*
X160918761Y-92519877D01*
X160708312Y-92463488D01*
X160697519Y-92461585D01*
X160480475Y-92442596D01*
X160469525Y-92442596D01*
X160252481Y-92461585D01*
X160241688Y-92463488D01*
X160031239Y-92519877D01*
X160020947Y-92523623D01*
X159823489Y-92615699D01*
X159813994Y-92621182D01*
X159761952Y-92657622D01*
X159753576Y-92668101D01*
X150417448Y-92668101D01*
X152115144Y-90970405D01*
X152177456Y-90936379D01*
X152204239Y-90933500D01*
X152295487Y-90933500D01*
X152301939Y-90932128D01*
X152301944Y-90932128D01*
X152388887Y-90913647D01*
X152482288Y-90893794D01*
X152531189Y-90872022D01*
X152650722Y-90818803D01*
X152650724Y-90818802D01*
X152656752Y-90816118D01*
X152811253Y-90703866D01*
X152821711Y-90692251D01*
X152934621Y-90566852D01*
X152934622Y-90566851D01*
X152939040Y-90561944D01*
X153034527Y-90396556D01*
X153093542Y-90214928D01*
X153101881Y-90135592D01*
X153112814Y-90031565D01*
X153113504Y-90025000D01*
X153093542Y-89835072D01*
X153034527Y-89653444D01*
X152939040Y-89488056D01*
X152811253Y-89346134D01*
X152656752Y-89233882D01*
X152650724Y-89231198D01*
X152650722Y-89231197D01*
X152488319Y-89158891D01*
X152488318Y-89158891D01*
X152482288Y-89156206D01*
X152388887Y-89136353D01*
X152301944Y-89117872D01*
X152301939Y-89117872D01*
X152295487Y-89116500D01*
X152104513Y-89116500D01*
X152098061Y-89117872D01*
X152098056Y-89117872D01*
X152011112Y-89136353D01*
X151917712Y-89156206D01*
X151911682Y-89158891D01*
X151911681Y-89158891D01*
X151749278Y-89231197D01*
X151749276Y-89231198D01*
X151743248Y-89233882D01*
X151588747Y-89346134D01*
X151460960Y-89488056D01*
X151365473Y-89653444D01*
X151306458Y-89835072D01*
X151286496Y-90025000D01*
X151286684Y-90026786D01*
X151267184Y-90093196D01*
X151250281Y-90114170D01*
X148934856Y-92429595D01*
X148872544Y-92463621D01*
X148845761Y-92466500D01*
X147780710Y-92466500D01*
X147712589Y-92446498D01*
X147687074Y-92424811D01*
X147665668Y-92401037D01*
X147665666Y-92401036D01*
X147661253Y-92396134D01*
X147604409Y-92354834D01*
X147512094Y-92287763D01*
X147512093Y-92287762D01*
X147506752Y-92283882D01*
X147500724Y-92281198D01*
X147500722Y-92281197D01*
X147338319Y-92208891D01*
X147338318Y-92208891D01*
X147332288Y-92206206D01*
X147238887Y-92186353D01*
X147151944Y-92167872D01*
X147151939Y-92167872D01*
X147145487Y-92166500D01*
X146954513Y-92166500D01*
X146948061Y-92167872D01*
X146948056Y-92167872D01*
X146861113Y-92186353D01*
X146767712Y-92206206D01*
X146761682Y-92208891D01*
X146761681Y-92208891D01*
X146599278Y-92281197D01*
X146599276Y-92281198D01*
X146593248Y-92283882D01*
X146438747Y-92396134D01*
X146434326Y-92401044D01*
X146434325Y-92401045D01*
X146323956Y-92523623D01*
X146310960Y-92538056D01*
X146268701Y-92611250D01*
X146228532Y-92680826D01*
X146215473Y-92703444D01*
X146156458Y-92885072D01*
X146155768Y-92891633D01*
X146155768Y-92891635D01*
X146143483Y-93008521D01*
X146136496Y-93075000D01*
X136142189Y-93075000D01*
X136141625Y-93071800D01*
X136085236Y-92861351D01*
X136081490Y-92851059D01*
X135989414Y-92653601D01*
X135983931Y-92644106D01*
X135947491Y-92592064D01*
X135937012Y-92583688D01*
X135923566Y-92590756D01*
X134939095Y-93575227D01*
X134876783Y-93609253D01*
X134805968Y-93604188D01*
X134760905Y-93575227D01*
X133775713Y-92590035D01*
X133763938Y-92583605D01*
X133751923Y-92592901D01*
X133716069Y-92644106D01*
X133710586Y-92653601D01*
X133618510Y-92851059D01*
X133614764Y-92861351D01*
X133558375Y-93071800D01*
X133556472Y-93082593D01*
X133537483Y-93299637D01*
X133537483Y-93310587D01*
X101528220Y-93310587D01*
X101530849Y-93299637D01*
X101542917Y-93249370D01*
X101542918Y-93249364D01*
X101544072Y-93244557D01*
X101563319Y-93000000D01*
X101544072Y-92755443D01*
X101542181Y-92747564D01*
X101500706Y-92574811D01*
X101486805Y-92516908D01*
X101392927Y-92290268D01*
X101348703Y-92218100D01*
X134128576Y-92218100D01*
X134135644Y-92231546D01*
X134837188Y-92933090D01*
X134851132Y-92940704D01*
X134852965Y-92940573D01*
X134859580Y-92936322D01*
X135565077Y-92230825D01*
X135571507Y-92219050D01*
X135562211Y-92207035D01*
X135511006Y-92171181D01*
X135501511Y-92165698D01*
X135304053Y-92073622D01*
X135293761Y-92069876D01*
X135083312Y-92013487D01*
X135072519Y-92011584D01*
X134855475Y-91992595D01*
X134844525Y-91992595D01*
X134627481Y-92011584D01*
X134616688Y-92013487D01*
X134406239Y-92069876D01*
X134395947Y-92073622D01*
X134198489Y-92165698D01*
X134188994Y-92171181D01*
X134136952Y-92207621D01*
X134128576Y-92218100D01*
X101348703Y-92218100D01*
X101264752Y-92081104D01*
X101255163Y-92069876D01*
X101108641Y-91898323D01*
X101105433Y-91894567D01*
X100932136Y-91746556D01*
X100922663Y-91738465D01*
X100922660Y-91738463D01*
X100918896Y-91735248D01*
X100820920Y-91675209D01*
X100797663Y-91656873D01*
X100012812Y-90872022D01*
X99998868Y-90864408D01*
X99997035Y-90864539D01*
X99990420Y-90868790D01*
X99202337Y-91656873D01*
X99179080Y-91675209D01*
X99081104Y-91735248D01*
X99077340Y-91738463D01*
X99077337Y-91738465D01*
X99067864Y-91746556D01*
X98894567Y-91894567D01*
X98891359Y-91898323D01*
X98744838Y-92069876D01*
X98735248Y-92081104D01*
X98607073Y-92290268D01*
X98513195Y-92516908D01*
X98499294Y-92574811D01*
X98457820Y-92747564D01*
X98455928Y-92755443D01*
X98436681Y-93000000D01*
X95508500Y-93000000D01*
X95508500Y-90504930D01*
X98437570Y-90504930D01*
X98456035Y-90739545D01*
X98457578Y-90749292D01*
X98512517Y-90978125D01*
X98515566Y-90987510D01*
X98605625Y-91204933D01*
X98610107Y-91213728D01*
X98721072Y-91394805D01*
X98731530Y-91404267D01*
X98740306Y-91400484D01*
X99627978Y-90512812D01*
X99634356Y-90501132D01*
X100364408Y-90501132D01*
X100364539Y-90502965D01*
X100368790Y-90509580D01*
X101256650Y-91397440D01*
X101269030Y-91404200D01*
X101276680Y-91398473D01*
X101389893Y-91213728D01*
X101394375Y-91204933D01*
X101484434Y-90987510D01*
X101487483Y-90978125D01*
X101542422Y-90749292D01*
X101543965Y-90739545D01*
X101562430Y-90504930D01*
X101562430Y-90495070D01*
X101543965Y-90260455D01*
X101542422Y-90250708D01*
X101487483Y-90021875D01*
X101484434Y-90012490D01*
X101394375Y-89795067D01*
X101389893Y-89786272D01*
X101278928Y-89605195D01*
X101268470Y-89595733D01*
X101259694Y-89599516D01*
X100372022Y-90487188D01*
X100364408Y-90501132D01*
X99634356Y-90501132D01*
X99635592Y-90498868D01*
X99635461Y-90497035D01*
X99631210Y-90490420D01*
X98743350Y-89602560D01*
X98730970Y-89595800D01*
X98723320Y-89601527D01*
X98610107Y-89786272D01*
X98605625Y-89795067D01*
X98515566Y-90012490D01*
X98512517Y-90021875D01*
X98457578Y-90250708D01*
X98456035Y-90260455D01*
X98437570Y-90495070D01*
X98437570Y-90504930D01*
X95508500Y-90504930D01*
X95508500Y-89231530D01*
X99095733Y-89231530D01*
X99099516Y-89240306D01*
X99987188Y-90127978D01*
X100001132Y-90135592D01*
X100002965Y-90135461D01*
X100009580Y-90131210D01*
X100897440Y-89243350D01*
X100904200Y-89230970D01*
X100898473Y-89223320D01*
X100713728Y-89110107D01*
X100704933Y-89105625D01*
X100487510Y-89015566D01*
X100478125Y-89012517D01*
X100249292Y-88957578D01*
X100239545Y-88956035D01*
X100004930Y-88937570D01*
X99995070Y-88937570D01*
X99760455Y-88956035D01*
X99750708Y-88957578D01*
X99521875Y-89012517D01*
X99512490Y-89015566D01*
X99295067Y-89105625D01*
X99286272Y-89110107D01*
X99105195Y-89221072D01*
X99095733Y-89231530D01*
X95508500Y-89231530D01*
X95508500Y-81200000D01*
X123641615Y-81200000D01*
X123661570Y-81428087D01*
X123720829Y-81649243D01*
X123723152Y-81654224D01*
X123723152Y-81654225D01*
X123815264Y-81851762D01*
X123815267Y-81851767D01*
X123817590Y-81856749D01*
X123948915Y-82044300D01*
X124110813Y-82206198D01*
X124115321Y-82209355D01*
X124115324Y-82209357D01*
X124156655Y-82238297D01*
X124298364Y-82337523D01*
X124303346Y-82339846D01*
X124303351Y-82339849D01*
X124500888Y-82431961D01*
X124505870Y-82434284D01*
X124511178Y-82435706D01*
X124511180Y-82435707D01*
X124721711Y-82492119D01*
X124721713Y-82492119D01*
X124727026Y-82493543D01*
X124955113Y-82513498D01*
X125183200Y-82493543D01*
X125188513Y-82492119D01*
X125188515Y-82492119D01*
X125399046Y-82435707D01*
X125399048Y-82435706D01*
X125404356Y-82434284D01*
X125409338Y-82431961D01*
X125606875Y-82339849D01*
X125606880Y-82339846D01*
X125611862Y-82337523D01*
X125617315Y-82333705D01*
X125617799Y-82333541D01*
X125621132Y-82331617D01*
X125621519Y-82332287D01*
X125684587Y-82311012D01*
X125753448Y-82328293D01*
X125778850Y-82351002D01*
X125780121Y-82349731D01*
X125786471Y-82356081D01*
X125791852Y-82363261D01*
X125908408Y-82450615D01*
X126044797Y-82501745D01*
X126106979Y-82508500D01*
X127803247Y-82508500D01*
X127865429Y-82501745D01*
X128001818Y-82450615D01*
X128118374Y-82363261D01*
X128205728Y-82246705D01*
X128256858Y-82110316D01*
X128263613Y-82048134D01*
X128263613Y-80351866D01*
X128256858Y-80289684D01*
X128205728Y-80153295D01*
X128135737Y-80059906D01*
X179804839Y-80059906D01*
X179813553Y-80071427D01*
X179920452Y-80149809D01*
X179928351Y-80154745D01*
X180157905Y-80275519D01*
X180166454Y-80279236D01*
X180411327Y-80364749D01*
X180420336Y-80367163D01*
X180675166Y-80415544D01*
X180684423Y-80416598D01*
X180943607Y-80426783D01*
X180952921Y-80426457D01*
X181210753Y-80398220D01*
X181219930Y-80396519D01*
X181470758Y-80330481D01*
X181479574Y-80327445D01*
X181717880Y-80225062D01*
X181726167Y-80220748D01*
X181946718Y-80084266D01*
X181954268Y-80078780D01*
X181959559Y-80074301D01*
X181967997Y-80061497D01*
X181967065Y-80059906D01*
X184884839Y-80059906D01*
X184893553Y-80071427D01*
X185000452Y-80149809D01*
X185008351Y-80154745D01*
X185237905Y-80275519D01*
X185246454Y-80279236D01*
X185491327Y-80364749D01*
X185500336Y-80367163D01*
X185755166Y-80415544D01*
X185764423Y-80416598D01*
X186023607Y-80426783D01*
X186032921Y-80426457D01*
X186290753Y-80398220D01*
X186299930Y-80396519D01*
X186550758Y-80330481D01*
X186559574Y-80327445D01*
X186797880Y-80225062D01*
X186806167Y-80220748D01*
X187026718Y-80084266D01*
X187034268Y-80078780D01*
X187039559Y-80074301D01*
X187047997Y-80061497D01*
X187041935Y-80051145D01*
X185977812Y-78987022D01*
X185963868Y-78979408D01*
X185962035Y-78979539D01*
X185955420Y-78983790D01*
X184891497Y-80047713D01*
X184884839Y-80059906D01*
X181967065Y-80059906D01*
X181961935Y-80051145D01*
X180897812Y-78987022D01*
X180883868Y-78979408D01*
X180882035Y-78979539D01*
X180875420Y-78983790D01*
X179811497Y-80047713D01*
X179804839Y-80059906D01*
X128135737Y-80059906D01*
X128118374Y-80036739D01*
X128001818Y-79949385D01*
X127865429Y-79898255D01*
X127803247Y-79891500D01*
X126106979Y-79891500D01*
X126044797Y-79898255D01*
X125908408Y-79949385D01*
X125791852Y-80036739D01*
X125786471Y-80043919D01*
X125780121Y-80050269D01*
X125777881Y-80048029D01*
X125733548Y-80081171D01*
X125662729Y-80086190D01*
X125621323Y-80068051D01*
X125621132Y-80068383D01*
X125618149Y-80066661D01*
X125617316Y-80066296D01*
X125611862Y-80062477D01*
X125606880Y-80060154D01*
X125606875Y-80060151D01*
X125409338Y-79968039D01*
X125409337Y-79968039D01*
X125404356Y-79965716D01*
X125399048Y-79964294D01*
X125399046Y-79964293D01*
X125188515Y-79907881D01*
X125188513Y-79907881D01*
X125183200Y-79906457D01*
X124955113Y-79886502D01*
X124727026Y-79906457D01*
X124721713Y-79907881D01*
X124721711Y-79907881D01*
X124511180Y-79964293D01*
X124511178Y-79964294D01*
X124505870Y-79965716D01*
X124500889Y-79968039D01*
X124500888Y-79968039D01*
X124303351Y-80060151D01*
X124303346Y-80060154D01*
X124298364Y-80062477D01*
X124193502Y-80135902D01*
X124115324Y-80190643D01*
X124115321Y-80190645D01*
X124110813Y-80193802D01*
X123948915Y-80355700D01*
X123945758Y-80360208D01*
X123945756Y-80360211D01*
X123940888Y-80367163D01*
X123817590Y-80543251D01*
X123815267Y-80548233D01*
X123815264Y-80548238D01*
X123723152Y-80745775D01*
X123720829Y-80750757D01*
X123661570Y-80971913D01*
X123641615Y-81200000D01*
X95508500Y-81200000D01*
X95508500Y-77435774D01*
X97475602Y-77435774D01*
X97484251Y-77666158D01*
X97531593Y-77891791D01*
X97533551Y-77896750D01*
X97533552Y-77896752D01*
X97562956Y-77971206D01*
X97616276Y-78106221D01*
X97735877Y-78303317D01*
X97739374Y-78307347D01*
X97869886Y-78457749D01*
X97886977Y-78477445D01*
X97891108Y-78480832D01*
X98061127Y-78620240D01*
X98061133Y-78620244D01*
X98065255Y-78623624D01*
X98069891Y-78626263D01*
X98069894Y-78626265D01*
X98168032Y-78682128D01*
X98265614Y-78737675D01*
X98482325Y-78816337D01*
X98487574Y-78817286D01*
X98487577Y-78817287D01*
X98705108Y-78856623D01*
X98705115Y-78856624D01*
X98709192Y-78857361D01*
X98726914Y-78858197D01*
X98731856Y-78858430D01*
X98731863Y-78858430D01*
X98733344Y-78858500D01*
X98895390Y-78858500D01*
X98962309Y-78852822D01*
X99061909Y-78844371D01*
X99061913Y-78844370D01*
X99067220Y-78843920D01*
X99072375Y-78842582D01*
X99072381Y-78842581D01*
X99285203Y-78787343D01*
X99285207Y-78787342D01*
X99290372Y-78786001D01*
X99295238Y-78783809D01*
X99295241Y-78783808D01*
X99495702Y-78693507D01*
X99500575Y-78691312D01*
X99691819Y-78562559D01*
X99858635Y-78403424D01*
X99996254Y-78218458D01*
X100100740Y-78012949D01*
X100136821Y-77896752D01*
X100167524Y-77797871D01*
X100169107Y-77792773D01*
X100170024Y-77785854D01*
X100198698Y-77569511D01*
X100198698Y-77569506D01*
X100199398Y-77564226D01*
X100198490Y-77540026D01*
X100194576Y-77435774D01*
X104475602Y-77435774D01*
X104484251Y-77666158D01*
X104531593Y-77891791D01*
X104533551Y-77896750D01*
X104533552Y-77896752D01*
X104562956Y-77971206D01*
X104616276Y-78106221D01*
X104735877Y-78303317D01*
X104739374Y-78307347D01*
X104869886Y-78457749D01*
X104886977Y-78477445D01*
X104891108Y-78480832D01*
X105061127Y-78620240D01*
X105061133Y-78620244D01*
X105065255Y-78623624D01*
X105069891Y-78626263D01*
X105069894Y-78626265D01*
X105168032Y-78682128D01*
X105265614Y-78737675D01*
X105482325Y-78816337D01*
X105487574Y-78817286D01*
X105487577Y-78817287D01*
X105705108Y-78856623D01*
X105705115Y-78856624D01*
X105709192Y-78857361D01*
X105726914Y-78858197D01*
X105731856Y-78858430D01*
X105731863Y-78858430D01*
X105733344Y-78858500D01*
X105895390Y-78858500D01*
X105962309Y-78852822D01*
X106061909Y-78844371D01*
X106061913Y-78844370D01*
X106067220Y-78843920D01*
X106072375Y-78842582D01*
X106072381Y-78842581D01*
X106285203Y-78787343D01*
X106285207Y-78787342D01*
X106290372Y-78786001D01*
X106295238Y-78783809D01*
X106295241Y-78783808D01*
X106495702Y-78693507D01*
X106500575Y-78691312D01*
X106691819Y-78562559D01*
X106858635Y-78403424D01*
X106996254Y-78218458D01*
X107100740Y-78012949D01*
X107136821Y-77896752D01*
X107167524Y-77797871D01*
X107169107Y-77792773D01*
X107170024Y-77785854D01*
X107171463Y-77775000D01*
X166686496Y-77775000D01*
X166687186Y-77781565D01*
X166698223Y-77886572D01*
X166706458Y-77964928D01*
X166765473Y-78146556D01*
X166860960Y-78311944D01*
X166988747Y-78453866D01*
X167143248Y-78566118D01*
X167149276Y-78568802D01*
X167149278Y-78568803D01*
X167311681Y-78641109D01*
X167317712Y-78643794D01*
X167411113Y-78663647D01*
X167498056Y-78682128D01*
X167498061Y-78682128D01*
X167504513Y-78683500D01*
X167695487Y-78683500D01*
X167701939Y-78682128D01*
X167701944Y-78682128D01*
X167788887Y-78663647D01*
X167882288Y-78643794D01*
X167888319Y-78641109D01*
X168043067Y-78572211D01*
X179072775Y-78572211D01*
X179085220Y-78831288D01*
X179086356Y-78840543D01*
X179136961Y-79094945D01*
X179139449Y-79103917D01*
X179227095Y-79348033D01*
X179230895Y-79356568D01*
X179353658Y-79585042D01*
X179358666Y-79592904D01*
X179428720Y-79686716D01*
X179439979Y-79695165D01*
X179452397Y-79688393D01*
X180512978Y-78627812D01*
X180520592Y-78613868D01*
X180520461Y-78612035D01*
X180516210Y-78605420D01*
X179450816Y-77540026D01*
X179437507Y-77532758D01*
X179427472Y-77539878D01*
X179411937Y-77558556D01*
X179406531Y-77566135D01*
X179271965Y-77787891D01*
X179267736Y-77796192D01*
X179167432Y-78035389D01*
X179164471Y-78044239D01*
X179100628Y-78295625D01*
X179099006Y-78304822D01*
X179073020Y-78562885D01*
X179072775Y-78572211D01*
X168043067Y-78572211D01*
X168050722Y-78568803D01*
X168050724Y-78568802D01*
X168056752Y-78566118D01*
X168211253Y-78453866D01*
X168339040Y-78311944D01*
X168434527Y-78146556D01*
X168493542Y-77964928D01*
X168501778Y-77886572D01*
X168512814Y-77781565D01*
X168513504Y-77775000D01*
X168513316Y-77773214D01*
X168532816Y-77706804D01*
X168549719Y-77685830D01*
X168956042Y-77279507D01*
X169018354Y-77245481D01*
X169089169Y-77250546D01*
X169108141Y-77259485D01*
X169112903Y-77262235D01*
X169118248Y-77266118D01*
X169124277Y-77268802D01*
X169124280Y-77268804D01*
X169286681Y-77341109D01*
X169292712Y-77343794D01*
X169386112Y-77363647D01*
X169473056Y-77382128D01*
X169473061Y-77382128D01*
X169479513Y-77383500D01*
X169670487Y-77383500D01*
X169676939Y-77382128D01*
X169676944Y-77382128D01*
X169763888Y-77363647D01*
X169857288Y-77343794D01*
X169863319Y-77341109D01*
X170025722Y-77268803D01*
X170025724Y-77268802D01*
X170031752Y-77266118D01*
X170186253Y-77153866D01*
X170190675Y-77148955D01*
X170309621Y-77016852D01*
X170309622Y-77016851D01*
X170314040Y-77011944D01*
X170398722Y-76865271D01*
X170406223Y-76852279D01*
X170406224Y-76852278D01*
X170409527Y-76846556D01*
X170468542Y-76664928D01*
X170475277Y-76600854D01*
X170487814Y-76481565D01*
X170488504Y-76475000D01*
X170475044Y-76346934D01*
X170469232Y-76291635D01*
X170469232Y-76291633D01*
X170468542Y-76285072D01*
X170409527Y-76103444D01*
X170395282Y-76078770D01*
X170328474Y-75963056D01*
X170314040Y-75938056D01*
X170308196Y-75931565D01*
X170190675Y-75801045D01*
X170190674Y-75801044D01*
X170186253Y-75796134D01*
X170031752Y-75683882D01*
X170025724Y-75681198D01*
X170025722Y-75681197D01*
X169863319Y-75608891D01*
X169863318Y-75608891D01*
X169857288Y-75606206D01*
X169763887Y-75586353D01*
X169676944Y-75567872D01*
X169676939Y-75567872D01*
X169670487Y-75566500D01*
X169479513Y-75566500D01*
X169473061Y-75567872D01*
X169473056Y-75567872D01*
X169386113Y-75586353D01*
X169292712Y-75606206D01*
X169286682Y-75608891D01*
X169286681Y-75608891D01*
X169124278Y-75681197D01*
X169124276Y-75681198D01*
X169118248Y-75683882D01*
X168963747Y-75796134D01*
X168959333Y-75801036D01*
X168959331Y-75801038D01*
X168936907Y-75825942D01*
X168876461Y-75863180D01*
X168859718Y-75866552D01*
X168785926Y-75876267D01*
X168741149Y-75882162D01*
X168593124Y-75943476D01*
X168567607Y-75963056D01*
X168497937Y-76016515D01*
X168497921Y-76016529D01*
X168472566Y-76035984D01*
X168472563Y-76035987D01*
X168466013Y-76041013D01*
X168460983Y-76047568D01*
X168446548Y-76066379D01*
X168435681Y-76078770D01*
X167684856Y-76829595D01*
X167622544Y-76863621D01*
X167595761Y-76866500D01*
X167504513Y-76866500D01*
X167498061Y-76867872D01*
X167498056Y-76867872D01*
X167411112Y-76886353D01*
X167317712Y-76906206D01*
X167311682Y-76908891D01*
X167311681Y-76908891D01*
X167149278Y-76981197D01*
X167149276Y-76981198D01*
X167143248Y-76983882D01*
X166988747Y-77096134D01*
X166984326Y-77101044D01*
X166984325Y-77101045D01*
X166888719Y-77207227D01*
X166860960Y-77238056D01*
X166765473Y-77403444D01*
X166706458Y-77585072D01*
X166705768Y-77591633D01*
X166705768Y-77591635D01*
X166690762Y-77734412D01*
X166686496Y-77775000D01*
X107171463Y-77775000D01*
X107198698Y-77569511D01*
X107198698Y-77569506D01*
X107199398Y-77564226D01*
X107198490Y-77540026D01*
X107191174Y-77345166D01*
X107190749Y-77333842D01*
X107143407Y-77108209D01*
X107140578Y-77101045D01*
X107060685Y-76898744D01*
X107060684Y-76898742D01*
X107058724Y-76893779D01*
X107032932Y-76851274D01*
X106941890Y-76701243D01*
X106939123Y-76696683D01*
X106911568Y-76664928D01*
X106791523Y-76526588D01*
X106791521Y-76526586D01*
X106788023Y-76522555D01*
X106738032Y-76481565D01*
X106613873Y-76379760D01*
X106613867Y-76379756D01*
X106609745Y-76376376D01*
X106605109Y-76373737D01*
X106605106Y-76373735D01*
X106414029Y-76264968D01*
X106409386Y-76262325D01*
X106192675Y-76183663D01*
X106187426Y-76182714D01*
X106187423Y-76182713D01*
X105969892Y-76143377D01*
X105969885Y-76143376D01*
X105965808Y-76142639D01*
X105948086Y-76141803D01*
X105943144Y-76141570D01*
X105943137Y-76141570D01*
X105941656Y-76141500D01*
X105779610Y-76141500D01*
X105712691Y-76147178D01*
X105613091Y-76155629D01*
X105613087Y-76155630D01*
X105607780Y-76156080D01*
X105602625Y-76157418D01*
X105602619Y-76157419D01*
X105389797Y-76212657D01*
X105389793Y-76212658D01*
X105384628Y-76213999D01*
X105379762Y-76216191D01*
X105379759Y-76216192D01*
X105271480Y-76264968D01*
X105174425Y-76308688D01*
X104983181Y-76437441D01*
X104816365Y-76596576D01*
X104678746Y-76781542D01*
X104676330Y-76786293D01*
X104676328Y-76786297D01*
X104642186Y-76853450D01*
X104574260Y-76987051D01*
X104572678Y-76992145D01*
X104572677Y-76992148D01*
X104523987Y-77148955D01*
X104505893Y-77207227D01*
X104505192Y-77212516D01*
X104476812Y-77426646D01*
X104475602Y-77435774D01*
X100194576Y-77435774D01*
X100191174Y-77345166D01*
X100190749Y-77333842D01*
X100143407Y-77108209D01*
X100140578Y-77101045D01*
X100060685Y-76898744D01*
X100060684Y-76898742D01*
X100058724Y-76893779D01*
X100032932Y-76851274D01*
X99941890Y-76701243D01*
X99939123Y-76696683D01*
X99911568Y-76664928D01*
X99791523Y-76526588D01*
X99791521Y-76526586D01*
X99788023Y-76522555D01*
X99738032Y-76481565D01*
X99613873Y-76379760D01*
X99613867Y-76379756D01*
X99609745Y-76376376D01*
X99605109Y-76373737D01*
X99605106Y-76373735D01*
X99414029Y-76264968D01*
X99409386Y-76262325D01*
X99192675Y-76183663D01*
X99187426Y-76182714D01*
X99187423Y-76182713D01*
X98969892Y-76143377D01*
X98969885Y-76143376D01*
X98965808Y-76142639D01*
X98948086Y-76141803D01*
X98943144Y-76141570D01*
X98943137Y-76141570D01*
X98941656Y-76141500D01*
X98779610Y-76141500D01*
X98712691Y-76147178D01*
X98613091Y-76155629D01*
X98613087Y-76155630D01*
X98607780Y-76156080D01*
X98602625Y-76157418D01*
X98602619Y-76157419D01*
X98389797Y-76212657D01*
X98389793Y-76212658D01*
X98384628Y-76213999D01*
X98379762Y-76216191D01*
X98379759Y-76216192D01*
X98271480Y-76264968D01*
X98174425Y-76308688D01*
X97983181Y-76437441D01*
X97816365Y-76596576D01*
X97678746Y-76781542D01*
X97676330Y-76786293D01*
X97676328Y-76786297D01*
X97642186Y-76853450D01*
X97574260Y-76987051D01*
X97572678Y-76992145D01*
X97572677Y-76992148D01*
X97523987Y-77148955D01*
X97505893Y-77207227D01*
X97505192Y-77212516D01*
X97476812Y-77426646D01*
X97475602Y-77435774D01*
X95508500Y-77435774D01*
X95508500Y-75925000D01*
X162761496Y-75925000D01*
X162781458Y-76114928D01*
X162840473Y-76296556D01*
X162935960Y-76461944D01*
X162940378Y-76466851D01*
X162940379Y-76466852D01*
X162970226Y-76500000D01*
X163063747Y-76603866D01*
X163138758Y-76658365D01*
X163190842Y-76696206D01*
X163218248Y-76716118D01*
X163224276Y-76718802D01*
X163224278Y-76718803D01*
X163356730Y-76777774D01*
X163392712Y-76793794D01*
X163463159Y-76808768D01*
X163573056Y-76832128D01*
X163573061Y-76832128D01*
X163579513Y-76833500D01*
X163770487Y-76833500D01*
X163776939Y-76832128D01*
X163776944Y-76832128D01*
X163886841Y-76808768D01*
X163957288Y-76793794D01*
X163993270Y-76777774D01*
X164125722Y-76718803D01*
X164125724Y-76718802D01*
X164131752Y-76716118D01*
X164159159Y-76696206D01*
X164211242Y-76658365D01*
X164286253Y-76603866D01*
X164379774Y-76500000D01*
X164409621Y-76466852D01*
X164409622Y-76466851D01*
X164414040Y-76461944D01*
X164509527Y-76296556D01*
X164568542Y-76114928D01*
X164588504Y-75925000D01*
X164588316Y-75923214D01*
X164607816Y-75856804D01*
X164624719Y-75835830D01*
X166245143Y-74215405D01*
X166307455Y-74181380D01*
X166334238Y-74178500D01*
X171569290Y-74178500D01*
X171637411Y-74198502D01*
X171662926Y-74220189D01*
X171683662Y-74243218D01*
X171688747Y-74248866D01*
X171694086Y-74252745D01*
X171823723Y-74346932D01*
X171843248Y-74361118D01*
X171849276Y-74363802D01*
X171849278Y-74363803D01*
X172011681Y-74436109D01*
X172017712Y-74438794D01*
X172102183Y-74456749D01*
X172198056Y-74477128D01*
X172198061Y-74477128D01*
X172204513Y-74478500D01*
X172290761Y-74478500D01*
X172358882Y-74498502D01*
X172379856Y-74515405D01*
X173104595Y-75240144D01*
X173138621Y-75302456D01*
X173141500Y-75329239D01*
X173141500Y-75769710D01*
X173121498Y-75837831D01*
X173109136Y-75854020D01*
X173024062Y-75948505D01*
X173010960Y-75963056D01*
X172915473Y-76128444D01*
X172856458Y-76310072D01*
X172855768Y-76316633D01*
X172855768Y-76316635D01*
X172843384Y-76434461D01*
X172836496Y-76500000D01*
X172837186Y-76506565D01*
X172853141Y-76658365D01*
X172856458Y-76689928D01*
X172915473Y-76871556D01*
X172918776Y-76877278D01*
X172918777Y-76877279D01*
X172942696Y-76918707D01*
X173010960Y-77036944D01*
X173015378Y-77041851D01*
X173015379Y-77041852D01*
X173061280Y-77092830D01*
X173138747Y-77178866D01*
X173220215Y-77238056D01*
X173262536Y-77268804D01*
X173293248Y-77291118D01*
X173299276Y-77293802D01*
X173299278Y-77293803D01*
X173414642Y-77345166D01*
X173467712Y-77368794D01*
X173561113Y-77388647D01*
X173648056Y-77407128D01*
X173648061Y-77407128D01*
X173654513Y-77408500D01*
X173845487Y-77408500D01*
X173851939Y-77407128D01*
X173851944Y-77407128D01*
X173938888Y-77388647D01*
X174032288Y-77368794D01*
X174085358Y-77345166D01*
X174200722Y-77293803D01*
X174200724Y-77293802D01*
X174206752Y-77291118D01*
X174237465Y-77268804D01*
X174279785Y-77238056D01*
X174361253Y-77178866D01*
X174371317Y-77167689D01*
X179802102Y-77167689D01*
X179806675Y-77177465D01*
X182321094Y-79691884D01*
X182333474Y-79698644D01*
X182341815Y-79692400D01*
X182475832Y-79484048D01*
X182480275Y-79475864D01*
X182586807Y-79239370D01*
X182589997Y-79230605D01*
X182660402Y-78980972D01*
X182662262Y-78971830D01*
X182695187Y-78713019D01*
X182695668Y-78706733D01*
X182697987Y-78618160D01*
X182697836Y-78611851D01*
X182678501Y-78351663D01*
X182677125Y-78342457D01*
X182619878Y-78089467D01*
X182617154Y-78080556D01*
X182523143Y-77838806D01*
X182519132Y-77830397D01*
X182429200Y-77673049D01*
X182412763Y-77603982D01*
X182436276Y-77536992D01*
X182492274Y-77493348D01*
X182562978Y-77486908D01*
X182597260Y-77499018D01*
X182817684Y-77614989D01*
X182817689Y-77614991D01*
X182821834Y-77617172D01*
X183068590Y-77703344D01*
X183073183Y-77704216D01*
X183320785Y-77751224D01*
X183320788Y-77751224D01*
X183325374Y-77752095D01*
X183455959Y-77757226D01*
X183581875Y-77762174D01*
X183581881Y-77762174D01*
X183586543Y-77762357D01*
X183665977Y-77753657D01*
X183841707Y-77734412D01*
X183841712Y-77734411D01*
X183846360Y-77733902D01*
X183959116Y-77704216D01*
X184094594Y-77668548D01*
X184094596Y-77668547D01*
X184099117Y-77667357D01*
X184103416Y-77665510D01*
X184103419Y-77665509D01*
X184181733Y-77631863D01*
X184252217Y-77623351D01*
X184316114Y-77654297D01*
X184353138Y-77714875D01*
X184351533Y-77785854D01*
X184347667Y-77796357D01*
X184247432Y-78035389D01*
X184244471Y-78044239D01*
X184180628Y-78295625D01*
X184179006Y-78304822D01*
X184153020Y-78562885D01*
X184152775Y-78572211D01*
X184165220Y-78831288D01*
X184166356Y-78840543D01*
X184216961Y-79094945D01*
X184219449Y-79103917D01*
X184307095Y-79348033D01*
X184310895Y-79356568D01*
X184433658Y-79585042D01*
X184438666Y-79592904D01*
X184508720Y-79686716D01*
X184519979Y-79695165D01*
X184532397Y-79688393D01*
X185604658Y-78616132D01*
X186329408Y-78616132D01*
X186329539Y-78617965D01*
X186333790Y-78624580D01*
X187401094Y-79691884D01*
X187413474Y-79698644D01*
X187421815Y-79692400D01*
X187555832Y-79484048D01*
X187560275Y-79475864D01*
X187666807Y-79239370D01*
X187669997Y-79230605D01*
X187740402Y-78980972D01*
X187742262Y-78971830D01*
X187775187Y-78713019D01*
X187775668Y-78706733D01*
X187777987Y-78618160D01*
X187777836Y-78611851D01*
X187758501Y-78351663D01*
X187757125Y-78342457D01*
X187699878Y-78089467D01*
X187697154Y-78080556D01*
X187603143Y-77838806D01*
X187599132Y-77830397D01*
X187470422Y-77605202D01*
X187465211Y-77597476D01*
X187421996Y-77542658D01*
X187410071Y-77534187D01*
X187398537Y-77540673D01*
X186337022Y-78602188D01*
X186329408Y-78616132D01*
X185604658Y-78616132D01*
X187039349Y-77181441D01*
X187045733Y-77169751D01*
X187036321Y-77157641D01*
X186889045Y-77055471D01*
X186881010Y-77050738D01*
X186648376Y-76936016D01*
X186639743Y-76932528D01*
X186392703Y-76853450D01*
X186383643Y-76851274D01*
X186127630Y-76809580D01*
X186118343Y-76808768D01*
X185858992Y-76805373D01*
X185849681Y-76805943D01*
X185592682Y-76840919D01*
X185583546Y-76842860D01*
X185334543Y-76915439D01*
X185325806Y-76918705D01*
X185271046Y-76943950D01*
X185200808Y-76954305D01*
X185136122Y-76925043D01*
X185097526Y-76865454D01*
X185097272Y-76794458D01*
X185103412Y-76777774D01*
X185180160Y-76607398D01*
X185180160Y-76607397D01*
X185182083Y-76603129D01*
X185218036Y-76475651D01*
X185251760Y-76356076D01*
X185251761Y-76356073D01*
X185253030Y-76351572D01*
X185270252Y-76216192D01*
X185285616Y-76095421D01*
X185285616Y-76095417D01*
X185286014Y-76092291D01*
X185288431Y-76000000D01*
X185288197Y-75996851D01*
X185269407Y-75744000D01*
X185269406Y-75743996D01*
X185269061Y-75739348D01*
X185257725Y-75689248D01*
X185212408Y-75488980D01*
X185211377Y-75484423D01*
X185194279Y-75440455D01*
X185176594Y-75394976D01*
X185170547Y-75324238D01*
X185203704Y-75261459D01*
X185265538Y-75226573D01*
X185335568Y-75230355D01*
X185491327Y-75284749D01*
X185500336Y-75287163D01*
X185755166Y-75335544D01*
X185764423Y-75336598D01*
X186023607Y-75346783D01*
X186032921Y-75346457D01*
X186290753Y-75318220D01*
X186299930Y-75316519D01*
X186550758Y-75250481D01*
X186559574Y-75247445D01*
X186797880Y-75145062D01*
X186806167Y-75140748D01*
X187026718Y-75004266D01*
X187034268Y-74998780D01*
X187039559Y-74994301D01*
X187047997Y-74981497D01*
X187041935Y-74971145D01*
X185606922Y-73536132D01*
X186329408Y-73536132D01*
X186329539Y-73537965D01*
X186333790Y-73544580D01*
X187401094Y-74611884D01*
X187413474Y-74618644D01*
X187421815Y-74612400D01*
X187555832Y-74404048D01*
X187560275Y-74395864D01*
X187666807Y-74159370D01*
X187669997Y-74150605D01*
X187740402Y-73900972D01*
X187742262Y-73891830D01*
X187775187Y-73633019D01*
X187775668Y-73626733D01*
X187777987Y-73538160D01*
X187777836Y-73531851D01*
X187758501Y-73271663D01*
X187757125Y-73262457D01*
X187699878Y-73009467D01*
X187697154Y-73000556D01*
X187603143Y-72758806D01*
X187599132Y-72750397D01*
X187470422Y-72525202D01*
X187465211Y-72517476D01*
X187421996Y-72462658D01*
X187410071Y-72454187D01*
X187398537Y-72460673D01*
X186337022Y-73522188D01*
X186329408Y-73536132D01*
X185606922Y-73536132D01*
X184530816Y-72460026D01*
X184517507Y-72452758D01*
X184507472Y-72459878D01*
X184491937Y-72478556D01*
X184486531Y-72486135D01*
X184351965Y-72707891D01*
X184347736Y-72716192D01*
X184247432Y-72955389D01*
X184244471Y-72964239D01*
X184180628Y-73215625D01*
X184179006Y-73224822D01*
X184153020Y-73482885D01*
X184152775Y-73492211D01*
X184165220Y-73751288D01*
X184166356Y-73760543D01*
X184216961Y-74014945D01*
X184219449Y-74023917D01*
X184275859Y-74181034D01*
X184280053Y-74251907D01*
X184245264Y-74313796D01*
X184182538Y-74347052D01*
X184118858Y-74343613D01*
X183941123Y-74286720D01*
X183936665Y-74285293D01*
X183678693Y-74243279D01*
X183564942Y-74241790D01*
X183422022Y-74239919D01*
X183422019Y-74239919D01*
X183417345Y-74239858D01*
X183158362Y-74275104D01*
X182907433Y-74348243D01*
X182903180Y-74350203D01*
X182903179Y-74350204D01*
X182701438Y-74443208D01*
X182631201Y-74453563D01*
X182566515Y-74424300D01*
X182527918Y-74364712D01*
X182527665Y-74293716D01*
X182533805Y-74277032D01*
X182586807Y-74159370D01*
X182589997Y-74150605D01*
X182660402Y-73900972D01*
X182662262Y-73891830D01*
X182695187Y-73633019D01*
X182695668Y-73626733D01*
X182697987Y-73538160D01*
X182697836Y-73531851D01*
X182678501Y-73271663D01*
X182677125Y-73262457D01*
X182619878Y-73009467D01*
X182617154Y-73000556D01*
X182523143Y-72758806D01*
X182519132Y-72750397D01*
X182390422Y-72525202D01*
X182385211Y-72517476D01*
X182341996Y-72462658D01*
X182330071Y-72454187D01*
X182318537Y-72460673D01*
X179811497Y-74967713D01*
X179804839Y-74979906D01*
X179813553Y-74991427D01*
X179920452Y-75069809D01*
X179928351Y-75074745D01*
X180157905Y-75195519D01*
X180166454Y-75199236D01*
X180411327Y-75284749D01*
X180420336Y-75287163D01*
X180675166Y-75335544D01*
X180684423Y-75336598D01*
X180943607Y-75346783D01*
X180952921Y-75346457D01*
X181210753Y-75318220D01*
X181219930Y-75316519D01*
X181470758Y-75250481D01*
X181479574Y-75247445D01*
X181717880Y-75145062D01*
X181726170Y-75140746D01*
X181732038Y-75137115D01*
X181800490Y-75118278D01*
X181868259Y-75139440D01*
X181913830Y-75193882D01*
X181922732Y-75264318D01*
X181914536Y-75292984D01*
X181852697Y-75440455D01*
X181788359Y-75693783D01*
X181787891Y-75698434D01*
X181787890Y-75698438D01*
X181783302Y-75744000D01*
X181762173Y-75953839D01*
X181762397Y-75958505D01*
X181762397Y-75958511D01*
X181765184Y-76016522D01*
X181774713Y-76214908D01*
X181825704Y-76471256D01*
X181914026Y-76717252D01*
X182014817Y-76904834D01*
X182017730Y-76910255D01*
X182032352Y-76979730D01*
X182007093Y-77046081D01*
X181949972Y-77088243D01*
X181879124Y-77092830D01*
X181834916Y-77073419D01*
X181809047Y-77055473D01*
X181801010Y-77050738D01*
X181568376Y-76936016D01*
X181559743Y-76932528D01*
X181312703Y-76853450D01*
X181303643Y-76851274D01*
X181047630Y-76809580D01*
X181038343Y-76808768D01*
X180778992Y-76805373D01*
X180769681Y-76805943D01*
X180512682Y-76840919D01*
X180503546Y-76842860D01*
X180254543Y-76915439D01*
X180245800Y-76918707D01*
X180010252Y-77027296D01*
X180002097Y-77031816D01*
X179811240Y-77156947D01*
X179802102Y-77167689D01*
X174371317Y-77167689D01*
X174438720Y-77092830D01*
X174484621Y-77041852D01*
X174484622Y-77041851D01*
X174489040Y-77036944D01*
X174557304Y-76918707D01*
X174581223Y-76877279D01*
X174581224Y-76877278D01*
X174584527Y-76871556D01*
X174643542Y-76689928D01*
X174646860Y-76658365D01*
X174662814Y-76506565D01*
X174663504Y-76500000D01*
X174656616Y-76434461D01*
X174644232Y-76316635D01*
X174644232Y-76316633D01*
X174643542Y-76310072D01*
X174584527Y-76128444D01*
X174489040Y-75963056D01*
X174475938Y-75948505D01*
X174390864Y-75854020D01*
X174360146Y-75790013D01*
X174358500Y-75769710D01*
X174358500Y-75073144D01*
X174359578Y-75056698D01*
X174362673Y-75033188D01*
X174363751Y-75025000D01*
X174342838Y-74866149D01*
X174281524Y-74718124D01*
X174208478Y-74622929D01*
X174208474Y-74622925D01*
X174200002Y-74611884D01*
X174189016Y-74597566D01*
X174189013Y-74597563D01*
X174183987Y-74591013D01*
X174177432Y-74585983D01*
X174158621Y-74571548D01*
X174146230Y-74560681D01*
X173249719Y-73664170D01*
X173215693Y-73601858D01*
X173212893Y-73575812D01*
X173213504Y-73570000D01*
X173205328Y-73492211D01*
X179072775Y-73492211D01*
X179085220Y-73751288D01*
X179086356Y-73760543D01*
X179136961Y-74014945D01*
X179139449Y-74023917D01*
X179227095Y-74268033D01*
X179230895Y-74276568D01*
X179353658Y-74505042D01*
X179358666Y-74512904D01*
X179428720Y-74606716D01*
X179439979Y-74615165D01*
X179452397Y-74608393D01*
X180512978Y-73547812D01*
X180520592Y-73533868D01*
X180520461Y-73532035D01*
X180516210Y-73525420D01*
X179450816Y-72460026D01*
X179437507Y-72452758D01*
X179427472Y-72459878D01*
X179411937Y-72478556D01*
X179406531Y-72486135D01*
X179271965Y-72707891D01*
X179267736Y-72716192D01*
X179167432Y-72955389D01*
X179164471Y-72964239D01*
X179100628Y-73215625D01*
X179099006Y-73224822D01*
X179073020Y-73482885D01*
X179072775Y-73492211D01*
X173205328Y-73492211D01*
X173193542Y-73380072D01*
X173134527Y-73198444D01*
X173105541Y-73148238D01*
X173042341Y-73038774D01*
X173039040Y-73033056D01*
X173017801Y-73009467D01*
X172915675Y-72896045D01*
X172915674Y-72896044D01*
X172911253Y-72891134D01*
X172756752Y-72778882D01*
X172750724Y-72776198D01*
X172750722Y-72776197D01*
X172588319Y-72703891D01*
X172588318Y-72703891D01*
X172582288Y-72701206D01*
X172488031Y-72681171D01*
X172401944Y-72662872D01*
X172401939Y-72662872D01*
X172395487Y-72661500D01*
X172204513Y-72661500D01*
X172198061Y-72662872D01*
X172198056Y-72662872D01*
X172111969Y-72681171D01*
X172017712Y-72701206D01*
X172011682Y-72703891D01*
X172011681Y-72703891D01*
X171849278Y-72776197D01*
X171849276Y-72776198D01*
X171843248Y-72778882D01*
X171837907Y-72782762D01*
X171837906Y-72782763D01*
X171710329Y-72875454D01*
X171688747Y-72891134D01*
X171684334Y-72896036D01*
X171684332Y-72896037D01*
X171662926Y-72919811D01*
X171602480Y-72957050D01*
X171569290Y-72961500D01*
X166078136Y-72961500D01*
X166061693Y-72960422D01*
X166030000Y-72956250D01*
X166021811Y-72957328D01*
X165990126Y-72961499D01*
X165990117Y-72961500D01*
X165990115Y-72961500D01*
X165990109Y-72961501D01*
X165990107Y-72961501D01*
X165890543Y-72974609D01*
X165879336Y-72976084D01*
X165879334Y-72976085D01*
X165871149Y-72977162D01*
X165814671Y-73000556D01*
X165730752Y-73035316D01*
X165730750Y-73035317D01*
X165723124Y-73038476D01*
X165652799Y-73092439D01*
X165596013Y-73136013D01*
X165590987Y-73142563D01*
X165590984Y-73142566D01*
X165576548Y-73161380D01*
X165565681Y-73173771D01*
X163759856Y-74979595D01*
X163697544Y-75013621D01*
X163670761Y-75016500D01*
X163579513Y-75016500D01*
X163573061Y-75017872D01*
X163573056Y-75017872D01*
X163495846Y-75034284D01*
X163392712Y-75056206D01*
X163386682Y-75058891D01*
X163386681Y-75058891D01*
X163224278Y-75131197D01*
X163224276Y-75131198D01*
X163218248Y-75133882D01*
X163212907Y-75137762D01*
X163212906Y-75137763D01*
X163208798Y-75140748D01*
X163063747Y-75246134D01*
X163059326Y-75251044D01*
X163059325Y-75251045D01*
X162998841Y-75318220D01*
X162935960Y-75388056D01*
X162840473Y-75553444D01*
X162781458Y-75735072D01*
X162780768Y-75741633D01*
X162780768Y-75741635D01*
X162775448Y-75792251D01*
X162761496Y-75925000D01*
X95508500Y-75925000D01*
X95508500Y-73800000D01*
X127541615Y-73800000D01*
X127561570Y-74028087D01*
X127562994Y-74033400D01*
X127562994Y-74033402D01*
X127619215Y-74243218D01*
X127620829Y-74249243D01*
X127623152Y-74254224D01*
X127623152Y-74254225D01*
X127715264Y-74451762D01*
X127715267Y-74451767D01*
X127717590Y-74456749D01*
X127790364Y-74560681D01*
X127823773Y-74608393D01*
X127848915Y-74644300D01*
X128010813Y-74806198D01*
X128015321Y-74809355D01*
X128015324Y-74809357D01*
X128056655Y-74838297D01*
X128198364Y-74937523D01*
X128203346Y-74939846D01*
X128203351Y-74939849D01*
X128368401Y-75016812D01*
X128405870Y-75034284D01*
X128411178Y-75035706D01*
X128411180Y-75035707D01*
X128621711Y-75092119D01*
X128621713Y-75092119D01*
X128627026Y-75093543D01*
X128855113Y-75113498D01*
X129083200Y-75093543D01*
X129088513Y-75092119D01*
X129088515Y-75092119D01*
X129299046Y-75035707D01*
X129299048Y-75035706D01*
X129304356Y-75034284D01*
X129341825Y-75016812D01*
X129506875Y-74939849D01*
X129506880Y-74939846D01*
X129511862Y-74937523D01*
X129517315Y-74933705D01*
X129517799Y-74933541D01*
X129521132Y-74931617D01*
X129521519Y-74932287D01*
X129584587Y-74911012D01*
X129653448Y-74928293D01*
X129678850Y-74951002D01*
X129680121Y-74949731D01*
X129686471Y-74956081D01*
X129691852Y-74963261D01*
X129808408Y-75050615D01*
X129944797Y-75101745D01*
X130006979Y-75108500D01*
X131703247Y-75108500D01*
X131765429Y-75101745D01*
X131901818Y-75050615D01*
X132018374Y-74963261D01*
X132105728Y-74846705D01*
X132156858Y-74710316D01*
X132163613Y-74648134D01*
X132163613Y-72951866D01*
X132156858Y-72889684D01*
X132105728Y-72753295D01*
X132018374Y-72636739D01*
X131901818Y-72549385D01*
X131765429Y-72498255D01*
X131703247Y-72491500D01*
X130006979Y-72491500D01*
X129944797Y-72498255D01*
X129808408Y-72549385D01*
X129691852Y-72636739D01*
X129686471Y-72643919D01*
X129680121Y-72650269D01*
X129677881Y-72648029D01*
X129633548Y-72681171D01*
X129562729Y-72686190D01*
X129521323Y-72668051D01*
X129521132Y-72668383D01*
X129518149Y-72666661D01*
X129517316Y-72666296D01*
X129511862Y-72662477D01*
X129506880Y-72660154D01*
X129506875Y-72660151D01*
X129309338Y-72568039D01*
X129309337Y-72568039D01*
X129304356Y-72565716D01*
X129299048Y-72564294D01*
X129299046Y-72564293D01*
X129088515Y-72507881D01*
X129088513Y-72507881D01*
X129083200Y-72506457D01*
X128855113Y-72486502D01*
X128627026Y-72506457D01*
X128621713Y-72507881D01*
X128621711Y-72507881D01*
X128411180Y-72564293D01*
X128411178Y-72564294D01*
X128405870Y-72565716D01*
X128400889Y-72568039D01*
X128400888Y-72568039D01*
X128203351Y-72660151D01*
X128203346Y-72660154D01*
X128198364Y-72662477D01*
X128121651Y-72716192D01*
X128015324Y-72790643D01*
X128015321Y-72790645D01*
X128010813Y-72793802D01*
X127848915Y-72955700D01*
X127845758Y-72960208D01*
X127845756Y-72960211D01*
X127834642Y-72976084D01*
X127717590Y-73143251D01*
X127715267Y-73148233D01*
X127715264Y-73148238D01*
X127657711Y-73271663D01*
X127620829Y-73350757D01*
X127619407Y-73356065D01*
X127619406Y-73356067D01*
X127570666Y-73537965D01*
X127561570Y-73571913D01*
X127541615Y-73800000D01*
X95508500Y-73800000D01*
X95508500Y-72087689D01*
X179802102Y-72087689D01*
X179806675Y-72097465D01*
X180872188Y-73162978D01*
X180886132Y-73170592D01*
X180887965Y-73170461D01*
X180894580Y-73166210D01*
X181959349Y-72101441D01*
X181965733Y-72089751D01*
X181964130Y-72087689D01*
X184882102Y-72087689D01*
X184886675Y-72097465D01*
X185952188Y-73162978D01*
X185966132Y-73170592D01*
X185967965Y-73170461D01*
X185974580Y-73166210D01*
X187039349Y-72101441D01*
X187045733Y-72089751D01*
X187036321Y-72077641D01*
X186889045Y-71975471D01*
X186881010Y-71970738D01*
X186648376Y-71856016D01*
X186639743Y-71852528D01*
X186392703Y-71773450D01*
X186383643Y-71771274D01*
X186127630Y-71729580D01*
X186118343Y-71728768D01*
X185858992Y-71725373D01*
X185849681Y-71725943D01*
X185592682Y-71760919D01*
X185583546Y-71762860D01*
X185334543Y-71835439D01*
X185325800Y-71838707D01*
X185090252Y-71947296D01*
X185082097Y-71951816D01*
X184891240Y-72076947D01*
X184882102Y-72087689D01*
X181964130Y-72087689D01*
X181956321Y-72077641D01*
X181809045Y-71975471D01*
X181801010Y-71970738D01*
X181568376Y-71856016D01*
X181559743Y-71852528D01*
X181312703Y-71773450D01*
X181303643Y-71771274D01*
X181047630Y-71729580D01*
X181038343Y-71728768D01*
X180778992Y-71725373D01*
X180769681Y-71725943D01*
X180512682Y-71760919D01*
X180503546Y-71762860D01*
X180254543Y-71835439D01*
X180245800Y-71838707D01*
X180010252Y-71947296D01*
X180002097Y-71951816D01*
X179811240Y-72076947D01*
X179802102Y-72087689D01*
X95508500Y-72087689D01*
X95508500Y-70634500D01*
X95528502Y-70566379D01*
X95582158Y-70519886D01*
X95634500Y-70508500D01*
X194365500Y-70508500D01*
X194433621Y-70528502D01*
G37*
G04 #@! TD.AperFunction*
M02*
