M48
INCH,TZ
T1C0.0157
T2C0.0197
T3C0.0315
T4C0.0330
T5C0.0394
T6C0.0433
T7C0.0591
T8C0.0630
%
G90
G05
T1
X37953Y-48278
X38110Y-28382
X38258Y-52156
X38484Y-33199
X40502Y-54232
X41102Y-28219
X41368Y-37707
X42323Y-36850
X42338Y-40354
X45719Y-43061
X46693Y-40370
X47579Y-43957
X47638Y-42894
X48740Y-47096
X50581Y-47047
X55256Y-51949
X58671Y-40561
X62118Y-28169
X62175Y-54636
X63406Y-33622
X64439Y-29892
X65984Y-30620
X66191Y-48002
X66339Y-31368
X66762Y-30108
X67461Y-50285
X67835Y-28965
X68406Y-30118
X69232Y-33563
X69498Y-30915
X73986Y-54350
X74705Y-32854
X74724Y-35423
X75390Y-28555
X75925Y-32854
X75935Y-35423
X75980Y-43299
T2
X45768Y-45679
X51368Y-40285
X51742Y-37884
X53091Y-48809
X54193Y-44026
X54813Y-28258
X54931Y-33484
X56043Y-44656
X56102Y-30846
X56713Y-36752
X57156Y-43750
X57520Y-45935
X58169Y-30659
X58209Y-42681
X58494Y-53533
X58543Y-49075
X58742Y-41183
X59075Y-48681
X59498Y-39291
X59843Y-35886
X60236Y-43907
X60492Y-36762
X60659Y-33839
X60689Y-31752
X60728Y-45709
X60876Y-36230
X61230Y-39203
X61585Y-30827
X61900Y-39902
X62677Y-35157
X63081Y-36969
X63297Y-45541
X63484Y-30177
X63504Y-32805
X63593Y-38465
X64075Y-50049
X64793Y-42687
X65236Y-34685
X65472Y-40522
X65502Y-41181
X65797Y-37067
X66339Y-51841
X66506Y-36732
X66929Y-39429
X67008Y-47697
X67677Y-35374
X68287Y-41122
X68346Y-42224
X68848Y-47530
X69016Y-39843
X69390Y-45177
X69390Y-45915
X69400Y-41211
X69724Y-39380
X69961Y-47106
X70699Y-36722
X71299Y-39488
X71575Y-34990
X75295Y-44311
T3
X43642Y-42332
X43642Y-43710
X43720Y-46357
X43720Y-47735
X47638Y-48622
X47638Y-50000
X49882Y-42027
X49882Y-43404
X50616Y-31988
X50730Y-29067
X51404Y-31988
X51518Y-29067
X52728Y-41949
X53516Y-41949
X56594Y-37815
X57594Y-37815
X58594Y-37815
X61691Y-44892
X62478Y-44892
X64433Y-37790
X65433Y-37790
X66433Y-37790
X68640Y-35610
X69272Y-42815
X69427Y-35610
X70059Y-42815
T4
X63067Y-49161
X63067Y-53161
X64067Y-49161
X64067Y-53161
X65067Y-49161
X65067Y-53161
T5
X38976Y-40354
X38976Y-41354
X38976Y-42354
X38976Y-43354
X38976Y-44354
X38976Y-45354
X38976Y-46354
X38976Y-47354
X39976Y-40354
X39976Y-41354
X39976Y-42354
X39976Y-43354
X39976Y-44354
X39976Y-45354
X39976Y-46354
X39976Y-47354
T6
X39370Y-35630
X39370Y-36614
T7
X72254Y-29921
X74055Y-49577
T8
X71215Y-28951
X71215Y-30951
X73016Y-48606
X73016Y-50606
X73215Y-28951
X73215Y-30951
X75016Y-48606
X75016Y-50606
T0
M30
