G04 #@! TF.GenerationSoftware,KiCad,Pcbnew,6.0.10-86aedd382b~118~ubuntu20.04.1*
G04 #@! TF.CreationDate,2023-01-17T10:28:51-05:00*
G04 #@! TF.ProjectId,sdt_qse_1496,7364745f-7173-4655-9f31-3439362e6b69,2.0*
G04 #@! TF.SameCoordinates,Original*
G04 #@! TF.FileFunction,Copper,L2,Bot*
G04 #@! TF.FilePolarity,Positive*
%FSLAX46Y46*%
G04 Gerber Fmt 4.6, Leading zero omitted, Abs format (unit mm)*
G04 Created by KiCad (PCBNEW 6.0.10-86aedd382b~118~ubuntu20.04.1) date 2023-01-17 10:28:51*
%MOMM*%
%LPD*%
G01*
G04 APERTURE LIST*
G04 Aperture macros list*
%AMRoundRect*
0 Rectangle with rounded corners*
0 $1 Rounding radius*
0 $2 $3 $4 $5 $6 $7 $8 $9 X,Y pos of 4 corners*
0 Add a 4 corners polygon primitive as box body*
4,1,4,$2,$3,$4,$5,$6,$7,$8,$9,$2,$3,0*
0 Add four circle primitives for the rounded corners*
1,1,$1+$1,$2,$3*
1,1,$1+$1,$4,$5*
1,1,$1+$1,$6,$7*
1,1,$1+$1,$8,$9*
0 Add four rect primitives between the rounded corners*
20,1,$1+$1,$2,$3,$4,$5,0*
20,1,$1+$1,$4,$5,$6,$7,0*
20,1,$1+$1,$6,$7,$8,$9,0*
20,1,$1+$1,$8,$9,$2,$3,0*%
G04 Aperture macros list end*
G04 #@! TA.AperFunction,ComponentPad*
%ADD10R,1.346200X1.346200*%
G04 #@! TD*
G04 #@! TA.AperFunction,ComponentPad*
%ADD11C,1.346200*%
G04 #@! TD*
G04 #@! TA.AperFunction,ComponentPad*
%ADD12RoundRect,0.250000X-0.600000X-0.600000X0.600000X-0.600000X0.600000X0.600000X-0.600000X0.600000X0*%
G04 #@! TD*
G04 #@! TA.AperFunction,ComponentPad*
%ADD13C,1.700000*%
G04 #@! TD*
G04 #@! TA.AperFunction,ComponentPad*
%ADD14C,2.600000*%
G04 #@! TD*
G04 #@! TA.AperFunction,ComponentPad*
%ADD15C,2.500000*%
G04 #@! TD*
G04 #@! TA.AperFunction,ComponentPad*
%ADD16R,1.600000X1.600000*%
G04 #@! TD*
G04 #@! TA.AperFunction,ComponentPad*
%ADD17C,1.600000*%
G04 #@! TD*
G04 #@! TA.AperFunction,ComponentPad*
%ADD18C,1.440000*%
G04 #@! TD*
G04 #@! TA.AperFunction,ComponentPad*
%ADD19C,2.100000*%
G04 #@! TD*
G04 #@! TA.AperFunction,ViaPad*
%ADD20C,1.000000*%
G04 #@! TD*
G04 #@! TA.AperFunction,ViaPad*
%ADD21C,0.800000*%
G04 #@! TD*
G04 #@! TA.AperFunction,Conductor*
%ADD22C,0.500000*%
G04 #@! TD*
G04 #@! TA.AperFunction,Conductor*
%ADD23C,0.200000*%
G04 #@! TD*
G04 APERTURE END LIST*
D10*
X160190000Y-124870000D03*
D11*
X160190000Y-135030000D03*
X162730000Y-124870000D03*
X162730000Y-135030000D03*
X165270000Y-124870000D03*
X165270000Y-135030000D03*
D12*
X99000000Y-102500000D03*
D13*
X101540000Y-102500000D03*
X99000000Y-105040000D03*
X101540000Y-105040000D03*
X99000000Y-107580000D03*
X101540000Y-107580000D03*
X99000000Y-110120000D03*
X101540000Y-110120000D03*
X99000000Y-112660000D03*
X101540000Y-112660000D03*
X99000000Y-115200000D03*
X101540000Y-115200000D03*
X99000000Y-117740000D03*
X101540000Y-117740000D03*
X99000000Y-120280000D03*
X101540000Y-120280000D03*
D14*
X185460000Y-123460000D03*
X190540000Y-128540000D03*
X185460000Y-128540000D03*
X190540000Y-123460000D03*
D15*
X188100000Y-125925000D03*
D16*
X121000000Y-123500000D03*
D17*
X121000000Y-127000000D03*
D14*
X180885000Y-73535000D03*
X185965000Y-73535000D03*
X185965000Y-78615000D03*
X180885000Y-78615000D03*
D15*
X183525000Y-76000000D03*
D16*
X130855113Y-73830000D03*
D17*
X128855113Y-73830000D03*
D16*
X110850000Y-107522349D03*
D17*
X110850000Y-111022349D03*
D16*
X156694888Y-114025000D03*
D17*
X158694888Y-114025000D03*
D18*
X143750000Y-96050000D03*
X146290000Y-96050000D03*
X148830000Y-96050000D03*
D16*
X126700000Y-106747349D03*
D17*
X126700000Y-110247349D03*
D16*
X135930113Y-106550000D03*
D17*
X133930113Y-106550000D03*
D16*
X111050000Y-117747349D03*
D17*
X111050000Y-121247349D03*
D16*
X175950000Y-108750000D03*
D17*
X177950000Y-108750000D03*
D19*
X100000000Y-93000000D03*
X100000000Y-90500000D03*
D16*
X130565113Y-81250000D03*
D17*
X128565113Y-81250000D03*
D16*
X174344887Y-90450000D03*
D17*
X176344887Y-90450000D03*
D18*
X168740350Y-95986000D03*
X166200350Y-95986000D03*
X163660350Y-95986000D03*
D20*
X147750000Y-77875000D03*
X154075000Y-85950000D03*
X159200000Y-89300000D03*
X156425000Y-78300000D03*
X131425000Y-96225000D03*
X139525000Y-85050000D03*
X116250000Y-116025000D03*
X130475000Y-102325000D03*
X137650000Y-111825000D03*
X171900000Y-89850000D03*
X139225000Y-71775000D03*
X142500000Y-78350000D03*
X152000000Y-91150000D03*
X191250000Y-112550000D03*
X161250000Y-76650000D03*
X154150000Y-80650000D03*
X161300000Y-83325000D03*
X181800000Y-88875000D03*
X176275000Y-104675000D03*
X173600000Y-107250000D03*
X154250000Y-116100000D03*
X166300000Y-102925000D03*
X151125000Y-99800000D03*
X167125000Y-94150000D03*
X179575000Y-93275000D03*
X165700000Y-88100000D03*
X160225000Y-93900000D03*
X155525000Y-99575000D03*
X154625000Y-92025000D03*
X181100000Y-100300000D03*
X175300000Y-101200000D03*
X176250000Y-114750000D03*
X177700000Y-119650000D03*
X174875000Y-120725000D03*
X170200000Y-121150000D03*
X160775000Y-115675000D03*
X153000000Y-111525000D03*
X146100000Y-116675000D03*
X145175000Y-111125000D03*
X142350000Y-113425000D03*
X134850000Y-123975000D03*
X148700000Y-124650000D03*
X148575000Y-135975000D03*
X168500000Y-131675000D03*
X162750000Y-127125000D03*
X173450000Y-104450000D03*
X177100000Y-100025000D03*
X168925000Y-93300000D03*
X157225000Y-101350000D03*
X170000000Y-100150000D03*
X176250000Y-116625000D03*
X153650000Y-93375000D03*
X144050000Y-93350000D03*
X161525000Y-97700000D03*
X150050000Y-123650000D03*
D21*
X172300000Y-73570000D03*
X173750000Y-76500000D03*
X163675000Y-75925000D03*
D20*
X168500000Y-79675000D03*
X189750000Y-83450000D03*
X175850000Y-85250000D03*
X192850000Y-83450000D03*
X102875000Y-137750000D03*
X96800000Y-72090000D03*
X123800000Y-119625000D03*
X191490000Y-72530000D03*
X128475000Y-119500000D03*
X192990000Y-109980000D03*
X140350000Y-131950000D03*
X97750000Y-84325000D03*
X192875000Y-89975000D03*
X107500000Y-93600000D03*
X157780000Y-71550000D03*
X187925000Y-138050000D03*
X121000000Y-108950000D03*
X118600000Y-102540000D03*
X149025000Y-103025000D03*
X189800000Y-89975000D03*
X105075000Y-95775000D03*
X157925000Y-138775000D03*
X96400000Y-122625000D03*
X97175000Y-132475000D03*
X104400000Y-71675000D03*
X116125000Y-109375000D03*
X176525000Y-78525000D03*
X107537500Y-102500000D03*
X120850000Y-111650000D03*
X164575000Y-108425000D03*
X147850000Y-108410000D03*
X166375000Y-104600000D03*
X149205000Y-104605000D03*
X171350000Y-127725000D03*
X168125000Y-121925000D03*
D21*
X169575000Y-76475000D03*
X167600000Y-77775000D03*
D20*
X161050000Y-85400000D03*
D22*
X145562500Y-79212500D02*
X140180000Y-73830000D01*
X161050000Y-85400000D02*
X154862500Y-79212500D01*
X154862500Y-79212500D02*
X145562500Y-79212500D01*
X173450000Y-104450000D02*
X175950000Y-106950000D01*
X175950000Y-106950000D02*
X175950000Y-108750000D01*
X177100000Y-100025000D02*
X173061000Y-95986000D01*
X173061000Y-95986000D02*
X168740350Y-95986000D01*
D23*
X173525000Y-91350000D02*
X173525000Y-91269887D01*
X173525000Y-91269887D02*
X174344887Y-90450000D01*
X168925000Y-93300000D02*
X171575000Y-93300000D01*
X171575000Y-93300000D02*
X173525000Y-91350000D01*
D22*
X158425000Y-100150000D02*
X157225000Y-101350000D01*
X170000000Y-100150000D02*
X158425000Y-100150000D01*
X173075000Y-130225000D02*
X168085000Y-130225000D01*
X168085000Y-130225000D02*
X162730000Y-124870000D01*
X176250000Y-127050000D02*
X173075000Y-130225000D01*
X176250000Y-116625000D02*
X176250000Y-127050000D01*
X153625000Y-93350000D02*
X153650000Y-93375000D01*
X144050000Y-93350000D02*
X153625000Y-93350000D01*
D23*
X161525000Y-97700000D02*
X161525000Y-85875000D01*
X161525000Y-85875000D02*
X161050000Y-85400000D01*
D22*
X153425000Y-127025000D02*
X160575000Y-127025000D01*
X160575000Y-127025000D02*
X162730000Y-124870000D01*
X150050000Y-123650000D02*
X153425000Y-127025000D01*
D23*
X172300000Y-73570000D02*
X172300000Y-73575000D01*
X163675000Y-75925000D02*
X166030000Y-73570000D01*
X166030000Y-73570000D02*
X172300000Y-73570000D01*
X173750000Y-76500000D02*
X173750000Y-75025000D01*
X172300000Y-73575000D02*
X173750000Y-75025000D01*
D22*
X120850000Y-111650000D02*
X111700000Y-102500000D01*
X111700000Y-102500000D02*
X107537500Y-102500000D01*
D23*
X164575000Y-108425000D02*
X147865000Y-108425000D01*
X147865000Y-108425000D02*
X147850000Y-108410000D01*
X149210000Y-104600000D02*
X149205000Y-104605000D01*
X166375000Y-104600000D02*
X149210000Y-104600000D01*
D22*
X171350000Y-125150000D02*
X171350000Y-127725000D01*
X168125000Y-121925000D02*
X171350000Y-125150000D01*
D23*
X169575000Y-76475000D02*
X168900000Y-76475000D01*
X168900000Y-76475000D02*
X167600000Y-77775000D01*
D22*
X140180000Y-73830000D02*
X130855113Y-73830000D01*
G04 #@! TA.AperFunction,Conductor*
G36*
X194433621Y-70528502D02*
G01*
X194480114Y-70582158D01*
X194491500Y-70634500D01*
X194491500Y-139365500D01*
X194471498Y-139433621D01*
X194417842Y-139480114D01*
X194365500Y-139491500D01*
X95634500Y-139491500D01*
X95566379Y-139471498D01*
X95519886Y-139417842D01*
X95508500Y-139365500D01*
X95508500Y-136500000D01*
X95986540Y-136500000D01*
X96006359Y-136815020D01*
X96065505Y-137125072D01*
X96163044Y-137425266D01*
X96164731Y-137428852D01*
X96164733Y-137428856D01*
X96295750Y-137707283D01*
X96295754Y-137707290D01*
X96297438Y-137710869D01*
X96466568Y-137977375D01*
X96667767Y-138220582D01*
X96897860Y-138436654D01*
X97153221Y-138622184D01*
X97429821Y-138774247D01*
X97433490Y-138775700D01*
X97433495Y-138775702D01*
X97719628Y-138888990D01*
X97723298Y-138890443D01*
X98029025Y-138968940D01*
X98342179Y-139008500D01*
X98657821Y-139008500D01*
X98970975Y-138968940D01*
X99276702Y-138890443D01*
X99280372Y-138888990D01*
X99566505Y-138775702D01*
X99566510Y-138775700D01*
X99570179Y-138774247D01*
X99846779Y-138622184D01*
X100102140Y-138436654D01*
X100332233Y-138220582D01*
X100533432Y-137977375D01*
X100702562Y-137710869D01*
X100704246Y-137707290D01*
X100704250Y-137707283D01*
X100835267Y-137428856D01*
X100835269Y-137428852D01*
X100836956Y-137425266D01*
X100934495Y-137125072D01*
X100993641Y-136815020D01*
X101013460Y-136500000D01*
X188986540Y-136500000D01*
X189006359Y-136815020D01*
X189065505Y-137125072D01*
X189163044Y-137425266D01*
X189164731Y-137428852D01*
X189164733Y-137428856D01*
X189295750Y-137707283D01*
X189295754Y-137707290D01*
X189297438Y-137710869D01*
X189466568Y-137977375D01*
X189667767Y-138220582D01*
X189897860Y-138436654D01*
X190153221Y-138622184D01*
X190429821Y-138774247D01*
X190433490Y-138775700D01*
X190433495Y-138775702D01*
X190719628Y-138888990D01*
X190723298Y-138890443D01*
X191029025Y-138968940D01*
X191342179Y-139008500D01*
X191657821Y-139008500D01*
X191970975Y-138968940D01*
X192276702Y-138890443D01*
X192280372Y-138888990D01*
X192566505Y-138775702D01*
X192566510Y-138775700D01*
X192570179Y-138774247D01*
X192846779Y-138622184D01*
X193102140Y-138436654D01*
X193332233Y-138220582D01*
X193533432Y-137977375D01*
X193702562Y-137710869D01*
X193704246Y-137707290D01*
X193704250Y-137707283D01*
X193835267Y-137428856D01*
X193835269Y-137428852D01*
X193836956Y-137425266D01*
X193934495Y-137125072D01*
X193993641Y-136815020D01*
X194013460Y-136500000D01*
X193993641Y-136184980D01*
X193934495Y-135874928D01*
X193864853Y-135660591D01*
X193838182Y-135578507D01*
X193838182Y-135578506D01*
X193836956Y-135574734D01*
X193805171Y-135507187D01*
X193704250Y-135292717D01*
X193704246Y-135292710D01*
X193702562Y-135289131D01*
X193533432Y-135022625D01*
X193371235Y-134826563D01*
X193334758Y-134782470D01*
X193334757Y-134782469D01*
X193332233Y-134779418D01*
X193102140Y-134563346D01*
X192846779Y-134377816D01*
X192570179Y-134225753D01*
X192566510Y-134224300D01*
X192566505Y-134224298D01*
X192280372Y-134111010D01*
X192280371Y-134111010D01*
X192276702Y-134109557D01*
X191970975Y-134031060D01*
X191657821Y-133991500D01*
X191342179Y-133991500D01*
X191029025Y-134031060D01*
X190723298Y-134109557D01*
X190719629Y-134111010D01*
X190719628Y-134111010D01*
X190433495Y-134224298D01*
X190433490Y-134224300D01*
X190429821Y-134225753D01*
X190153221Y-134377816D01*
X189897860Y-134563346D01*
X189667767Y-134779418D01*
X189665243Y-134782469D01*
X189665242Y-134782470D01*
X189628765Y-134826563D01*
X189466568Y-135022625D01*
X189297438Y-135289131D01*
X189295754Y-135292710D01*
X189295750Y-135292717D01*
X189194829Y-135507187D01*
X189163044Y-135574734D01*
X189161818Y-135578506D01*
X189161818Y-135578507D01*
X189135147Y-135660591D01*
X189065505Y-135874928D01*
X189006359Y-136184980D01*
X188988833Y-136463559D01*
X188986540Y-136500000D01*
X101013460Y-136500000D01*
X100993641Y-136184980D01*
X100962932Y-136024000D01*
X159560360Y-136024000D01*
X159570242Y-136036489D01*
X159619209Y-136069208D01*
X159629322Y-136074699D01*
X159818153Y-136155827D01*
X159829086Y-136159379D01*
X160029538Y-136204737D01*
X160040948Y-136206239D01*
X160246311Y-136214307D01*
X160257793Y-136213705D01*
X160461190Y-136184215D01*
X160472373Y-136181530D01*
X160666987Y-136115467D01*
X160677490Y-136110791D01*
X160811742Y-136035607D01*
X160821604Y-136025531D01*
X160818649Y-136017859D01*
X160202812Y-135402022D01*
X160188868Y-135394408D01*
X160187035Y-135394539D01*
X160180420Y-135398790D01*
X159566556Y-136012654D01*
X159560360Y-136024000D01*
X100962932Y-136024000D01*
X100934495Y-135874928D01*
X100864853Y-135660591D01*
X100838182Y-135578507D01*
X100838182Y-135578506D01*
X100836956Y-135574734D01*
X100805171Y-135507187D01*
X100704250Y-135292717D01*
X100704246Y-135292710D01*
X100702562Y-135289131D01*
X100533432Y-135022625D01*
X100518616Y-135004716D01*
X159004624Y-135004716D01*
X159018066Y-135209788D01*
X159019867Y-135221158D01*
X159070454Y-135420348D01*
X159074295Y-135431195D01*
X159160338Y-135617838D01*
X159166087Y-135627795D01*
X159183337Y-135652203D01*
X159193926Y-135660591D01*
X159207227Y-135653563D01*
X159817978Y-135042812D01*
X159824356Y-135031132D01*
X160554408Y-135031132D01*
X160554539Y-135032965D01*
X160558790Y-135039580D01*
X161173944Y-135654734D01*
X161186324Y-135661494D01*
X161192904Y-135656568D01*
X161270791Y-135517490D01*
X161275466Y-135506990D01*
X161342651Y-135309070D01*
X161383488Y-135250994D01*
X161449241Y-135224216D01*
X161519033Y-135237237D01*
X161570707Y-135285924D01*
X161584086Y-135318555D01*
X161611403Y-135426116D01*
X161702321Y-135623331D01*
X161827655Y-135800675D01*
X161983209Y-135952210D01*
X161988005Y-135955415D01*
X161988008Y-135955417D01*
X162073670Y-136012654D01*
X162163774Y-136072859D01*
X162169077Y-136075137D01*
X162169080Y-136075139D01*
X162262946Y-136115467D01*
X162363301Y-136158583D01*
X162440621Y-136176079D01*
X162569473Y-136205235D01*
X162569478Y-136205236D01*
X162575110Y-136206510D01*
X162580881Y-136206737D01*
X162580883Y-136206737D01*
X162646233Y-136209305D01*
X162792105Y-136215036D01*
X162899563Y-136199455D01*
X163001307Y-136184703D01*
X163001312Y-136184702D01*
X163007021Y-136183874D01*
X163012485Y-136182019D01*
X163012490Y-136182018D01*
X163207187Y-136115928D01*
X163207192Y-136115926D01*
X163212659Y-136114070D01*
X163218514Y-136110791D01*
X163397086Y-136010786D01*
X163397090Y-136010783D01*
X163402133Y-136007959D01*
X163569097Y-135869097D01*
X163707959Y-135702133D01*
X163710783Y-135697090D01*
X163710786Y-135697086D01*
X163811246Y-135517702D01*
X163811247Y-135517700D01*
X163814070Y-135512659D01*
X163882877Y-135309959D01*
X163923713Y-135251884D01*
X163989465Y-135225105D01*
X164059258Y-135238126D01*
X164110931Y-135286812D01*
X164124312Y-135319445D01*
X164151403Y-135426116D01*
X164242321Y-135623331D01*
X164367655Y-135800675D01*
X164523209Y-135952210D01*
X164528005Y-135955415D01*
X164528008Y-135955417D01*
X164613670Y-136012654D01*
X164703774Y-136072859D01*
X164709077Y-136075137D01*
X164709080Y-136075139D01*
X164802946Y-136115467D01*
X164903301Y-136158583D01*
X164980621Y-136176079D01*
X165109473Y-136205235D01*
X165109478Y-136205236D01*
X165115110Y-136206510D01*
X165120881Y-136206737D01*
X165120883Y-136206737D01*
X165186233Y-136209305D01*
X165332105Y-136215036D01*
X165439563Y-136199455D01*
X165541307Y-136184703D01*
X165541312Y-136184702D01*
X165547021Y-136183874D01*
X165552485Y-136182019D01*
X165552490Y-136182018D01*
X165747187Y-136115928D01*
X165747192Y-136115926D01*
X165752659Y-136114070D01*
X165758514Y-136110791D01*
X165937086Y-136010786D01*
X165937090Y-136010783D01*
X165942133Y-136007959D01*
X166109097Y-135869097D01*
X166247959Y-135702133D01*
X166250783Y-135697090D01*
X166250786Y-135697086D01*
X166351246Y-135517702D01*
X166351247Y-135517700D01*
X166354070Y-135512659D01*
X166355926Y-135507192D01*
X166355928Y-135507187D01*
X166422018Y-135312490D01*
X166422019Y-135312485D01*
X166423874Y-135307021D01*
X166426805Y-135286812D01*
X166454503Y-135095779D01*
X166455036Y-135092105D01*
X166456662Y-135030000D01*
X166436791Y-134813748D01*
X166427308Y-134780122D01*
X166379412Y-134610297D01*
X166379411Y-134610295D01*
X166377844Y-134604738D01*
X166366435Y-134581601D01*
X166284351Y-134415152D01*
X166281796Y-134409971D01*
X166259523Y-134380143D01*
X166155315Y-134240592D01*
X166155314Y-134240591D01*
X166151862Y-134235968D01*
X166147626Y-134232052D01*
X165996635Y-134092478D01*
X165996633Y-134092476D01*
X165992394Y-134088558D01*
X165808733Y-133972676D01*
X165607030Y-133892205D01*
X165601370Y-133891079D01*
X165601366Y-133891078D01*
X165399708Y-133850966D01*
X165399703Y-133850966D01*
X165394040Y-133849839D01*
X165388265Y-133849763D01*
X165388261Y-133849763D01*
X165279115Y-133848334D01*
X165176896Y-133846996D01*
X165171199Y-133847975D01*
X165171198Y-133847975D01*
X164968559Y-133882795D01*
X164968556Y-133882796D01*
X164962869Y-133883773D01*
X164759129Y-133958936D01*
X164704394Y-133991500D01*
X164577466Y-134067014D01*
X164577463Y-134067016D01*
X164572498Y-134069970D01*
X164568158Y-134073776D01*
X164568154Y-134073779D01*
X164413567Y-134209349D01*
X164409226Y-134213156D01*
X164405651Y-134217691D01*
X164405650Y-134217692D01*
X164391243Y-134235968D01*
X164274782Y-134383698D01*
X164272093Y-134388809D01*
X164272091Y-134388812D01*
X164176359Y-134570766D01*
X164176356Y-134570773D01*
X164173667Y-134575884D01*
X164119559Y-134750140D01*
X164080258Y-134809262D01*
X164015228Y-134837753D01*
X163945119Y-134826563D01*
X163892189Y-134779246D01*
X163877959Y-134746975D01*
X163839412Y-134610297D01*
X163839411Y-134610295D01*
X163837844Y-134604738D01*
X163826435Y-134581601D01*
X163744351Y-134415152D01*
X163741796Y-134409971D01*
X163719523Y-134380143D01*
X163615315Y-134240592D01*
X163615314Y-134240591D01*
X163611862Y-134235968D01*
X163607626Y-134232052D01*
X163456635Y-134092478D01*
X163456633Y-134092476D01*
X163452394Y-134088558D01*
X163268733Y-133972676D01*
X163067030Y-133892205D01*
X163061370Y-133891079D01*
X163061366Y-133891078D01*
X162859708Y-133850966D01*
X162859703Y-133850966D01*
X162854040Y-133849839D01*
X162848265Y-133849763D01*
X162848261Y-133849763D01*
X162739115Y-133848334D01*
X162636896Y-133846996D01*
X162631199Y-133847975D01*
X162631198Y-133847975D01*
X162428559Y-133882795D01*
X162428556Y-133882796D01*
X162422869Y-133883773D01*
X162219129Y-133958936D01*
X162164394Y-133991500D01*
X162037466Y-134067014D01*
X162037463Y-134067016D01*
X162032498Y-134069970D01*
X162028158Y-134073776D01*
X162028154Y-134073779D01*
X161873567Y-134209349D01*
X161869226Y-134213156D01*
X161865651Y-134217691D01*
X161865650Y-134217692D01*
X161851243Y-134235968D01*
X161734782Y-134383698D01*
X161732093Y-134388809D01*
X161732091Y-134388812D01*
X161636359Y-134570766D01*
X161636356Y-134570773D01*
X161633667Y-134575884D01*
X161579287Y-134751016D01*
X161539986Y-134810138D01*
X161474956Y-134838629D01*
X161404847Y-134827439D01*
X161351917Y-134780122D01*
X161337687Y-134747851D01*
X161298944Y-134610479D01*
X161294820Y-134599735D01*
X161203926Y-134415419D01*
X161198211Y-134406093D01*
X161187101Y-134397756D01*
X161174683Y-134404527D01*
X160562022Y-135017188D01*
X160554408Y-135031132D01*
X159824356Y-135031132D01*
X159825592Y-135028868D01*
X159825461Y-135027035D01*
X159821210Y-135020420D01*
X159204415Y-134403625D01*
X159192035Y-134396865D01*
X159186069Y-134401331D01*
X159096824Y-134570958D01*
X159092415Y-134581601D01*
X159031472Y-134777868D01*
X159029082Y-134789112D01*
X159004925Y-134993215D01*
X159004624Y-135004716D01*
X100518616Y-135004716D01*
X100371235Y-134826563D01*
X100334758Y-134782470D01*
X100334757Y-134782469D01*
X100332233Y-134779418D01*
X100102140Y-134563346D01*
X99846779Y-134377816D01*
X99570179Y-134225753D01*
X99566510Y-134224300D01*
X99566505Y-134224298D01*
X99280372Y-134111010D01*
X99280371Y-134111010D01*
X99276702Y-134109557D01*
X98987648Y-134035341D01*
X159559453Y-134035341D01*
X159562940Y-134043730D01*
X160177188Y-134657978D01*
X160191132Y-134665592D01*
X160192965Y-134665461D01*
X160199580Y-134661210D01*
X160813281Y-134047509D01*
X160820041Y-134035129D01*
X160814011Y-134027074D01*
X160733388Y-133976205D01*
X160723144Y-133970985D01*
X160532256Y-133894828D01*
X160521218Y-133891558D01*
X160319654Y-133851465D01*
X160308208Y-133850262D01*
X160102717Y-133847573D01*
X160091237Y-133848476D01*
X159888696Y-133883278D01*
X159877576Y-133886258D01*
X159684761Y-133957391D01*
X159674384Y-133962341D01*
X159569051Y-134025008D01*
X159559453Y-134035341D01*
X98987648Y-134035341D01*
X98970975Y-134031060D01*
X98657821Y-133991500D01*
X98342179Y-133991500D01*
X98029025Y-134031060D01*
X97723298Y-134109557D01*
X97719629Y-134111010D01*
X97719628Y-134111010D01*
X97433495Y-134224298D01*
X97433490Y-134224300D01*
X97429821Y-134225753D01*
X97153221Y-134377816D01*
X96897860Y-134563346D01*
X96667767Y-134779418D01*
X96665243Y-134782469D01*
X96665242Y-134782470D01*
X96628765Y-134826563D01*
X96466568Y-135022625D01*
X96297438Y-135289131D01*
X96295754Y-135292710D01*
X96295750Y-135292717D01*
X96194829Y-135507187D01*
X96163044Y-135574734D01*
X96161818Y-135578506D01*
X96161818Y-135578507D01*
X96135147Y-135660591D01*
X96065505Y-135874928D01*
X96006359Y-136184980D01*
X95988833Y-136463559D01*
X95986540Y-136500000D01*
X95508500Y-136500000D01*
X95508500Y-128086062D01*
X120278493Y-128086062D01*
X120287789Y-128098077D01*
X120338994Y-128133931D01*
X120348489Y-128139414D01*
X120545947Y-128231490D01*
X120556239Y-128235236D01*
X120766688Y-128291625D01*
X120777481Y-128293528D01*
X120994525Y-128312517D01*
X121005475Y-128312517D01*
X121222519Y-128293528D01*
X121233312Y-128291625D01*
X121443761Y-128235236D01*
X121454053Y-128231490D01*
X121651511Y-128139414D01*
X121661006Y-128133931D01*
X121713048Y-128097491D01*
X121721424Y-128087012D01*
X121714356Y-128073566D01*
X121012812Y-127372022D01*
X120998868Y-127364408D01*
X120997035Y-127364539D01*
X120990420Y-127368790D01*
X120284923Y-128074287D01*
X120278493Y-128086062D01*
X95508500Y-128086062D01*
X95508500Y-127005475D01*
X119687483Y-127005475D01*
X119706472Y-127222519D01*
X119708375Y-127233312D01*
X119764764Y-127443761D01*
X119768510Y-127454053D01*
X119860586Y-127651511D01*
X119866069Y-127661006D01*
X119902509Y-127713048D01*
X119912988Y-127721424D01*
X119926434Y-127714356D01*
X120627978Y-127012812D01*
X120634356Y-127001132D01*
X121364408Y-127001132D01*
X121364539Y-127002965D01*
X121368790Y-127009580D01*
X122074287Y-127715077D01*
X122086062Y-127721507D01*
X122098077Y-127712211D01*
X122133931Y-127661006D01*
X122139414Y-127651511D01*
X122231490Y-127454053D01*
X122235236Y-127443761D01*
X122291625Y-127233312D01*
X122293528Y-127222519D01*
X122312517Y-127005475D01*
X122312517Y-126994525D01*
X122293528Y-126777481D01*
X122291625Y-126766688D01*
X122235236Y-126556239D01*
X122231490Y-126545947D01*
X122139414Y-126348489D01*
X122133931Y-126338994D01*
X122097491Y-126286952D01*
X122087012Y-126278576D01*
X122073566Y-126285644D01*
X121372022Y-126987188D01*
X121364408Y-127001132D01*
X120634356Y-127001132D01*
X120635592Y-126998868D01*
X120635461Y-126997035D01*
X120631210Y-126990420D01*
X119925713Y-126284923D01*
X119913938Y-126278493D01*
X119901923Y-126287789D01*
X119866069Y-126338994D01*
X119860586Y-126348489D01*
X119768510Y-126545947D01*
X119764764Y-126556239D01*
X119708375Y-126766688D01*
X119706472Y-126777481D01*
X119687483Y-126994525D01*
X119687483Y-127005475D01*
X95508500Y-127005475D01*
X95508500Y-125912988D01*
X120278576Y-125912988D01*
X120285644Y-125926434D01*
X120987188Y-126627978D01*
X121001132Y-126635592D01*
X121002965Y-126635461D01*
X121009580Y-126631210D01*
X121715077Y-125925713D01*
X121721507Y-125913938D01*
X121712211Y-125901923D01*
X121661006Y-125866069D01*
X121651511Y-125860586D01*
X121454053Y-125768510D01*
X121443761Y-125764764D01*
X121233312Y-125708375D01*
X121222519Y-125706472D01*
X121005475Y-125687483D01*
X120994525Y-125687483D01*
X120777481Y-125706472D01*
X120766688Y-125708375D01*
X120556239Y-125764764D01*
X120545947Y-125768510D01*
X120348489Y-125860586D01*
X120338994Y-125866069D01*
X120286952Y-125902509D01*
X120278576Y-125912988D01*
X95508500Y-125912988D01*
X95508500Y-124348134D01*
X119691500Y-124348134D01*
X119698255Y-124410316D01*
X119749385Y-124546705D01*
X119836739Y-124663261D01*
X119953295Y-124750615D01*
X120089684Y-124801745D01*
X120151866Y-124808500D01*
X121848134Y-124808500D01*
X121910316Y-124801745D01*
X122046705Y-124750615D01*
X122163261Y-124663261D01*
X122250615Y-124546705D01*
X122301745Y-124410316D01*
X122308500Y-124348134D01*
X122308500Y-123635851D01*
X149036719Y-123635851D01*
X149037235Y-123641995D01*
X149051916Y-123816830D01*
X149053268Y-123832934D01*
X149054967Y-123838858D01*
X149086526Y-123948917D01*
X149107783Y-124023050D01*
X149125587Y-124057692D01*
X149182808Y-124169031D01*
X149198187Y-124198956D01*
X149321035Y-124353953D01*
X149325728Y-124357947D01*
X149325729Y-124357948D01*
X149410440Y-124430042D01*
X149471650Y-124482136D01*
X149644294Y-124578624D01*
X149650154Y-124580528D01*
X149826531Y-124637836D01*
X149826534Y-124637837D01*
X149832392Y-124639740D01*
X149926463Y-124650958D01*
X149941970Y-124652807D01*
X150007243Y-124680735D01*
X150016145Y-124688826D01*
X152841230Y-127513911D01*
X152853616Y-127528323D01*
X152862149Y-127539918D01*
X152862154Y-127539923D01*
X152866492Y-127545818D01*
X152872070Y-127550557D01*
X152872073Y-127550560D01*
X152906768Y-127580035D01*
X152914284Y-127586965D01*
X152919980Y-127592661D01*
X152922841Y-127594924D01*
X152922846Y-127594929D01*
X152942266Y-127610293D01*
X152945667Y-127613082D01*
X153001285Y-127660333D01*
X153007798Y-127663659D01*
X153012837Y-127667020D01*
X153017979Y-127670196D01*
X153023716Y-127674734D01*
X153089875Y-127705655D01*
X153093769Y-127707558D01*
X153158808Y-127740769D01*
X153165917Y-127742508D01*
X153171551Y-127744604D01*
X153177321Y-127746523D01*
X153183950Y-127749622D01*
X153191113Y-127751112D01*
X153191116Y-127751113D01*
X153241830Y-127761661D01*
X153255435Y-127764491D01*
X153259701Y-127765457D01*
X153330610Y-127782808D01*
X153336212Y-127783156D01*
X153336215Y-127783156D01*
X153341764Y-127783500D01*
X153341762Y-127783535D01*
X153345734Y-127783775D01*
X153349955Y-127784152D01*
X153357115Y-127785641D01*
X153434542Y-127783546D01*
X153437950Y-127783500D01*
X160507930Y-127783500D01*
X160526880Y-127784933D01*
X160541115Y-127787099D01*
X160541119Y-127787099D01*
X160548349Y-127788199D01*
X160555641Y-127787606D01*
X160555644Y-127787606D01*
X160601018Y-127783915D01*
X160611233Y-127783500D01*
X160619293Y-127783500D01*
X160636680Y-127781473D01*
X160647507Y-127780211D01*
X160651882Y-127779778D01*
X160717339Y-127774454D01*
X160717342Y-127774453D01*
X160724637Y-127773860D01*
X160731601Y-127771604D01*
X160737560Y-127770413D01*
X160743415Y-127769029D01*
X160750681Y-127768182D01*
X160819327Y-127743265D01*
X160823455Y-127741848D01*
X160885936Y-127721607D01*
X160885938Y-127721606D01*
X160892899Y-127719351D01*
X160899154Y-127715555D01*
X160904628Y-127713049D01*
X160910058Y-127710330D01*
X160916937Y-127707833D01*
X160948944Y-127686848D01*
X160977976Y-127667814D01*
X160981680Y-127665477D01*
X161044107Y-127627595D01*
X161052484Y-127620197D01*
X161052508Y-127620224D01*
X161055500Y-127617571D01*
X161058733Y-127614868D01*
X161064852Y-127610856D01*
X161118128Y-127554617D01*
X161120506Y-127552175D01*
X162585269Y-126087412D01*
X162647581Y-126053386D01*
X162679311Y-126050604D01*
X162792105Y-126055036D01*
X162792026Y-126057034D01*
X162852399Y-126071374D01*
X162879018Y-126091699D01*
X167501230Y-130713911D01*
X167513616Y-130728323D01*
X167522149Y-130739918D01*
X167522154Y-130739923D01*
X167526492Y-130745818D01*
X167532070Y-130750557D01*
X167532073Y-130750560D01*
X167566768Y-130780035D01*
X167574284Y-130786965D01*
X167579980Y-130792661D01*
X167582841Y-130794924D01*
X167582846Y-130794929D01*
X167602256Y-130810285D01*
X167605658Y-130813074D01*
X167626176Y-130830505D01*
X167661285Y-130860333D01*
X167667802Y-130863661D01*
X167672850Y-130867027D01*
X167677972Y-130870190D01*
X167683716Y-130874735D01*
X167749895Y-130905664D01*
X167753779Y-130907563D01*
X167818808Y-130940769D01*
X167825923Y-130942510D01*
X167831578Y-130944613D01*
X167837317Y-130946522D01*
X167843950Y-130949622D01*
X167915435Y-130964491D01*
X167919701Y-130965457D01*
X167990610Y-130982808D01*
X167996212Y-130983156D01*
X167996215Y-130983156D01*
X168001764Y-130983500D01*
X168001762Y-130983535D01*
X168005734Y-130983775D01*
X168009955Y-130984152D01*
X168017115Y-130985641D01*
X168094542Y-130983546D01*
X168097950Y-130983500D01*
X173007930Y-130983500D01*
X173026880Y-130984933D01*
X173041115Y-130987099D01*
X173041119Y-130987099D01*
X173048349Y-130988199D01*
X173055641Y-130987606D01*
X173055644Y-130987606D01*
X173101018Y-130983915D01*
X173111233Y-130983500D01*
X173119293Y-130983500D01*
X173136680Y-130981473D01*
X173147507Y-130980211D01*
X173151882Y-130979778D01*
X173217339Y-130974454D01*
X173217342Y-130974453D01*
X173224637Y-130973860D01*
X173231601Y-130971604D01*
X173237560Y-130970413D01*
X173243415Y-130969029D01*
X173250681Y-130968182D01*
X173319327Y-130943265D01*
X173323455Y-130941848D01*
X173385936Y-130921607D01*
X173385938Y-130921606D01*
X173392899Y-130919351D01*
X173399154Y-130915555D01*
X173404628Y-130913049D01*
X173410058Y-130910330D01*
X173416937Y-130907833D01*
X173462690Y-130877836D01*
X173477976Y-130867814D01*
X173481680Y-130865477D01*
X173544107Y-130827595D01*
X173552484Y-130820197D01*
X173552508Y-130820224D01*
X173555500Y-130817571D01*
X173558733Y-130814868D01*
X173564852Y-130810856D01*
X173618128Y-130754617D01*
X173620506Y-130752175D01*
X174387775Y-129984906D01*
X184379839Y-129984906D01*
X184388553Y-129996427D01*
X184495452Y-130074809D01*
X184503351Y-130079745D01*
X184732905Y-130200519D01*
X184741454Y-130204236D01*
X184986327Y-130289749D01*
X184995336Y-130292163D01*
X185250166Y-130340544D01*
X185259423Y-130341598D01*
X185518607Y-130351783D01*
X185527921Y-130351457D01*
X185785753Y-130323220D01*
X185794930Y-130321519D01*
X186045758Y-130255481D01*
X186054574Y-130252445D01*
X186292880Y-130150062D01*
X186301167Y-130145748D01*
X186521718Y-130009266D01*
X186529268Y-130003780D01*
X186534559Y-129999301D01*
X186542997Y-129986497D01*
X186542065Y-129984906D01*
X189459839Y-129984906D01*
X189468553Y-129996427D01*
X189575452Y-130074809D01*
X189583351Y-130079745D01*
X189812905Y-130200519D01*
X189821454Y-130204236D01*
X190066327Y-130289749D01*
X190075336Y-130292163D01*
X190330166Y-130340544D01*
X190339423Y-130341598D01*
X190598607Y-130351783D01*
X190607921Y-130351457D01*
X190865753Y-130323220D01*
X190874930Y-130321519D01*
X191125758Y-130255481D01*
X191134574Y-130252445D01*
X191372880Y-130150062D01*
X191381167Y-130145748D01*
X191601718Y-130009266D01*
X191609268Y-130003780D01*
X191614559Y-129999301D01*
X191622997Y-129986497D01*
X191616935Y-129976145D01*
X190552812Y-128912022D01*
X190538868Y-128904408D01*
X190537035Y-128904539D01*
X190530420Y-128908790D01*
X189466497Y-129972713D01*
X189459839Y-129984906D01*
X186542065Y-129984906D01*
X186536935Y-129976145D01*
X185472812Y-128912022D01*
X185458868Y-128904408D01*
X185457035Y-128904539D01*
X185450420Y-128908790D01*
X184386497Y-129972713D01*
X184379839Y-129984906D01*
X174387775Y-129984906D01*
X175875470Y-128497211D01*
X183647775Y-128497211D01*
X183660220Y-128756288D01*
X183661356Y-128765543D01*
X183711961Y-129019945D01*
X183714449Y-129028917D01*
X183802095Y-129273033D01*
X183805895Y-129281568D01*
X183928658Y-129510042D01*
X183933666Y-129517904D01*
X184003720Y-129611716D01*
X184014979Y-129620165D01*
X184027397Y-129613393D01*
X185087978Y-128552812D01*
X185095592Y-128538868D01*
X185095461Y-128537035D01*
X185091210Y-128530420D01*
X184025816Y-127465026D01*
X184012507Y-127457758D01*
X184002472Y-127464878D01*
X183986937Y-127483556D01*
X183981531Y-127491135D01*
X183846965Y-127712891D01*
X183842736Y-127721192D01*
X183742432Y-127960389D01*
X183739471Y-127969239D01*
X183675628Y-128220625D01*
X183674006Y-128229822D01*
X183648020Y-128487885D01*
X183647775Y-128497211D01*
X175875470Y-128497211D01*
X176738911Y-127633770D01*
X176753323Y-127621384D01*
X176764918Y-127612851D01*
X176764923Y-127612846D01*
X176770818Y-127608508D01*
X176775557Y-127602930D01*
X176775560Y-127602927D01*
X176805035Y-127568232D01*
X176811965Y-127560716D01*
X176817660Y-127555021D01*
X176835281Y-127532749D01*
X176838072Y-127529345D01*
X176880591Y-127479297D01*
X176880592Y-127479295D01*
X176885333Y-127473715D01*
X176888661Y-127467199D01*
X176892028Y-127462150D01*
X176895195Y-127457021D01*
X176899734Y-127451284D01*
X176930655Y-127385125D01*
X176932561Y-127381225D01*
X176938911Y-127368790D01*
X176965769Y-127316192D01*
X176967508Y-127309084D01*
X176969607Y-127303441D01*
X176971524Y-127297678D01*
X176974622Y-127291050D01*
X176989487Y-127219583D01*
X176990457Y-127215299D01*
X177001628Y-127169645D01*
X177007808Y-127144390D01*
X177008500Y-127133236D01*
X177008536Y-127133238D01*
X177008775Y-127129245D01*
X177009149Y-127125053D01*
X177010640Y-127117885D01*
X177009958Y-127092689D01*
X184377102Y-127092689D01*
X184381675Y-127102465D01*
X186896094Y-129616884D01*
X186908474Y-129623644D01*
X186916815Y-129617400D01*
X187050832Y-129409048D01*
X187055275Y-129400864D01*
X187161807Y-129164370D01*
X187164997Y-129155605D01*
X187235402Y-128905972D01*
X187237262Y-128896830D01*
X187270187Y-128638019D01*
X187270668Y-128631733D01*
X187272987Y-128543160D01*
X187272836Y-128536851D01*
X187253501Y-128276663D01*
X187252125Y-128267457D01*
X187194878Y-128014467D01*
X187192154Y-128005556D01*
X187098143Y-127763806D01*
X187094132Y-127755397D01*
X187004200Y-127598049D01*
X186987763Y-127528982D01*
X187011276Y-127461992D01*
X187067274Y-127418348D01*
X187137978Y-127411908D01*
X187172260Y-127424018D01*
X187392684Y-127539989D01*
X187392689Y-127539991D01*
X187396834Y-127542172D01*
X187540540Y-127592357D01*
X187623660Y-127621384D01*
X187643590Y-127628344D01*
X187648183Y-127629216D01*
X187895785Y-127676224D01*
X187895788Y-127676224D01*
X187900374Y-127677095D01*
X188030958Y-127682226D01*
X188156875Y-127687174D01*
X188156881Y-127687174D01*
X188161543Y-127687357D01*
X188248541Y-127677829D01*
X188416707Y-127659412D01*
X188416712Y-127659411D01*
X188421360Y-127658902D01*
X188534116Y-127629216D01*
X188669594Y-127593548D01*
X188669596Y-127593547D01*
X188674117Y-127592357D01*
X188678416Y-127590510D01*
X188678419Y-127590509D01*
X188756733Y-127556863D01*
X188827217Y-127548351D01*
X188891114Y-127579297D01*
X188928138Y-127639875D01*
X188926533Y-127710854D01*
X188922667Y-127721357D01*
X188822432Y-127960389D01*
X188819471Y-127969239D01*
X188755628Y-128220625D01*
X188754006Y-128229822D01*
X188728020Y-128487885D01*
X188727775Y-128497211D01*
X188740220Y-128756288D01*
X188741356Y-128765543D01*
X188791961Y-129019945D01*
X188794449Y-129028917D01*
X188882095Y-129273033D01*
X188885895Y-129281568D01*
X189008658Y-129510042D01*
X189013666Y-129517904D01*
X189083720Y-129611716D01*
X189094979Y-129620165D01*
X189107397Y-129613393D01*
X190179658Y-128541132D01*
X190904408Y-128541132D01*
X190904539Y-128542965D01*
X190908790Y-128549580D01*
X191976094Y-129616884D01*
X191988474Y-129623644D01*
X191996815Y-129617400D01*
X192130832Y-129409048D01*
X192135275Y-129400864D01*
X192241807Y-129164370D01*
X192244997Y-129155605D01*
X192315402Y-128905972D01*
X192317262Y-128896830D01*
X192350187Y-128638019D01*
X192350668Y-128631733D01*
X192352987Y-128543160D01*
X192352836Y-128536851D01*
X192333501Y-128276663D01*
X192332125Y-128267457D01*
X192274878Y-128014467D01*
X192272154Y-128005556D01*
X192178143Y-127763806D01*
X192174132Y-127755397D01*
X192045422Y-127530202D01*
X192040211Y-127522476D01*
X191996996Y-127467658D01*
X191985071Y-127459187D01*
X191973537Y-127465673D01*
X190912022Y-128527188D01*
X190904408Y-128541132D01*
X190179658Y-128541132D01*
X191614349Y-127106441D01*
X191620733Y-127094751D01*
X191611321Y-127082641D01*
X191464045Y-126980471D01*
X191456010Y-126975738D01*
X191223376Y-126861016D01*
X191214743Y-126857528D01*
X190967703Y-126778450D01*
X190958643Y-126776274D01*
X190702630Y-126734580D01*
X190693343Y-126733768D01*
X190433992Y-126730373D01*
X190424681Y-126730943D01*
X190167682Y-126765919D01*
X190158546Y-126767860D01*
X189909543Y-126840439D01*
X189900806Y-126843705D01*
X189846046Y-126868950D01*
X189775808Y-126879305D01*
X189711122Y-126850043D01*
X189672526Y-126790454D01*
X189672272Y-126719458D01*
X189678412Y-126702774D01*
X189755160Y-126532398D01*
X189755160Y-126532397D01*
X189757083Y-126528129D01*
X189810425Y-126338994D01*
X189826760Y-126281076D01*
X189826761Y-126281073D01*
X189828030Y-126276572D01*
X189844832Y-126144496D01*
X189860616Y-126020421D01*
X189860616Y-126020417D01*
X189861014Y-126017291D01*
X189861632Y-125993715D01*
X189863348Y-125928160D01*
X189863431Y-125925000D01*
X189853384Y-125789805D01*
X189844407Y-125669000D01*
X189844406Y-125668996D01*
X189844061Y-125664348D01*
X189841588Y-125653416D01*
X189787408Y-125413980D01*
X189786377Y-125409423D01*
X189769279Y-125365455D01*
X189751594Y-125319976D01*
X189745547Y-125249238D01*
X189778704Y-125186459D01*
X189840538Y-125151573D01*
X189910568Y-125155355D01*
X190066327Y-125209749D01*
X190075336Y-125212163D01*
X190330166Y-125260544D01*
X190339423Y-125261598D01*
X190598607Y-125271783D01*
X190607921Y-125271457D01*
X190865753Y-125243220D01*
X190874930Y-125241519D01*
X191125758Y-125175481D01*
X191134574Y-125172445D01*
X191372880Y-125070062D01*
X191381167Y-125065748D01*
X191601718Y-124929266D01*
X191609268Y-124923780D01*
X191614559Y-124919301D01*
X191622997Y-124906497D01*
X191616935Y-124896145D01*
X190181922Y-123461132D01*
X190904408Y-123461132D01*
X190904539Y-123462965D01*
X190908790Y-123469580D01*
X191976094Y-124536884D01*
X191988474Y-124543644D01*
X191996815Y-124537400D01*
X192130832Y-124329048D01*
X192135275Y-124320864D01*
X192241807Y-124084370D01*
X192244997Y-124075605D01*
X192315402Y-123825972D01*
X192317262Y-123816830D01*
X192350187Y-123558019D01*
X192350668Y-123551733D01*
X192352987Y-123463160D01*
X192352836Y-123456851D01*
X192333501Y-123196663D01*
X192332125Y-123187457D01*
X192274878Y-122934467D01*
X192272154Y-122925556D01*
X192178143Y-122683806D01*
X192174132Y-122675397D01*
X192045422Y-122450202D01*
X192040211Y-122442476D01*
X191996996Y-122387658D01*
X191985071Y-122379187D01*
X191973537Y-122385673D01*
X190912022Y-123447188D01*
X190904408Y-123461132D01*
X190181922Y-123461132D01*
X189105816Y-122385026D01*
X189092507Y-122377758D01*
X189082472Y-122384878D01*
X189066937Y-122403556D01*
X189061531Y-122411135D01*
X188926965Y-122632891D01*
X188922736Y-122641192D01*
X188822432Y-122880389D01*
X188819471Y-122889239D01*
X188755628Y-123140625D01*
X188754006Y-123149822D01*
X188728020Y-123407885D01*
X188727775Y-123417211D01*
X188740220Y-123676288D01*
X188741356Y-123685543D01*
X188791961Y-123939945D01*
X188794449Y-123948917D01*
X188850859Y-124106034D01*
X188855053Y-124176907D01*
X188820264Y-124238796D01*
X188757538Y-124272052D01*
X188693858Y-124268613D01*
X188516123Y-124211720D01*
X188511665Y-124210293D01*
X188253693Y-124168279D01*
X188139942Y-124166790D01*
X187997022Y-124164919D01*
X187997019Y-124164919D01*
X187992345Y-124164858D01*
X187733362Y-124200104D01*
X187482433Y-124273243D01*
X187478180Y-124275203D01*
X187478179Y-124275204D01*
X187276438Y-124368208D01*
X187206201Y-124378563D01*
X187141515Y-124349300D01*
X187102918Y-124289712D01*
X187102665Y-124218716D01*
X187108805Y-124202032D01*
X187161807Y-124084370D01*
X187164997Y-124075605D01*
X187235402Y-123825972D01*
X187237262Y-123816830D01*
X187270187Y-123558019D01*
X187270668Y-123551733D01*
X187272987Y-123463160D01*
X187272836Y-123456851D01*
X187253501Y-123196663D01*
X187252125Y-123187457D01*
X187194878Y-122934467D01*
X187192154Y-122925556D01*
X187098143Y-122683806D01*
X187094132Y-122675397D01*
X186965422Y-122450202D01*
X186960211Y-122442476D01*
X186916996Y-122387658D01*
X186905071Y-122379187D01*
X186893537Y-122385673D01*
X184386497Y-124892713D01*
X184379839Y-124904906D01*
X184388553Y-124916427D01*
X184495452Y-124994809D01*
X184503351Y-124999745D01*
X184732905Y-125120519D01*
X184741454Y-125124236D01*
X184986327Y-125209749D01*
X184995336Y-125212163D01*
X185250166Y-125260544D01*
X185259423Y-125261598D01*
X185518607Y-125271783D01*
X185527921Y-125271457D01*
X185785753Y-125243220D01*
X185794930Y-125241519D01*
X186045758Y-125175481D01*
X186054574Y-125172445D01*
X186292880Y-125070062D01*
X186301170Y-125065746D01*
X186307038Y-125062115D01*
X186375490Y-125043278D01*
X186443259Y-125064440D01*
X186488830Y-125118882D01*
X186497732Y-125189318D01*
X186489536Y-125217984D01*
X186427697Y-125365455D01*
X186363359Y-125618783D01*
X186362891Y-125623434D01*
X186362890Y-125623438D01*
X186358771Y-125664348D01*
X186337173Y-125878839D01*
X186337397Y-125883505D01*
X186337397Y-125883511D01*
X186340876Y-125955928D01*
X186349713Y-126139908D01*
X186400704Y-126396256D01*
X186489026Y-126642252D01*
X186592730Y-126835255D01*
X186607352Y-126904730D01*
X186582093Y-126971081D01*
X186524972Y-127013243D01*
X186454124Y-127017830D01*
X186409916Y-126998419D01*
X186384047Y-126980473D01*
X186376010Y-126975738D01*
X186143376Y-126861016D01*
X186134743Y-126857528D01*
X185887703Y-126778450D01*
X185878643Y-126776274D01*
X185622630Y-126734580D01*
X185613343Y-126733768D01*
X185353992Y-126730373D01*
X185344681Y-126730943D01*
X185087682Y-126765919D01*
X185078546Y-126767860D01*
X184829543Y-126840439D01*
X184820800Y-126843707D01*
X184585252Y-126952296D01*
X184577097Y-126956816D01*
X184386240Y-127081947D01*
X184377102Y-127092689D01*
X177009958Y-127092689D01*
X177008546Y-127040479D01*
X177008500Y-127037072D01*
X177008500Y-123417211D01*
X183647775Y-123417211D01*
X183660220Y-123676288D01*
X183661356Y-123685543D01*
X183711961Y-123939945D01*
X183714449Y-123948917D01*
X183802095Y-124193033D01*
X183805895Y-124201568D01*
X183928658Y-124430042D01*
X183933666Y-124437904D01*
X184003720Y-124531716D01*
X184014979Y-124540165D01*
X184027397Y-124533393D01*
X185087978Y-123472812D01*
X185095592Y-123458868D01*
X185095461Y-123457035D01*
X185091210Y-123450420D01*
X184025816Y-122385026D01*
X184012507Y-122377758D01*
X184002472Y-122384878D01*
X183986937Y-122403556D01*
X183981531Y-122411135D01*
X183846965Y-122632891D01*
X183842736Y-122641192D01*
X183742432Y-122880389D01*
X183739471Y-122889239D01*
X183675628Y-123140625D01*
X183674006Y-123149822D01*
X183648020Y-123407885D01*
X183647775Y-123417211D01*
X177008500Y-123417211D01*
X177008500Y-122012689D01*
X184377102Y-122012689D01*
X184381675Y-122022465D01*
X185447188Y-123087978D01*
X185461132Y-123095592D01*
X185462965Y-123095461D01*
X185469580Y-123091210D01*
X186534349Y-122026441D01*
X186540733Y-122014751D01*
X186539130Y-122012689D01*
X189457102Y-122012689D01*
X189461675Y-122022465D01*
X190527188Y-123087978D01*
X190541132Y-123095592D01*
X190542965Y-123095461D01*
X190549580Y-123091210D01*
X191614349Y-122026441D01*
X191620733Y-122014751D01*
X191611321Y-122002641D01*
X191464045Y-121900471D01*
X191456010Y-121895738D01*
X191223376Y-121781016D01*
X191214743Y-121777528D01*
X190967703Y-121698450D01*
X190958643Y-121696274D01*
X190702630Y-121654580D01*
X190693343Y-121653768D01*
X190433992Y-121650373D01*
X190424681Y-121650943D01*
X190167682Y-121685919D01*
X190158546Y-121687860D01*
X189909543Y-121760439D01*
X189900800Y-121763707D01*
X189665252Y-121872296D01*
X189657097Y-121876816D01*
X189466240Y-122001947D01*
X189457102Y-122012689D01*
X186539130Y-122012689D01*
X186531321Y-122002641D01*
X186384045Y-121900471D01*
X186376010Y-121895738D01*
X186143376Y-121781016D01*
X186134743Y-121777528D01*
X185887703Y-121698450D01*
X185878643Y-121696274D01*
X185622630Y-121654580D01*
X185613343Y-121653768D01*
X185353992Y-121650373D01*
X185344681Y-121650943D01*
X185087682Y-121685919D01*
X185078546Y-121687860D01*
X184829543Y-121760439D01*
X184820800Y-121763707D01*
X184585252Y-121872296D01*
X184577097Y-121876816D01*
X184386240Y-122001947D01*
X184377102Y-122012689D01*
X177008500Y-122012689D01*
X177008500Y-117336610D01*
X177028502Y-117268489D01*
X177039119Y-117254279D01*
X177041599Y-117251406D01*
X177078078Y-117209145D01*
X177175769Y-117037179D01*
X177238197Y-116849513D01*
X177262985Y-116653295D01*
X177263380Y-116625000D01*
X177244080Y-116428167D01*
X177186916Y-116238831D01*
X177094066Y-116064204D01*
X177007304Y-115957823D01*
X176972960Y-115915713D01*
X176972957Y-115915710D01*
X176969065Y-115910938D01*
X176962724Y-115905692D01*
X176821425Y-115788799D01*
X176821421Y-115788797D01*
X176816675Y-115784870D01*
X176642701Y-115690802D01*
X176453768Y-115632318D01*
X176447643Y-115631674D01*
X176447642Y-115631674D01*
X176263204Y-115612289D01*
X176263202Y-115612289D01*
X176257075Y-115611645D01*
X176174576Y-115619153D01*
X176066251Y-115629011D01*
X176066248Y-115629012D01*
X176060112Y-115629570D01*
X176054206Y-115631308D01*
X176054202Y-115631309D01*
X175949076Y-115662249D01*
X175870381Y-115685410D01*
X175864923Y-115688263D01*
X175864919Y-115688265D01*
X175830485Y-115706267D01*
X175695110Y-115777040D01*
X175540975Y-115900968D01*
X175413846Y-116052474D01*
X175410879Y-116057872D01*
X175410875Y-116057877D01*
X175407397Y-116064204D01*
X175318567Y-116225787D01*
X175316706Y-116231654D01*
X175316705Y-116231656D01*
X175260627Y-116408436D01*
X175258765Y-116414306D01*
X175236719Y-116610851D01*
X175237235Y-116616995D01*
X175245938Y-116720635D01*
X175253268Y-116807934D01*
X175307783Y-116998050D01*
X175398187Y-117173956D01*
X175402010Y-117178780D01*
X175402013Y-117178784D01*
X175464246Y-117257303D01*
X175490883Y-117323113D01*
X175491500Y-117335567D01*
X175491500Y-126683629D01*
X175471498Y-126751750D01*
X175454595Y-126772724D01*
X172797724Y-129429595D01*
X172735412Y-129463621D01*
X172708629Y-129466500D01*
X168451370Y-129466500D01*
X168383249Y-129446498D01*
X168362275Y-129429595D01*
X165201268Y-126268588D01*
X165167242Y-126206276D01*
X165172307Y-126135461D01*
X165214854Y-126078625D01*
X165281374Y-126053814D01*
X165295305Y-126053590D01*
X165332105Y-126055036D01*
X165439563Y-126039455D01*
X165541307Y-126024703D01*
X165541312Y-126024702D01*
X165547021Y-126023874D01*
X165552485Y-126022019D01*
X165552490Y-126022018D01*
X165747187Y-125955928D01*
X165747192Y-125955926D01*
X165752659Y-125954070D01*
X165757702Y-125951246D01*
X165937086Y-125850786D01*
X165937090Y-125850783D01*
X165942133Y-125847959D01*
X166109097Y-125709097D01*
X166247959Y-125542133D01*
X166250783Y-125537090D01*
X166250786Y-125537086D01*
X166351246Y-125357702D01*
X166351247Y-125357700D01*
X166354070Y-125352659D01*
X166355926Y-125347192D01*
X166355928Y-125347187D01*
X166422018Y-125152490D01*
X166422019Y-125152485D01*
X166423874Y-125147021D01*
X166427152Y-125124419D01*
X166447009Y-124987463D01*
X166455036Y-124932105D01*
X166456662Y-124870000D01*
X166439726Y-124685690D01*
X166437320Y-124659502D01*
X166437319Y-124659499D01*
X166436791Y-124653748D01*
X166432841Y-124639740D01*
X166379412Y-124450297D01*
X166379411Y-124450295D01*
X166377844Y-124444738D01*
X166370180Y-124429195D01*
X166284351Y-124255152D01*
X166281796Y-124249971D01*
X166239279Y-124193033D01*
X166155315Y-124080592D01*
X166155314Y-124080591D01*
X166151862Y-124075968D01*
X166100549Y-124028535D01*
X165996635Y-123932478D01*
X165996633Y-123932476D01*
X165992394Y-123928558D01*
X165808733Y-123812676D01*
X165607030Y-123732205D01*
X165601370Y-123731079D01*
X165601366Y-123731078D01*
X165399708Y-123690966D01*
X165399703Y-123690966D01*
X165394040Y-123689839D01*
X165388265Y-123689763D01*
X165388261Y-123689763D01*
X165279115Y-123688334D01*
X165176896Y-123686996D01*
X165171199Y-123687975D01*
X165171198Y-123687975D01*
X164968559Y-123722795D01*
X164968556Y-123722796D01*
X164962869Y-123723773D01*
X164759129Y-123798936D01*
X164701984Y-123832934D01*
X164577466Y-123907014D01*
X164577463Y-123907016D01*
X164572498Y-123909970D01*
X164568158Y-123913776D01*
X164568154Y-123913779D01*
X164443555Y-124023050D01*
X164409226Y-124053156D01*
X164405651Y-124057691D01*
X164405650Y-124057692D01*
X164388706Y-124079185D01*
X164274782Y-124223698D01*
X164272093Y-124228809D01*
X164272091Y-124228812D01*
X164176359Y-124410766D01*
X164176356Y-124410773D01*
X164173667Y-124415884D01*
X164119559Y-124590140D01*
X164080258Y-124649262D01*
X164015228Y-124677753D01*
X163945119Y-124666563D01*
X163892189Y-124619246D01*
X163877959Y-124586975D01*
X163839412Y-124450297D01*
X163839411Y-124450295D01*
X163837844Y-124444738D01*
X163830180Y-124429195D01*
X163744351Y-124255152D01*
X163741796Y-124249971D01*
X163699279Y-124193033D01*
X163615315Y-124080592D01*
X163615314Y-124080591D01*
X163611862Y-124075968D01*
X163560549Y-124028535D01*
X163456635Y-123932478D01*
X163456633Y-123932476D01*
X163452394Y-123928558D01*
X163268733Y-123812676D01*
X163067030Y-123732205D01*
X163061370Y-123731079D01*
X163061366Y-123731078D01*
X162859708Y-123690966D01*
X162859703Y-123690966D01*
X162854040Y-123689839D01*
X162848265Y-123689763D01*
X162848261Y-123689763D01*
X162739115Y-123688334D01*
X162636896Y-123686996D01*
X162631199Y-123687975D01*
X162631198Y-123687975D01*
X162428559Y-123722795D01*
X162428556Y-123722796D01*
X162422869Y-123723773D01*
X162219129Y-123798936D01*
X162161984Y-123832934D01*
X162037466Y-123907014D01*
X162037463Y-123907016D01*
X162032498Y-123909970D01*
X162028158Y-123913776D01*
X162028154Y-123913779D01*
X161903555Y-124023050D01*
X161869226Y-124053156D01*
X161865651Y-124057691D01*
X161865650Y-124057692D01*
X161848706Y-124079185D01*
X161734782Y-124223698D01*
X161732093Y-124228809D01*
X161732091Y-124228812D01*
X161636359Y-124410766D01*
X161636356Y-124410773D01*
X161633667Y-124415884D01*
X161617931Y-124466562D01*
X161578630Y-124525684D01*
X161513600Y-124554175D01*
X161443491Y-124542985D01*
X161390561Y-124495668D01*
X161371600Y-124429195D01*
X161371600Y-124148766D01*
X161364845Y-124086584D01*
X161313715Y-123950195D01*
X161226361Y-123833639D01*
X161109805Y-123746285D01*
X160973416Y-123695155D01*
X160911234Y-123688400D01*
X159468766Y-123688400D01*
X159406584Y-123695155D01*
X159270195Y-123746285D01*
X159153639Y-123833639D01*
X159066285Y-123950195D01*
X159015155Y-124086584D01*
X159008400Y-124148766D01*
X159008400Y-125591234D01*
X159015155Y-125653416D01*
X159066285Y-125789805D01*
X159153639Y-125906361D01*
X159270195Y-125993715D01*
X159278604Y-125996867D01*
X159278605Y-125996868D01*
X159347026Y-126022518D01*
X159403791Y-126065159D01*
X159428491Y-126131721D01*
X159413284Y-126201070D01*
X159362998Y-126251188D01*
X159302797Y-126266500D01*
X153791371Y-126266500D01*
X153723250Y-126246498D01*
X153702276Y-126229595D01*
X151088835Y-123616154D01*
X151054809Y-123553842D01*
X151052531Y-123539355D01*
X151045060Y-123463160D01*
X151044080Y-123453167D01*
X150986916Y-123263831D01*
X150894066Y-123089204D01*
X150791810Y-122963826D01*
X150772960Y-122940713D01*
X150772957Y-122940710D01*
X150769065Y-122935938D01*
X150762724Y-122930692D01*
X150621425Y-122813799D01*
X150621421Y-122813797D01*
X150616675Y-122809870D01*
X150442701Y-122715802D01*
X150253768Y-122657318D01*
X150247643Y-122656674D01*
X150247642Y-122656674D01*
X150063204Y-122637289D01*
X150063202Y-122637289D01*
X150057075Y-122636645D01*
X149974576Y-122644153D01*
X149866251Y-122654011D01*
X149866248Y-122654012D01*
X149860112Y-122654570D01*
X149854206Y-122656308D01*
X149854202Y-122656309D01*
X149760775Y-122683806D01*
X149670381Y-122710410D01*
X149664923Y-122713263D01*
X149664919Y-122713265D01*
X149588641Y-122753143D01*
X149495110Y-122802040D01*
X149340975Y-122925968D01*
X149213846Y-123077474D01*
X149210879Y-123082872D01*
X149210875Y-123082877D01*
X149153383Y-123187457D01*
X149118567Y-123250787D01*
X149116706Y-123256654D01*
X149116705Y-123256656D01*
X149068732Y-123407885D01*
X149058765Y-123439306D01*
X149036719Y-123635851D01*
X122308500Y-123635851D01*
X122308500Y-122651866D01*
X122301745Y-122589684D01*
X122250615Y-122453295D01*
X122163261Y-122336739D01*
X122046705Y-122249385D01*
X121910316Y-122198255D01*
X121848134Y-122191500D01*
X120151866Y-122191500D01*
X120089684Y-122198255D01*
X119953295Y-122249385D01*
X119836739Y-122336739D01*
X119749385Y-122453295D01*
X119698255Y-122589684D01*
X119691500Y-122651866D01*
X119691500Y-124348134D01*
X95508500Y-124348134D01*
X95508500Y-122333411D01*
X110328493Y-122333411D01*
X110337789Y-122345426D01*
X110388994Y-122381280D01*
X110398489Y-122386763D01*
X110595947Y-122478839D01*
X110606239Y-122482585D01*
X110816688Y-122538974D01*
X110827481Y-122540877D01*
X111044525Y-122559866D01*
X111055475Y-122559866D01*
X111272519Y-122540877D01*
X111283312Y-122538974D01*
X111493761Y-122482585D01*
X111504053Y-122478839D01*
X111701511Y-122386763D01*
X111711006Y-122381280D01*
X111763048Y-122344840D01*
X111771424Y-122334361D01*
X111764356Y-122320915D01*
X111062812Y-121619371D01*
X111048868Y-121611757D01*
X111047035Y-121611888D01*
X111040420Y-121616139D01*
X110334923Y-122321636D01*
X110328493Y-122333411D01*
X95508500Y-122333411D01*
X95508500Y-121404853D01*
X98239977Y-121404853D01*
X98245258Y-121411907D01*
X98406756Y-121506279D01*
X98416042Y-121510729D01*
X98615001Y-121586703D01*
X98624899Y-121589579D01*
X98833595Y-121632038D01*
X98843823Y-121633257D01*
X99056650Y-121641062D01*
X99066936Y-121640595D01*
X99278185Y-121613534D01*
X99288262Y-121611392D01*
X99492255Y-121550191D01*
X99501842Y-121546433D01*
X99693098Y-121452738D01*
X99701944Y-121447465D01*
X99749247Y-121413723D01*
X99756211Y-121404853D01*
X100779977Y-121404853D01*
X100785258Y-121411907D01*
X100946756Y-121506279D01*
X100956042Y-121510729D01*
X101155001Y-121586703D01*
X101164899Y-121589579D01*
X101373595Y-121632038D01*
X101383823Y-121633257D01*
X101596650Y-121641062D01*
X101606936Y-121640595D01*
X101818185Y-121613534D01*
X101828262Y-121611392D01*
X102032255Y-121550191D01*
X102041842Y-121546433D01*
X102233098Y-121452738D01*
X102241944Y-121447465D01*
X102289247Y-121413723D01*
X102297648Y-121403023D01*
X102290660Y-121389870D01*
X102153614Y-121252824D01*
X109737483Y-121252824D01*
X109756472Y-121469868D01*
X109758375Y-121480661D01*
X109814764Y-121691110D01*
X109818510Y-121701402D01*
X109910586Y-121898860D01*
X109916069Y-121908355D01*
X109952509Y-121960397D01*
X109962988Y-121968773D01*
X109976434Y-121961705D01*
X110677978Y-121260161D01*
X110684356Y-121248481D01*
X111414408Y-121248481D01*
X111414539Y-121250314D01*
X111418790Y-121256929D01*
X112124287Y-121962426D01*
X112136062Y-121968856D01*
X112148077Y-121959560D01*
X112182183Y-121910851D01*
X167111719Y-121910851D01*
X167112235Y-121916995D01*
X167119427Y-122002641D01*
X167128268Y-122107934D01*
X167129967Y-122113858D01*
X167168829Y-122249385D01*
X167182783Y-122298050D01*
X167185601Y-122303533D01*
X167262569Y-122453295D01*
X167273187Y-122473956D01*
X167396035Y-122628953D01*
X167400728Y-122632947D01*
X167400729Y-122632948D01*
X167498083Y-122715802D01*
X167546650Y-122757136D01*
X167719294Y-122853624D01*
X167725154Y-122855528D01*
X167901531Y-122912836D01*
X167901534Y-122912837D01*
X167907392Y-122914740D01*
X167998094Y-122925556D01*
X168016970Y-122927807D01*
X168082243Y-122955735D01*
X168091145Y-122963826D01*
X170554595Y-125427276D01*
X170588621Y-125489588D01*
X170591500Y-125516371D01*
X170591500Y-127014071D01*
X170571498Y-127082192D01*
X170562030Y-127095051D01*
X170513846Y-127152474D01*
X170510879Y-127157872D01*
X170510875Y-127157877D01*
X170437664Y-127291050D01*
X170418567Y-127325787D01*
X170416706Y-127331654D01*
X170416705Y-127331656D01*
X170366735Y-127489182D01*
X170358765Y-127514306D01*
X170336719Y-127710851D01*
X170337235Y-127716995D01*
X170343122Y-127787099D01*
X170353268Y-127907934D01*
X170354967Y-127913858D01*
X170404618Y-128087012D01*
X170407783Y-128098050D01*
X170498187Y-128273956D01*
X170621035Y-128428953D01*
X170625728Y-128432947D01*
X170625729Y-128432948D01*
X170762772Y-128549580D01*
X170771650Y-128557136D01*
X170944294Y-128653624D01*
X171132392Y-128714740D01*
X171328777Y-128738158D01*
X171334912Y-128737686D01*
X171334914Y-128737686D01*
X171519830Y-128723457D01*
X171519834Y-128723456D01*
X171525972Y-128722984D01*
X171716463Y-128669798D01*
X171721967Y-128667018D01*
X171721969Y-128667017D01*
X171887495Y-128583404D01*
X171887497Y-128583403D01*
X171892996Y-128580625D01*
X172048847Y-128458861D01*
X172178078Y-128309145D01*
X172275769Y-128137179D01*
X172338197Y-127949513D01*
X172362985Y-127753295D01*
X172363380Y-127725000D01*
X172344080Y-127528167D01*
X172286916Y-127338831D01*
X172194066Y-127164204D01*
X172136857Y-127094059D01*
X172109303Y-127028627D01*
X172108500Y-127014423D01*
X172108500Y-125217070D01*
X172109933Y-125198120D01*
X172112099Y-125183885D01*
X172112099Y-125183881D01*
X172113199Y-125176651D01*
X172112319Y-125165823D01*
X172108915Y-125123982D01*
X172108500Y-125113767D01*
X172108500Y-125105707D01*
X172105209Y-125077480D01*
X172104778Y-125073121D01*
X172103356Y-125055635D01*
X172098860Y-125000364D01*
X172096605Y-124993403D01*
X172095418Y-124987463D01*
X172094029Y-124981588D01*
X172093182Y-124974319D01*
X172068264Y-124905670D01*
X172066847Y-124901542D01*
X172046607Y-124839064D01*
X172046606Y-124839062D01*
X172044351Y-124832101D01*
X172040555Y-124825846D01*
X172038049Y-124820372D01*
X172035330Y-124814942D01*
X172032833Y-124808063D01*
X171992814Y-124747024D01*
X171990467Y-124743305D01*
X171964200Y-124700018D01*
X171952595Y-124680893D01*
X171945197Y-124672516D01*
X171945224Y-124672492D01*
X171942571Y-124669500D01*
X171939868Y-124666267D01*
X171935856Y-124660148D01*
X171879617Y-124606872D01*
X171877175Y-124604494D01*
X169163835Y-121891154D01*
X169129809Y-121828842D01*
X169127531Y-121814355D01*
X169119681Y-121734299D01*
X169119080Y-121728167D01*
X169061916Y-121538831D01*
X168969066Y-121364204D01*
X168898709Y-121277938D01*
X168847960Y-121215713D01*
X168847957Y-121215710D01*
X168844065Y-121210938D01*
X168837724Y-121205692D01*
X168696425Y-121088799D01*
X168696421Y-121088797D01*
X168691675Y-121084870D01*
X168517701Y-120990802D01*
X168328768Y-120932318D01*
X168322643Y-120931674D01*
X168322642Y-120931674D01*
X168138204Y-120912289D01*
X168138202Y-120912289D01*
X168132075Y-120911645D01*
X168049576Y-120919153D01*
X167941251Y-120929011D01*
X167941248Y-120929012D01*
X167935112Y-120929570D01*
X167929206Y-120931308D01*
X167929202Y-120931309D01*
X167824076Y-120962249D01*
X167745381Y-120985410D01*
X167739923Y-120988263D01*
X167739919Y-120988265D01*
X167669978Y-121024830D01*
X167570110Y-121077040D01*
X167415975Y-121200968D01*
X167288846Y-121352474D01*
X167285879Y-121357872D01*
X167285875Y-121357877D01*
X167218375Y-121480661D01*
X167193567Y-121525787D01*
X167191706Y-121531654D01*
X167191705Y-121531656D01*
X167156999Y-121641062D01*
X167133765Y-121714306D01*
X167111719Y-121910851D01*
X112182183Y-121910851D01*
X112183931Y-121908355D01*
X112189414Y-121898860D01*
X112281490Y-121701402D01*
X112285236Y-121691110D01*
X112341625Y-121480661D01*
X112343528Y-121469868D01*
X112362517Y-121252824D01*
X112362517Y-121241874D01*
X112343528Y-121024830D01*
X112341625Y-121014037D01*
X112285236Y-120803588D01*
X112281490Y-120793296D01*
X112189414Y-120595838D01*
X112183931Y-120586343D01*
X112147491Y-120534301D01*
X112137012Y-120525925D01*
X112123566Y-120532993D01*
X111422022Y-121234537D01*
X111414408Y-121248481D01*
X110684356Y-121248481D01*
X110685592Y-121246217D01*
X110685461Y-121244384D01*
X110681210Y-121237769D01*
X109975713Y-120532272D01*
X109963938Y-120525842D01*
X109951923Y-120535138D01*
X109916069Y-120586343D01*
X109910586Y-120595838D01*
X109818510Y-120793296D01*
X109814764Y-120803588D01*
X109758375Y-121014037D01*
X109756472Y-121024830D01*
X109737483Y-121241874D01*
X109737483Y-121252824D01*
X102153614Y-121252824D01*
X101552812Y-120652022D01*
X101538868Y-120644408D01*
X101537035Y-120644539D01*
X101530420Y-120648790D01*
X100786737Y-121392473D01*
X100779977Y-121404853D01*
X99756211Y-121404853D01*
X99757648Y-121403023D01*
X99750660Y-121389870D01*
X99012812Y-120652022D01*
X98998868Y-120644408D01*
X98997035Y-120644539D01*
X98990420Y-120648790D01*
X98246737Y-121392473D01*
X98239977Y-121404853D01*
X95508500Y-121404853D01*
X95508500Y-120251863D01*
X97638050Y-120251863D01*
X97650309Y-120464477D01*
X97651745Y-120474697D01*
X97698565Y-120682446D01*
X97701645Y-120692275D01*
X97781770Y-120889603D01*
X97786413Y-120898794D01*
X97866460Y-121029420D01*
X97876916Y-121038880D01*
X97885694Y-121035096D01*
X98627978Y-120292812D01*
X98634356Y-120281132D01*
X99364408Y-120281132D01*
X99364539Y-120282965D01*
X99368790Y-120289580D01*
X100110474Y-121031264D01*
X100122484Y-121037823D01*
X100134223Y-121028855D01*
X100168022Y-120981819D01*
X100169149Y-120982629D01*
X100216659Y-120938881D01*
X100286596Y-120926661D01*
X100352038Y-120954191D01*
X100379870Y-120986029D01*
X100406459Y-121029419D01*
X100416916Y-121038880D01*
X100425694Y-121035096D01*
X101167978Y-120292812D01*
X101174356Y-120281132D01*
X101904408Y-120281132D01*
X101904539Y-120282965D01*
X101908790Y-120289580D01*
X102650474Y-121031264D01*
X102662484Y-121037823D01*
X102674223Y-121028855D01*
X102705004Y-120986019D01*
X102710315Y-120977180D01*
X102804670Y-120786267D01*
X102808469Y-120776672D01*
X102870376Y-120572915D01*
X102872555Y-120562834D01*
X102900590Y-120349887D01*
X102901109Y-120343212D01*
X102902572Y-120283364D01*
X102902378Y-120276646D01*
X102892816Y-120160337D01*
X110328576Y-120160337D01*
X110335644Y-120173783D01*
X111037188Y-120875327D01*
X111051132Y-120882941D01*
X111052965Y-120882810D01*
X111059580Y-120878559D01*
X111765077Y-120173062D01*
X111771507Y-120161287D01*
X111762211Y-120149272D01*
X111711006Y-120113418D01*
X111701511Y-120107935D01*
X111504053Y-120015859D01*
X111493761Y-120012113D01*
X111283312Y-119955724D01*
X111272519Y-119953821D01*
X111055475Y-119934832D01*
X111044525Y-119934832D01*
X110827481Y-119953821D01*
X110816688Y-119955724D01*
X110606239Y-120012113D01*
X110595947Y-120015859D01*
X110398489Y-120107935D01*
X110388994Y-120113418D01*
X110336952Y-120149858D01*
X110328576Y-120160337D01*
X102892816Y-120160337D01*
X102884781Y-120062604D01*
X102883096Y-120052424D01*
X102831214Y-119845875D01*
X102827894Y-119836124D01*
X102742972Y-119640814D01*
X102738105Y-119631739D01*
X102673063Y-119531197D01*
X102662377Y-119521995D01*
X102652812Y-119526398D01*
X101912022Y-120267188D01*
X101904408Y-120281132D01*
X101174356Y-120281132D01*
X101175592Y-120278868D01*
X101175461Y-120277035D01*
X101171210Y-120270420D01*
X100429849Y-119529059D01*
X100418313Y-119522759D01*
X100406028Y-119532384D01*
X100373192Y-119580520D01*
X100318281Y-119625523D01*
X100247756Y-119633694D01*
X100184009Y-119602440D01*
X100163311Y-119577955D01*
X100133062Y-119531197D01*
X100122377Y-119521995D01*
X100112812Y-119526398D01*
X99372022Y-120267188D01*
X99364408Y-120281132D01*
X98634356Y-120281132D01*
X98635592Y-120278868D01*
X98635461Y-120277035D01*
X98631210Y-120270420D01*
X97889849Y-119529059D01*
X97878313Y-119522759D01*
X97866031Y-119532382D01*
X97818089Y-119602662D01*
X97813004Y-119611613D01*
X97723338Y-119804783D01*
X97719775Y-119814470D01*
X97662864Y-120019681D01*
X97660933Y-120029800D01*
X97638302Y-120241574D01*
X97638050Y-120251863D01*
X95508500Y-120251863D01*
X95508500Y-117706695D01*
X97637251Y-117706695D01*
X97637548Y-117711848D01*
X97637548Y-117711851D01*
X97643011Y-117806590D01*
X97650110Y-117929715D01*
X97651247Y-117934761D01*
X97651248Y-117934767D01*
X97671119Y-118022939D01*
X97699222Y-118147639D01*
X97783266Y-118354616D01*
X97834019Y-118437438D01*
X97897291Y-118540688D01*
X97899987Y-118545088D01*
X98046250Y-118713938D01*
X98218126Y-118856632D01*
X98291955Y-118899774D01*
X98340679Y-118951412D01*
X98353750Y-119021195D01*
X98327019Y-119086967D01*
X98286562Y-119120327D01*
X98278460Y-119124544D01*
X98269734Y-119130039D01*
X98249677Y-119145099D01*
X98241223Y-119156427D01*
X98247968Y-119168758D01*
X98987188Y-119907978D01*
X99001132Y-119915592D01*
X99002965Y-119915461D01*
X99009580Y-119911210D01*
X99753389Y-119167401D01*
X99760410Y-119154544D01*
X99753611Y-119145213D01*
X99749559Y-119142521D01*
X99712602Y-119122120D01*
X99662631Y-119071687D01*
X99647859Y-119002245D01*
X99672975Y-118935839D01*
X99700327Y-118909232D01*
X99723797Y-118892491D01*
X99879860Y-118781173D01*
X100038096Y-118623489D01*
X100097594Y-118540689D01*
X100168453Y-118442077D01*
X100169776Y-118443028D01*
X100216645Y-118399857D01*
X100286580Y-118387625D01*
X100352026Y-118415144D01*
X100379875Y-118446994D01*
X100439987Y-118545088D01*
X100586250Y-118713938D01*
X100758126Y-118856632D01*
X100831955Y-118899774D01*
X100880679Y-118951412D01*
X100893750Y-119021195D01*
X100867019Y-119086967D01*
X100826562Y-119120327D01*
X100818460Y-119124544D01*
X100809734Y-119130039D01*
X100789677Y-119145099D01*
X100781223Y-119156427D01*
X100787968Y-119168758D01*
X101527188Y-119907978D01*
X101541132Y-119915592D01*
X101542965Y-119915461D01*
X101549580Y-119911210D01*
X102293389Y-119167401D01*
X102300410Y-119154544D01*
X102293611Y-119145213D01*
X102289559Y-119142521D01*
X102252602Y-119122120D01*
X102202631Y-119071687D01*
X102187859Y-119002245D01*
X102212975Y-118935839D01*
X102240327Y-118909232D01*
X102263797Y-118892491D01*
X102419860Y-118781173D01*
X102578096Y-118623489D01*
X102598220Y-118595483D01*
X109741500Y-118595483D01*
X109748255Y-118657665D01*
X109799385Y-118794054D01*
X109886739Y-118910610D01*
X110003295Y-118997964D01*
X110139684Y-119049094D01*
X110201866Y-119055849D01*
X111898134Y-119055849D01*
X111960316Y-119049094D01*
X112096705Y-118997964D01*
X112213261Y-118910610D01*
X112300615Y-118794054D01*
X112351745Y-118657665D01*
X112358500Y-118595483D01*
X112358500Y-116899215D01*
X112351745Y-116837033D01*
X112300615Y-116700644D01*
X112213261Y-116584088D01*
X112096705Y-116496734D01*
X111960316Y-116445604D01*
X111898134Y-116438849D01*
X110201866Y-116438849D01*
X110139684Y-116445604D01*
X110003295Y-116496734D01*
X109886739Y-116584088D01*
X109799385Y-116700644D01*
X109748255Y-116837033D01*
X109741500Y-116899215D01*
X109741500Y-118595483D01*
X102598220Y-118595483D01*
X102637594Y-118540689D01*
X102705435Y-118446277D01*
X102708453Y-118442077D01*
X102729320Y-118399857D01*
X102805136Y-118246453D01*
X102805137Y-118246451D01*
X102807430Y-118241811D01*
X102872370Y-118028069D01*
X102901529Y-117806590D01*
X102903156Y-117740000D01*
X102884852Y-117517361D01*
X102830431Y-117300702D01*
X102741354Y-117095840D01*
X102678091Y-116998050D01*
X102622822Y-116912617D01*
X102622820Y-116912614D01*
X102620014Y-116908277D01*
X102469670Y-116743051D01*
X102465619Y-116739852D01*
X102465615Y-116739848D01*
X102298414Y-116607800D01*
X102298410Y-116607798D01*
X102294359Y-116604598D01*
X102252569Y-116581529D01*
X102202598Y-116531097D01*
X102187826Y-116461654D01*
X102212942Y-116395248D01*
X102240293Y-116368642D01*
X102289247Y-116333723D01*
X102297648Y-116323023D01*
X102290660Y-116309870D01*
X101552812Y-115572022D01*
X101538868Y-115564408D01*
X101537035Y-115564539D01*
X101530420Y-115568790D01*
X100786737Y-116312473D01*
X100779977Y-116324853D01*
X100785258Y-116331907D01*
X100831969Y-116359203D01*
X100880693Y-116410841D01*
X100893764Y-116480624D01*
X100867033Y-116546396D01*
X100826584Y-116579752D01*
X100813607Y-116586507D01*
X100809474Y-116589610D01*
X100809471Y-116589612D01*
X100650392Y-116709052D01*
X100634965Y-116720635D01*
X100480629Y-116882138D01*
X100373201Y-117039621D01*
X100318293Y-117084621D01*
X100247768Y-117092792D01*
X100184021Y-117061538D01*
X100163324Y-117037054D01*
X100082822Y-116912617D01*
X100082820Y-116912614D01*
X100080014Y-116908277D01*
X99929670Y-116743051D01*
X99925619Y-116739852D01*
X99925615Y-116739848D01*
X99758414Y-116607800D01*
X99758410Y-116607798D01*
X99754359Y-116604598D01*
X99712569Y-116581529D01*
X99662598Y-116531097D01*
X99647826Y-116461654D01*
X99672942Y-116395248D01*
X99700293Y-116368642D01*
X99749247Y-116333723D01*
X99757648Y-116323023D01*
X99750660Y-116309870D01*
X99012812Y-115572022D01*
X98998868Y-115564408D01*
X98997035Y-115564539D01*
X98990420Y-115568790D01*
X98246737Y-116312473D01*
X98239977Y-116324853D01*
X98245258Y-116331907D01*
X98291969Y-116359203D01*
X98340693Y-116410841D01*
X98353764Y-116480624D01*
X98327033Y-116546396D01*
X98286584Y-116579752D01*
X98273607Y-116586507D01*
X98269474Y-116589610D01*
X98269471Y-116589612D01*
X98110392Y-116709052D01*
X98094965Y-116720635D01*
X97940629Y-116882138D01*
X97814743Y-117066680D01*
X97720688Y-117269305D01*
X97660989Y-117484570D01*
X97637251Y-117706695D01*
X95508500Y-117706695D01*
X95508500Y-115171863D01*
X97638050Y-115171863D01*
X97650309Y-115384477D01*
X97651745Y-115394697D01*
X97698565Y-115602446D01*
X97701645Y-115612275D01*
X97781770Y-115809603D01*
X97786413Y-115818794D01*
X97866460Y-115949420D01*
X97876916Y-115958880D01*
X97885694Y-115955096D01*
X98627978Y-115212812D01*
X98634356Y-115201132D01*
X99364408Y-115201132D01*
X99364539Y-115202965D01*
X99368790Y-115209580D01*
X100110474Y-115951264D01*
X100122484Y-115957823D01*
X100134223Y-115948855D01*
X100168022Y-115901819D01*
X100169149Y-115902629D01*
X100216659Y-115858881D01*
X100286596Y-115846661D01*
X100352038Y-115874191D01*
X100379870Y-115906029D01*
X100406459Y-115949419D01*
X100416916Y-115958880D01*
X100425694Y-115955096D01*
X101167978Y-115212812D01*
X101174356Y-115201132D01*
X101904408Y-115201132D01*
X101904539Y-115202965D01*
X101908790Y-115209580D01*
X102650474Y-115951264D01*
X102662484Y-115957823D01*
X102674223Y-115948855D01*
X102705004Y-115906019D01*
X102710315Y-115897180D01*
X102804670Y-115706267D01*
X102808469Y-115696672D01*
X102870376Y-115492915D01*
X102872555Y-115482834D01*
X102900590Y-115269887D01*
X102901109Y-115263212D01*
X102902572Y-115203364D01*
X102902378Y-115196646D01*
X102884781Y-114982604D01*
X102883096Y-114972424D01*
X102858156Y-114873134D01*
X155386388Y-114873134D01*
X155393143Y-114935316D01*
X155444273Y-115071705D01*
X155531627Y-115188261D01*
X155648183Y-115275615D01*
X155784572Y-115326745D01*
X155846754Y-115333500D01*
X157543022Y-115333500D01*
X157605204Y-115326745D01*
X157741593Y-115275615D01*
X157825391Y-115212812D01*
X157850966Y-115193645D01*
X157850969Y-115193642D01*
X157858149Y-115188261D01*
X157863530Y-115181081D01*
X157869881Y-115174730D01*
X157872023Y-115176872D01*
X157916734Y-115143436D01*
X157987552Y-115138406D01*
X158028923Y-115156523D01*
X158029120Y-115156182D01*
X158032186Y-115157952D01*
X158032978Y-115158299D01*
X158033877Y-115158929D01*
X158043377Y-115164414D01*
X158240835Y-115256490D01*
X158251127Y-115260236D01*
X158461576Y-115316625D01*
X158472369Y-115318528D01*
X158689413Y-115337517D01*
X158700363Y-115337517D01*
X158917407Y-115318528D01*
X158928200Y-115316625D01*
X159138649Y-115260236D01*
X159148941Y-115256490D01*
X159346399Y-115164414D01*
X159355894Y-115158931D01*
X159407936Y-115122491D01*
X159416312Y-115112012D01*
X159409244Y-115098566D01*
X158424773Y-114114095D01*
X158390747Y-114051783D01*
X158392582Y-114026132D01*
X159059296Y-114026132D01*
X159059427Y-114027965D01*
X159063678Y-114034580D01*
X159769175Y-114740077D01*
X159780950Y-114746507D01*
X159792965Y-114737211D01*
X159828819Y-114686006D01*
X159834302Y-114676511D01*
X159926378Y-114479053D01*
X159930124Y-114468761D01*
X159986513Y-114258312D01*
X159988416Y-114247519D01*
X160007405Y-114030475D01*
X160007405Y-114019525D01*
X159988416Y-113802481D01*
X159986513Y-113791688D01*
X159930124Y-113581239D01*
X159926378Y-113570947D01*
X159834302Y-113373489D01*
X159828819Y-113363994D01*
X159792379Y-113311952D01*
X159781900Y-113303576D01*
X159768454Y-113310644D01*
X159066910Y-114012188D01*
X159059296Y-114026132D01*
X158392582Y-114026132D01*
X158395812Y-113980968D01*
X158424773Y-113935905D01*
X159409965Y-112950713D01*
X159416395Y-112938938D01*
X159407099Y-112926923D01*
X159355894Y-112891069D01*
X159346399Y-112885586D01*
X159148941Y-112793510D01*
X159138649Y-112789764D01*
X158928200Y-112733375D01*
X158917407Y-112731472D01*
X158700363Y-112712483D01*
X158689413Y-112712483D01*
X158472369Y-112731472D01*
X158461576Y-112733375D01*
X158251127Y-112789764D01*
X158240835Y-112793510D01*
X158043377Y-112885586D01*
X158033877Y-112891071D01*
X158032978Y-112891701D01*
X158032518Y-112891856D01*
X158029120Y-112893818D01*
X158028726Y-112893135D01*
X157965704Y-112914388D01*
X157896844Y-112897102D01*
X157871085Y-112874066D01*
X157869881Y-112875270D01*
X157863530Y-112868919D01*
X157858149Y-112861739D01*
X157850969Y-112856358D01*
X157850966Y-112856355D01*
X157762113Y-112789764D01*
X157741593Y-112774385D01*
X157605204Y-112723255D01*
X157543022Y-112716500D01*
X155846754Y-112716500D01*
X155784572Y-112723255D01*
X155648183Y-112774385D01*
X155531627Y-112861739D01*
X155444273Y-112978295D01*
X155393143Y-113114684D01*
X155386388Y-113176866D01*
X155386388Y-114873134D01*
X102858156Y-114873134D01*
X102831214Y-114765875D01*
X102827894Y-114756124D01*
X102742972Y-114560814D01*
X102738105Y-114551739D01*
X102673063Y-114451197D01*
X102662377Y-114441995D01*
X102652812Y-114446398D01*
X101912022Y-115187188D01*
X101904408Y-115201132D01*
X101174356Y-115201132D01*
X101175592Y-115198868D01*
X101175461Y-115197035D01*
X101171210Y-115190420D01*
X100429849Y-114449059D01*
X100418313Y-114442759D01*
X100406028Y-114452384D01*
X100373192Y-114500520D01*
X100318281Y-114545523D01*
X100247756Y-114553694D01*
X100184009Y-114522440D01*
X100163311Y-114497955D01*
X100133062Y-114451197D01*
X100122377Y-114441995D01*
X100112812Y-114446398D01*
X99372022Y-115187188D01*
X99364408Y-115201132D01*
X98634356Y-115201132D01*
X98635592Y-115198868D01*
X98635461Y-115197035D01*
X98631210Y-115190420D01*
X97889849Y-114449059D01*
X97878313Y-114442759D01*
X97866031Y-114452382D01*
X97818089Y-114522662D01*
X97813004Y-114531613D01*
X97723338Y-114724783D01*
X97719775Y-114734470D01*
X97662864Y-114939681D01*
X97660933Y-114949800D01*
X97638302Y-115161574D01*
X97638050Y-115171863D01*
X95508500Y-115171863D01*
X95508500Y-112626695D01*
X97637251Y-112626695D01*
X97637548Y-112631848D01*
X97637548Y-112631851D01*
X97646077Y-112779771D01*
X97650110Y-112849715D01*
X97651247Y-112854761D01*
X97651248Y-112854767D01*
X97671119Y-112942939D01*
X97699222Y-113067639D01*
X97783266Y-113274616D01*
X97834019Y-113357438D01*
X97897291Y-113460688D01*
X97899987Y-113465088D01*
X98046250Y-113633938D01*
X98218126Y-113776632D01*
X98291955Y-113819774D01*
X98340679Y-113871412D01*
X98353750Y-113941195D01*
X98327019Y-114006967D01*
X98286562Y-114040327D01*
X98278460Y-114044544D01*
X98269734Y-114050039D01*
X98249677Y-114065099D01*
X98241223Y-114076427D01*
X98247968Y-114088758D01*
X98987188Y-114827978D01*
X99001132Y-114835592D01*
X99002965Y-114835461D01*
X99009580Y-114831210D01*
X99753389Y-114087401D01*
X99760410Y-114074544D01*
X99753611Y-114065213D01*
X99749559Y-114062521D01*
X99712602Y-114042120D01*
X99662631Y-113991687D01*
X99647859Y-113922245D01*
X99672975Y-113855839D01*
X99700327Y-113829232D01*
X99752962Y-113791688D01*
X99879860Y-113701173D01*
X100038096Y-113543489D01*
X100097594Y-113460689D01*
X100168453Y-113362077D01*
X100169776Y-113363028D01*
X100216645Y-113319857D01*
X100286580Y-113307625D01*
X100352026Y-113335144D01*
X100379875Y-113366994D01*
X100439987Y-113465088D01*
X100586250Y-113633938D01*
X100758126Y-113776632D01*
X100831955Y-113819774D01*
X100880679Y-113871412D01*
X100893750Y-113941195D01*
X100867019Y-114006967D01*
X100826562Y-114040327D01*
X100818460Y-114044544D01*
X100809734Y-114050039D01*
X100789677Y-114065099D01*
X100781223Y-114076427D01*
X100787968Y-114088758D01*
X101527188Y-114827978D01*
X101541132Y-114835592D01*
X101542965Y-114835461D01*
X101549580Y-114831210D01*
X102293389Y-114087401D01*
X102300410Y-114074544D01*
X102293611Y-114065213D01*
X102289559Y-114062521D01*
X102252602Y-114042120D01*
X102202631Y-113991687D01*
X102187859Y-113922245D01*
X102212975Y-113855839D01*
X102240327Y-113829232D01*
X102292962Y-113791688D01*
X102419860Y-113701173D01*
X102578096Y-113543489D01*
X102637594Y-113460689D01*
X102705435Y-113366277D01*
X102708453Y-113362077D01*
X102729320Y-113319857D01*
X102805136Y-113166453D01*
X102805137Y-113166451D01*
X102807430Y-113161811D01*
X102872370Y-112948069D01*
X102901529Y-112726590D01*
X102903156Y-112660000D01*
X102884852Y-112437361D01*
X102830431Y-112220702D01*
X102781605Y-112108411D01*
X110128493Y-112108411D01*
X110137789Y-112120426D01*
X110188994Y-112156280D01*
X110198489Y-112161763D01*
X110395947Y-112253839D01*
X110406239Y-112257585D01*
X110616688Y-112313974D01*
X110627481Y-112315877D01*
X110844525Y-112334866D01*
X110855475Y-112334866D01*
X111072519Y-112315877D01*
X111083312Y-112313974D01*
X111293761Y-112257585D01*
X111304053Y-112253839D01*
X111501511Y-112161763D01*
X111511006Y-112156280D01*
X111563048Y-112119840D01*
X111571424Y-112109361D01*
X111564356Y-112095915D01*
X110862812Y-111394371D01*
X110848868Y-111386757D01*
X110847035Y-111386888D01*
X110840420Y-111391139D01*
X110134923Y-112096636D01*
X110128493Y-112108411D01*
X102781605Y-112108411D01*
X102741354Y-112015840D01*
X102653711Y-111880365D01*
X102622822Y-111832617D01*
X102622820Y-111832614D01*
X102620014Y-111828277D01*
X102469670Y-111663051D01*
X102465619Y-111659852D01*
X102465615Y-111659848D01*
X102298414Y-111527800D01*
X102298410Y-111527798D01*
X102294359Y-111524598D01*
X102252569Y-111501529D01*
X102202598Y-111451097D01*
X102187826Y-111381654D01*
X102212942Y-111315248D01*
X102240293Y-111288642D01*
X102289247Y-111253723D01*
X102297648Y-111243023D01*
X102290660Y-111229870D01*
X102088614Y-111027824D01*
X109537483Y-111027824D01*
X109556472Y-111244868D01*
X109558375Y-111255661D01*
X109614764Y-111466110D01*
X109618510Y-111476402D01*
X109710586Y-111673860D01*
X109716069Y-111683355D01*
X109752509Y-111735397D01*
X109762988Y-111743773D01*
X109776434Y-111736705D01*
X110477978Y-111035161D01*
X110484356Y-111023481D01*
X111214408Y-111023481D01*
X111214539Y-111025314D01*
X111218790Y-111031929D01*
X111924287Y-111737426D01*
X111936062Y-111743856D01*
X111948077Y-111734560D01*
X111983931Y-111683355D01*
X111989414Y-111673860D01*
X112081490Y-111476402D01*
X112085236Y-111466110D01*
X112141625Y-111255661D01*
X112143528Y-111244868D01*
X112162517Y-111027824D01*
X112162517Y-111016874D01*
X112143528Y-110799830D01*
X112141625Y-110789037D01*
X112085236Y-110578588D01*
X112081490Y-110568296D01*
X111989414Y-110370838D01*
X111983931Y-110361343D01*
X111947491Y-110309301D01*
X111937012Y-110300925D01*
X111923566Y-110307993D01*
X111222022Y-111009537D01*
X111214408Y-111023481D01*
X110484356Y-111023481D01*
X110485592Y-111021217D01*
X110485461Y-111019384D01*
X110481210Y-111012769D01*
X109775713Y-110307272D01*
X109763938Y-110300842D01*
X109751923Y-110310138D01*
X109716069Y-110361343D01*
X109710586Y-110370838D01*
X109618510Y-110568296D01*
X109614764Y-110578588D01*
X109558375Y-110789037D01*
X109556472Y-110799830D01*
X109537483Y-111016874D01*
X109537483Y-111027824D01*
X102088614Y-111027824D01*
X101552812Y-110492022D01*
X101538868Y-110484408D01*
X101537035Y-110484539D01*
X101530420Y-110488790D01*
X100786737Y-111232473D01*
X100779977Y-111244853D01*
X100785258Y-111251907D01*
X100831969Y-111279203D01*
X100880693Y-111330841D01*
X100893764Y-111400624D01*
X100867033Y-111466396D01*
X100826584Y-111499752D01*
X100813607Y-111506507D01*
X100809474Y-111509610D01*
X100809471Y-111509612D01*
X100767830Y-111540877D01*
X100634965Y-111640635D01*
X100480629Y-111802138D01*
X100373201Y-111959621D01*
X100318293Y-112004621D01*
X100247768Y-112012792D01*
X100184021Y-111981538D01*
X100163324Y-111957054D01*
X100082822Y-111832617D01*
X100082820Y-111832614D01*
X100080014Y-111828277D01*
X99929670Y-111663051D01*
X99925619Y-111659852D01*
X99925615Y-111659848D01*
X99758414Y-111527800D01*
X99758410Y-111527798D01*
X99754359Y-111524598D01*
X99712569Y-111501529D01*
X99662598Y-111451097D01*
X99647826Y-111381654D01*
X99672942Y-111315248D01*
X99700293Y-111288642D01*
X99749247Y-111253723D01*
X99757648Y-111243023D01*
X99750660Y-111229870D01*
X99012812Y-110492022D01*
X98998868Y-110484408D01*
X98997035Y-110484539D01*
X98990420Y-110488790D01*
X98246737Y-111232473D01*
X98239977Y-111244853D01*
X98245258Y-111251907D01*
X98291969Y-111279203D01*
X98340693Y-111330841D01*
X98353764Y-111400624D01*
X98327033Y-111466396D01*
X98286584Y-111499752D01*
X98273607Y-111506507D01*
X98269474Y-111509610D01*
X98269471Y-111509612D01*
X98227830Y-111540877D01*
X98094965Y-111640635D01*
X97940629Y-111802138D01*
X97937720Y-111806403D01*
X97937714Y-111806411D01*
X97922798Y-111828277D01*
X97814743Y-111986680D01*
X97800612Y-112017123D01*
X97733473Y-112161763D01*
X97720688Y-112189305D01*
X97660989Y-112404570D01*
X97637251Y-112626695D01*
X95508500Y-112626695D01*
X95508500Y-110091863D01*
X97638050Y-110091863D01*
X97650309Y-110304477D01*
X97651745Y-110314697D01*
X97698565Y-110522446D01*
X97701645Y-110532275D01*
X97781770Y-110729603D01*
X97786413Y-110738794D01*
X97866460Y-110869420D01*
X97876916Y-110878880D01*
X97885694Y-110875096D01*
X98627978Y-110132812D01*
X98634356Y-110121132D01*
X99364408Y-110121132D01*
X99364539Y-110122965D01*
X99368790Y-110129580D01*
X100110474Y-110871264D01*
X100122484Y-110877823D01*
X100134223Y-110868855D01*
X100168022Y-110821819D01*
X100169149Y-110822629D01*
X100216659Y-110778881D01*
X100286596Y-110766661D01*
X100352038Y-110794191D01*
X100379870Y-110826029D01*
X100406459Y-110869419D01*
X100416916Y-110878880D01*
X100425694Y-110875096D01*
X101167978Y-110132812D01*
X101174356Y-110121132D01*
X101904408Y-110121132D01*
X101904539Y-110122965D01*
X101908790Y-110129580D01*
X102650474Y-110871264D01*
X102662484Y-110877823D01*
X102674223Y-110868855D01*
X102705004Y-110826019D01*
X102710315Y-110817180D01*
X102804670Y-110626267D01*
X102808469Y-110616672D01*
X102870376Y-110412915D01*
X102872555Y-110402834D01*
X102900590Y-110189887D01*
X102901109Y-110183212D01*
X102902572Y-110123364D01*
X102902378Y-110116646D01*
X102887472Y-109935337D01*
X110128576Y-109935337D01*
X110135644Y-109948783D01*
X110837188Y-110650327D01*
X110851132Y-110657941D01*
X110852965Y-110657810D01*
X110859580Y-110653559D01*
X111565077Y-109948062D01*
X111571507Y-109936287D01*
X111562211Y-109924272D01*
X111511006Y-109888418D01*
X111501511Y-109882935D01*
X111304053Y-109790859D01*
X111293761Y-109787113D01*
X111083312Y-109730724D01*
X111072519Y-109728821D01*
X110855475Y-109709832D01*
X110844525Y-109709832D01*
X110627481Y-109728821D01*
X110616688Y-109730724D01*
X110406239Y-109787113D01*
X110395947Y-109790859D01*
X110198489Y-109882935D01*
X110188994Y-109888418D01*
X110136952Y-109924858D01*
X110128576Y-109935337D01*
X102887472Y-109935337D01*
X102884781Y-109902604D01*
X102883096Y-109892424D01*
X102831214Y-109685875D01*
X102827894Y-109676124D01*
X102742972Y-109480814D01*
X102738105Y-109471739D01*
X102673063Y-109371197D01*
X102662377Y-109361995D01*
X102652812Y-109366398D01*
X101912022Y-110107188D01*
X101904408Y-110121132D01*
X101174356Y-110121132D01*
X101175592Y-110118868D01*
X101175461Y-110117035D01*
X101171210Y-110110420D01*
X100429849Y-109369059D01*
X100418313Y-109362759D01*
X100406028Y-109372384D01*
X100373192Y-109420520D01*
X100318281Y-109465523D01*
X100247756Y-109473694D01*
X100184009Y-109442440D01*
X100163311Y-109417955D01*
X100133062Y-109371197D01*
X100122377Y-109361995D01*
X100112812Y-109366398D01*
X99372022Y-110107188D01*
X99364408Y-110121132D01*
X98634356Y-110121132D01*
X98635592Y-110118868D01*
X98635461Y-110117035D01*
X98631210Y-110110420D01*
X97889849Y-109369059D01*
X97878313Y-109362759D01*
X97866031Y-109372382D01*
X97818089Y-109442662D01*
X97813004Y-109451613D01*
X97723338Y-109644783D01*
X97719775Y-109654470D01*
X97662864Y-109859681D01*
X97660933Y-109869800D01*
X97638302Y-110081574D01*
X97638050Y-110091863D01*
X95508500Y-110091863D01*
X95508500Y-107546695D01*
X97637251Y-107546695D01*
X97637548Y-107551848D01*
X97637548Y-107551851D01*
X97645856Y-107695938D01*
X97650110Y-107769715D01*
X97651247Y-107774761D01*
X97651248Y-107774767D01*
X97673392Y-107873023D01*
X97699222Y-107987639D01*
X97783266Y-108194616D01*
X97834019Y-108277438D01*
X97897291Y-108380688D01*
X97899987Y-108385088D01*
X98046250Y-108553938D01*
X98218126Y-108696632D01*
X98234103Y-108705968D01*
X98291955Y-108739774D01*
X98340679Y-108791412D01*
X98353750Y-108861195D01*
X98327019Y-108926967D01*
X98286562Y-108960327D01*
X98278460Y-108964544D01*
X98269734Y-108970039D01*
X98249677Y-108985099D01*
X98241223Y-108996427D01*
X98247968Y-109008758D01*
X98987188Y-109747978D01*
X99001132Y-109755592D01*
X99002965Y-109755461D01*
X99009580Y-109751210D01*
X99753389Y-109007401D01*
X99760410Y-108994544D01*
X99753611Y-108985213D01*
X99749559Y-108982521D01*
X99712602Y-108962120D01*
X99662631Y-108911687D01*
X99647859Y-108842245D01*
X99672975Y-108775839D01*
X99700327Y-108749232D01*
X99760981Y-108705968D01*
X99879860Y-108621173D01*
X99932162Y-108569054D01*
X100034435Y-108467137D01*
X100038096Y-108463489D01*
X100054929Y-108440064D01*
X100168453Y-108282077D01*
X100169776Y-108283028D01*
X100216645Y-108239857D01*
X100286580Y-108227625D01*
X100352026Y-108255144D01*
X100379875Y-108286994D01*
X100391668Y-108306239D01*
X100439987Y-108385088D01*
X100586250Y-108553938D01*
X100758126Y-108696632D01*
X100774103Y-108705968D01*
X100831955Y-108739774D01*
X100880679Y-108791412D01*
X100893750Y-108861195D01*
X100867019Y-108926967D01*
X100826562Y-108960327D01*
X100818460Y-108964544D01*
X100809734Y-108970039D01*
X100789677Y-108985099D01*
X100781223Y-108996427D01*
X100787968Y-109008758D01*
X101527188Y-109747978D01*
X101541132Y-109755592D01*
X101542965Y-109755461D01*
X101549580Y-109751210D01*
X102293389Y-109007401D01*
X102300410Y-108994544D01*
X102293611Y-108985213D01*
X102289559Y-108982521D01*
X102252602Y-108962120D01*
X102202631Y-108911687D01*
X102187859Y-108842245D01*
X102212975Y-108775839D01*
X102240327Y-108749232D01*
X102300981Y-108705968D01*
X102419860Y-108621173D01*
X102472162Y-108569054D01*
X102574435Y-108467137D01*
X102578096Y-108463489D01*
X102594929Y-108440064D01*
X102644927Y-108370483D01*
X109541500Y-108370483D01*
X109548255Y-108432665D01*
X109599385Y-108569054D01*
X109686739Y-108685610D01*
X109803295Y-108772964D01*
X109939684Y-108824094D01*
X110001866Y-108830849D01*
X111698134Y-108830849D01*
X111760316Y-108824094D01*
X111896705Y-108772964D01*
X112013261Y-108685610D01*
X112100615Y-108569054D01*
X112151745Y-108432665D01*
X112158500Y-108370483D01*
X112158500Y-106674215D01*
X112151745Y-106612033D01*
X112100615Y-106475644D01*
X112013261Y-106359088D01*
X111896705Y-106271734D01*
X111760316Y-106220604D01*
X111698134Y-106213849D01*
X110001866Y-106213849D01*
X109939684Y-106220604D01*
X109803295Y-106271734D01*
X109686739Y-106359088D01*
X109599385Y-106475644D01*
X109548255Y-106612033D01*
X109541500Y-106674215D01*
X109541500Y-108370483D01*
X102644927Y-108370483D01*
X102705435Y-108286277D01*
X102708453Y-108282077D01*
X102729320Y-108239857D01*
X102805136Y-108086453D01*
X102805137Y-108086451D01*
X102807430Y-108081811D01*
X102859445Y-107910610D01*
X102870865Y-107873023D01*
X102870865Y-107873021D01*
X102872370Y-107868069D01*
X102901529Y-107646590D01*
X102902224Y-107618135D01*
X102903074Y-107583365D01*
X102903074Y-107583361D01*
X102903156Y-107580000D01*
X102884852Y-107357361D01*
X102830431Y-107140702D01*
X102741354Y-106935840D01*
X102642679Y-106783312D01*
X102622822Y-106752617D01*
X102622820Y-106752614D01*
X102620014Y-106748277D01*
X102469670Y-106583051D01*
X102465619Y-106579852D01*
X102465615Y-106579848D01*
X102298414Y-106447800D01*
X102298410Y-106447798D01*
X102294359Y-106444598D01*
X102253053Y-106421796D01*
X102203084Y-106371364D01*
X102188312Y-106301921D01*
X102213428Y-106235516D01*
X102240780Y-106208909D01*
X102284603Y-106177650D01*
X102419860Y-106081173D01*
X102578096Y-105923489D01*
X102637594Y-105840689D01*
X102705435Y-105746277D01*
X102708453Y-105742077D01*
X102728327Y-105701866D01*
X102805136Y-105546453D01*
X102805137Y-105546451D01*
X102807430Y-105541811D01*
X102857010Y-105378624D01*
X102870865Y-105333023D01*
X102870865Y-105333021D01*
X102872370Y-105328069D01*
X102901529Y-105106590D01*
X102903156Y-105040000D01*
X102884852Y-104817361D01*
X102830431Y-104600702D01*
X102741354Y-104395840D01*
X102649055Y-104253167D01*
X102622822Y-104212617D01*
X102622820Y-104212614D01*
X102620014Y-104208277D01*
X102469670Y-104043051D01*
X102465616Y-104039849D01*
X102465615Y-104039848D01*
X102298414Y-103907800D01*
X102298410Y-103907798D01*
X102294359Y-103904598D01*
X102253053Y-103881796D01*
X102203084Y-103831364D01*
X102188312Y-103761921D01*
X102213428Y-103695516D01*
X102240780Y-103668909D01*
X102284603Y-103637650D01*
X102419860Y-103541173D01*
X102470742Y-103490469D01*
X102530892Y-103430528D01*
X102578096Y-103383489D01*
X102708453Y-103202077D01*
X102735608Y-103147134D01*
X102805136Y-103006453D01*
X102805137Y-103006451D01*
X102807430Y-103001811D01*
X102846551Y-102873050D01*
X102870865Y-102793023D01*
X102870865Y-102793021D01*
X102872370Y-102788069D01*
X102901529Y-102566590D01*
X102903156Y-102500000D01*
X102901993Y-102485851D01*
X106524219Y-102485851D01*
X106540768Y-102682934D01*
X106542467Y-102688858D01*
X106572336Y-102793023D01*
X106595283Y-102873050D01*
X106598102Y-102878535D01*
X106658912Y-102996857D01*
X106685687Y-103048956D01*
X106808535Y-103203953D01*
X106813228Y-103207947D01*
X106813229Y-103207948D01*
X106927369Y-103305088D01*
X106959150Y-103332136D01*
X107131794Y-103428624D01*
X107319892Y-103489740D01*
X107516277Y-103513158D01*
X107522412Y-103512686D01*
X107522414Y-103512686D01*
X107707330Y-103498457D01*
X107707334Y-103498456D01*
X107713472Y-103497984D01*
X107903963Y-103444798D01*
X107909467Y-103442018D01*
X107909469Y-103442017D01*
X108074995Y-103358404D01*
X108074997Y-103358403D01*
X108080496Y-103355625D01*
X108170621Y-103285211D01*
X108236616Y-103259033D01*
X108248195Y-103258500D01*
X111333629Y-103258500D01*
X111401750Y-103278502D01*
X111422724Y-103295405D01*
X119810856Y-111683537D01*
X119844882Y-111745849D01*
X119847319Y-111762089D01*
X119853268Y-111832934D01*
X119854967Y-111838858D01*
X119905716Y-112015840D01*
X119907783Y-112023050D01*
X119998187Y-112198956D01*
X120121035Y-112353953D01*
X120125728Y-112357947D01*
X120125729Y-112357948D01*
X120225104Y-112442522D01*
X120271650Y-112482136D01*
X120444294Y-112578624D01*
X120632392Y-112639740D01*
X120828777Y-112663158D01*
X120834912Y-112662686D01*
X120834914Y-112662686D01*
X121019830Y-112648457D01*
X121019834Y-112648456D01*
X121025972Y-112647984D01*
X121216463Y-112594798D01*
X121221967Y-112592018D01*
X121221969Y-112592017D01*
X121387495Y-112508404D01*
X121387497Y-112508403D01*
X121392996Y-112505625D01*
X121548847Y-112383861D01*
X121678078Y-112234145D01*
X121775769Y-112062179D01*
X121838197Y-111874513D01*
X121862985Y-111678295D01*
X121863380Y-111650000D01*
X121844080Y-111453167D01*
X121829042Y-111403357D01*
X121807923Y-111333411D01*
X125978493Y-111333411D01*
X125987789Y-111345426D01*
X126038994Y-111381280D01*
X126048489Y-111386763D01*
X126245947Y-111478839D01*
X126256239Y-111482585D01*
X126466688Y-111538974D01*
X126477481Y-111540877D01*
X126694525Y-111559866D01*
X126705475Y-111559866D01*
X126922519Y-111540877D01*
X126933312Y-111538974D01*
X127143761Y-111482585D01*
X127154053Y-111478839D01*
X127351511Y-111386763D01*
X127361006Y-111381280D01*
X127413048Y-111344840D01*
X127421424Y-111334361D01*
X127414356Y-111320915D01*
X126712812Y-110619371D01*
X126698868Y-110611757D01*
X126697035Y-110611888D01*
X126690420Y-110616139D01*
X125984923Y-111321636D01*
X125978493Y-111333411D01*
X121807923Y-111333411D01*
X121786916Y-111263831D01*
X121694066Y-111089204D01*
X121623709Y-111002938D01*
X121572960Y-110940713D01*
X121572957Y-110940710D01*
X121569065Y-110935938D01*
X121535723Y-110908355D01*
X121421425Y-110813799D01*
X121421421Y-110813797D01*
X121416675Y-110809870D01*
X121242701Y-110715802D01*
X121053768Y-110657318D01*
X121047646Y-110656675D01*
X121047643Y-110656674D01*
X121002878Y-110651969D01*
X120959836Y-110647446D01*
X120894180Y-110620433D01*
X120883912Y-110611231D01*
X120525505Y-110252824D01*
X125387483Y-110252824D01*
X125406472Y-110469868D01*
X125408375Y-110480661D01*
X125464764Y-110691110D01*
X125468510Y-110701402D01*
X125560586Y-110898860D01*
X125566069Y-110908355D01*
X125602509Y-110960397D01*
X125612988Y-110968773D01*
X125626434Y-110961705D01*
X126327978Y-110260161D01*
X126334356Y-110248481D01*
X127064408Y-110248481D01*
X127064539Y-110250314D01*
X127068790Y-110256929D01*
X127774287Y-110962426D01*
X127786062Y-110968856D01*
X127798077Y-110959560D01*
X127833931Y-110908355D01*
X127839414Y-110898860D01*
X127931490Y-110701402D01*
X127935236Y-110691110D01*
X127991625Y-110480661D01*
X127993528Y-110469868D01*
X128012517Y-110252824D01*
X128012517Y-110241874D01*
X127993528Y-110024830D01*
X127991625Y-110014037D01*
X127935236Y-109803588D01*
X127931490Y-109793296D01*
X127839414Y-109595838D01*
X127833931Y-109586343D01*
X127797491Y-109534301D01*
X127787012Y-109525925D01*
X127773566Y-109532993D01*
X127072022Y-110234537D01*
X127064408Y-110248481D01*
X126334356Y-110248481D01*
X126335592Y-110246217D01*
X126335461Y-110244384D01*
X126331210Y-110237769D01*
X125625713Y-109532272D01*
X125613938Y-109525842D01*
X125601923Y-109535138D01*
X125566069Y-109586343D01*
X125560586Y-109595838D01*
X125468510Y-109793296D01*
X125464764Y-109803588D01*
X125408375Y-110014037D01*
X125406472Y-110024830D01*
X125387483Y-110241874D01*
X125387483Y-110252824D01*
X120525505Y-110252824D01*
X119433018Y-109160337D01*
X125978576Y-109160337D01*
X125985644Y-109173783D01*
X126687188Y-109875327D01*
X126701132Y-109882941D01*
X126702965Y-109882810D01*
X126709580Y-109878559D01*
X127415077Y-109173062D01*
X127421507Y-109161287D01*
X127412211Y-109149272D01*
X127361006Y-109113418D01*
X127351511Y-109107935D01*
X127154053Y-109015859D01*
X127143761Y-109012113D01*
X126933312Y-108955724D01*
X126922519Y-108953821D01*
X126705475Y-108934832D01*
X126694525Y-108934832D01*
X126477481Y-108953821D01*
X126466688Y-108955724D01*
X126256239Y-109012113D01*
X126245947Y-109015859D01*
X126048489Y-109107935D01*
X126038994Y-109113418D01*
X125986952Y-109149858D01*
X125978576Y-109160337D01*
X119433018Y-109160337D01*
X118668532Y-108395851D01*
X146836719Y-108395851D01*
X146837235Y-108401995D01*
X146849994Y-108553938D01*
X146853268Y-108592934D01*
X146862225Y-108624171D01*
X146905795Y-108776116D01*
X146907783Y-108783050D01*
X146998187Y-108958956D01*
X147121035Y-109113953D01*
X147271650Y-109242136D01*
X147444294Y-109338624D01*
X147632392Y-109399740D01*
X147828777Y-109423158D01*
X147834912Y-109422686D01*
X147834914Y-109422686D01*
X148019830Y-109408457D01*
X148019834Y-109408456D01*
X148025972Y-109407984D01*
X148216463Y-109354798D01*
X148221967Y-109352018D01*
X148221969Y-109352017D01*
X148387495Y-109268404D01*
X148387497Y-109268403D01*
X148392996Y-109265625D01*
X148548847Y-109143861D01*
X148571215Y-109117948D01*
X148606414Y-109077169D01*
X148666067Y-109038672D01*
X148701795Y-109033500D01*
X163709470Y-109033500D01*
X163777591Y-109053502D01*
X163808216Y-109081237D01*
X163842202Y-109124118D01*
X163842207Y-109124123D01*
X163846035Y-109128953D01*
X163996650Y-109257136D01*
X164169294Y-109353624D01*
X164357392Y-109414740D01*
X164553777Y-109438158D01*
X164559912Y-109437686D01*
X164559914Y-109437686D01*
X164744830Y-109423457D01*
X164744834Y-109423456D01*
X164750972Y-109422984D01*
X164941463Y-109369798D01*
X164946967Y-109367018D01*
X164946969Y-109367017D01*
X165112495Y-109283404D01*
X165112497Y-109283403D01*
X165117996Y-109280625D01*
X165273847Y-109158861D01*
X165377591Y-109038672D01*
X165399049Y-109013813D01*
X165399050Y-109013811D01*
X165403078Y-109009145D01*
X165500769Y-108837179D01*
X165563197Y-108649513D01*
X165587985Y-108453295D01*
X165588380Y-108425000D01*
X165569080Y-108228167D01*
X165511916Y-108038831D01*
X165419066Y-107864204D01*
X165342345Y-107770135D01*
X165297960Y-107715713D01*
X165297957Y-107715710D01*
X165294065Y-107710938D01*
X165287726Y-107705694D01*
X165146425Y-107588799D01*
X165146421Y-107588797D01*
X165141675Y-107584870D01*
X164967701Y-107490802D01*
X164778768Y-107432318D01*
X164772643Y-107431674D01*
X164772642Y-107431674D01*
X164588204Y-107412289D01*
X164588202Y-107412289D01*
X164582075Y-107411645D01*
X164499719Y-107419140D01*
X164391251Y-107429011D01*
X164391248Y-107429012D01*
X164385112Y-107429570D01*
X164379206Y-107431308D01*
X164379202Y-107431309D01*
X164312199Y-107451029D01*
X164195381Y-107485410D01*
X164189923Y-107488263D01*
X164189919Y-107488265D01*
X164139232Y-107514764D01*
X164020110Y-107577040D01*
X163865975Y-107700968D01*
X163862016Y-107705686D01*
X163862008Y-107705694D01*
X163806798Y-107771491D01*
X163747689Y-107810818D01*
X163710277Y-107816500D01*
X148727222Y-107816500D01*
X148659101Y-107796498D01*
X148629579Y-107770135D01*
X148572964Y-107700718D01*
X148572961Y-107700715D01*
X148569065Y-107695938D01*
X148561179Y-107689414D01*
X148421425Y-107573799D01*
X148421421Y-107573797D01*
X148416675Y-107569870D01*
X148242701Y-107475802D01*
X148053768Y-107417318D01*
X148047643Y-107416674D01*
X148047642Y-107416674D01*
X147863204Y-107397289D01*
X147863202Y-107397289D01*
X147857075Y-107396645D01*
X147774576Y-107404153D01*
X147666251Y-107414011D01*
X147666248Y-107414012D01*
X147660112Y-107414570D01*
X147654206Y-107416308D01*
X147654202Y-107416309D01*
X147582259Y-107437483D01*
X147470381Y-107470410D01*
X147464923Y-107473263D01*
X147464919Y-107473265D01*
X147425770Y-107493732D01*
X147295110Y-107562040D01*
X147140975Y-107685968D01*
X147013846Y-107837474D01*
X147010879Y-107842872D01*
X147010875Y-107842877D01*
X146976568Y-107905283D01*
X146918567Y-108010787D01*
X146916706Y-108016654D01*
X146916705Y-108016656D01*
X146904389Y-108055480D01*
X146858765Y-108199306D01*
X146836719Y-108395851D01*
X118668532Y-108395851D01*
X117868164Y-107595483D01*
X125391500Y-107595483D01*
X125398255Y-107657665D01*
X125449385Y-107794054D01*
X125536739Y-107910610D01*
X125653295Y-107997964D01*
X125789684Y-108049094D01*
X125851866Y-108055849D01*
X127548134Y-108055849D01*
X127610316Y-108049094D01*
X127746705Y-107997964D01*
X127863261Y-107910610D01*
X127950615Y-107794054D01*
X128001745Y-107657665D01*
X128004092Y-107636062D01*
X133208606Y-107636062D01*
X133217902Y-107648077D01*
X133269107Y-107683931D01*
X133278602Y-107689414D01*
X133476060Y-107781490D01*
X133486352Y-107785236D01*
X133696801Y-107841625D01*
X133707594Y-107843528D01*
X133924638Y-107862517D01*
X133935588Y-107862517D01*
X134152632Y-107843528D01*
X134163425Y-107841625D01*
X134373874Y-107785236D01*
X134384166Y-107781490D01*
X134581624Y-107689414D01*
X134591124Y-107683929D01*
X134592023Y-107683299D01*
X134592483Y-107683144D01*
X134595881Y-107681182D01*
X134596275Y-107681865D01*
X134659297Y-107660612D01*
X134728157Y-107677898D01*
X134753916Y-107700934D01*
X134755120Y-107699730D01*
X134761471Y-107706081D01*
X134766852Y-107713261D01*
X134774032Y-107718642D01*
X134774035Y-107718645D01*
X134835283Y-107764547D01*
X134883408Y-107800615D01*
X135019797Y-107851745D01*
X135081979Y-107858500D01*
X136778247Y-107858500D01*
X136840429Y-107851745D01*
X136976818Y-107800615D01*
X137093374Y-107713261D01*
X137180728Y-107596705D01*
X137231858Y-107460316D01*
X137238613Y-107398134D01*
X137238613Y-105701866D01*
X137231858Y-105639684D01*
X137180728Y-105503295D01*
X137093374Y-105386739D01*
X136976818Y-105299385D01*
X136840429Y-105248255D01*
X136778247Y-105241500D01*
X135081979Y-105241500D01*
X135019797Y-105248255D01*
X134883408Y-105299385D01*
X134865311Y-105312948D01*
X134774035Y-105381355D01*
X134774032Y-105381358D01*
X134766852Y-105386739D01*
X134761471Y-105393919D01*
X134755120Y-105400270D01*
X134752978Y-105398128D01*
X134708267Y-105431564D01*
X134637449Y-105436594D01*
X134596078Y-105418477D01*
X134595881Y-105418818D01*
X134592815Y-105417048D01*
X134592023Y-105416701D01*
X134591124Y-105416071D01*
X134581624Y-105410586D01*
X134384166Y-105318510D01*
X134373874Y-105314764D01*
X134163425Y-105258375D01*
X134152632Y-105256472D01*
X133935588Y-105237483D01*
X133924638Y-105237483D01*
X133707594Y-105256472D01*
X133696801Y-105258375D01*
X133486352Y-105314764D01*
X133476060Y-105318510D01*
X133278602Y-105410586D01*
X133269107Y-105416069D01*
X133217065Y-105452509D01*
X133208689Y-105462988D01*
X133215757Y-105476434D01*
X134200228Y-106460905D01*
X134234254Y-106523217D01*
X134229189Y-106594032D01*
X134200228Y-106639095D01*
X133215036Y-107624287D01*
X133208606Y-107636062D01*
X128004092Y-107636062D01*
X128008500Y-107595483D01*
X128008500Y-106555475D01*
X132617596Y-106555475D01*
X132636585Y-106772519D01*
X132638488Y-106783312D01*
X132694877Y-106993761D01*
X132698623Y-107004053D01*
X132790699Y-107201511D01*
X132796182Y-107211006D01*
X132832622Y-107263048D01*
X132843101Y-107271424D01*
X132856547Y-107264356D01*
X133558091Y-106562812D01*
X133565705Y-106548868D01*
X133565574Y-106547035D01*
X133561323Y-106540420D01*
X132855826Y-105834923D01*
X132844051Y-105828493D01*
X132832036Y-105837789D01*
X132796182Y-105888994D01*
X132790699Y-105898489D01*
X132698623Y-106095947D01*
X132694877Y-106106239D01*
X132638488Y-106316688D01*
X132636585Y-106327481D01*
X132617596Y-106544525D01*
X132617596Y-106555475D01*
X128008500Y-106555475D01*
X128008500Y-105899215D01*
X128001745Y-105837033D01*
X127950615Y-105700644D01*
X127863261Y-105584088D01*
X127746705Y-105496734D01*
X127610316Y-105445604D01*
X127548134Y-105438849D01*
X125851866Y-105438849D01*
X125789684Y-105445604D01*
X125653295Y-105496734D01*
X125536739Y-105584088D01*
X125449385Y-105700644D01*
X125398255Y-105837033D01*
X125391500Y-105899215D01*
X125391500Y-107595483D01*
X117868164Y-107595483D01*
X114863532Y-104590851D01*
X148191719Y-104590851D01*
X148208268Y-104787934D01*
X148262783Y-104978050D01*
X148353187Y-105153956D01*
X148476035Y-105308953D01*
X148480728Y-105312947D01*
X148480729Y-105312948D01*
X148604726Y-105418477D01*
X148626650Y-105437136D01*
X148799294Y-105533624D01*
X148987392Y-105594740D01*
X149183777Y-105618158D01*
X149189912Y-105617686D01*
X149189914Y-105617686D01*
X149374830Y-105603457D01*
X149374834Y-105603456D01*
X149380972Y-105602984D01*
X149571463Y-105549798D01*
X149576967Y-105547018D01*
X149576969Y-105547017D01*
X149742495Y-105463404D01*
X149742497Y-105463403D01*
X149747996Y-105460625D01*
X149903847Y-105338861D01*
X149978677Y-105252169D01*
X150038330Y-105213672D01*
X150074059Y-105208500D01*
X165509470Y-105208500D01*
X165577591Y-105228502D01*
X165608216Y-105256237D01*
X165642202Y-105299118D01*
X165642207Y-105299123D01*
X165646035Y-105303953D01*
X165650728Y-105307947D01*
X165650729Y-105307948D01*
X165780601Y-105418477D01*
X165796650Y-105432136D01*
X165969294Y-105528624D01*
X166157392Y-105589740D01*
X166353777Y-105613158D01*
X166359912Y-105612686D01*
X166359914Y-105612686D01*
X166544830Y-105598457D01*
X166544834Y-105598456D01*
X166550972Y-105597984D01*
X166741463Y-105544798D01*
X166746967Y-105542018D01*
X166746969Y-105542017D01*
X166912495Y-105458404D01*
X166912497Y-105458403D01*
X166917996Y-105455625D01*
X167073847Y-105333861D01*
X167177591Y-105213672D01*
X167199049Y-105188813D01*
X167199050Y-105188811D01*
X167203078Y-105184145D01*
X167300769Y-105012179D01*
X167363197Y-104824513D01*
X167387985Y-104628295D01*
X167388380Y-104600000D01*
X167372285Y-104435851D01*
X172436719Y-104435851D01*
X172437235Y-104441995D01*
X172452583Y-104624771D01*
X172453268Y-104632934D01*
X172454967Y-104638858D01*
X172504713Y-104812342D01*
X172507783Y-104823050D01*
X172510602Y-104828535D01*
X172590262Y-104983535D01*
X172598187Y-104998956D01*
X172721035Y-105153953D01*
X172725728Y-105157947D01*
X172725729Y-105157948D01*
X172841219Y-105256237D01*
X172871650Y-105282136D01*
X173044294Y-105378624D01*
X173050154Y-105380528D01*
X173226531Y-105437836D01*
X173226534Y-105437837D01*
X173232392Y-105439740D01*
X173326463Y-105450958D01*
X173341970Y-105452807D01*
X173407243Y-105480735D01*
X173416145Y-105488826D01*
X175154595Y-107227276D01*
X175188621Y-107289588D01*
X175191500Y-107316371D01*
X175191500Y-107318709D01*
X175171498Y-107386830D01*
X175117842Y-107433323D01*
X175079108Y-107443972D01*
X175066914Y-107445297D01*
X175039684Y-107448255D01*
X174903295Y-107499385D01*
X174786739Y-107586739D01*
X174699385Y-107703295D01*
X174648255Y-107839684D01*
X174641500Y-107901866D01*
X174641500Y-109598134D01*
X174648255Y-109660316D01*
X174699385Y-109796705D01*
X174786739Y-109913261D01*
X174903295Y-110000615D01*
X175039684Y-110051745D01*
X175101866Y-110058500D01*
X176798134Y-110058500D01*
X176860316Y-110051745D01*
X176996705Y-110000615D01*
X177065864Y-109948783D01*
X177106078Y-109918645D01*
X177106081Y-109918642D01*
X177113261Y-109913261D01*
X177118642Y-109906081D01*
X177124993Y-109899730D01*
X177127135Y-109901872D01*
X177171846Y-109868436D01*
X177242664Y-109863406D01*
X177284035Y-109881523D01*
X177284232Y-109881182D01*
X177287298Y-109882952D01*
X177288090Y-109883299D01*
X177288989Y-109883929D01*
X177298489Y-109889414D01*
X177495947Y-109981490D01*
X177506239Y-109985236D01*
X177716688Y-110041625D01*
X177727481Y-110043528D01*
X177944525Y-110062517D01*
X177955475Y-110062517D01*
X178172519Y-110043528D01*
X178183312Y-110041625D01*
X178393761Y-109985236D01*
X178404053Y-109981490D01*
X178601511Y-109889414D01*
X178611006Y-109883931D01*
X178663048Y-109847491D01*
X178671424Y-109837012D01*
X178664356Y-109823566D01*
X177679885Y-108839095D01*
X177645859Y-108776783D01*
X177647694Y-108751132D01*
X178314408Y-108751132D01*
X178314539Y-108752965D01*
X178318790Y-108759580D01*
X179024287Y-109465077D01*
X179036062Y-109471507D01*
X179048077Y-109462211D01*
X179083931Y-109411006D01*
X179089414Y-109401511D01*
X179181490Y-109204053D01*
X179185236Y-109193761D01*
X179241625Y-108983312D01*
X179243528Y-108972519D01*
X179262517Y-108755475D01*
X179262517Y-108744525D01*
X179243528Y-108527481D01*
X179241625Y-108516688D01*
X179185236Y-108306239D01*
X179181490Y-108295947D01*
X179089414Y-108098489D01*
X179083931Y-108088994D01*
X179047491Y-108036952D01*
X179037012Y-108028576D01*
X179023566Y-108035644D01*
X178322022Y-108737188D01*
X178314408Y-108751132D01*
X177647694Y-108751132D01*
X177650924Y-108705968D01*
X177679885Y-108660905D01*
X178665077Y-107675713D01*
X178671507Y-107663938D01*
X178662211Y-107651923D01*
X178611006Y-107616069D01*
X178601511Y-107610586D01*
X178404053Y-107518510D01*
X178393761Y-107514764D01*
X178183312Y-107458375D01*
X178172519Y-107456472D01*
X177955475Y-107437483D01*
X177944525Y-107437483D01*
X177727481Y-107456472D01*
X177716688Y-107458375D01*
X177506239Y-107514764D01*
X177495947Y-107518510D01*
X177298489Y-107610586D01*
X177288989Y-107616071D01*
X177288090Y-107616701D01*
X177287630Y-107616856D01*
X177284232Y-107618818D01*
X177283838Y-107618135D01*
X177220816Y-107639388D01*
X177151956Y-107622102D01*
X177126197Y-107599066D01*
X177124993Y-107600270D01*
X177118642Y-107593919D01*
X177113261Y-107586739D01*
X177106081Y-107581358D01*
X177106078Y-107581355D01*
X177017225Y-107514764D01*
X176996705Y-107499385D01*
X176860316Y-107448255D01*
X176833086Y-107445297D01*
X176820892Y-107443972D01*
X176755330Y-107416730D01*
X176714904Y-107358366D01*
X176708500Y-107318709D01*
X176708500Y-107017070D01*
X176709933Y-106998120D01*
X176712099Y-106983885D01*
X176712099Y-106983881D01*
X176713199Y-106976651D01*
X176709880Y-106935840D01*
X176708915Y-106923982D01*
X176708500Y-106913767D01*
X176708500Y-106905707D01*
X176705209Y-106877480D01*
X176704778Y-106873121D01*
X176699453Y-106807660D01*
X176698860Y-106800364D01*
X176696605Y-106793403D01*
X176695418Y-106787463D01*
X176694029Y-106781588D01*
X176693182Y-106774319D01*
X176668264Y-106705670D01*
X176666847Y-106701542D01*
X176646607Y-106639064D01*
X176646606Y-106639062D01*
X176644351Y-106632101D01*
X176640555Y-106625846D01*
X176638049Y-106620372D01*
X176635330Y-106614942D01*
X176632833Y-106608063D01*
X176614334Y-106579848D01*
X176592814Y-106547024D01*
X176590467Y-106543305D01*
X176552595Y-106480893D01*
X176547960Y-106475644D01*
X176545197Y-106472516D01*
X176545224Y-106472492D01*
X176542571Y-106469500D01*
X176539868Y-106466267D01*
X176535856Y-106460148D01*
X176479617Y-106406872D01*
X176477175Y-106404494D01*
X174488835Y-104416154D01*
X174454809Y-104353842D01*
X174452531Y-104339355D01*
X174444681Y-104259299D01*
X174444080Y-104253167D01*
X174386916Y-104063831D01*
X174294066Y-103889204D01*
X174196172Y-103769174D01*
X174172960Y-103740713D01*
X174172957Y-103740710D01*
X174169065Y-103735938D01*
X174161087Y-103729338D01*
X174021425Y-103613799D01*
X174021421Y-103613797D01*
X174016675Y-103609870D01*
X173842701Y-103515802D01*
X173653768Y-103457318D01*
X173647643Y-103456674D01*
X173647642Y-103456674D01*
X173463204Y-103437289D01*
X173463202Y-103437289D01*
X173457075Y-103436645D01*
X173398047Y-103442017D01*
X173266251Y-103454011D01*
X173266248Y-103454012D01*
X173260112Y-103454570D01*
X173254206Y-103456308D01*
X173254202Y-103456309D01*
X173149076Y-103487249D01*
X173070381Y-103510410D01*
X173064923Y-103513263D01*
X173064919Y-103513265D01*
X172974147Y-103560720D01*
X172895110Y-103602040D01*
X172740975Y-103725968D01*
X172613846Y-103877474D01*
X172610879Y-103882872D01*
X172610875Y-103882877D01*
X172562156Y-103971498D01*
X172518567Y-104050787D01*
X172516706Y-104056654D01*
X172516705Y-104056656D01*
X172460627Y-104233436D01*
X172458765Y-104239306D01*
X172436719Y-104435851D01*
X167372285Y-104435851D01*
X167369080Y-104403167D01*
X167364633Y-104388436D01*
X167345162Y-104323947D01*
X167311916Y-104213831D01*
X167219066Y-104039204D01*
X167142346Y-103945136D01*
X167097960Y-103890713D01*
X167097957Y-103890710D01*
X167094065Y-103885938D01*
X167089316Y-103882009D01*
X166946425Y-103763799D01*
X166946421Y-103763797D01*
X166941675Y-103759870D01*
X166767701Y-103665802D01*
X166578768Y-103607318D01*
X166572643Y-103606674D01*
X166572642Y-103606674D01*
X166388204Y-103587289D01*
X166388202Y-103587289D01*
X166382075Y-103586645D01*
X166320992Y-103592204D01*
X166191251Y-103604011D01*
X166191248Y-103604012D01*
X166185112Y-103604570D01*
X166179206Y-103606308D01*
X166179202Y-103606309D01*
X166074076Y-103637249D01*
X165995381Y-103660410D01*
X165989923Y-103663263D01*
X165989919Y-103663265D01*
X165932476Y-103693296D01*
X165820110Y-103752040D01*
X165665975Y-103875968D01*
X165662016Y-103880686D01*
X165662008Y-103880694D01*
X165606798Y-103946491D01*
X165547689Y-103985818D01*
X165510277Y-103991500D01*
X150065911Y-103991500D01*
X149997790Y-103971498D01*
X149968268Y-103945136D01*
X149927960Y-103895713D01*
X149927957Y-103895710D01*
X149924065Y-103890938D01*
X149913272Y-103882009D01*
X149776425Y-103768799D01*
X149776421Y-103768797D01*
X149771675Y-103764870D01*
X149597701Y-103670802D01*
X149408768Y-103612318D01*
X149402643Y-103611674D01*
X149402642Y-103611674D01*
X149218204Y-103592289D01*
X149218202Y-103592289D01*
X149212075Y-103591645D01*
X149129576Y-103599153D01*
X149021251Y-103609011D01*
X149021248Y-103609012D01*
X149015112Y-103609570D01*
X149009206Y-103611308D01*
X149009202Y-103611309D01*
X148904076Y-103642249D01*
X148825381Y-103665410D01*
X148819923Y-103668263D01*
X148819919Y-103668265D01*
X148762128Y-103698478D01*
X148650110Y-103757040D01*
X148495975Y-103880968D01*
X148368846Y-104032474D01*
X148365879Y-104037872D01*
X148365875Y-104037877D01*
X148288622Y-104178401D01*
X148273567Y-104205787D01*
X148271706Y-104211654D01*
X148271705Y-104211656D01*
X148221039Y-104371375D01*
X148213765Y-104394306D01*
X148191719Y-104590851D01*
X114863532Y-104590851D01*
X112283770Y-102011089D01*
X112271384Y-101996677D01*
X112262851Y-101985082D01*
X112262846Y-101985077D01*
X112258508Y-101979182D01*
X112252930Y-101974443D01*
X112252927Y-101974440D01*
X112218232Y-101944965D01*
X112210716Y-101938035D01*
X112205021Y-101932340D01*
X112192896Y-101922747D01*
X112182749Y-101914719D01*
X112179345Y-101911928D01*
X112129297Y-101869409D01*
X112129295Y-101869408D01*
X112123715Y-101864667D01*
X112117199Y-101861339D01*
X112112150Y-101857972D01*
X112107021Y-101854805D01*
X112101284Y-101850266D01*
X112035125Y-101819345D01*
X112031225Y-101817439D01*
X111966192Y-101784231D01*
X111959084Y-101782492D01*
X111953441Y-101780393D01*
X111947678Y-101778476D01*
X111941050Y-101775378D01*
X111869583Y-101760513D01*
X111865299Y-101759543D01*
X111852152Y-101756326D01*
X111794390Y-101742192D01*
X111788788Y-101741844D01*
X111788785Y-101741844D01*
X111783236Y-101741500D01*
X111783238Y-101741464D01*
X111779245Y-101741225D01*
X111775053Y-101740851D01*
X111767885Y-101739360D01*
X111701675Y-101741151D01*
X111690479Y-101741454D01*
X111687072Y-101741500D01*
X108248212Y-101741500D01*
X108180091Y-101721498D01*
X108167897Y-101712585D01*
X108146206Y-101694641D01*
X108104175Y-101659870D01*
X107930201Y-101565802D01*
X107741268Y-101507318D01*
X107735143Y-101506674D01*
X107735142Y-101506674D01*
X107550704Y-101487289D01*
X107550702Y-101487289D01*
X107544575Y-101486645D01*
X107462076Y-101494153D01*
X107353751Y-101504011D01*
X107353748Y-101504012D01*
X107347612Y-101504570D01*
X107341706Y-101506308D01*
X107341702Y-101506309D01*
X107251238Y-101532934D01*
X107157881Y-101560410D01*
X107152423Y-101563263D01*
X107152419Y-101563265D01*
X107106648Y-101587194D01*
X106982610Y-101652040D01*
X106828475Y-101775968D01*
X106701346Y-101927474D01*
X106698379Y-101932872D01*
X106698375Y-101932877D01*
X106634469Y-102049123D01*
X106606067Y-102100787D01*
X106604206Y-102106654D01*
X106604205Y-102106656D01*
X106548417Y-102282522D01*
X106546265Y-102289306D01*
X106524219Y-102485851D01*
X102901993Y-102485851D01*
X102884852Y-102277361D01*
X102830431Y-102060702D01*
X102741354Y-101855840D01*
X102692545Y-101780393D01*
X102622822Y-101672617D01*
X102622820Y-101672614D01*
X102620014Y-101668277D01*
X102469670Y-101503051D01*
X102465619Y-101499852D01*
X102465615Y-101499848D01*
X102298414Y-101367800D01*
X102298410Y-101367798D01*
X102294359Y-101364598D01*
X102242284Y-101335851D01*
X156211719Y-101335851D01*
X156212235Y-101341995D01*
X156225759Y-101503051D01*
X156228268Y-101532934D01*
X156240979Y-101577262D01*
X156268322Y-101672617D01*
X156282783Y-101723050D01*
X156308910Y-101773888D01*
X156348164Y-101850266D01*
X156373187Y-101898956D01*
X156496035Y-102053953D01*
X156646650Y-102182136D01*
X156819294Y-102278624D01*
X157007392Y-102339740D01*
X157203777Y-102363158D01*
X157209912Y-102362686D01*
X157209914Y-102362686D01*
X157394830Y-102348457D01*
X157394834Y-102348456D01*
X157400972Y-102347984D01*
X157591463Y-102294798D01*
X157596967Y-102292018D01*
X157596969Y-102292017D01*
X157762495Y-102208404D01*
X157762497Y-102208403D01*
X157767996Y-102205625D01*
X157923847Y-102083861D01*
X158018296Y-101974440D01*
X158049049Y-101938813D01*
X158049050Y-101938811D01*
X158053078Y-101934145D01*
X158150769Y-101762179D01*
X158213197Y-101574513D01*
X158228038Y-101457035D01*
X158256420Y-101391958D01*
X158263949Y-101383732D01*
X158702276Y-100945405D01*
X158764588Y-100911379D01*
X158791371Y-100908500D01*
X169288769Y-100908500D01*
X169356890Y-100928502D01*
X169370432Y-100938546D01*
X169388149Y-100953624D01*
X169421650Y-100982136D01*
X169594294Y-101078624D01*
X169782392Y-101139740D01*
X169978777Y-101163158D01*
X169984912Y-101162686D01*
X169984914Y-101162686D01*
X170169830Y-101148457D01*
X170169834Y-101148456D01*
X170175972Y-101147984D01*
X170366463Y-101094798D01*
X170371967Y-101092018D01*
X170371969Y-101092017D01*
X170537495Y-101008404D01*
X170537497Y-101008403D01*
X170542996Y-101005625D01*
X170698847Y-100883861D01*
X170828078Y-100734145D01*
X170925769Y-100562179D01*
X170988197Y-100374513D01*
X171012985Y-100178295D01*
X171013380Y-100150000D01*
X170994080Y-99953167D01*
X170936916Y-99763831D01*
X170844066Y-99589204D01*
X170744535Y-99467167D01*
X170722960Y-99440713D01*
X170722957Y-99440710D01*
X170719065Y-99435938D01*
X170683865Y-99406818D01*
X170571425Y-99313799D01*
X170571421Y-99313797D01*
X170566675Y-99309870D01*
X170392701Y-99215802D01*
X170203768Y-99157318D01*
X170197643Y-99156674D01*
X170197642Y-99156674D01*
X170013204Y-99137289D01*
X170013202Y-99137289D01*
X170007075Y-99136645D01*
X169924576Y-99144153D01*
X169816251Y-99154011D01*
X169816248Y-99154012D01*
X169810112Y-99154570D01*
X169804206Y-99156308D01*
X169804202Y-99156309D01*
X169707160Y-99184870D01*
X169620381Y-99210410D01*
X169614923Y-99213263D01*
X169614919Y-99213265D01*
X169519135Y-99263340D01*
X169445110Y-99302040D01*
X169440312Y-99305898D01*
X169440310Y-99305899D01*
X169368424Y-99363697D01*
X169302802Y-99390793D01*
X169289472Y-99391500D01*
X158492069Y-99391500D01*
X158473121Y-99390067D01*
X158465780Y-99388950D01*
X158458883Y-99387901D01*
X158458881Y-99387901D01*
X158451651Y-99386801D01*
X158444359Y-99387394D01*
X158444356Y-99387394D01*
X158398982Y-99391085D01*
X158388767Y-99391500D01*
X158380707Y-99391500D01*
X158367417Y-99393049D01*
X158352493Y-99394789D01*
X158348118Y-99395222D01*
X158282661Y-99400546D01*
X158282658Y-99400547D01*
X158275363Y-99401140D01*
X158268399Y-99403396D01*
X158262440Y-99404587D01*
X158256585Y-99405971D01*
X158249319Y-99406818D01*
X158180673Y-99431735D01*
X158176545Y-99433152D01*
X158114064Y-99453393D01*
X158114062Y-99453394D01*
X158107101Y-99455649D01*
X158100846Y-99459445D01*
X158095372Y-99461951D01*
X158089942Y-99464670D01*
X158083063Y-99467167D01*
X158022016Y-99507191D01*
X158018327Y-99509518D01*
X157998135Y-99521771D01*
X157960693Y-99544491D01*
X157960688Y-99544495D01*
X157955892Y-99547405D01*
X157947516Y-99554803D01*
X157947493Y-99554777D01*
X157944503Y-99557426D01*
X157941264Y-99560134D01*
X157935148Y-99564144D01*
X157930121Y-99569451D01*
X157930117Y-99569454D01*
X157881872Y-99620383D01*
X157879494Y-99622825D01*
X157191278Y-100311041D01*
X157128966Y-100345067D01*
X157113604Y-100347427D01*
X157088952Y-100349670D01*
X157041252Y-100354011D01*
X157041250Y-100354011D01*
X157035112Y-100354570D01*
X157029206Y-100356308D01*
X157029202Y-100356309D01*
X156924076Y-100387249D01*
X156845381Y-100410410D01*
X156839923Y-100413263D01*
X156839919Y-100413265D01*
X156749147Y-100460720D01*
X156670110Y-100502040D01*
X156515975Y-100625968D01*
X156388846Y-100777474D01*
X156385879Y-100782872D01*
X156385875Y-100782877D01*
X156328274Y-100887655D01*
X156293567Y-100950787D01*
X156291706Y-100956654D01*
X156291705Y-100956656D01*
X156235627Y-101133436D01*
X156233765Y-101139306D01*
X156211719Y-101335851D01*
X102242284Y-101335851D01*
X102098789Y-101256638D01*
X102093920Y-101254914D01*
X102093916Y-101254912D01*
X101893087Y-101183795D01*
X101893083Y-101183794D01*
X101888212Y-101182069D01*
X101883119Y-101181162D01*
X101883116Y-101181161D01*
X101673373Y-101143800D01*
X101673367Y-101143799D01*
X101668284Y-101142894D01*
X101594452Y-101141992D01*
X101450081Y-101140228D01*
X101450079Y-101140228D01*
X101444911Y-101140165D01*
X101224091Y-101173955D01*
X101011756Y-101243357D01*
X100981443Y-101259137D01*
X100891678Y-101305866D01*
X100813607Y-101346507D01*
X100809474Y-101349610D01*
X100809471Y-101349612D01*
X100666397Y-101457035D01*
X100634965Y-101480635D01*
X100543781Y-101576054D01*
X100501027Y-101620793D01*
X100439503Y-101656223D01*
X100368590Y-101652766D01*
X100310804Y-101611520D01*
X100295833Y-101587194D01*
X100293865Y-101582994D01*
X100291550Y-101576054D01*
X100198478Y-101425652D01*
X100073303Y-101300695D01*
X99999030Y-101254912D01*
X99928968Y-101211725D01*
X99928966Y-101211724D01*
X99922738Y-101207885D01*
X99818084Y-101173173D01*
X99761389Y-101154368D01*
X99761387Y-101154368D01*
X99754861Y-101152203D01*
X99748025Y-101151503D01*
X99748022Y-101151502D01*
X99704969Y-101147091D01*
X99650400Y-101141500D01*
X98349600Y-101141500D01*
X98346354Y-101141837D01*
X98346350Y-101141837D01*
X98250692Y-101151762D01*
X98250688Y-101151763D01*
X98243834Y-101152474D01*
X98237298Y-101154655D01*
X98237296Y-101154655D01*
X98174631Y-101175562D01*
X98076054Y-101208450D01*
X97925652Y-101301522D01*
X97920479Y-101306704D01*
X97862686Y-101364598D01*
X97800695Y-101426697D01*
X97796855Y-101432927D01*
X97796854Y-101432928D01*
X97712466Y-101569831D01*
X97707885Y-101577262D01*
X97686367Y-101642138D01*
X97659530Y-101723050D01*
X97652203Y-101745139D01*
X97651503Y-101751975D01*
X97651502Y-101751978D01*
X97649440Y-101772104D01*
X97641500Y-101849600D01*
X97641500Y-103150400D01*
X97641837Y-103153646D01*
X97641837Y-103153650D01*
X97647298Y-103206277D01*
X97652474Y-103256166D01*
X97654655Y-103262702D01*
X97654655Y-103262704D01*
X97698728Y-103394806D01*
X97708450Y-103423946D01*
X97801522Y-103574348D01*
X97926697Y-103699305D01*
X97932927Y-103703145D01*
X97932928Y-103703146D01*
X98039437Y-103768799D01*
X98077262Y-103792115D01*
X98084209Y-103794419D01*
X98086276Y-103795383D01*
X98139561Y-103842299D01*
X98159023Y-103910576D01*
X98138482Y-103978536D01*
X98108681Y-104010337D01*
X98094965Y-104020635D01*
X97940629Y-104182138D01*
X97937720Y-104186403D01*
X97937714Y-104186411D01*
X97896202Y-104247265D01*
X97814743Y-104366680D01*
X97720688Y-104569305D01*
X97660989Y-104784570D01*
X97637251Y-105006695D01*
X97637548Y-105011848D01*
X97637548Y-105011851D01*
X97647752Y-105188813D01*
X97650110Y-105229715D01*
X97651247Y-105234761D01*
X97651248Y-105234767D01*
X97673392Y-105333023D01*
X97699222Y-105447639D01*
X97783266Y-105654616D01*
X97834019Y-105737438D01*
X97897291Y-105840688D01*
X97899987Y-105845088D01*
X98046250Y-106013938D01*
X98218126Y-106156632D01*
X98288595Y-106197811D01*
X98291445Y-106199476D01*
X98340169Y-106251114D01*
X98353240Y-106320897D01*
X98326509Y-106386669D01*
X98286055Y-106420027D01*
X98273607Y-106426507D01*
X98269474Y-106429610D01*
X98269471Y-106429612D01*
X98110637Y-106548868D01*
X98094965Y-106560635D01*
X97940629Y-106722138D01*
X97937720Y-106726403D01*
X97937714Y-106726411D01*
X97898899Y-106783312D01*
X97814743Y-106906680D01*
X97720688Y-107109305D01*
X97660989Y-107324570D01*
X97637251Y-107546695D01*
X95508500Y-107546695D01*
X95508500Y-96050000D01*
X142516807Y-96050000D01*
X142535542Y-96264142D01*
X142536966Y-96269455D01*
X142536966Y-96269457D01*
X142578476Y-96424371D01*
X142591178Y-96471777D01*
X142682024Y-96666596D01*
X142805319Y-96842681D01*
X142957319Y-96994681D01*
X143133403Y-97117976D01*
X143138381Y-97120297D01*
X143138384Y-97120299D01*
X143322231Y-97206028D01*
X143328223Y-97208822D01*
X143333531Y-97210244D01*
X143333533Y-97210245D01*
X143530543Y-97263034D01*
X143530545Y-97263034D01*
X143535858Y-97264458D01*
X143750000Y-97283193D01*
X143964142Y-97264458D01*
X143969455Y-97263034D01*
X143969457Y-97263034D01*
X144166467Y-97210245D01*
X144166469Y-97210244D01*
X144171777Y-97208822D01*
X144177769Y-97206028D01*
X144361616Y-97120299D01*
X144361619Y-97120297D01*
X144366597Y-97117976D01*
X144422802Y-97078621D01*
X145625933Y-97078621D01*
X145635227Y-97090635D01*
X145669146Y-97114385D01*
X145678641Y-97119868D01*
X145863413Y-97206028D01*
X145873705Y-97209774D01*
X146070632Y-97262540D01*
X146081425Y-97264443D01*
X146284525Y-97282212D01*
X146295475Y-97282212D01*
X146498575Y-97264443D01*
X146509368Y-97262540D01*
X146706295Y-97209774D01*
X146716587Y-97206028D01*
X146901359Y-97119868D01*
X146910854Y-97114385D01*
X146945607Y-97090051D01*
X146953983Y-97079572D01*
X146946916Y-97066127D01*
X146302811Y-96422021D01*
X146288868Y-96414408D01*
X146287034Y-96414539D01*
X146280420Y-96418790D01*
X145632360Y-97066851D01*
X145625933Y-97078621D01*
X144422802Y-97078621D01*
X144542681Y-96994681D01*
X144694681Y-96842681D01*
X144817976Y-96666596D01*
X144906081Y-96477656D01*
X144952999Y-96424371D01*
X145021276Y-96404910D01*
X145089236Y-96425452D01*
X145134471Y-96477656D01*
X145220135Y-96661364D01*
X145225613Y-96670850D01*
X145249949Y-96705607D01*
X145260428Y-96713983D01*
X145273872Y-96706917D01*
X145917979Y-96062811D01*
X145924356Y-96051132D01*
X146654408Y-96051132D01*
X146654539Y-96052966D01*
X146658790Y-96059580D01*
X147306851Y-96707640D01*
X147318621Y-96714067D01*
X147330635Y-96704772D01*
X147354387Y-96670850D01*
X147359865Y-96661364D01*
X147445529Y-96477656D01*
X147492446Y-96424371D01*
X147560724Y-96404910D01*
X147628683Y-96425452D01*
X147673919Y-96477656D01*
X147762024Y-96666596D01*
X147885319Y-96842681D01*
X148037319Y-96994681D01*
X148213403Y-97117976D01*
X148218381Y-97120297D01*
X148218384Y-97120299D01*
X148402231Y-97206028D01*
X148408223Y-97208822D01*
X148413531Y-97210244D01*
X148413533Y-97210245D01*
X148610543Y-97263034D01*
X148610545Y-97263034D01*
X148615858Y-97264458D01*
X148830000Y-97283193D01*
X149044142Y-97264458D01*
X149049455Y-97263034D01*
X149049457Y-97263034D01*
X149246467Y-97210245D01*
X149246469Y-97210244D01*
X149251777Y-97208822D01*
X149257769Y-97206028D01*
X149441616Y-97120299D01*
X149441619Y-97120297D01*
X149446597Y-97117976D01*
X149622681Y-96994681D01*
X149774681Y-96842681D01*
X149897976Y-96666596D01*
X149988822Y-96471777D01*
X150001525Y-96424371D01*
X150043034Y-96269457D01*
X150043034Y-96269455D01*
X150044458Y-96264142D01*
X150063193Y-96050000D01*
X150044458Y-95835858D01*
X150002154Y-95677979D01*
X149990245Y-95633533D01*
X149990244Y-95633531D01*
X149988822Y-95628223D01*
X149924528Y-95490345D01*
X149900299Y-95438385D01*
X149900297Y-95438382D01*
X149897976Y-95433404D01*
X149774681Y-95257319D01*
X149622681Y-95105319D01*
X149446597Y-94982024D01*
X149441619Y-94979703D01*
X149441616Y-94979701D01*
X149256759Y-94893501D01*
X149256758Y-94893500D01*
X149251777Y-94891178D01*
X149246469Y-94889756D01*
X149246467Y-94889755D01*
X149049457Y-94836966D01*
X149049455Y-94836966D01*
X149044142Y-94835542D01*
X148830000Y-94816807D01*
X148615858Y-94835542D01*
X148610545Y-94836966D01*
X148610543Y-94836966D01*
X148413533Y-94889755D01*
X148413531Y-94889756D01*
X148408223Y-94891178D01*
X148403243Y-94893500D01*
X148403241Y-94893501D01*
X148218385Y-94979701D01*
X148218382Y-94979703D01*
X148213404Y-94982024D01*
X148037319Y-95105319D01*
X147885319Y-95257319D01*
X147762024Y-95433404D01*
X147759703Y-95438382D01*
X147759701Y-95438385D01*
X147673919Y-95622344D01*
X147627001Y-95675629D01*
X147558724Y-95695090D01*
X147490764Y-95674548D01*
X147445529Y-95622344D01*
X147359865Y-95438636D01*
X147354387Y-95429150D01*
X147330051Y-95394393D01*
X147319572Y-95386017D01*
X147306128Y-95393083D01*
X146662021Y-96037189D01*
X146654408Y-96051132D01*
X145924356Y-96051132D01*
X145925592Y-96048868D01*
X145925461Y-96047034D01*
X145921210Y-96040420D01*
X145273149Y-95392360D01*
X145261379Y-95385933D01*
X145249365Y-95395228D01*
X145225613Y-95429150D01*
X145220135Y-95438636D01*
X145134471Y-95622344D01*
X145087554Y-95675629D01*
X145019276Y-95695090D01*
X144951317Y-95674548D01*
X144906081Y-95622344D01*
X144820299Y-95438385D01*
X144820297Y-95438382D01*
X144817976Y-95433404D01*
X144694681Y-95257319D01*
X144542681Y-95105319D01*
X144421444Y-95020428D01*
X145626017Y-95020428D01*
X145633083Y-95033872D01*
X146277189Y-95677979D01*
X146291132Y-95685592D01*
X146292966Y-95685461D01*
X146299580Y-95681210D01*
X146947640Y-95033149D01*
X146954067Y-95021379D01*
X146944773Y-95009365D01*
X146910854Y-94985615D01*
X146901359Y-94980132D01*
X146716587Y-94893972D01*
X146706295Y-94890226D01*
X146509368Y-94837460D01*
X146498575Y-94835557D01*
X146295475Y-94817788D01*
X146284525Y-94817788D01*
X146081425Y-94835557D01*
X146070632Y-94837460D01*
X145873705Y-94890226D01*
X145863413Y-94893972D01*
X145678636Y-94980135D01*
X145669150Y-94985613D01*
X145634393Y-95009949D01*
X145626017Y-95020428D01*
X144421444Y-95020428D01*
X144366597Y-94982024D01*
X144361619Y-94979703D01*
X144361616Y-94979701D01*
X144176759Y-94893501D01*
X144176758Y-94893500D01*
X144171777Y-94891178D01*
X144166469Y-94889756D01*
X144166467Y-94889755D01*
X143969457Y-94836966D01*
X143969455Y-94836966D01*
X143964142Y-94835542D01*
X143750000Y-94816807D01*
X143535858Y-94835542D01*
X143530545Y-94836966D01*
X143530543Y-94836966D01*
X143333533Y-94889755D01*
X143333531Y-94889756D01*
X143328223Y-94891178D01*
X143323243Y-94893500D01*
X143323241Y-94893501D01*
X143138385Y-94979701D01*
X143138382Y-94979703D01*
X143133404Y-94982024D01*
X142957319Y-95105319D01*
X142805319Y-95257319D01*
X142682024Y-95433404D01*
X142679703Y-95438382D01*
X142679701Y-95438385D01*
X142655472Y-95490345D01*
X142591178Y-95628223D01*
X142589756Y-95633531D01*
X142589755Y-95633533D01*
X142577846Y-95677979D01*
X142535542Y-95835858D01*
X142516807Y-96050000D01*
X95508500Y-96050000D01*
X95508500Y-93000000D01*
X98436681Y-93000000D01*
X98455928Y-93244557D01*
X98457082Y-93249364D01*
X98457083Y-93249370D01*
X98479321Y-93341995D01*
X98513195Y-93483092D01*
X98607073Y-93709732D01*
X98657819Y-93792542D01*
X98732095Y-93913750D01*
X98735248Y-93918896D01*
X98738463Y-93922660D01*
X98738465Y-93922663D01*
X98854011Y-94057948D01*
X98894567Y-94105433D01*
X98898323Y-94108641D01*
X99044401Y-94233404D01*
X99081104Y-94264752D01*
X99085327Y-94267340D01*
X99085330Y-94267342D01*
X99125597Y-94292017D01*
X99290268Y-94392927D01*
X99434967Y-94452864D01*
X99512335Y-94484911D01*
X99512337Y-94484912D01*
X99516908Y-94486805D01*
X99599563Y-94506649D01*
X99750630Y-94542917D01*
X99750636Y-94542918D01*
X99755443Y-94544072D01*
X100000000Y-94563319D01*
X100244557Y-94544072D01*
X100249364Y-94542918D01*
X100249370Y-94542917D01*
X100400437Y-94506649D01*
X100483092Y-94486805D01*
X100487663Y-94484912D01*
X100487665Y-94484911D01*
X100565033Y-94452864D01*
X100709732Y-94392927D01*
X100874403Y-94292017D01*
X100914670Y-94267342D01*
X100914673Y-94267340D01*
X100918896Y-94264752D01*
X100955600Y-94233404D01*
X101101677Y-94108641D01*
X101105433Y-94105433D01*
X101145989Y-94057948D01*
X101261535Y-93922663D01*
X101261537Y-93922660D01*
X101264752Y-93918896D01*
X101267906Y-93913750D01*
X101342181Y-93792542D01*
X101392927Y-93709732D01*
X101486805Y-93483092D01*
X101520679Y-93341995D01*
X101522154Y-93335851D01*
X143036719Y-93335851D01*
X143037235Y-93341995D01*
X143049070Y-93482934D01*
X143053268Y-93532934D01*
X143054967Y-93538858D01*
X143105174Y-93713951D01*
X143107783Y-93723050D01*
X143198187Y-93898956D01*
X143321035Y-94053953D01*
X143325728Y-94057947D01*
X143325729Y-94057948D01*
X143440500Y-94155625D01*
X143471650Y-94182136D01*
X143644294Y-94278624D01*
X143832392Y-94339740D01*
X144028777Y-94363158D01*
X144034912Y-94362686D01*
X144034914Y-94362686D01*
X144219830Y-94348457D01*
X144219834Y-94348456D01*
X144225972Y-94347984D01*
X144416463Y-94294798D01*
X144421967Y-94292018D01*
X144421969Y-94292017D01*
X144587495Y-94208404D01*
X144587497Y-94208403D01*
X144592996Y-94205625D01*
X144683121Y-94135211D01*
X144749116Y-94109033D01*
X144760695Y-94108500D01*
X152909394Y-94108500D01*
X152977515Y-94128502D01*
X152991057Y-94138546D01*
X153071650Y-94207136D01*
X153244294Y-94303624D01*
X153432392Y-94364740D01*
X153628777Y-94388158D01*
X153634912Y-94387686D01*
X153634914Y-94387686D01*
X153819830Y-94373457D01*
X153819834Y-94373456D01*
X153825972Y-94372984D01*
X154016463Y-94319798D01*
X154021967Y-94317018D01*
X154021969Y-94317017D01*
X154187495Y-94233404D01*
X154187497Y-94233403D01*
X154192996Y-94230625D01*
X154348847Y-94108861D01*
X154478078Y-93959145D01*
X154575769Y-93787179D01*
X154638197Y-93599513D01*
X154662985Y-93403295D01*
X154663380Y-93375000D01*
X154644080Y-93178167D01*
X154586916Y-92988831D01*
X154494066Y-92814204D01*
X154377678Y-92671498D01*
X154372960Y-92665713D01*
X154372957Y-92665710D01*
X154369065Y-92660938D01*
X154285129Y-92591500D01*
X154221425Y-92538799D01*
X154221421Y-92538797D01*
X154216675Y-92534870D01*
X154042701Y-92440802D01*
X153853768Y-92382318D01*
X153847643Y-92381674D01*
X153847642Y-92381674D01*
X153663204Y-92362289D01*
X153663202Y-92362289D01*
X153657075Y-92361645D01*
X153579202Y-92368732D01*
X153466251Y-92379011D01*
X153466248Y-92379012D01*
X153460112Y-92379570D01*
X153454206Y-92381308D01*
X153454202Y-92381309D01*
X153361237Y-92408670D01*
X153270381Y-92435410D01*
X153264923Y-92438263D01*
X153264919Y-92438265D01*
X153216078Y-92463799D01*
X153095110Y-92527040D01*
X153090312Y-92530898D01*
X153090304Y-92530903D01*
X153049518Y-92563696D01*
X152983896Y-92590793D01*
X152970566Y-92591500D01*
X144760712Y-92591500D01*
X144692591Y-92571498D01*
X144680397Y-92562585D01*
X144643352Y-92531939D01*
X144616675Y-92509870D01*
X144442701Y-92415802D01*
X144253768Y-92357318D01*
X144247643Y-92356674D01*
X144247642Y-92356674D01*
X144063204Y-92337289D01*
X144063202Y-92337289D01*
X144057075Y-92336645D01*
X143974576Y-92344153D01*
X143866251Y-92354011D01*
X143866248Y-92354012D01*
X143860112Y-92354570D01*
X143854206Y-92356308D01*
X143854202Y-92356309D01*
X143777067Y-92379011D01*
X143670381Y-92410410D01*
X143664923Y-92413263D01*
X143664919Y-92413265D01*
X143583361Y-92455903D01*
X143495110Y-92502040D01*
X143340975Y-92625968D01*
X143213846Y-92777474D01*
X143210879Y-92782872D01*
X143210875Y-92782877D01*
X143142828Y-92906656D01*
X143118567Y-92950787D01*
X143116706Y-92956654D01*
X143116705Y-92956656D01*
X143101392Y-93004930D01*
X143058765Y-93139306D01*
X143036719Y-93335851D01*
X101522154Y-93335851D01*
X101542917Y-93249370D01*
X101542918Y-93249364D01*
X101544072Y-93244557D01*
X101563319Y-93000000D01*
X101544072Y-92755443D01*
X101538655Y-92732877D01*
X101497771Y-92562585D01*
X101486805Y-92516908D01*
X101480647Y-92502040D01*
X101444925Y-92415802D01*
X101392927Y-92290268D01*
X101264752Y-92081104D01*
X101105433Y-91894567D01*
X100946632Y-91758937D01*
X100922663Y-91738465D01*
X100922660Y-91738463D01*
X100918896Y-91735248D01*
X100820920Y-91675209D01*
X100797663Y-91656873D01*
X100012812Y-90872022D01*
X99998868Y-90864408D01*
X99997035Y-90864539D01*
X99990420Y-90868790D01*
X99202337Y-91656873D01*
X99179080Y-91675209D01*
X99081104Y-91735248D01*
X99077340Y-91738463D01*
X99077337Y-91738465D01*
X99053368Y-91758937D01*
X98894567Y-91894567D01*
X98735248Y-92081104D01*
X98607073Y-92290268D01*
X98555075Y-92415802D01*
X98519354Y-92502040D01*
X98513195Y-92516908D01*
X98502229Y-92562585D01*
X98461346Y-92732877D01*
X98455928Y-92755443D01*
X98436681Y-93000000D01*
X95508500Y-93000000D01*
X95508500Y-90504930D01*
X98437570Y-90504930D01*
X98456035Y-90739545D01*
X98457578Y-90749292D01*
X98512517Y-90978125D01*
X98515566Y-90987510D01*
X98605625Y-91204933D01*
X98610107Y-91213728D01*
X98721072Y-91394805D01*
X98731530Y-91404267D01*
X98740306Y-91400484D01*
X99627978Y-90512812D01*
X99634356Y-90501132D01*
X100364408Y-90501132D01*
X100364539Y-90502965D01*
X100368790Y-90509580D01*
X101256650Y-91397440D01*
X101269030Y-91404200D01*
X101276680Y-91398473D01*
X101389893Y-91213728D01*
X101394375Y-91204933D01*
X101484434Y-90987510D01*
X101487483Y-90978125D01*
X101542422Y-90749292D01*
X101543965Y-90739545D01*
X101562430Y-90504930D01*
X101562430Y-90495070D01*
X101543965Y-90260455D01*
X101542422Y-90250708D01*
X101487483Y-90021875D01*
X101484434Y-90012490D01*
X101394375Y-89795067D01*
X101389893Y-89786272D01*
X101278928Y-89605195D01*
X101268470Y-89595733D01*
X101259694Y-89599516D01*
X100372022Y-90487188D01*
X100364408Y-90501132D01*
X99634356Y-90501132D01*
X99635592Y-90498868D01*
X99635461Y-90497035D01*
X99631210Y-90490420D01*
X98743350Y-89602560D01*
X98730970Y-89595800D01*
X98723320Y-89601527D01*
X98610107Y-89786272D01*
X98605625Y-89795067D01*
X98515566Y-90012490D01*
X98512517Y-90021875D01*
X98457578Y-90250708D01*
X98456035Y-90260455D01*
X98437570Y-90495070D01*
X98437570Y-90504930D01*
X95508500Y-90504930D01*
X95508500Y-89231530D01*
X99095733Y-89231530D01*
X99099516Y-89240306D01*
X99987188Y-90127978D01*
X100001132Y-90135592D01*
X100002965Y-90135461D01*
X100009580Y-90131210D01*
X100897440Y-89243350D01*
X100904200Y-89230970D01*
X100898473Y-89223320D01*
X100713728Y-89110107D01*
X100704933Y-89105625D01*
X100487510Y-89015566D01*
X100478125Y-89012517D01*
X100249292Y-88957578D01*
X100239545Y-88956035D01*
X100004930Y-88937570D01*
X99995070Y-88937570D01*
X99760455Y-88956035D01*
X99750708Y-88957578D01*
X99521875Y-89012517D01*
X99512490Y-89015566D01*
X99295067Y-89105625D01*
X99286272Y-89110107D01*
X99105195Y-89221072D01*
X99095733Y-89231530D01*
X95508500Y-89231530D01*
X95508500Y-81250000D01*
X127251615Y-81250000D01*
X127271570Y-81478087D01*
X127330829Y-81699243D01*
X127333152Y-81704224D01*
X127333152Y-81704225D01*
X127425264Y-81901762D01*
X127425267Y-81901767D01*
X127427590Y-81906749D01*
X127558915Y-82094300D01*
X127720813Y-82256198D01*
X127725321Y-82259355D01*
X127725324Y-82259357D01*
X127766655Y-82288297D01*
X127908364Y-82387523D01*
X127913346Y-82389846D01*
X127913351Y-82389849D01*
X128110888Y-82481961D01*
X128115870Y-82484284D01*
X128121178Y-82485706D01*
X128121180Y-82485707D01*
X128331711Y-82542119D01*
X128331713Y-82542119D01*
X128337026Y-82543543D01*
X128565113Y-82563498D01*
X128793200Y-82543543D01*
X128798513Y-82542119D01*
X128798515Y-82542119D01*
X129009046Y-82485707D01*
X129009048Y-82485706D01*
X129014356Y-82484284D01*
X129019338Y-82481961D01*
X129216875Y-82389849D01*
X129216880Y-82389846D01*
X129221862Y-82387523D01*
X129227315Y-82383705D01*
X129227799Y-82383541D01*
X129231132Y-82381617D01*
X129231519Y-82382287D01*
X129294587Y-82361012D01*
X129363448Y-82378293D01*
X129388850Y-82401002D01*
X129390121Y-82399731D01*
X129396471Y-82406081D01*
X129401852Y-82413261D01*
X129518408Y-82500615D01*
X129654797Y-82551745D01*
X129716979Y-82558500D01*
X131413247Y-82558500D01*
X131475429Y-82551745D01*
X131611818Y-82500615D01*
X131728374Y-82413261D01*
X131815728Y-82296705D01*
X131866858Y-82160316D01*
X131873613Y-82098134D01*
X131873613Y-80401866D01*
X131866858Y-80339684D01*
X131815728Y-80203295D01*
X131728374Y-80086739D01*
X131611818Y-79999385D01*
X131475429Y-79948255D01*
X131413247Y-79941500D01*
X129716979Y-79941500D01*
X129654797Y-79948255D01*
X129518408Y-79999385D01*
X129401852Y-80086739D01*
X129396471Y-80093919D01*
X129390121Y-80100269D01*
X129387881Y-80098029D01*
X129343548Y-80131171D01*
X129272729Y-80136190D01*
X129231323Y-80118051D01*
X129231132Y-80118383D01*
X129228149Y-80116661D01*
X129227316Y-80116296D01*
X129221862Y-80112477D01*
X129216880Y-80110154D01*
X129216875Y-80110151D01*
X129019338Y-80018039D01*
X129019337Y-80018039D01*
X129014356Y-80015716D01*
X129009048Y-80014294D01*
X129009046Y-80014293D01*
X128798515Y-79957881D01*
X128798513Y-79957881D01*
X128793200Y-79956457D01*
X128565113Y-79936502D01*
X128337026Y-79956457D01*
X128331713Y-79957881D01*
X128331711Y-79957881D01*
X128121180Y-80014293D01*
X128121178Y-80014294D01*
X128115870Y-80015716D01*
X128110889Y-80018039D01*
X128110888Y-80018039D01*
X127913351Y-80110151D01*
X127913346Y-80110154D01*
X127908364Y-80112477D01*
X127803502Y-80185902D01*
X127725324Y-80240643D01*
X127725321Y-80240645D01*
X127720813Y-80243802D01*
X127558915Y-80405700D01*
X127555758Y-80410208D01*
X127555756Y-80410211D01*
X127544152Y-80426783D01*
X127427590Y-80593251D01*
X127425267Y-80598233D01*
X127425264Y-80598238D01*
X127333152Y-80795775D01*
X127330829Y-80800757D01*
X127271570Y-81021913D01*
X127251615Y-81250000D01*
X95508500Y-81250000D01*
X95508500Y-77435774D01*
X97475602Y-77435774D01*
X97484251Y-77666158D01*
X97531593Y-77891791D01*
X97533551Y-77896750D01*
X97533552Y-77896752D01*
X97562956Y-77971206D01*
X97616276Y-78106221D01*
X97735877Y-78303317D01*
X97739374Y-78307347D01*
X97882746Y-78472569D01*
X97886977Y-78477445D01*
X97891108Y-78480832D01*
X98061127Y-78620240D01*
X98061133Y-78620244D01*
X98065255Y-78623624D01*
X98069891Y-78626263D01*
X98069894Y-78626265D01*
X98118892Y-78654156D01*
X98265614Y-78737675D01*
X98482325Y-78816337D01*
X98487574Y-78817286D01*
X98487577Y-78817287D01*
X98705108Y-78856623D01*
X98705115Y-78856624D01*
X98709192Y-78857361D01*
X98726914Y-78858197D01*
X98731856Y-78858430D01*
X98731863Y-78858430D01*
X98733344Y-78858500D01*
X98895390Y-78858500D01*
X98962309Y-78852822D01*
X99061909Y-78844371D01*
X99061913Y-78844370D01*
X99067220Y-78843920D01*
X99072375Y-78842582D01*
X99072381Y-78842581D01*
X99285203Y-78787343D01*
X99285207Y-78787342D01*
X99290372Y-78786001D01*
X99295238Y-78783809D01*
X99295241Y-78783808D01*
X99495702Y-78693507D01*
X99500575Y-78691312D01*
X99691819Y-78562559D01*
X99726014Y-78529939D01*
X99785686Y-78473014D01*
X99858635Y-78403424D01*
X99996254Y-78218458D01*
X100100740Y-78012949D01*
X100136821Y-77896752D01*
X100167524Y-77797871D01*
X100169107Y-77792773D01*
X100170024Y-77785854D01*
X100198698Y-77569511D01*
X100198698Y-77569506D01*
X100199398Y-77564226D01*
X100198490Y-77540026D01*
X100194576Y-77435774D01*
X104475602Y-77435774D01*
X104484251Y-77666158D01*
X104531593Y-77891791D01*
X104533551Y-77896750D01*
X104533552Y-77896752D01*
X104562956Y-77971206D01*
X104616276Y-78106221D01*
X104735877Y-78303317D01*
X104739374Y-78307347D01*
X104882746Y-78472569D01*
X104886977Y-78477445D01*
X104891108Y-78480832D01*
X105061127Y-78620240D01*
X105061133Y-78620244D01*
X105065255Y-78623624D01*
X105069891Y-78626263D01*
X105069894Y-78626265D01*
X105118892Y-78654156D01*
X105265614Y-78737675D01*
X105482325Y-78816337D01*
X105487574Y-78817286D01*
X105487577Y-78817287D01*
X105705108Y-78856623D01*
X105705115Y-78856624D01*
X105709192Y-78857361D01*
X105726914Y-78858197D01*
X105731856Y-78858430D01*
X105731863Y-78858430D01*
X105733344Y-78858500D01*
X105895390Y-78858500D01*
X105962309Y-78852822D01*
X106061909Y-78844371D01*
X106061913Y-78844370D01*
X106067220Y-78843920D01*
X106072375Y-78842582D01*
X106072381Y-78842581D01*
X106285203Y-78787343D01*
X106285207Y-78787342D01*
X106290372Y-78786001D01*
X106295238Y-78783809D01*
X106295241Y-78783808D01*
X106495702Y-78693507D01*
X106500575Y-78691312D01*
X106691819Y-78562559D01*
X106726014Y-78529939D01*
X106785686Y-78473014D01*
X106858635Y-78403424D01*
X106996254Y-78218458D01*
X107100740Y-78012949D01*
X107136821Y-77896752D01*
X107167524Y-77797871D01*
X107169107Y-77792773D01*
X107170024Y-77785854D01*
X107198698Y-77569511D01*
X107198698Y-77569506D01*
X107199398Y-77564226D01*
X107198490Y-77540026D01*
X107191174Y-77345166D01*
X107190749Y-77333842D01*
X107143407Y-77108209D01*
X107140578Y-77101045D01*
X107060685Y-76898744D01*
X107060684Y-76898742D01*
X107058724Y-76893779D01*
X107032932Y-76851274D01*
X106941890Y-76701243D01*
X106939123Y-76696683D01*
X106911568Y-76664928D01*
X106791523Y-76526588D01*
X106791521Y-76526586D01*
X106788023Y-76522555D01*
X106738032Y-76481565D01*
X106613873Y-76379760D01*
X106613867Y-76379756D01*
X106609745Y-76376376D01*
X106605109Y-76373737D01*
X106605106Y-76373735D01*
X106414029Y-76264968D01*
X106409386Y-76262325D01*
X106192675Y-76183663D01*
X106187426Y-76182714D01*
X106187423Y-76182713D01*
X105969892Y-76143377D01*
X105969885Y-76143376D01*
X105965808Y-76142639D01*
X105948086Y-76141803D01*
X105943144Y-76141570D01*
X105943137Y-76141570D01*
X105941656Y-76141500D01*
X105779610Y-76141500D01*
X105712691Y-76147178D01*
X105613091Y-76155629D01*
X105613087Y-76155630D01*
X105607780Y-76156080D01*
X105602625Y-76157418D01*
X105602619Y-76157419D01*
X105389797Y-76212657D01*
X105389793Y-76212658D01*
X105384628Y-76213999D01*
X105379762Y-76216191D01*
X105379759Y-76216192D01*
X105271480Y-76264968D01*
X105174425Y-76308688D01*
X104983181Y-76437441D01*
X104816365Y-76596576D01*
X104678746Y-76781542D01*
X104676330Y-76786293D01*
X104676328Y-76786297D01*
X104642186Y-76853450D01*
X104574260Y-76987051D01*
X104572678Y-76992145D01*
X104572677Y-76992148D01*
X104523987Y-77148955D01*
X104505893Y-77207227D01*
X104505192Y-77212516D01*
X104476812Y-77426646D01*
X104475602Y-77435774D01*
X100194576Y-77435774D01*
X100191174Y-77345166D01*
X100190749Y-77333842D01*
X100143407Y-77108209D01*
X100140578Y-77101045D01*
X100060685Y-76898744D01*
X100060684Y-76898742D01*
X100058724Y-76893779D01*
X100032932Y-76851274D01*
X99941890Y-76701243D01*
X99939123Y-76696683D01*
X99911568Y-76664928D01*
X99791523Y-76526588D01*
X99791521Y-76526586D01*
X99788023Y-76522555D01*
X99738032Y-76481565D01*
X99613873Y-76379760D01*
X99613867Y-76379756D01*
X99609745Y-76376376D01*
X99605109Y-76373737D01*
X99605106Y-76373735D01*
X99414029Y-76264968D01*
X99409386Y-76262325D01*
X99192675Y-76183663D01*
X99187426Y-76182714D01*
X99187423Y-76182713D01*
X98969892Y-76143377D01*
X98969885Y-76143376D01*
X98965808Y-76142639D01*
X98948086Y-76141803D01*
X98943144Y-76141570D01*
X98943137Y-76141570D01*
X98941656Y-76141500D01*
X98779610Y-76141500D01*
X98712691Y-76147178D01*
X98613091Y-76155629D01*
X98613087Y-76155630D01*
X98607780Y-76156080D01*
X98602625Y-76157418D01*
X98602619Y-76157419D01*
X98389797Y-76212657D01*
X98389793Y-76212658D01*
X98384628Y-76213999D01*
X98379762Y-76216191D01*
X98379759Y-76216192D01*
X98271480Y-76264968D01*
X98174425Y-76308688D01*
X97983181Y-76437441D01*
X97816365Y-76596576D01*
X97678746Y-76781542D01*
X97676330Y-76786293D01*
X97676328Y-76786297D01*
X97642186Y-76853450D01*
X97574260Y-76987051D01*
X97572678Y-76992145D01*
X97572677Y-76992148D01*
X97523987Y-77148955D01*
X97505893Y-77207227D01*
X97505192Y-77212516D01*
X97476812Y-77426646D01*
X97475602Y-77435774D01*
X95508500Y-77435774D01*
X95508500Y-73830000D01*
X127541615Y-73830000D01*
X127561570Y-74058087D01*
X127562994Y-74063400D01*
X127562994Y-74063402D01*
X127603724Y-74215405D01*
X127620829Y-74279243D01*
X127623152Y-74284224D01*
X127623152Y-74284225D01*
X127715264Y-74481762D01*
X127715267Y-74481767D01*
X127717590Y-74486749D01*
X127769358Y-74560681D01*
X127817586Y-74629557D01*
X127848915Y-74674300D01*
X128010813Y-74836198D01*
X128015321Y-74839355D01*
X128015324Y-74839357D01*
X128042692Y-74858520D01*
X128198364Y-74967523D01*
X128203346Y-74969846D01*
X128203351Y-74969849D01*
X128400888Y-75061961D01*
X128405870Y-75064284D01*
X128411178Y-75065706D01*
X128411180Y-75065707D01*
X128621711Y-75122119D01*
X128621713Y-75122119D01*
X128627026Y-75123543D01*
X128855113Y-75143498D01*
X129083200Y-75123543D01*
X129088513Y-75122119D01*
X129088515Y-75122119D01*
X129299046Y-75065707D01*
X129299048Y-75065706D01*
X129304356Y-75064284D01*
X129309338Y-75061961D01*
X129506875Y-74969849D01*
X129506880Y-74969846D01*
X129511862Y-74967523D01*
X129517315Y-74963705D01*
X129517799Y-74963541D01*
X129521132Y-74961617D01*
X129521519Y-74962287D01*
X129584587Y-74941012D01*
X129653448Y-74958293D01*
X129678850Y-74981002D01*
X129680121Y-74979731D01*
X129686471Y-74986081D01*
X129691852Y-74993261D01*
X129808408Y-75080615D01*
X129944797Y-75131745D01*
X130006979Y-75138500D01*
X131703247Y-75138500D01*
X131765429Y-75131745D01*
X131901818Y-75080615D01*
X132018374Y-74993261D01*
X132105728Y-74876705D01*
X132156858Y-74740316D01*
X132161141Y-74700892D01*
X132188383Y-74635330D01*
X132246747Y-74594904D01*
X132286404Y-74588500D01*
X139813629Y-74588500D01*
X139881750Y-74608502D01*
X139902724Y-74625405D01*
X144978730Y-79701411D01*
X144991116Y-79715823D01*
X144999649Y-79727418D01*
X144999654Y-79727423D01*
X145003992Y-79733318D01*
X145009570Y-79738057D01*
X145009573Y-79738060D01*
X145044268Y-79767535D01*
X145051784Y-79774465D01*
X145057479Y-79780160D01*
X145060361Y-79782440D01*
X145079751Y-79797781D01*
X145083155Y-79800572D01*
X145133203Y-79843091D01*
X145138785Y-79847833D01*
X145145301Y-79851161D01*
X145150338Y-79854520D01*
X145155477Y-79857694D01*
X145161216Y-79862234D01*
X145167849Y-79865334D01*
X145227337Y-79893136D01*
X145231291Y-79895069D01*
X145296308Y-79928269D01*
X145303424Y-79930010D01*
X145309054Y-79932104D01*
X145314821Y-79934023D01*
X145321450Y-79937121D01*
X145328610Y-79938610D01*
X145328612Y-79938611D01*
X145392896Y-79951982D01*
X145397180Y-79952952D01*
X145468110Y-79970308D01*
X145473712Y-79970656D01*
X145473715Y-79970656D01*
X145479264Y-79971000D01*
X145479262Y-79971036D01*
X145483252Y-79971275D01*
X145487450Y-79971650D01*
X145494615Y-79973140D01*
X145572004Y-79971046D01*
X145575412Y-79971000D01*
X154496129Y-79971000D01*
X154564250Y-79991002D01*
X154585224Y-80007905D01*
X160010856Y-85433537D01*
X160044882Y-85495849D01*
X160047319Y-85512089D01*
X160050972Y-85555588D01*
X160053268Y-85582934D01*
X160107783Y-85773050D01*
X160110602Y-85778535D01*
X160160179Y-85875000D01*
X160198187Y-85948956D01*
X160321035Y-86103953D01*
X160471650Y-86232136D01*
X160644294Y-86328624D01*
X160726065Y-86355193D01*
X160829436Y-86388780D01*
X160888042Y-86428853D01*
X160915679Y-86494250D01*
X160916500Y-86508613D01*
X160916500Y-96834774D01*
X160896498Y-96902895D01*
X160869453Y-96932970D01*
X160820783Y-96972102D01*
X160815975Y-96975968D01*
X160688846Y-97127474D01*
X160685879Y-97132872D01*
X160685875Y-97132877D01*
X160638423Y-97219193D01*
X160593567Y-97300787D01*
X160591706Y-97306654D01*
X160591705Y-97306656D01*
X160535627Y-97483436D01*
X160533765Y-97489306D01*
X160511719Y-97685851D01*
X160528268Y-97882934D01*
X160582783Y-98073050D01*
X160673187Y-98248956D01*
X160796035Y-98403953D01*
X160946650Y-98532136D01*
X161119294Y-98628624D01*
X161307392Y-98689740D01*
X161503777Y-98713158D01*
X161509912Y-98712686D01*
X161509914Y-98712686D01*
X161694830Y-98698457D01*
X161694834Y-98698456D01*
X161700972Y-98697984D01*
X161891463Y-98644798D01*
X161896967Y-98642018D01*
X161896969Y-98642017D01*
X162062495Y-98558404D01*
X162062497Y-98558403D01*
X162067996Y-98555625D01*
X162223847Y-98433861D01*
X162353078Y-98284145D01*
X162450769Y-98112179D01*
X162513197Y-97924513D01*
X162537985Y-97728295D01*
X162538380Y-97700000D01*
X162519080Y-97503167D01*
X162461916Y-97313831D01*
X162369066Y-97139204D01*
X162277257Y-97026635D01*
X162247960Y-96990713D01*
X162247957Y-96990710D01*
X162244065Y-96985938D01*
X162237729Y-96980696D01*
X162179185Y-96932265D01*
X162139447Y-96873431D01*
X162133500Y-96835180D01*
X162133500Y-95986000D01*
X162427157Y-95986000D01*
X162445892Y-96200142D01*
X162447316Y-96205455D01*
X162447316Y-96205457D01*
X162488826Y-96360371D01*
X162501528Y-96407777D01*
X162592374Y-96602596D01*
X162715669Y-96778681D01*
X162867669Y-96930681D01*
X163043753Y-97053976D01*
X163048731Y-97056297D01*
X163048734Y-97056299D01*
X163216283Y-97134428D01*
X163238573Y-97144822D01*
X163243881Y-97146244D01*
X163243883Y-97146245D01*
X163440893Y-97199034D01*
X163440895Y-97199034D01*
X163446208Y-97200458D01*
X163660350Y-97219193D01*
X163874492Y-97200458D01*
X163879805Y-97199034D01*
X163879807Y-97199034D01*
X164076817Y-97146245D01*
X164076819Y-97146244D01*
X164082127Y-97144822D01*
X164104417Y-97134428D01*
X164271966Y-97056299D01*
X164271969Y-97056297D01*
X164276947Y-97053976D01*
X164333152Y-97014621D01*
X165536283Y-97014621D01*
X165545577Y-97026635D01*
X165579496Y-97050385D01*
X165588991Y-97055868D01*
X165773763Y-97142028D01*
X165784055Y-97145774D01*
X165980982Y-97198540D01*
X165991775Y-97200443D01*
X166194875Y-97218212D01*
X166205825Y-97218212D01*
X166408925Y-97200443D01*
X166419718Y-97198540D01*
X166616645Y-97145774D01*
X166626937Y-97142028D01*
X166811709Y-97055868D01*
X166821204Y-97050385D01*
X166855957Y-97026051D01*
X166864333Y-97015572D01*
X166857266Y-97002127D01*
X166213161Y-96358021D01*
X166199218Y-96350408D01*
X166197384Y-96350539D01*
X166190770Y-96354790D01*
X165542710Y-97002851D01*
X165536283Y-97014621D01*
X164333152Y-97014621D01*
X164453031Y-96930681D01*
X164605031Y-96778681D01*
X164728326Y-96602596D01*
X164787005Y-96476759D01*
X164816431Y-96413656D01*
X164863349Y-96360371D01*
X164931626Y-96340910D01*
X164999586Y-96361452D01*
X165044821Y-96413656D01*
X165130485Y-96597364D01*
X165135963Y-96606850D01*
X165160299Y-96641607D01*
X165170778Y-96649983D01*
X165184222Y-96642917D01*
X165828329Y-95998811D01*
X165834706Y-95987132D01*
X166564758Y-95987132D01*
X166564889Y-95988966D01*
X166569140Y-95995580D01*
X167217201Y-96643640D01*
X167228971Y-96650067D01*
X167240985Y-96640772D01*
X167264737Y-96606850D01*
X167270215Y-96597364D01*
X167355879Y-96413656D01*
X167402796Y-96360371D01*
X167471074Y-96340910D01*
X167539033Y-96361452D01*
X167584269Y-96413656D01*
X167613695Y-96476759D01*
X167672374Y-96602596D01*
X167795669Y-96778681D01*
X167947669Y-96930681D01*
X168123753Y-97053976D01*
X168128731Y-97056297D01*
X168128734Y-97056299D01*
X168296283Y-97134428D01*
X168318573Y-97144822D01*
X168323881Y-97146244D01*
X168323883Y-97146245D01*
X168520893Y-97199034D01*
X168520895Y-97199034D01*
X168526208Y-97200458D01*
X168740350Y-97219193D01*
X168954492Y-97200458D01*
X168959805Y-97199034D01*
X168959807Y-97199034D01*
X169156817Y-97146245D01*
X169156819Y-97146244D01*
X169162127Y-97144822D01*
X169184417Y-97134428D01*
X169351966Y-97056299D01*
X169351969Y-97056297D01*
X169356947Y-97053976D01*
X169533031Y-96930681D01*
X169682307Y-96781405D01*
X169744619Y-96747379D01*
X169771402Y-96744500D01*
X172694629Y-96744500D01*
X172762750Y-96764502D01*
X172783724Y-96781405D01*
X176060856Y-100058537D01*
X176094882Y-100120849D01*
X176097319Y-100137089D01*
X176103268Y-100207934D01*
X176104967Y-100213858D01*
X176152712Y-100380365D01*
X176157783Y-100398050D01*
X176174885Y-100431326D01*
X176244891Y-100567542D01*
X176248187Y-100573956D01*
X176371035Y-100728953D01*
X176375728Y-100732947D01*
X176375729Y-100732948D01*
X176377136Y-100734145D01*
X176521650Y-100857136D01*
X176694294Y-100953624D01*
X176882392Y-101014740D01*
X177078777Y-101038158D01*
X177084912Y-101037686D01*
X177084914Y-101037686D01*
X177269830Y-101023457D01*
X177269834Y-101023456D01*
X177275972Y-101022984D01*
X177466463Y-100969798D01*
X177471967Y-100967018D01*
X177471969Y-100967017D01*
X177637495Y-100883404D01*
X177637497Y-100883403D01*
X177642996Y-100880625D01*
X177798847Y-100758861D01*
X177928078Y-100609145D01*
X178025769Y-100437179D01*
X178088197Y-100249513D01*
X178112985Y-100053295D01*
X178113380Y-100025000D01*
X178094080Y-99828167D01*
X178036916Y-99638831D01*
X177944066Y-99464204D01*
X177862094Y-99363697D01*
X177822960Y-99315713D01*
X177822957Y-99315710D01*
X177819065Y-99310938D01*
X177812974Y-99305899D01*
X177671425Y-99188799D01*
X177671421Y-99188797D01*
X177666675Y-99184870D01*
X177492701Y-99090802D01*
X177303768Y-99032318D01*
X177297646Y-99031675D01*
X177297643Y-99031674D01*
X177252878Y-99026969D01*
X177209836Y-99022446D01*
X177144180Y-98995433D01*
X177133912Y-98986231D01*
X173644770Y-95497089D01*
X173632384Y-95482677D01*
X173623851Y-95471082D01*
X173623846Y-95471077D01*
X173619508Y-95465182D01*
X173613930Y-95460443D01*
X173613927Y-95460440D01*
X173579232Y-95430965D01*
X173571716Y-95424035D01*
X173566021Y-95418340D01*
X173559880Y-95413482D01*
X173543749Y-95400719D01*
X173540345Y-95397928D01*
X173490297Y-95355409D01*
X173490295Y-95355408D01*
X173484715Y-95350667D01*
X173478199Y-95347339D01*
X173473150Y-95343972D01*
X173468021Y-95340805D01*
X173462284Y-95336266D01*
X173396125Y-95305345D01*
X173392225Y-95303439D01*
X173327192Y-95270231D01*
X173320084Y-95268492D01*
X173314441Y-95266393D01*
X173308678Y-95264476D01*
X173302050Y-95261378D01*
X173230583Y-95246513D01*
X173226299Y-95245543D01*
X173155390Y-95228192D01*
X173149788Y-95227844D01*
X173149785Y-95227844D01*
X173144236Y-95227500D01*
X173144238Y-95227464D01*
X173140245Y-95227225D01*
X173136053Y-95226851D01*
X173128885Y-95225360D01*
X173062675Y-95227151D01*
X173051479Y-95227454D01*
X173048072Y-95227500D01*
X169771402Y-95227500D01*
X169703281Y-95207498D01*
X169682307Y-95190595D01*
X169533031Y-95041319D01*
X169356947Y-94918024D01*
X169351969Y-94915703D01*
X169351966Y-94915701D01*
X169167109Y-94829501D01*
X169167108Y-94829500D01*
X169162127Y-94827178D01*
X169156819Y-94825756D01*
X169156817Y-94825755D01*
X168959807Y-94772966D01*
X168959805Y-94772966D01*
X168954492Y-94771542D01*
X168740350Y-94752807D01*
X168526208Y-94771542D01*
X168520895Y-94772966D01*
X168520893Y-94772966D01*
X168323883Y-94825755D01*
X168323881Y-94825756D01*
X168318573Y-94827178D01*
X168313593Y-94829500D01*
X168313591Y-94829501D01*
X168128735Y-94915701D01*
X168128732Y-94915703D01*
X168123754Y-94918024D01*
X167947669Y-95041319D01*
X167795669Y-95193319D01*
X167672374Y-95369404D01*
X167670053Y-95374382D01*
X167670051Y-95374385D01*
X167584269Y-95558344D01*
X167537351Y-95611629D01*
X167469074Y-95631090D01*
X167401114Y-95610548D01*
X167355879Y-95558344D01*
X167270215Y-95374636D01*
X167264737Y-95365150D01*
X167240401Y-95330393D01*
X167229922Y-95322017D01*
X167216478Y-95329083D01*
X166572371Y-95973189D01*
X166564758Y-95987132D01*
X165834706Y-95987132D01*
X165835942Y-95984868D01*
X165835811Y-95983034D01*
X165831560Y-95976420D01*
X165183499Y-95328360D01*
X165171729Y-95321933D01*
X165159715Y-95331228D01*
X165135963Y-95365150D01*
X165130485Y-95374636D01*
X165044821Y-95558344D01*
X164997904Y-95611629D01*
X164929626Y-95631090D01*
X164861667Y-95610548D01*
X164816431Y-95558344D01*
X164730649Y-95374385D01*
X164730647Y-95374382D01*
X164728326Y-95369404D01*
X164605031Y-95193319D01*
X164453031Y-95041319D01*
X164331794Y-94956428D01*
X165536367Y-94956428D01*
X165543433Y-94969872D01*
X166187539Y-95613979D01*
X166201482Y-95621592D01*
X166203316Y-95621461D01*
X166209930Y-95617210D01*
X166857990Y-94969149D01*
X166864417Y-94957379D01*
X166855123Y-94945365D01*
X166821204Y-94921615D01*
X166811709Y-94916132D01*
X166626937Y-94829972D01*
X166616645Y-94826226D01*
X166419718Y-94773460D01*
X166408925Y-94771557D01*
X166205825Y-94753788D01*
X166194875Y-94753788D01*
X165991775Y-94771557D01*
X165980982Y-94773460D01*
X165784055Y-94826226D01*
X165773763Y-94829972D01*
X165588986Y-94916135D01*
X165579500Y-94921613D01*
X165544743Y-94945949D01*
X165536367Y-94956428D01*
X164331794Y-94956428D01*
X164276947Y-94918024D01*
X164271969Y-94915703D01*
X164271966Y-94915701D01*
X164087109Y-94829501D01*
X164087108Y-94829500D01*
X164082127Y-94827178D01*
X164076819Y-94825756D01*
X164076817Y-94825755D01*
X163879807Y-94772966D01*
X163879805Y-94772966D01*
X163874492Y-94771542D01*
X163660350Y-94752807D01*
X163446208Y-94771542D01*
X163440895Y-94772966D01*
X163440893Y-94772966D01*
X163243883Y-94825755D01*
X163243881Y-94825756D01*
X163238573Y-94827178D01*
X163233593Y-94829500D01*
X163233591Y-94829501D01*
X163048735Y-94915701D01*
X163048732Y-94915703D01*
X163043754Y-94918024D01*
X162867669Y-95041319D01*
X162715669Y-95193319D01*
X162592374Y-95369404D01*
X162590053Y-95374382D01*
X162590051Y-95374385D01*
X162535978Y-95490345D01*
X162501528Y-95564223D01*
X162500106Y-95569531D01*
X162500105Y-95569533D01*
X162471047Y-95677979D01*
X162445892Y-95771858D01*
X162427157Y-95986000D01*
X162133500Y-95986000D01*
X162133500Y-93285851D01*
X167911719Y-93285851D01*
X167912235Y-93291995D01*
X167918911Y-93371495D01*
X167928268Y-93482934D01*
X167942605Y-93532934D01*
X167963375Y-93605365D01*
X167982783Y-93673050D01*
X168073187Y-93848956D01*
X168196035Y-94003953D01*
X168200728Y-94007947D01*
X168200729Y-94007948D01*
X168318878Y-94108500D01*
X168346650Y-94132136D01*
X168519294Y-94228624D01*
X168707392Y-94289740D01*
X168903777Y-94313158D01*
X168909912Y-94312686D01*
X168909914Y-94312686D01*
X169094830Y-94298457D01*
X169094834Y-94298456D01*
X169100972Y-94297984D01*
X169291463Y-94244798D01*
X169296967Y-94242018D01*
X169296969Y-94242017D01*
X169462495Y-94158404D01*
X169462497Y-94158403D01*
X169467996Y-94155625D01*
X169623847Y-94033861D01*
X169694361Y-93952169D01*
X169754014Y-93913672D01*
X169789743Y-93908500D01*
X171526864Y-93908500D01*
X171543307Y-93909578D01*
X171575000Y-93913750D01*
X171583189Y-93912672D01*
X171614874Y-93908501D01*
X171614884Y-93908500D01*
X171614885Y-93908500D01*
X171714457Y-93895391D01*
X171725664Y-93893916D01*
X171725666Y-93893915D01*
X171733851Y-93892838D01*
X171881876Y-93831524D01*
X171977072Y-93758477D01*
X171977075Y-93758474D01*
X172008987Y-93733987D01*
X172014017Y-93727432D01*
X172028452Y-93708621D01*
X172039319Y-93696230D01*
X173921234Y-91814315D01*
X173933616Y-91803455D01*
X173958271Y-91784536D01*
X174024489Y-91758937D01*
X174034973Y-91758500D01*
X175193021Y-91758500D01*
X175255203Y-91751745D01*
X175391592Y-91700615D01*
X175449957Y-91656873D01*
X175500965Y-91618645D01*
X175500968Y-91618642D01*
X175508148Y-91613261D01*
X175513529Y-91606081D01*
X175519880Y-91599730D01*
X175522022Y-91601872D01*
X175566733Y-91568436D01*
X175637551Y-91563406D01*
X175678922Y-91581523D01*
X175679119Y-91581182D01*
X175682185Y-91582952D01*
X175682977Y-91583299D01*
X175683876Y-91583929D01*
X175693376Y-91589414D01*
X175890834Y-91681490D01*
X175901126Y-91685236D01*
X176111575Y-91741625D01*
X176122368Y-91743528D01*
X176339412Y-91762517D01*
X176350362Y-91762517D01*
X176567406Y-91743528D01*
X176578199Y-91741625D01*
X176788648Y-91685236D01*
X176798940Y-91681490D01*
X176996398Y-91589414D01*
X177005893Y-91583931D01*
X177057935Y-91547491D01*
X177066311Y-91537012D01*
X177059243Y-91523566D01*
X176074772Y-90539095D01*
X176040746Y-90476783D01*
X176042581Y-90451132D01*
X176709295Y-90451132D01*
X176709426Y-90452965D01*
X176713677Y-90459580D01*
X177419174Y-91165077D01*
X177430949Y-91171507D01*
X177442964Y-91162211D01*
X177478818Y-91111006D01*
X177484301Y-91101511D01*
X177576377Y-90904053D01*
X177580123Y-90893761D01*
X177636512Y-90683312D01*
X177638415Y-90672519D01*
X177657404Y-90455475D01*
X177657404Y-90444525D01*
X177638415Y-90227481D01*
X177636512Y-90216688D01*
X177580123Y-90006239D01*
X177576377Y-89995947D01*
X177484301Y-89798489D01*
X177478818Y-89788994D01*
X177442378Y-89736952D01*
X177431899Y-89728576D01*
X177418453Y-89735644D01*
X176716909Y-90437188D01*
X176709295Y-90451132D01*
X176042581Y-90451132D01*
X176045811Y-90405968D01*
X176074772Y-90360905D01*
X177059964Y-89375713D01*
X177066394Y-89363938D01*
X177057098Y-89351923D01*
X177005893Y-89316069D01*
X176996398Y-89310586D01*
X176798940Y-89218510D01*
X176788648Y-89214764D01*
X176578199Y-89158375D01*
X176567406Y-89156472D01*
X176350362Y-89137483D01*
X176339412Y-89137483D01*
X176122368Y-89156472D01*
X176111575Y-89158375D01*
X175901126Y-89214764D01*
X175890834Y-89218510D01*
X175693376Y-89310586D01*
X175683876Y-89316071D01*
X175682977Y-89316701D01*
X175682517Y-89316856D01*
X175679119Y-89318818D01*
X175678725Y-89318135D01*
X175615703Y-89339388D01*
X175546843Y-89322102D01*
X175521084Y-89299066D01*
X175519880Y-89300270D01*
X175513529Y-89293919D01*
X175508148Y-89286739D01*
X175500968Y-89281358D01*
X175500965Y-89281355D01*
X175412112Y-89214764D01*
X175391592Y-89199385D01*
X175255203Y-89148255D01*
X175193021Y-89141500D01*
X173496753Y-89141500D01*
X173434571Y-89148255D01*
X173298182Y-89199385D01*
X173181626Y-89286739D01*
X173094272Y-89403295D01*
X173043142Y-89539684D01*
X173036387Y-89601866D01*
X173036387Y-90864317D01*
X173016385Y-90932438D01*
X173010349Y-90941021D01*
X172993476Y-90963011D01*
X172990317Y-90970637D01*
X172990316Y-90970639D01*
X172962080Y-91038808D01*
X172934766Y-91079685D01*
X171359856Y-92654595D01*
X171297544Y-92688621D01*
X171270761Y-92691500D01*
X169789989Y-92691500D01*
X169721868Y-92671498D01*
X169692346Y-92645136D01*
X169647960Y-92590713D01*
X169647957Y-92590710D01*
X169644065Y-92585938D01*
X169637724Y-92580692D01*
X169496425Y-92463799D01*
X169496421Y-92463797D01*
X169491675Y-92459870D01*
X169317701Y-92365802D01*
X169128768Y-92307318D01*
X169122643Y-92306674D01*
X169122642Y-92306674D01*
X168938204Y-92287289D01*
X168938202Y-92287289D01*
X168932075Y-92286645D01*
X168849576Y-92294153D01*
X168741251Y-92304011D01*
X168741248Y-92304012D01*
X168735112Y-92304570D01*
X168729206Y-92306308D01*
X168729202Y-92306309D01*
X168626129Y-92336645D01*
X168545381Y-92360410D01*
X168539923Y-92363263D01*
X168539919Y-92363265D01*
X168453069Y-92408670D01*
X168370110Y-92452040D01*
X168215975Y-92575968D01*
X168088846Y-92727474D01*
X168085879Y-92732872D01*
X168085875Y-92732877D01*
X168041166Y-92814204D01*
X167993567Y-92900787D01*
X167991706Y-92906654D01*
X167991705Y-92906656D01*
X167960531Y-93004930D01*
X167933765Y-93089306D01*
X167911719Y-93285851D01*
X162133500Y-93285851D01*
X162133500Y-85923136D01*
X162134578Y-85906690D01*
X162137672Y-85883188D01*
X162138750Y-85875000D01*
X162133500Y-85835122D01*
X162133500Y-85835115D01*
X162117838Y-85716150D01*
X162060723Y-85578262D01*
X162052126Y-85514252D01*
X162058204Y-85466142D01*
X162062985Y-85428295D01*
X162063380Y-85400000D01*
X162044080Y-85203167D01*
X161986916Y-85013831D01*
X161894066Y-84839204D01*
X161823709Y-84752938D01*
X161772960Y-84690713D01*
X161772957Y-84690710D01*
X161769065Y-84685938D01*
X161764316Y-84682009D01*
X161621425Y-84563799D01*
X161621421Y-84563797D01*
X161616675Y-84559870D01*
X161442701Y-84465802D01*
X161253768Y-84407318D01*
X161247646Y-84406675D01*
X161247643Y-84406674D01*
X161202878Y-84401969D01*
X161159836Y-84397446D01*
X161094180Y-84370433D01*
X161083912Y-84361231D01*
X156782587Y-80059906D01*
X179804839Y-80059906D01*
X179813553Y-80071427D01*
X179920452Y-80149809D01*
X179928351Y-80154745D01*
X180157905Y-80275519D01*
X180166454Y-80279236D01*
X180411327Y-80364749D01*
X180420336Y-80367163D01*
X180675166Y-80415544D01*
X180684423Y-80416598D01*
X180943607Y-80426783D01*
X180952921Y-80426457D01*
X181210753Y-80398220D01*
X181219930Y-80396519D01*
X181470758Y-80330481D01*
X181479574Y-80327445D01*
X181717880Y-80225062D01*
X181726167Y-80220748D01*
X181946718Y-80084266D01*
X181954268Y-80078780D01*
X181959559Y-80074301D01*
X181967997Y-80061497D01*
X181967065Y-80059906D01*
X184884839Y-80059906D01*
X184893553Y-80071427D01*
X185000452Y-80149809D01*
X185008351Y-80154745D01*
X185237905Y-80275519D01*
X185246454Y-80279236D01*
X185491327Y-80364749D01*
X185500336Y-80367163D01*
X185755166Y-80415544D01*
X185764423Y-80416598D01*
X186023607Y-80426783D01*
X186032921Y-80426457D01*
X186290753Y-80398220D01*
X186299930Y-80396519D01*
X186550758Y-80330481D01*
X186559574Y-80327445D01*
X186797880Y-80225062D01*
X186806167Y-80220748D01*
X187026718Y-80084266D01*
X187034268Y-80078780D01*
X187039559Y-80074301D01*
X187047997Y-80061497D01*
X187041935Y-80051145D01*
X185977812Y-78987022D01*
X185963868Y-78979408D01*
X185962035Y-78979539D01*
X185955420Y-78983790D01*
X184891497Y-80047713D01*
X184884839Y-80059906D01*
X181967065Y-80059906D01*
X181961935Y-80051145D01*
X180897812Y-78987022D01*
X180883868Y-78979408D01*
X180882035Y-78979539D01*
X180875420Y-78983790D01*
X179811497Y-80047713D01*
X179804839Y-80059906D01*
X156782587Y-80059906D01*
X155446270Y-78723589D01*
X155433884Y-78709177D01*
X155425351Y-78697582D01*
X155425346Y-78697577D01*
X155421008Y-78691682D01*
X155415430Y-78686943D01*
X155415427Y-78686940D01*
X155380732Y-78657465D01*
X155373216Y-78650535D01*
X155367521Y-78644840D01*
X155361380Y-78639982D01*
X155345249Y-78627219D01*
X155341845Y-78624428D01*
X155291797Y-78581909D01*
X155291795Y-78581908D01*
X155286215Y-78577167D01*
X155279699Y-78573839D01*
X155274650Y-78570472D01*
X155269521Y-78567305D01*
X155263784Y-78562766D01*
X155197625Y-78531845D01*
X155193725Y-78529939D01*
X155128692Y-78496731D01*
X155121584Y-78494992D01*
X155115941Y-78492893D01*
X155110178Y-78490976D01*
X155103550Y-78487878D01*
X155032083Y-78473013D01*
X155027799Y-78472043D01*
X154956890Y-78454692D01*
X154951288Y-78454344D01*
X154951285Y-78454344D01*
X154945736Y-78454000D01*
X154945738Y-78453964D01*
X154941745Y-78453725D01*
X154937553Y-78453351D01*
X154930385Y-78451860D01*
X154864175Y-78453651D01*
X154852979Y-78453954D01*
X154849572Y-78454000D01*
X145928871Y-78454000D01*
X145860750Y-78433998D01*
X145839776Y-78417095D01*
X145197681Y-77775000D01*
X166686496Y-77775000D01*
X166687186Y-77781565D01*
X166698223Y-77886572D01*
X166706458Y-77964928D01*
X166765473Y-78146556D01*
X166860960Y-78311944D01*
X166988747Y-78453866D01*
X167087843Y-78525864D01*
X167134375Y-78559671D01*
X167143248Y-78566118D01*
X167149276Y-78568802D01*
X167149278Y-78568803D01*
X167311681Y-78641109D01*
X167317712Y-78643794D01*
X167382029Y-78657465D01*
X167498056Y-78682128D01*
X167498061Y-78682128D01*
X167504513Y-78683500D01*
X167695487Y-78683500D01*
X167701939Y-78682128D01*
X167701944Y-78682128D01*
X167817971Y-78657465D01*
X167882288Y-78643794D01*
X167888319Y-78641109D01*
X168043067Y-78572211D01*
X179072775Y-78572211D01*
X179085220Y-78831288D01*
X179086356Y-78840543D01*
X179136961Y-79094945D01*
X179139449Y-79103917D01*
X179227095Y-79348033D01*
X179230895Y-79356568D01*
X179353658Y-79585042D01*
X179358666Y-79592904D01*
X179428720Y-79686716D01*
X179439979Y-79695165D01*
X179452397Y-79688393D01*
X180512978Y-78627812D01*
X180520592Y-78613868D01*
X180520461Y-78612035D01*
X180516210Y-78605420D01*
X179450816Y-77540026D01*
X179437507Y-77532758D01*
X179427472Y-77539878D01*
X179411937Y-77558556D01*
X179406531Y-77566135D01*
X179271965Y-77787891D01*
X179267736Y-77796192D01*
X179167432Y-78035389D01*
X179164471Y-78044239D01*
X179100628Y-78295625D01*
X179099006Y-78304822D01*
X179073020Y-78562885D01*
X179072775Y-78572211D01*
X168043067Y-78572211D01*
X168050722Y-78568803D01*
X168050724Y-78568802D01*
X168056752Y-78566118D01*
X168065626Y-78559671D01*
X168112157Y-78525864D01*
X168211253Y-78453866D01*
X168339040Y-78311944D01*
X168434527Y-78146556D01*
X168493542Y-77964928D01*
X168501778Y-77886572D01*
X168512814Y-77781565D01*
X168513504Y-77775000D01*
X168513316Y-77773214D01*
X168532816Y-77706804D01*
X168549719Y-77685830D01*
X168956042Y-77279507D01*
X169018354Y-77245481D01*
X169089169Y-77250546D01*
X169108141Y-77259485D01*
X169112903Y-77262235D01*
X169118248Y-77266118D01*
X169124277Y-77268802D01*
X169124280Y-77268804D01*
X169286681Y-77341109D01*
X169292712Y-77343794D01*
X169386112Y-77363647D01*
X169473056Y-77382128D01*
X169473061Y-77382128D01*
X169479513Y-77383500D01*
X169670487Y-77383500D01*
X169676939Y-77382128D01*
X169676944Y-77382128D01*
X169763888Y-77363647D01*
X169857288Y-77343794D01*
X169863319Y-77341109D01*
X170025722Y-77268803D01*
X170025724Y-77268802D01*
X170031752Y-77266118D01*
X170186253Y-77153866D01*
X170190675Y-77148955D01*
X170309621Y-77016852D01*
X170309622Y-77016851D01*
X170314040Y-77011944D01*
X170398722Y-76865271D01*
X170406223Y-76852279D01*
X170406224Y-76852278D01*
X170409527Y-76846556D01*
X170468542Y-76664928D01*
X170475277Y-76600854D01*
X170487814Y-76481565D01*
X170488504Y-76475000D01*
X170475044Y-76346934D01*
X170469232Y-76291635D01*
X170469232Y-76291633D01*
X170468542Y-76285072D01*
X170409527Y-76103444D01*
X170395282Y-76078770D01*
X170328474Y-75963056D01*
X170314040Y-75938056D01*
X170308196Y-75931565D01*
X170190675Y-75801045D01*
X170190674Y-75801044D01*
X170186253Y-75796134D01*
X170031752Y-75683882D01*
X170025724Y-75681198D01*
X170025722Y-75681197D01*
X169863319Y-75608891D01*
X169863318Y-75608891D01*
X169857288Y-75606206D01*
X169763887Y-75586353D01*
X169676944Y-75567872D01*
X169676939Y-75567872D01*
X169670487Y-75566500D01*
X169479513Y-75566500D01*
X169473061Y-75567872D01*
X169473056Y-75567872D01*
X169386113Y-75586353D01*
X169292712Y-75606206D01*
X169286682Y-75608891D01*
X169286681Y-75608891D01*
X169124278Y-75681197D01*
X169124276Y-75681198D01*
X169118248Y-75683882D01*
X168963747Y-75796134D01*
X168959333Y-75801036D01*
X168959331Y-75801038D01*
X168936907Y-75825942D01*
X168876461Y-75863180D01*
X168859718Y-75866552D01*
X168785926Y-75876267D01*
X168741149Y-75882162D01*
X168593124Y-75943476D01*
X168567607Y-75963056D01*
X168497937Y-76016515D01*
X168497921Y-76016529D01*
X168472566Y-76035984D01*
X168472563Y-76035987D01*
X168466013Y-76041013D01*
X168460983Y-76047568D01*
X168446548Y-76066379D01*
X168435681Y-76078770D01*
X167684856Y-76829595D01*
X167622544Y-76863621D01*
X167595761Y-76866500D01*
X167504513Y-76866500D01*
X167498061Y-76867872D01*
X167498056Y-76867872D01*
X167411112Y-76886353D01*
X167317712Y-76906206D01*
X167311682Y-76908891D01*
X167311681Y-76908891D01*
X167149278Y-76981197D01*
X167149276Y-76981198D01*
X167143248Y-76983882D01*
X166988747Y-77096134D01*
X166984326Y-77101044D01*
X166984325Y-77101045D01*
X166888719Y-77207227D01*
X166860960Y-77238056D01*
X166765473Y-77403444D01*
X166706458Y-77585072D01*
X166705768Y-77591633D01*
X166705768Y-77591635D01*
X166690762Y-77734412D01*
X166686496Y-77775000D01*
X145197681Y-77775000D01*
X143347681Y-75925000D01*
X162761496Y-75925000D01*
X162781458Y-76114928D01*
X162840473Y-76296556D01*
X162935960Y-76461944D01*
X162940378Y-76466851D01*
X162940379Y-76466852D01*
X162970226Y-76500000D01*
X163063747Y-76603866D01*
X163138758Y-76658365D01*
X163190842Y-76696206D01*
X163218248Y-76716118D01*
X163224276Y-76718802D01*
X163224278Y-76718803D01*
X163356730Y-76777774D01*
X163392712Y-76793794D01*
X163463159Y-76808768D01*
X163573056Y-76832128D01*
X163573061Y-76832128D01*
X163579513Y-76833500D01*
X163770487Y-76833500D01*
X163776939Y-76832128D01*
X163776944Y-76832128D01*
X163886841Y-76808768D01*
X163957288Y-76793794D01*
X163993270Y-76777774D01*
X164125722Y-76718803D01*
X164125724Y-76718802D01*
X164131752Y-76716118D01*
X164159159Y-76696206D01*
X164211242Y-76658365D01*
X164286253Y-76603866D01*
X164379774Y-76500000D01*
X164409621Y-76466852D01*
X164409622Y-76466851D01*
X164414040Y-76461944D01*
X164509527Y-76296556D01*
X164568542Y-76114928D01*
X164588504Y-75925000D01*
X164588316Y-75923214D01*
X164607816Y-75856804D01*
X164624719Y-75835830D01*
X166245143Y-74215405D01*
X166307455Y-74181380D01*
X166334238Y-74178500D01*
X171569290Y-74178500D01*
X171637411Y-74198502D01*
X171662926Y-74220189D01*
X171683662Y-74243218D01*
X171688747Y-74248866D01*
X171694086Y-74252745D01*
X171823723Y-74346932D01*
X171843248Y-74361118D01*
X171849276Y-74363802D01*
X171849278Y-74363803D01*
X172011681Y-74436109D01*
X172017712Y-74438794D01*
X172106507Y-74457668D01*
X172198056Y-74477128D01*
X172198061Y-74477128D01*
X172204513Y-74478500D01*
X172290761Y-74478500D01*
X172358882Y-74498502D01*
X172379856Y-74515405D01*
X173104595Y-75240144D01*
X173138621Y-75302456D01*
X173141500Y-75329239D01*
X173141500Y-75769710D01*
X173121498Y-75837831D01*
X173109136Y-75854020D01*
X173024062Y-75948505D01*
X173010960Y-75963056D01*
X172915473Y-76128444D01*
X172856458Y-76310072D01*
X172855768Y-76316633D01*
X172855768Y-76316635D01*
X172843384Y-76434461D01*
X172836496Y-76500000D01*
X172837186Y-76506565D01*
X172853141Y-76658365D01*
X172856458Y-76689928D01*
X172915473Y-76871556D01*
X172918776Y-76877278D01*
X172918777Y-76877279D01*
X172942696Y-76918707D01*
X173010960Y-77036944D01*
X173015378Y-77041851D01*
X173015379Y-77041852D01*
X173061280Y-77092830D01*
X173138747Y-77178866D01*
X173220215Y-77238056D01*
X173262536Y-77268804D01*
X173293248Y-77291118D01*
X173299276Y-77293802D01*
X173299278Y-77293803D01*
X173414642Y-77345166D01*
X173467712Y-77368794D01*
X173561113Y-77388647D01*
X173648056Y-77407128D01*
X173648061Y-77407128D01*
X173654513Y-77408500D01*
X173845487Y-77408500D01*
X173851939Y-77407128D01*
X173851944Y-77407128D01*
X173938888Y-77388647D01*
X174032288Y-77368794D01*
X174085358Y-77345166D01*
X174200722Y-77293803D01*
X174200724Y-77293802D01*
X174206752Y-77291118D01*
X174237465Y-77268804D01*
X174279785Y-77238056D01*
X174361253Y-77178866D01*
X174371317Y-77167689D01*
X179802102Y-77167689D01*
X179806675Y-77177465D01*
X182321094Y-79691884D01*
X182333474Y-79698644D01*
X182341815Y-79692400D01*
X182475832Y-79484048D01*
X182480275Y-79475864D01*
X182586807Y-79239370D01*
X182589997Y-79230605D01*
X182660402Y-78980972D01*
X182662262Y-78971830D01*
X182695187Y-78713019D01*
X182695668Y-78706733D01*
X182697987Y-78618160D01*
X182697836Y-78611851D01*
X182678501Y-78351663D01*
X182677125Y-78342457D01*
X182619878Y-78089467D01*
X182617154Y-78080556D01*
X182523143Y-77838806D01*
X182519132Y-77830397D01*
X182429200Y-77673049D01*
X182412763Y-77603982D01*
X182436276Y-77536992D01*
X182492274Y-77493348D01*
X182562978Y-77486908D01*
X182597260Y-77499018D01*
X182817684Y-77614989D01*
X182817689Y-77614991D01*
X182821834Y-77617172D01*
X183068590Y-77703344D01*
X183073183Y-77704216D01*
X183320785Y-77751224D01*
X183320788Y-77751224D01*
X183325374Y-77752095D01*
X183455959Y-77757226D01*
X183581875Y-77762174D01*
X183581881Y-77762174D01*
X183586543Y-77762357D01*
X183665977Y-77753657D01*
X183841707Y-77734412D01*
X183841712Y-77734411D01*
X183846360Y-77733902D01*
X183959116Y-77704216D01*
X184094594Y-77668548D01*
X184094596Y-77668547D01*
X184099117Y-77667357D01*
X184103416Y-77665510D01*
X184103419Y-77665509D01*
X184181733Y-77631863D01*
X184252217Y-77623351D01*
X184316114Y-77654297D01*
X184353138Y-77714875D01*
X184351533Y-77785854D01*
X184347667Y-77796357D01*
X184247432Y-78035389D01*
X184244471Y-78044239D01*
X184180628Y-78295625D01*
X184179006Y-78304822D01*
X184153020Y-78562885D01*
X184152775Y-78572211D01*
X184165220Y-78831288D01*
X184166356Y-78840543D01*
X184216961Y-79094945D01*
X184219449Y-79103917D01*
X184307095Y-79348033D01*
X184310895Y-79356568D01*
X184433658Y-79585042D01*
X184438666Y-79592904D01*
X184508720Y-79686716D01*
X184519979Y-79695165D01*
X184532397Y-79688393D01*
X185604658Y-78616132D01*
X186329408Y-78616132D01*
X186329539Y-78617965D01*
X186333790Y-78624580D01*
X187401094Y-79691884D01*
X187413474Y-79698644D01*
X187421815Y-79692400D01*
X187555832Y-79484048D01*
X187560275Y-79475864D01*
X187666807Y-79239370D01*
X187669997Y-79230605D01*
X187740402Y-78980972D01*
X187742262Y-78971830D01*
X187775187Y-78713019D01*
X187775668Y-78706733D01*
X187777987Y-78618160D01*
X187777836Y-78611851D01*
X187758501Y-78351663D01*
X187757125Y-78342457D01*
X187699878Y-78089467D01*
X187697154Y-78080556D01*
X187603143Y-77838806D01*
X187599132Y-77830397D01*
X187470422Y-77605202D01*
X187465211Y-77597476D01*
X187421996Y-77542658D01*
X187410071Y-77534187D01*
X187398537Y-77540673D01*
X186337022Y-78602188D01*
X186329408Y-78616132D01*
X185604658Y-78616132D01*
X187039349Y-77181441D01*
X187045733Y-77169751D01*
X187036321Y-77157641D01*
X186889045Y-77055471D01*
X186881010Y-77050738D01*
X186648376Y-76936016D01*
X186639743Y-76932528D01*
X186392703Y-76853450D01*
X186383643Y-76851274D01*
X186127630Y-76809580D01*
X186118343Y-76808768D01*
X185858992Y-76805373D01*
X185849681Y-76805943D01*
X185592682Y-76840919D01*
X185583546Y-76842860D01*
X185334543Y-76915439D01*
X185325806Y-76918705D01*
X185271046Y-76943950D01*
X185200808Y-76954305D01*
X185136122Y-76925043D01*
X185097526Y-76865454D01*
X185097272Y-76794458D01*
X185103412Y-76777774D01*
X185180160Y-76607398D01*
X185180160Y-76607397D01*
X185182083Y-76603129D01*
X185218036Y-76475651D01*
X185251760Y-76356076D01*
X185251761Y-76356073D01*
X185253030Y-76351572D01*
X185270252Y-76216192D01*
X185285616Y-76095421D01*
X185285616Y-76095417D01*
X185286014Y-76092291D01*
X185288431Y-76000000D01*
X185288197Y-75996851D01*
X185269407Y-75744000D01*
X185269406Y-75743996D01*
X185269061Y-75739348D01*
X185257725Y-75689248D01*
X185212408Y-75488980D01*
X185211377Y-75484423D01*
X185194279Y-75440455D01*
X185176594Y-75394976D01*
X185170547Y-75324238D01*
X185203704Y-75261459D01*
X185265538Y-75226573D01*
X185335568Y-75230355D01*
X185491327Y-75284749D01*
X185500336Y-75287163D01*
X185755166Y-75335544D01*
X185764423Y-75336598D01*
X186023607Y-75346783D01*
X186032921Y-75346457D01*
X186290753Y-75318220D01*
X186299930Y-75316519D01*
X186550758Y-75250481D01*
X186559574Y-75247445D01*
X186797880Y-75145062D01*
X186806167Y-75140748D01*
X187026718Y-75004266D01*
X187034268Y-74998780D01*
X187039559Y-74994301D01*
X187047997Y-74981497D01*
X187041935Y-74971145D01*
X185606922Y-73536132D01*
X186329408Y-73536132D01*
X186329539Y-73537965D01*
X186333790Y-73544580D01*
X187401094Y-74611884D01*
X187413474Y-74618644D01*
X187421815Y-74612400D01*
X187555832Y-74404048D01*
X187560275Y-74395864D01*
X187666807Y-74159370D01*
X187669997Y-74150605D01*
X187740402Y-73900972D01*
X187742262Y-73891830D01*
X187775187Y-73633019D01*
X187775668Y-73626733D01*
X187777987Y-73538160D01*
X187777836Y-73531851D01*
X187758501Y-73271663D01*
X187757125Y-73262457D01*
X187699878Y-73009467D01*
X187697154Y-73000556D01*
X187603143Y-72758806D01*
X187599132Y-72750397D01*
X187470422Y-72525202D01*
X187465211Y-72517476D01*
X187421996Y-72462658D01*
X187410071Y-72454187D01*
X187398537Y-72460673D01*
X186337022Y-73522188D01*
X186329408Y-73536132D01*
X185606922Y-73536132D01*
X184530816Y-72460026D01*
X184517507Y-72452758D01*
X184507472Y-72459878D01*
X184491937Y-72478556D01*
X184486531Y-72486135D01*
X184351965Y-72707891D01*
X184347737Y-72716190D01*
X184247432Y-72955389D01*
X184244471Y-72964239D01*
X184180628Y-73215625D01*
X184179006Y-73224822D01*
X184153020Y-73482885D01*
X184152775Y-73492211D01*
X184165220Y-73751288D01*
X184166356Y-73760543D01*
X184216961Y-74014945D01*
X184219449Y-74023917D01*
X184275859Y-74181034D01*
X184280053Y-74251907D01*
X184245264Y-74313796D01*
X184182538Y-74347052D01*
X184118858Y-74343613D01*
X183941123Y-74286720D01*
X183936665Y-74285293D01*
X183678693Y-74243279D01*
X183564942Y-74241790D01*
X183422022Y-74239919D01*
X183422019Y-74239919D01*
X183417345Y-74239858D01*
X183158362Y-74275104D01*
X183153876Y-74276412D01*
X183153874Y-74276412D01*
X183127069Y-74284225D01*
X182907433Y-74348243D01*
X182903180Y-74350203D01*
X182903179Y-74350204D01*
X182701438Y-74443208D01*
X182631201Y-74453563D01*
X182566515Y-74424300D01*
X182527918Y-74364712D01*
X182527665Y-74293716D01*
X182533805Y-74277032D01*
X182586807Y-74159370D01*
X182589997Y-74150605D01*
X182660402Y-73900972D01*
X182662262Y-73891830D01*
X182695187Y-73633019D01*
X182695668Y-73626733D01*
X182697987Y-73538160D01*
X182697836Y-73531851D01*
X182678501Y-73271663D01*
X182677125Y-73262457D01*
X182619878Y-73009467D01*
X182617154Y-73000556D01*
X182523143Y-72758806D01*
X182519132Y-72750397D01*
X182390422Y-72525202D01*
X182385211Y-72517476D01*
X182341996Y-72462658D01*
X182330071Y-72454187D01*
X182318537Y-72460673D01*
X179811497Y-74967713D01*
X179804839Y-74979906D01*
X179813553Y-74991427D01*
X179920452Y-75069809D01*
X179928351Y-75074745D01*
X180157905Y-75195519D01*
X180166454Y-75199236D01*
X180411327Y-75284749D01*
X180420336Y-75287163D01*
X180675166Y-75335544D01*
X180684423Y-75336598D01*
X180943607Y-75346783D01*
X180952921Y-75346457D01*
X181210753Y-75318220D01*
X181219930Y-75316519D01*
X181470758Y-75250481D01*
X181479574Y-75247445D01*
X181717880Y-75145062D01*
X181726170Y-75140746D01*
X181732038Y-75137115D01*
X181800490Y-75118278D01*
X181868259Y-75139440D01*
X181913830Y-75193882D01*
X181922732Y-75264318D01*
X181914536Y-75292984D01*
X181852697Y-75440455D01*
X181788359Y-75693783D01*
X181787891Y-75698434D01*
X181787890Y-75698438D01*
X181783302Y-75744000D01*
X181762173Y-75953839D01*
X181762397Y-75958505D01*
X181762397Y-75958511D01*
X181765184Y-76016522D01*
X181774713Y-76214908D01*
X181825704Y-76471256D01*
X181914026Y-76717252D01*
X182014817Y-76904834D01*
X182017730Y-76910255D01*
X182032352Y-76979730D01*
X182007093Y-77046081D01*
X181949972Y-77088243D01*
X181879124Y-77092830D01*
X181834916Y-77073419D01*
X181809047Y-77055473D01*
X181801010Y-77050738D01*
X181568376Y-76936016D01*
X181559743Y-76932528D01*
X181312703Y-76853450D01*
X181303643Y-76851274D01*
X181047630Y-76809580D01*
X181038343Y-76808768D01*
X180778992Y-76805373D01*
X180769681Y-76805943D01*
X180512682Y-76840919D01*
X180503546Y-76842860D01*
X180254543Y-76915439D01*
X180245800Y-76918707D01*
X180010252Y-77027296D01*
X180002097Y-77031816D01*
X179811240Y-77156947D01*
X179802102Y-77167689D01*
X174371317Y-77167689D01*
X174438720Y-77092830D01*
X174484621Y-77041852D01*
X174484622Y-77041851D01*
X174489040Y-77036944D01*
X174557304Y-76918707D01*
X174581223Y-76877279D01*
X174581224Y-76877278D01*
X174584527Y-76871556D01*
X174643542Y-76689928D01*
X174646860Y-76658365D01*
X174662814Y-76506565D01*
X174663504Y-76500000D01*
X174656616Y-76434461D01*
X174644232Y-76316635D01*
X174644232Y-76316633D01*
X174643542Y-76310072D01*
X174584527Y-76128444D01*
X174489040Y-75963056D01*
X174475938Y-75948505D01*
X174390864Y-75854020D01*
X174360146Y-75790013D01*
X174358500Y-75769710D01*
X174358500Y-75073144D01*
X174359578Y-75056698D01*
X174362673Y-75033188D01*
X174363751Y-75025000D01*
X174342838Y-74866149D01*
X174281524Y-74718124D01*
X174208478Y-74622929D01*
X174208474Y-74622925D01*
X174197407Y-74608502D01*
X174189016Y-74597566D01*
X174189013Y-74597563D01*
X174183987Y-74591013D01*
X174177432Y-74585983D01*
X174158621Y-74571548D01*
X174146230Y-74560681D01*
X173249719Y-73664170D01*
X173215693Y-73601858D01*
X173212893Y-73575812D01*
X173213504Y-73570000D01*
X173205328Y-73492211D01*
X179072775Y-73492211D01*
X179085220Y-73751288D01*
X179086356Y-73760543D01*
X179136961Y-74014945D01*
X179139449Y-74023917D01*
X179227095Y-74268033D01*
X179230895Y-74276568D01*
X179353658Y-74505042D01*
X179358666Y-74512904D01*
X179428720Y-74606716D01*
X179439979Y-74615165D01*
X179452397Y-74608393D01*
X180512978Y-73547812D01*
X180520592Y-73533868D01*
X180520461Y-73532035D01*
X180516210Y-73525420D01*
X179450816Y-72460026D01*
X179437507Y-72452758D01*
X179427472Y-72459878D01*
X179411937Y-72478556D01*
X179406531Y-72486135D01*
X179271965Y-72707891D01*
X179267737Y-72716190D01*
X179167432Y-72955389D01*
X179164471Y-72964239D01*
X179100628Y-73215625D01*
X179099006Y-73224822D01*
X179073020Y-73482885D01*
X179072775Y-73492211D01*
X173205328Y-73492211D01*
X173193542Y-73380072D01*
X173134527Y-73198444D01*
X173039040Y-73033056D01*
X173017801Y-73009467D01*
X172915675Y-72896045D01*
X172915674Y-72896044D01*
X172911253Y-72891134D01*
X172756752Y-72778882D01*
X172750724Y-72776198D01*
X172750722Y-72776197D01*
X172588319Y-72703891D01*
X172588318Y-72703891D01*
X172582288Y-72701206D01*
X172483788Y-72680269D01*
X172401944Y-72662872D01*
X172401939Y-72662872D01*
X172395487Y-72661500D01*
X172204513Y-72661500D01*
X172198061Y-72662872D01*
X172198056Y-72662872D01*
X172116212Y-72680269D01*
X172017712Y-72701206D01*
X172011682Y-72703891D01*
X172011681Y-72703891D01*
X171849278Y-72776197D01*
X171849276Y-72776198D01*
X171843248Y-72778882D01*
X171688747Y-72891134D01*
X171684334Y-72896036D01*
X171684332Y-72896037D01*
X171662926Y-72919811D01*
X171602480Y-72957050D01*
X171569290Y-72961500D01*
X166078136Y-72961500D01*
X166061693Y-72960422D01*
X166030000Y-72956250D01*
X166021811Y-72957328D01*
X165990126Y-72961499D01*
X165990117Y-72961500D01*
X165990115Y-72961500D01*
X165990109Y-72961501D01*
X165990107Y-72961501D01*
X165890543Y-72974609D01*
X165879336Y-72976084D01*
X165879334Y-72976085D01*
X165871149Y-72977162D01*
X165821223Y-72997842D01*
X165730752Y-73035316D01*
X165730750Y-73035317D01*
X165723124Y-73038476D01*
X165676643Y-73074143D01*
X165596013Y-73136013D01*
X165590987Y-73142563D01*
X165576548Y-73161380D01*
X165565681Y-73173771D01*
X163759856Y-74979595D01*
X163697544Y-75013621D01*
X163670761Y-75016500D01*
X163579513Y-75016500D01*
X163573061Y-75017872D01*
X163573056Y-75017872D01*
X163486113Y-75036353D01*
X163392712Y-75056206D01*
X163386682Y-75058891D01*
X163386681Y-75058891D01*
X163224278Y-75131197D01*
X163224276Y-75131198D01*
X163218248Y-75133882D01*
X163212907Y-75137762D01*
X163212906Y-75137763D01*
X163208798Y-75140748D01*
X163063747Y-75246134D01*
X163059326Y-75251044D01*
X163059325Y-75251045D01*
X162998841Y-75318220D01*
X162935960Y-75388056D01*
X162840473Y-75553444D01*
X162781458Y-75735072D01*
X162780768Y-75741633D01*
X162780768Y-75741635D01*
X162775448Y-75792251D01*
X162761496Y-75925000D01*
X143347681Y-75925000D01*
X140763770Y-73341089D01*
X140751384Y-73326677D01*
X140742851Y-73315082D01*
X140742846Y-73315077D01*
X140738508Y-73309182D01*
X140732930Y-73304443D01*
X140732927Y-73304440D01*
X140698232Y-73274965D01*
X140690716Y-73268035D01*
X140685021Y-73262340D01*
X140678880Y-73257482D01*
X140662749Y-73244719D01*
X140659345Y-73241928D01*
X140609297Y-73199409D01*
X140609295Y-73199408D01*
X140603715Y-73194667D01*
X140597199Y-73191339D01*
X140592150Y-73187972D01*
X140587021Y-73184805D01*
X140581284Y-73180266D01*
X140515125Y-73149345D01*
X140511225Y-73147439D01*
X140501676Y-73142563D01*
X140446192Y-73114231D01*
X140439084Y-73112492D01*
X140433441Y-73110393D01*
X140427678Y-73108476D01*
X140421050Y-73105378D01*
X140349583Y-73090513D01*
X140345299Y-73089543D01*
X140274390Y-73072192D01*
X140268788Y-73071844D01*
X140268785Y-73071844D01*
X140263236Y-73071500D01*
X140263238Y-73071464D01*
X140259245Y-73071225D01*
X140255053Y-73070851D01*
X140247885Y-73069360D01*
X140181675Y-73071151D01*
X140170479Y-73071454D01*
X140167072Y-73071500D01*
X132286404Y-73071500D01*
X132218283Y-73051498D01*
X132171790Y-72997842D01*
X132161141Y-72959108D01*
X132157711Y-72927540D01*
X132156858Y-72919684D01*
X132105728Y-72783295D01*
X132018374Y-72666739D01*
X131901818Y-72579385D01*
X131765429Y-72528255D01*
X131703247Y-72521500D01*
X130006979Y-72521500D01*
X129944797Y-72528255D01*
X129808408Y-72579385D01*
X129691852Y-72666739D01*
X129686471Y-72673919D01*
X129680121Y-72680269D01*
X129677881Y-72678029D01*
X129633548Y-72711171D01*
X129562729Y-72716190D01*
X129521323Y-72698051D01*
X129521132Y-72698383D01*
X129518149Y-72696661D01*
X129517316Y-72696296D01*
X129511862Y-72692477D01*
X129506880Y-72690154D01*
X129506875Y-72690151D01*
X129309338Y-72598039D01*
X129309337Y-72598039D01*
X129304356Y-72595716D01*
X129299048Y-72594294D01*
X129299046Y-72594293D01*
X129088515Y-72537881D01*
X129088513Y-72537881D01*
X129083200Y-72536457D01*
X128855113Y-72516502D01*
X128627026Y-72536457D01*
X128621713Y-72537881D01*
X128621711Y-72537881D01*
X128411180Y-72594293D01*
X128411178Y-72594294D01*
X128405870Y-72595716D01*
X128400889Y-72598039D01*
X128400888Y-72598039D01*
X128203351Y-72690151D01*
X128203346Y-72690154D01*
X128198364Y-72692477D01*
X128115646Y-72750397D01*
X128015324Y-72820643D01*
X128015321Y-72820645D01*
X128010813Y-72823802D01*
X127848915Y-72985700D01*
X127845758Y-72990208D01*
X127845756Y-72990211D01*
X127815756Y-73033056D01*
X127717590Y-73173251D01*
X127715267Y-73178233D01*
X127715264Y-73178238D01*
X127646047Y-73326677D01*
X127620829Y-73380757D01*
X127561570Y-73601913D01*
X127541615Y-73830000D01*
X95508500Y-73830000D01*
X95508500Y-72087689D01*
X179802102Y-72087689D01*
X179806675Y-72097465D01*
X180872188Y-73162978D01*
X180886132Y-73170592D01*
X180887965Y-73170461D01*
X180894580Y-73166210D01*
X181959349Y-72101441D01*
X181965733Y-72089751D01*
X181964130Y-72087689D01*
X184882102Y-72087689D01*
X184886675Y-72097465D01*
X185952188Y-73162978D01*
X185966132Y-73170592D01*
X185967965Y-73170461D01*
X185974580Y-73166210D01*
X187039349Y-72101441D01*
X187045733Y-72089751D01*
X187036321Y-72077641D01*
X186889045Y-71975471D01*
X186881010Y-71970738D01*
X186648376Y-71856016D01*
X186639743Y-71852528D01*
X186392703Y-71773450D01*
X186383643Y-71771274D01*
X186127630Y-71729580D01*
X186118343Y-71728768D01*
X185858992Y-71725373D01*
X185849681Y-71725943D01*
X185592682Y-71760919D01*
X185583546Y-71762860D01*
X185334543Y-71835439D01*
X185325800Y-71838707D01*
X185090252Y-71947296D01*
X185082097Y-71951816D01*
X184891240Y-72076947D01*
X184882102Y-72087689D01*
X181964130Y-72087689D01*
X181956321Y-72077641D01*
X181809045Y-71975471D01*
X181801010Y-71970738D01*
X181568376Y-71856016D01*
X181559743Y-71852528D01*
X181312703Y-71773450D01*
X181303643Y-71771274D01*
X181047630Y-71729580D01*
X181038343Y-71728768D01*
X180778992Y-71725373D01*
X180769681Y-71725943D01*
X180512682Y-71760919D01*
X180503546Y-71762860D01*
X180254543Y-71835439D01*
X180245800Y-71838707D01*
X180010252Y-71947296D01*
X180002097Y-71951816D01*
X179811240Y-72076947D01*
X179802102Y-72087689D01*
X95508500Y-72087689D01*
X95508500Y-70634500D01*
X95528502Y-70566379D01*
X95582158Y-70519886D01*
X95634500Y-70508500D01*
X194365500Y-70508500D01*
X194433621Y-70528502D01*
G37*
G04 #@! TD.AperFunction*
M02*
