G04 #@! TF.GenerationSoftware,KiCad,Pcbnew,6.0.10-86aedd382b~118~ubuntu20.04.1*
G04 #@! TF.CreationDate,2023-01-17T10:28:52-05:00*
G04 #@! TF.ProjectId,sdt_qse_1496,7364745f-7173-4655-9f31-3439362e6b69,2.0*
G04 #@! TF.SameCoordinates,Original*
G04 #@! TF.FileFunction,Soldermask,Top*
G04 #@! TF.FilePolarity,Negative*
%FSLAX46Y46*%
G04 Gerber Fmt 4.6, Leading zero omitted, Abs format (unit mm)*
G04 Created by KiCad (PCBNEW 6.0.10-86aedd382b~118~ubuntu20.04.1) date 2023-01-17 10:28:52*
%MOMM*%
%LPD*%
G01*
G04 APERTURE LIST*
G04 Aperture macros list*
%AMRoundRect*
0 Rectangle with rounded corners*
0 $1 Rounding radius*
0 $2 $3 $4 $5 $6 $7 $8 $9 X,Y pos of 4 corners*
0 Add a 4 corners polygon primitive as box body*
4,1,4,$2,$3,$4,$5,$6,$7,$8,$9,$2,$3,0*
0 Add four circle primitives for the rounded corners*
1,1,$1+$1,$2,$3*
1,1,$1+$1,$4,$5*
1,1,$1+$1,$6,$7*
1,1,$1+$1,$8,$9*
0 Add four rect primitives between the rounded corners*
20,1,$1+$1,$2,$3,$4,$5,0*
20,1,$1+$1,$4,$5,$6,$7,0*
20,1,$1+$1,$6,$7,$8,$9,0*
20,1,$1+$1,$8,$9,$2,$3,0*%
G04 Aperture macros list end*
%ADD10R,1.346200X1.346200*%
%ADD11C,1.346200*%
%ADD12RoundRect,0.250000X-0.600000X-0.600000X0.600000X-0.600000X0.600000X0.600000X-0.600000X0.600000X0*%
%ADD13C,1.700000*%
%ADD14R,1.600200X0.558800*%
%ADD15RoundRect,0.250000X-0.625000X0.312500X-0.625000X-0.312500X0.625000X-0.312500X0.625000X0.312500X0*%
%ADD16RoundRect,0.250000X-0.312500X-0.625000X0.312500X-0.625000X0.312500X0.625000X-0.312500X0.625000X0*%
%ADD17RoundRect,0.020500X-0.764500X-0.184500X0.764500X-0.184500X0.764500X0.184500X-0.764500X0.184500X0*%
%ADD18RoundRect,0.250000X0.325000X0.650000X-0.325000X0.650000X-0.325000X-0.650000X0.325000X-0.650000X0*%
%ADD19RoundRect,0.250000X0.312500X0.625000X-0.312500X0.625000X-0.312500X-0.625000X0.312500X-0.625000X0*%
%ADD20RoundRect,0.150000X-0.587500X-0.150000X0.587500X-0.150000X0.587500X0.150000X-0.587500X0.150000X0*%
%ADD21C,2.600000*%
%ADD22C,2.500000*%
%ADD23R,1.600000X1.600000*%
%ADD24C,1.600000*%
%ADD25RoundRect,0.250000X-0.325000X-0.650000X0.325000X-0.650000X0.325000X0.650000X-0.325000X0.650000X0*%
%ADD26RoundRect,0.150000X0.150000X-0.587500X0.150000X0.587500X-0.150000X0.587500X-0.150000X-0.587500X0*%
%ADD27RoundRect,0.250000X-0.650000X0.325000X-0.650000X-0.325000X0.650000X-0.325000X0.650000X0.325000X0*%
%ADD28RoundRect,0.250000X0.625000X-0.312500X0.625000X0.312500X-0.625000X0.312500X-0.625000X-0.312500X0*%
%ADD29RoundRect,0.250000X0.700000X-0.275000X0.700000X0.275000X-0.700000X0.275000X-0.700000X-0.275000X0*%
%ADD30C,1.440000*%
%ADD31RoundRect,0.250000X0.650000X-0.325000X0.650000X0.325000X-0.650000X0.325000X-0.650000X-0.325000X0*%
%ADD32R,2.200000X2.800000*%
%ADD33R,2.800000X2.800000*%
%ADD34R,2.600000X2.800000*%
%ADD35RoundRect,0.150000X-0.150000X0.587500X-0.150000X-0.587500X0.150000X-0.587500X0.150000X0.587500X0*%
%ADD36C,2.100000*%
%ADD37RoundRect,0.150000X0.587500X0.150000X-0.587500X0.150000X-0.587500X-0.150000X0.587500X-0.150000X0*%
G04 APERTURE END LIST*
D10*
X160190000Y-124870000D03*
D11*
X160190000Y-135030000D03*
X162730000Y-124870000D03*
X162730000Y-135030000D03*
X165270000Y-124870000D03*
X165270000Y-135030000D03*
D12*
X99000000Y-102500000D03*
D13*
X101540000Y-102500000D03*
X99000000Y-105040000D03*
X101540000Y-105040000D03*
X99000000Y-107580000D03*
X101540000Y-107580000D03*
X99000000Y-110120000D03*
X101540000Y-110120000D03*
X99000000Y-112660000D03*
X101540000Y-112660000D03*
X99000000Y-115200000D03*
X101540000Y-115200000D03*
X99000000Y-117740000D03*
X101540000Y-117740000D03*
X99000000Y-120280000D03*
X101540000Y-120280000D03*
D14*
X151052700Y-102065000D03*
X151052700Y-103335000D03*
X151052700Y-104605000D03*
X151052700Y-105875000D03*
X151052700Y-107145000D03*
X151052700Y-108415000D03*
X151052700Y-109685000D03*
X145947300Y-109685000D03*
X145947300Y-108415000D03*
X145947300Y-107145000D03*
X145947300Y-105875000D03*
X145947300Y-104605000D03*
X145947300Y-103335000D03*
X145947300Y-102065000D03*
D15*
X174760000Y-80457500D03*
X174760000Y-83382500D03*
D16*
X139407500Y-106730000D03*
X142332500Y-106730000D03*
D17*
X165755000Y-75175000D03*
X165755000Y-75825000D03*
X165755000Y-76475000D03*
X165755000Y-77125000D03*
X165755000Y-77775000D03*
X165755000Y-78425000D03*
X165755000Y-79075000D03*
X171495000Y-79075000D03*
X171495000Y-78425000D03*
X171495000Y-77775000D03*
X171495000Y-77125000D03*
X171495000Y-76475000D03*
X171495000Y-75825000D03*
X171495000Y-75175000D03*
D18*
X162845000Y-72825000D03*
X159895000Y-72825000D03*
D19*
X180592500Y-83400000D03*
X177667500Y-83400000D03*
D20*
X131412500Y-121850000D03*
X131412500Y-123750000D03*
X133287500Y-122800000D03*
D16*
X161047850Y-91386000D03*
X163972850Y-91386000D03*
X113837500Y-81250000D03*
X116762500Y-81250000D03*
X147387500Y-91000000D03*
X150312500Y-91000000D03*
D21*
X185460000Y-123460000D03*
X190540000Y-128540000D03*
X185460000Y-128540000D03*
X190540000Y-123460000D03*
D22*
X188100000Y-125925000D03*
D16*
X141137500Y-91000000D03*
X144062500Y-91000000D03*
D23*
X121000000Y-123500000D03*
D24*
X121000000Y-127000000D03*
D25*
X165825000Y-112925000D03*
X168775000Y-112925000D03*
D21*
X180885000Y-73535000D03*
X185965000Y-73535000D03*
X185965000Y-78615000D03*
X180885000Y-78615000D03*
D22*
X183525000Y-76000000D03*
D18*
X145150000Y-121375000D03*
X142200000Y-121375000D03*
D26*
X114050000Y-98637500D03*
X115950000Y-98637500D03*
X115000000Y-96762500D03*
D27*
X161675000Y-118750000D03*
X161675000Y-121700000D03*
D19*
X141087500Y-87775000D03*
X144012500Y-87775000D03*
D28*
X171680350Y-110218500D03*
X171680350Y-107293500D03*
D29*
X191500000Y-104025000D03*
X191500000Y-100875000D03*
D23*
X130855113Y-73830000D03*
D24*
X128855113Y-73830000D03*
D15*
X153650000Y-95447500D03*
X153650000Y-98372500D03*
D16*
X118087500Y-117750000D03*
X121012500Y-117750000D03*
X171637500Y-116625000D03*
X174562500Y-116625000D03*
D23*
X110850000Y-107522349D03*
D24*
X110850000Y-111022349D03*
D27*
X151080000Y-112175000D03*
X151080000Y-115125000D03*
D15*
X119990000Y-81257500D03*
X119990000Y-84182500D03*
D23*
X156694888Y-114025000D03*
D24*
X158694888Y-114025000D03*
D28*
X162825000Y-115812500D03*
X162825000Y-112887500D03*
D19*
X151087500Y-121400000D03*
X148162500Y-121400000D03*
D27*
X133275000Y-125600000D03*
X133275000Y-128550000D03*
D28*
X147610000Y-131562500D03*
X147610000Y-128637500D03*
D15*
X154090000Y-118487500D03*
X154090000Y-121412500D03*
D28*
X171760350Y-104408500D03*
X171760350Y-101483500D03*
D15*
X159350000Y-102337500D03*
X159350000Y-105262500D03*
D19*
X177287500Y-123925000D03*
X174362500Y-123925000D03*
D28*
X155050000Y-104272500D03*
X155050000Y-101347500D03*
D15*
X177075000Y-95362500D03*
X177075000Y-98287500D03*
D27*
X165275000Y-118725000D03*
X165275000Y-121675000D03*
D30*
X143750000Y-96050000D03*
X146290000Y-96050000D03*
X148830000Y-96050000D03*
D15*
X161860000Y-78427500D03*
X161860000Y-81352500D03*
X135790000Y-99077500D03*
X135790000Y-102002500D03*
X127850000Y-121687500D03*
X127850000Y-124612500D03*
D23*
X126700000Y-106747349D03*
D24*
X126700000Y-110247349D03*
D19*
X168022500Y-82240000D03*
X165097500Y-82240000D03*
D15*
X142525000Y-100662500D03*
X142525000Y-103587500D03*
D23*
X135930113Y-106550000D03*
D24*
X133930113Y-106550000D03*
D27*
X157150000Y-84950000D03*
X157150000Y-87900000D03*
D20*
X123262500Y-96850000D03*
X123262500Y-98750000D03*
X125137500Y-97800000D03*
D15*
X173510350Y-95363500D03*
X173510350Y-98288500D03*
D31*
X177900000Y-129800000D03*
X177900000Y-126850000D03*
D27*
X124070000Y-81255000D03*
X124070000Y-84205000D03*
D28*
X174475000Y-129787500D03*
X174475000Y-126862500D03*
D31*
X154420000Y-131605000D03*
X154420000Y-128655000D03*
D28*
X158580350Y-98908500D03*
X158580350Y-95983500D03*
D19*
X163962500Y-87675000D03*
X161037500Y-87675000D03*
D23*
X111050000Y-117747349D03*
D24*
X111050000Y-121247349D03*
D27*
X147875000Y-112175000D03*
X147875000Y-115125000D03*
D15*
X180850000Y-132112500D03*
X180850000Y-135037500D03*
D13*
X105837500Y-77500000D03*
X98837500Y-77500000D03*
D32*
X97737500Y-81200000D03*
D33*
X107137500Y-81200000D03*
D32*
X99737500Y-73800000D03*
D34*
X111137500Y-76750000D03*
D35*
X127500000Y-117062500D03*
X125600000Y-117062500D03*
X126550000Y-118937500D03*
D19*
X171712500Y-119475000D03*
X168787500Y-119475000D03*
D28*
X139140000Y-100492500D03*
X139140000Y-97567500D03*
D31*
X134850000Y-96780112D03*
X134850000Y-93830112D03*
D25*
X171669350Y-113538000D03*
X174619350Y-113538000D03*
D31*
X176650000Y-76500000D03*
X176650000Y-73550000D03*
D28*
X150940000Y-128642500D03*
X150940000Y-125717500D03*
D16*
X120837500Y-114050000D03*
X123762500Y-114050000D03*
D25*
X110850000Y-102275000D03*
X113800000Y-102275000D03*
D16*
X174287500Y-135075000D03*
X177212500Y-135075000D03*
X148112500Y-118075000D03*
X151037500Y-118075000D03*
D27*
X128775000Y-97800000D03*
X128775000Y-100750000D03*
D16*
X157587850Y-108326000D03*
X160512850Y-108326000D03*
D27*
X124454887Y-73815000D03*
X124454887Y-76765000D03*
D15*
X120294887Y-73807500D03*
X120294887Y-76732500D03*
D16*
X165862500Y-116025000D03*
X168787500Y-116025000D03*
D23*
X175950000Y-108750000D03*
D24*
X177950000Y-108750000D03*
D16*
X114052387Y-73810000D03*
X116977387Y-73810000D03*
D19*
X120262500Y-106800000D03*
X117337500Y-106800000D03*
D16*
X107537500Y-98600000D03*
X110462500Y-98600000D03*
X139412500Y-110300000D03*
X142337500Y-110300000D03*
D20*
X154112500Y-124125000D03*
X154112500Y-126025000D03*
X155987500Y-125075000D03*
D36*
X100000000Y-93000000D03*
X100000000Y-90500000D03*
D16*
X116912500Y-92825000D03*
X119837500Y-92825000D03*
D27*
X157820000Y-118720000D03*
X157820000Y-121670000D03*
D37*
X171362500Y-125825000D03*
X171362500Y-123925000D03*
X169487500Y-124875000D03*
D15*
X119825000Y-95837500D03*
X119825000Y-98762500D03*
D19*
X170412500Y-91400000D03*
X167487500Y-91400000D03*
D14*
X162972300Y-102065000D03*
X162972300Y-103335000D03*
X162972300Y-104605000D03*
X162972300Y-105875000D03*
X162972300Y-107145000D03*
X162972300Y-108415000D03*
X162972300Y-109685000D03*
X168077700Y-109685000D03*
X168077700Y-108415000D03*
X168077700Y-107145000D03*
X168077700Y-105875000D03*
X168077700Y-104605000D03*
X168077700Y-103335000D03*
X168077700Y-102065000D03*
D31*
X118100000Y-114725000D03*
X118100000Y-111775000D03*
D23*
X130565113Y-81250000D03*
D24*
X128565113Y-81250000D03*
D15*
X170850000Y-132112500D03*
X170850000Y-135037500D03*
D27*
X181075000Y-95350000D03*
X181075000Y-98300000D03*
D23*
X174344887Y-90450000D03*
D24*
X176344887Y-90450000D03*
D28*
X154360000Y-110082500D03*
X154360000Y-107157500D03*
D30*
X168740350Y-95986000D03*
X166200350Y-95986000D03*
X163660350Y-95986000D03*
M02*
