M48
; DRILL file {KiCad 7.0.1-3b83917a11~172~ubuntu22.04.1} date Thu 16 Mar 2023 07:30:07 PM EDT
; FORMAT={-:-/ absolute / inch / decimal}
; #@! TF.CreationDate,2023-03-16T19:30:07-04:00
; #@! TF.GenerationSoftware,Kicad,Pcbnew,7.0.1-3b83917a11~172~ubuntu22.04.1
; #@! TF.FileFunction,Plated,1,2,PTH
FMAT,2
INCH
; #@! TA.AperFunction,Plated,PTH,ViaDrill
T1C0.0157
; #@! TA.AperFunction,Plated,PTH,ViaDrill
T2C0.0197
; #@! TA.AperFunction,Plated,PTH,ComponentDrill
T3C0.0315
; #@! TA.AperFunction,Plated,PTH,ComponentDrill
T4C0.0394
; #@! TA.AperFunction,Plated,PTH,ComponentDrill
T5C0.0433
; #@! TA.AperFunction,Plated,PTH,ComponentDrill
T6C0.0591
; #@! TA.AperFunction,Plated,PTH,ComponentDrill
T7C0.0630
%
G90
G05
T1
X3.7953Y-4.8278
X3.811Y-2.8382
X3.8258Y-5.2156
X3.8484Y-3.3199
X4.0502Y-5.4232
X4.1102Y-2.8219
X4.2338Y-4.0354
X4.5719Y-4.3061
X4.6693Y-4.037
X4.7579Y-4.3957
X4.7638Y-4.2894
X4.874Y-4.7096
X5.0581Y-4.7047
X5.2461Y-5.1476
X5.8671Y-4.0561
X6.1831Y-2.7972
X6.2175Y-5.4636
X6.3406Y-3.3622
X6.4439Y-2.9892
X6.4803Y-2.8661
X6.6063Y-3.0551
X6.6191Y-4.8002
X6.6378Y-3.1063
X6.6762Y-3.0108
X6.7461Y-5.0285
X6.7835Y-2.8965
X6.8406Y-3.0118
X6.9232Y-3.3563
X6.9498Y-3.0915
X7.3986Y-5.435
X7.539Y-2.8555
X7.5935Y-3.5423
X7.598Y-4.3299
T2
X4.0433Y-3.7894
X4.0984Y-4.3681
X4.0994Y-4.1329
X4.2343Y-4.4567
X4.2913Y-4.1083
X4.3917Y-3.2795
X4.5768Y-4.5679
X4.5984Y-2.9469
X4.6634Y-2.9272
X4.6969Y-3.3071
X4.6969Y-3.5492
X4.7972Y-3.2992
X4.7992Y-4.1319
X4.8012Y-3.9902
X4.939Y-3.5551
X4.9429Y-2.9606
X5.0197Y-5.4154
X5.0413Y-3.5453
X5.0472Y-4.1496
X5.065Y-4.3504
X5.1181Y-2.9409
X5.1368Y-4.0285
X5.1437Y-4.3406
X5.1673Y-3.7283
X5.1811Y-3.4075
X5.187Y-3.2205
X5.189Y-2.8563
X5.2175Y-2.7864
X5.254Y-3.904
X5.258Y-4.197
X5.2638Y-4.6555
X5.3091Y-4.8809
X5.374Y-3.063
X5.3898Y-3.2146
X5.3967Y-3.5167
X5.4193Y-4.4026
X5.4528Y-2.9449
X5.4547Y-3.6752
X5.6073Y-4.6309
X5.6083Y-3.5118
X5.6319Y-4.4429
X5.6713Y-3.6752
X5.686Y-4.5472
X5.7156Y-4.375
X5.7421Y-2.9213
X5.7539Y-3.2776
X5.8209Y-4.2681
X5.8661Y-4.9961
X5.8742Y-4.1183
X5.8957Y-3.3012
X5.9075Y-4.8681
X5.9429Y-5.249
X5.9498Y-3.9291
X5.9843Y-3.5886
X6.002Y-4.362
X6.0177Y-2.9213
X6.0394Y-3.0256
X6.0492Y-3.6762
X6.0659Y-3.3839
X6.0728Y-4.5709
X6.0876Y-3.623
X6.1024Y-2.9213
X6.123Y-3.9203
X6.1693Y-3.2717
X6.19Y-3.9902
X6.2008Y-5.0669
X6.2402Y-3.1811
X6.2657Y-4.4075
X6.2677Y-3.5157
X6.3071Y-5.2382
X6.3081Y-3.6969
X6.3346Y-4.6024
X6.3484Y-3.0177
X6.3504Y-3.2805
X6.3593Y-3.8465
X6.4055Y-5.002
X6.4055Y-5.0827
X6.4793Y-4.2687
X6.5236Y-3.4685
X6.5472Y-4.0522
X6.5502Y-4.1181
X6.5551Y-3.1693
X6.5551Y-4.9783
X6.5797Y-3.7067
X6.6339Y-5.1841
X6.6417Y-5.065
X6.6506Y-3.6732
X6.6516Y-2.8169
X6.6929Y-3.9429
X6.6949Y-4.1654
X6.7008Y-4.7697
X6.7677Y-3.5374
X6.8287Y-4.1122
X6.8494Y-4.7677
X6.8504Y-4.2047
X6.8905Y-3.6735
X6.9016Y-3.9843
X6.927Y-4.249
X6.935Y-5.1752
X6.939Y-4.5915
X6.94Y-4.1211
X6.9646Y-4.5217
X6.9724Y-3.938
X7.0315Y-4.7697
X7.0472Y-3.3839
X7.0699Y-3.6722
X7.0709Y-4.9114
X7.1299Y-3.9488
X7.1575Y-3.499
X7.5807Y-5.2283
T3
X5.6594Y-3.7815
X5.7594Y-3.7815
X5.8594Y-3.7815
X6.4433Y-3.779
X6.5433Y-3.779
X6.6433Y-3.779
T4
X3.8976Y-4.0354
X3.8976Y-4.1354
X3.8976Y-4.2354
X3.8976Y-4.3354
X3.8976Y-4.4354
X3.8976Y-4.5354
X3.8976Y-4.6354
X3.8976Y-4.7354
X3.9976Y-4.0354
X3.9976Y-4.1354
X3.9976Y-4.2354
X3.9976Y-4.3354
X3.9976Y-4.4354
X3.9976Y-4.5354
X3.9976Y-4.6354
X3.9976Y-4.7354
T5
X3.937Y-3.563
X3.937Y-3.6614
X4.2165Y-3.561
X4.2165Y-3.6594
T6
X7.2254Y-2.9921
X7.4055Y-4.9577
T7
X7.1215Y-2.8951
X7.1215Y-3.0951
X7.3016Y-4.8606
X7.3016Y-5.0606
X7.3215Y-2.8951
X7.3215Y-3.0951
X7.5016Y-4.8606
X7.5016Y-5.0606
T0
M30
