G04 #@! TF.GenerationSoftware,KiCad,Pcbnew,7.0.1-3b83917a11~172~ubuntu22.04.1*
G04 #@! TF.CreationDate,2023-03-16T19:30:03-04:00*
G04 #@! TF.ProjectId,sdt_qse_1496,7364745f-7173-4655-9f31-3439362e6b69,2.0*
G04 #@! TF.SameCoordinates,Original*
G04 #@! TF.FileFunction,Copper,L2,Bot*
G04 #@! TF.FilePolarity,Positive*
%FSLAX46Y46*%
G04 Gerber Fmt 4.6, Leading zero omitted, Abs format (unit mm)*
G04 Created by KiCad (PCBNEW 7.0.1-3b83917a11~172~ubuntu22.04.1) date 2023-03-16 19:30:03*
%MOMM*%
%LPD*%
G01*
G04 APERTURE LIST*
G04 Aperture macros list*
%AMRoundRect*
0 Rectangle with rounded corners*
0 $1 Rounding radius*
0 $2 $3 $4 $5 $6 $7 $8 $9 X,Y pos of 4 corners*
0 Add a 4 corners polygon primitive as box body*
4,1,4,$2,$3,$4,$5,$6,$7,$8,$9,$2,$3,0*
0 Add four circle primitives for the rounded corners*
1,1,$1+$1,$2,$3*
1,1,$1+$1,$4,$5*
1,1,$1+$1,$6,$7*
1,1,$1+$1,$8,$9*
0 Add four rect primitives between the rounded corners*
20,1,$1+$1,$2,$3,$4,$5,0*
20,1,$1+$1,$4,$5,$6,$7,0*
20,1,$1+$1,$6,$7,$8,$9,0*
20,1,$1+$1,$8,$9,$2,$3,0*%
G04 Aperture macros list end*
G04 #@! TA.AperFunction,ComponentPad*
%ADD10RoundRect,0.250000X-0.600000X-0.600000X0.600000X-0.600000X0.600000X0.600000X-0.600000X0.600000X0*%
G04 #@! TD*
G04 #@! TA.AperFunction,ComponentPad*
%ADD11C,1.700000*%
G04 #@! TD*
G04 #@! TA.AperFunction,ComponentPad*
%ADD12C,2.100000*%
G04 #@! TD*
G04 #@! TA.AperFunction,ComponentPad*
%ADD13C,2.600000*%
G04 #@! TD*
G04 #@! TA.AperFunction,ComponentPad*
%ADD14C,2.500000*%
G04 #@! TD*
G04 #@! TA.AperFunction,ComponentPad*
%ADD15C,1.440000*%
G04 #@! TD*
G04 #@! TA.AperFunction,ViaPad*
%ADD16C,0.800000*%
G04 #@! TD*
G04 #@! TA.AperFunction,ViaPad*
%ADD17C,1.000000*%
G04 #@! TD*
G04 #@! TA.AperFunction,Conductor*
%ADD18C,0.200000*%
G04 #@! TD*
G04 #@! TA.AperFunction,Conductor*
%ADD19C,0.500000*%
G04 #@! TD*
G04 APERTURE END LIST*
D10*
X99000000Y-102500000D03*
D11*
X101540000Y-102500000D03*
X99000000Y-105040000D03*
X101540000Y-105040000D03*
X99000000Y-107580000D03*
X101540000Y-107580000D03*
X99000000Y-110120000D03*
X101540000Y-110120000D03*
X99000000Y-112660000D03*
X101540000Y-112660000D03*
X99000000Y-115200000D03*
X101540000Y-115200000D03*
X99000000Y-117740000D03*
X101540000Y-117740000D03*
X99000000Y-120280000D03*
X101540000Y-120280000D03*
D12*
X107100000Y-92950000D03*
X107100000Y-90450000D03*
D13*
X185460000Y-123460000D03*
X185460000Y-128540000D03*
X190540000Y-123460000D03*
X190540000Y-128540000D03*
D14*
X188100000Y-125925000D03*
D13*
X180885000Y-73535000D03*
X180885000Y-78615000D03*
X185965000Y-73535000D03*
X185965000Y-78615000D03*
D14*
X183525000Y-76000000D03*
D15*
X143750000Y-96050000D03*
X146290000Y-96050000D03*
X148830000Y-96050000D03*
D12*
X100000000Y-93000000D03*
X100000000Y-90500000D03*
D15*
X168740350Y-95986000D03*
X166200350Y-95986000D03*
X163660350Y-95986000D03*
D16*
X172300000Y-73570000D03*
X173750000Y-76500000D03*
X163675000Y-75925000D03*
D17*
X131600000Y-86550000D03*
X119300000Y-90150000D03*
X111550000Y-83300000D03*
X168600000Y-78900000D03*
X176900000Y-114850000D03*
X166300000Y-102925000D03*
X158500000Y-80800000D03*
X175850000Y-85250000D03*
X150950000Y-133325000D03*
X102700000Y-96250000D03*
X102875000Y-137750000D03*
X134850000Y-123975000D03*
X149750000Y-83850000D03*
X137650000Y-111825000D03*
X96800000Y-72090000D03*
X127500000Y-137550000D03*
X154250000Y-116100000D03*
X123800000Y-119625000D03*
X155000000Y-74200000D03*
X161300000Y-83325000D03*
X155525000Y-99575000D03*
X175300000Y-101200000D03*
X154625000Y-92025000D03*
X166500000Y-126450000D03*
X191490000Y-72530000D03*
X160900000Y-116900000D03*
X132525000Y-70775000D03*
X142425000Y-117625000D03*
X181800000Y-88875000D03*
X152000000Y-91150000D03*
X128475000Y-119500000D03*
X121950000Y-101350000D03*
X104125000Y-104975000D03*
X118450000Y-74350000D03*
X128650000Y-110500000D03*
X145175000Y-111125000D03*
X116250000Y-116025000D03*
X160200000Y-133050000D03*
X179000000Y-85950000D03*
X152450800Y-110794800D03*
X170050000Y-105800000D03*
X137075000Y-89325000D03*
X166500000Y-80500000D03*
X107550000Y-113200000D03*
X157500000Y-128700000D03*
X192990000Y-109980000D03*
X176275000Y-104675000D03*
X146150000Y-83250000D03*
X174000000Y-106800000D03*
X121900000Y-104950000D03*
X133250000Y-130750000D03*
X161250000Y-76650000D03*
X97750000Y-84325000D03*
X192875000Y-89975000D03*
X192550000Y-132800000D03*
X131250000Y-94700000D03*
X143050000Y-112850000D03*
X179575000Y-93275000D03*
X170200000Y-121150000D03*
X159200000Y-89300000D03*
X154075000Y-85950000D03*
X133451600Y-99161600D03*
X157050000Y-71050000D03*
X168500000Y-131675000D03*
X153400000Y-76850000D03*
X187925000Y-138050000D03*
X178600000Y-121150000D03*
X109000000Y-104350000D03*
X121000000Y-108950000D03*
X104100000Y-110950000D03*
X118600000Y-102540000D03*
X133553200Y-106603800D03*
X176150000Y-131450000D03*
X142450000Y-89200000D03*
X149025000Y-103025000D03*
X157925000Y-138775000D03*
X130475000Y-102325000D03*
X121850000Y-83800000D03*
X171900000Y-89850000D03*
X96400000Y-122625000D03*
X97175000Y-132475000D03*
X104400000Y-71675000D03*
X160225000Y-93900000D03*
X131750000Y-81800000D03*
X116125000Y-109375000D03*
X167125000Y-94150000D03*
X133700000Y-118250000D03*
X181100000Y-100300000D03*
X151125000Y-99800000D03*
X125450000Y-90300000D03*
X149000000Y-126900000D03*
X159150000Y-111950000D03*
X179600000Y-124750000D03*
X168950000Y-71550000D03*
X138550000Y-93350000D03*
X173975000Y-121100000D03*
X168700000Y-128650000D03*
X162700000Y-129100000D03*
X176525000Y-78525000D03*
X128200000Y-105400000D03*
X156700000Y-83100000D03*
X144425000Y-115500000D03*
X165700000Y-88100000D03*
X107537500Y-102500000D03*
X120850000Y-111650000D03*
X171350000Y-127725000D03*
X168125000Y-121925000D03*
X130650000Y-110250000D03*
D16*
X164600000Y-72800000D03*
D17*
X173450000Y-104450000D03*
X175945800Y-107924600D03*
X164575000Y-108425000D03*
X147850000Y-108410000D03*
X166375000Y-104600000D03*
X149205000Y-104605000D03*
X161050000Y-85400000D03*
X152850000Y-74200000D03*
X161525000Y-97700000D03*
X168925000Y-93300000D03*
X175019050Y-93306550D03*
X145850000Y-74200000D03*
X131800000Y-72550000D03*
X125550000Y-75200000D03*
X136500000Y-77800000D03*
D16*
X169575000Y-76475000D03*
X167800000Y-77600000D03*
D17*
X144050000Y-93350000D03*
X153650000Y-93375000D03*
X176250000Y-116625000D03*
X170000000Y-100150000D03*
X150050000Y-123650000D03*
X157225000Y-101350000D03*
X162700000Y-127050000D03*
X177100000Y-100025000D03*
X128050000Y-90050000D03*
X138500000Y-74800000D03*
X130000000Y-74700000D03*
X136900000Y-81650000D03*
X116800000Y-74850000D03*
X119300000Y-84000000D03*
D18*
X172300000Y-73570000D02*
X172300000Y-73575000D01*
X163675000Y-75925000D02*
X166030000Y-73570000D01*
X166030000Y-73570000D02*
X172300000Y-73570000D01*
X173750000Y-76500000D02*
X173750000Y-75025000D01*
X172300000Y-73575000D02*
X173750000Y-75025000D01*
D19*
X106050000Y-94000000D02*
X106050000Y-113230000D01*
X106050000Y-113230000D02*
X101540000Y-117740000D01*
X107100000Y-92950000D02*
X106050000Y-94000000D01*
X120850000Y-111650000D02*
X111700000Y-102500000D01*
X111700000Y-102500000D02*
X107537500Y-102500000D01*
X171350000Y-125150000D02*
X171350000Y-127725000D01*
X168125000Y-121925000D02*
X171350000Y-125150000D01*
X126525000Y-97225000D02*
X126525000Y-106125000D01*
X150950000Y-72800000D02*
X126525000Y-97225000D01*
X164600000Y-72800000D02*
X150950000Y-72800000D01*
X126525000Y-106125000D02*
X130650000Y-110250000D01*
X175950000Y-106950000D02*
X175950000Y-107895000D01*
X175950000Y-107895000D02*
X175945800Y-107899200D01*
X173450000Y-104450000D02*
X175950000Y-106950000D01*
X164575000Y-108425000D02*
X147865000Y-108425000D01*
D18*
X147865000Y-108425000D02*
X147850000Y-108410000D01*
X149210000Y-104600000D02*
X149205000Y-104605000D01*
D19*
X166375000Y-104600000D02*
X149210000Y-104600000D01*
X161050000Y-85400000D02*
X154862500Y-79212500D01*
D18*
X161525000Y-85875000D02*
X161050000Y-85400000D01*
D19*
X154862500Y-76212500D02*
X152850000Y-74200000D01*
X154862500Y-79212500D02*
X154862500Y-76212500D01*
D18*
X161525000Y-97700000D02*
X161525000Y-85875000D01*
X168925000Y-93300000D02*
X175012500Y-93300000D01*
X175012500Y-93300000D02*
X175019050Y-93306550D01*
D19*
X145850000Y-74200000D02*
X144200000Y-72550000D01*
X144200000Y-72550000D02*
X131800000Y-72550000D01*
X130650000Y-73400000D02*
X127350000Y-73400000D01*
X136500000Y-77800000D02*
X135050000Y-77800000D01*
X135050000Y-77800000D02*
X130650000Y-73400000D01*
X127350000Y-73400000D02*
X125550000Y-75200000D01*
D18*
X168450000Y-76950000D02*
X169100000Y-76950000D01*
X169100000Y-76950000D02*
X169575000Y-76475000D01*
X167800000Y-77600000D02*
X168450000Y-76950000D01*
D19*
X153625000Y-93350000D02*
X153650000Y-93375000D01*
X144050000Y-93350000D02*
X153625000Y-93350000D01*
X170000000Y-100150000D02*
X158425000Y-100150000D01*
X153425000Y-127025000D02*
X162675000Y-127025000D01*
X168085000Y-130225000D02*
X164880000Y-127020000D01*
X176250000Y-116650000D02*
X181750000Y-122150000D01*
X164875000Y-127025000D02*
X164880000Y-127020000D01*
X158425000Y-100150000D02*
X157225000Y-101350000D01*
X179625000Y-130225000D02*
X168085000Y-130225000D01*
X150050000Y-123650000D02*
X153425000Y-127025000D01*
X176250000Y-116625000D02*
X176250000Y-116650000D01*
X162725000Y-127025000D02*
X164875000Y-127025000D01*
X162700000Y-127050000D02*
X162725000Y-127025000D01*
X162675000Y-127025000D02*
X162700000Y-127050000D01*
X181750000Y-122150000D02*
X181750000Y-128100000D01*
X181750000Y-128100000D02*
X179625000Y-130225000D01*
X177100000Y-100025000D02*
X173061000Y-95986000D01*
X173061000Y-95986000D02*
X168740350Y-95986000D01*
X131700000Y-90050000D02*
X128050000Y-90050000D01*
X138500000Y-83250000D02*
X138500000Y-74800000D01*
X131700000Y-90050000D02*
X138500000Y-83250000D01*
X130000000Y-74750000D02*
X130000000Y-74700000D01*
X136900000Y-81650000D02*
X130000000Y-74750000D01*
X119300000Y-84000000D02*
X116800000Y-81500000D01*
X116800000Y-81500000D02*
X116800000Y-74850000D01*
G04 #@! TA.AperFunction,Conductor*
G36*
X194937500Y-70017113D02*
G01*
X194982887Y-70062500D01*
X194999500Y-70124500D01*
X194999500Y-139875500D01*
X194982887Y-139937500D01*
X194937500Y-139982887D01*
X194875500Y-139999500D01*
X95124500Y-139999500D01*
X95062500Y-139982887D01*
X95017113Y-139937500D01*
X95000500Y-139875500D01*
X95000500Y-136500000D01*
X96494389Y-136500000D01*
X96514804Y-136785429D01*
X96575629Y-137065041D01*
X96675634Y-137333163D01*
X96812772Y-137584313D01*
X96898517Y-137698855D01*
X96984261Y-137813395D01*
X97186605Y-138015739D01*
X97358414Y-138144354D01*
X97415686Y-138187227D01*
X97555435Y-138263535D01*
X97666839Y-138324367D01*
X97934954Y-138424369D01*
X97934957Y-138424369D01*
X97934958Y-138424370D01*
X97987217Y-138435738D01*
X98214572Y-138485196D01*
X98500000Y-138505610D01*
X98785428Y-138485196D01*
X99065046Y-138424369D01*
X99333161Y-138324367D01*
X99584315Y-138187226D01*
X99813395Y-138015739D01*
X100015739Y-137813395D01*
X100187226Y-137584315D01*
X100324367Y-137333161D01*
X100424369Y-137065046D01*
X100485196Y-136785428D01*
X100505610Y-136500000D01*
X100505610Y-136499999D01*
X189494389Y-136499999D01*
X189514804Y-136785429D01*
X189575629Y-137065041D01*
X189675634Y-137333163D01*
X189812772Y-137584313D01*
X189898517Y-137698855D01*
X189984261Y-137813395D01*
X190186605Y-138015739D01*
X190358414Y-138144354D01*
X190415686Y-138187227D01*
X190555435Y-138263535D01*
X190666839Y-138324367D01*
X190934954Y-138424369D01*
X190934957Y-138424369D01*
X190934958Y-138424370D01*
X190987217Y-138435738D01*
X191214572Y-138485196D01*
X191500000Y-138505610D01*
X191785428Y-138485196D01*
X192065046Y-138424369D01*
X192333161Y-138324367D01*
X192584315Y-138187226D01*
X192813395Y-138015739D01*
X193015739Y-137813395D01*
X193187226Y-137584315D01*
X193324367Y-137333161D01*
X193424369Y-137065046D01*
X193485196Y-136785428D01*
X193505610Y-136500000D01*
X193485196Y-136214572D01*
X193424369Y-135934954D01*
X193324367Y-135666839D01*
X193263535Y-135555435D01*
X193187227Y-135415686D01*
X193144354Y-135358414D01*
X193015739Y-135186605D01*
X192813395Y-134984261D01*
X192698854Y-134898517D01*
X192584313Y-134812772D01*
X192333163Y-134675634D01*
X192333162Y-134675633D01*
X192333161Y-134675633D01*
X192158123Y-134610347D01*
X192065041Y-134575629D01*
X191785429Y-134514804D01*
X191500000Y-134494389D01*
X191214570Y-134514804D01*
X190934958Y-134575629D01*
X190666836Y-134675634D01*
X190415686Y-134812772D01*
X190186602Y-134984263D01*
X189984263Y-135186602D01*
X189812772Y-135415686D01*
X189675634Y-135666836D01*
X189575629Y-135934958D01*
X189514804Y-136214570D01*
X189494389Y-136499999D01*
X100505610Y-136499999D01*
X100485196Y-136214572D01*
X100424369Y-135934954D01*
X100324367Y-135666839D01*
X100263535Y-135555435D01*
X100187227Y-135415686D01*
X100144354Y-135358414D01*
X100015739Y-135186605D01*
X99813395Y-134984261D01*
X99698854Y-134898517D01*
X99584313Y-134812772D01*
X99333163Y-134675634D01*
X99333162Y-134675633D01*
X99333161Y-134675633D01*
X99158123Y-134610347D01*
X99065041Y-134575629D01*
X98785429Y-134514804D01*
X98500000Y-134494389D01*
X98214570Y-134514804D01*
X97934958Y-134575629D01*
X97666836Y-134675634D01*
X97415686Y-134812772D01*
X97186602Y-134984263D01*
X96984263Y-135186602D01*
X96812772Y-135415686D01*
X96675634Y-135666836D01*
X96575629Y-135934958D01*
X96514804Y-136214570D01*
X96494389Y-136500000D01*
X95000500Y-136500000D01*
X95000500Y-123650000D01*
X149036620Y-123650000D01*
X149056091Y-123847698D01*
X149056092Y-123847701D01*
X149113759Y-124037804D01*
X149113761Y-124037807D01*
X149203544Y-124205782D01*
X149207405Y-124213004D01*
X149333432Y-124366568D01*
X149486996Y-124492595D01*
X149662196Y-124586241D01*
X149852299Y-124643908D01*
X149940067Y-124652552D01*
X149980929Y-124663860D01*
X150015593Y-124688274D01*
X152843196Y-127515877D01*
X152854977Y-127529509D01*
X152869530Y-127549057D01*
X152907933Y-127581281D01*
X152915908Y-127588589D01*
X152919900Y-127592581D01*
X152944471Y-127612009D01*
X152947266Y-127614286D01*
X152979033Y-127640941D01*
X153005360Y-127663032D01*
X153005361Y-127663032D01*
X153006258Y-127663785D01*
X153023032Y-127674471D01*
X153024094Y-127674966D01*
X153024095Y-127674967D01*
X153042394Y-127683500D01*
X153092830Y-127707019D01*
X153096077Y-127708591D01*
X153164867Y-127743139D01*
X153183644Y-127749665D01*
X153184791Y-127749902D01*
X153184794Y-127749903D01*
X153259150Y-127765256D01*
X153262571Y-127766014D01*
X153336344Y-127783500D01*
X153337487Y-127783771D01*
X153357272Y-127785792D01*
X153358437Y-127785758D01*
X153358442Y-127785759D01*
X153434292Y-127783552D01*
X153437899Y-127783500D01*
X161959696Y-127783500D01*
X162001470Y-127790749D01*
X162038361Y-127811647D01*
X162136996Y-127892595D01*
X162312196Y-127986241D01*
X162502299Y-128043908D01*
X162700000Y-128063380D01*
X162897701Y-128043908D01*
X163087804Y-127986241D01*
X163263004Y-127892595D01*
X163361638Y-127811647D01*
X163398530Y-127790749D01*
X163440304Y-127783500D01*
X164519457Y-127783500D01*
X164566910Y-127792939D01*
X164607138Y-127819819D01*
X167503196Y-130715877D01*
X167514977Y-130729509D01*
X167529531Y-130749058D01*
X167567947Y-130781293D01*
X167575911Y-130788592D01*
X167579900Y-130792582D01*
X167604483Y-130812019D01*
X167607267Y-130814286D01*
X167665360Y-130863032D01*
X167665363Y-130863033D01*
X167666261Y-130863787D01*
X167683034Y-130874472D01*
X167684091Y-130874965D01*
X167684094Y-130874967D01*
X167752852Y-130907028D01*
X167756034Y-130908569D01*
X167823812Y-130942609D01*
X167823815Y-130942609D01*
X167824859Y-130943134D01*
X167843642Y-130949664D01*
X167844791Y-130949901D01*
X167844793Y-130949902D01*
X167919116Y-130965247D01*
X167922549Y-130966009D01*
X167996344Y-130983500D01*
X167997483Y-130983770D01*
X168017269Y-130985791D01*
X168018437Y-130985757D01*
X168018442Y-130985758D01*
X168094257Y-130983552D01*
X168097864Y-130983500D01*
X179560706Y-130983500D01*
X179578676Y-130984809D01*
X179582114Y-130985312D01*
X179602789Y-130988341D01*
X179652726Y-130983971D01*
X179663533Y-130983500D01*
X179669178Y-130983500D01*
X179669180Y-130983500D01*
X179700364Y-130979854D01*
X179703858Y-130979497D01*
X179779426Y-130972887D01*
X179779429Y-130972885D01*
X179780594Y-130972784D01*
X179800015Y-130968478D01*
X179801110Y-130968079D01*
X179801113Y-130968079D01*
X179872414Y-130942126D01*
X179875708Y-130940981D01*
X179947738Y-130917114D01*
X179947742Y-130917111D01*
X179948863Y-130916740D01*
X179966751Y-130908080D01*
X179968375Y-130907012D01*
X180031103Y-130865753D01*
X180034129Y-130863826D01*
X180035416Y-130863032D01*
X180098651Y-130824030D01*
X180098655Y-130824025D01*
X180099650Y-130823412D01*
X180115069Y-130810853D01*
X180115870Y-130810003D01*
X180115874Y-130810001D01*
X180167962Y-130754789D01*
X180170408Y-130752271D01*
X180943977Y-129978702D01*
X184374848Y-129978702D01*
X184557479Y-130103217D01*
X184800542Y-130220270D01*
X185058339Y-130299791D01*
X185325109Y-130340000D01*
X185594891Y-130340000D01*
X185861660Y-130299791D01*
X186119460Y-130220270D01*
X186362523Y-130103217D01*
X186545150Y-129978702D01*
X189454848Y-129978702D01*
X189637479Y-130103217D01*
X189880542Y-130220270D01*
X190138339Y-130299791D01*
X190405109Y-130340000D01*
X190674891Y-130340000D01*
X190941660Y-130299791D01*
X191199460Y-130220270D01*
X191442523Y-130103217D01*
X191625150Y-129978702D01*
X190540000Y-128893553D01*
X189454848Y-129978702D01*
X186545150Y-129978702D01*
X185460000Y-128893553D01*
X184374848Y-129978702D01*
X180943977Y-129978702D01*
X182240881Y-128681798D01*
X182254506Y-128670023D01*
X182274058Y-128655469D01*
X182306288Y-128617056D01*
X182313576Y-128609103D01*
X182317581Y-128605100D01*
X182337047Y-128580479D01*
X182339295Y-128577721D01*
X182370948Y-128540000D01*
X182370949Y-128539999D01*
X183654952Y-128539999D01*
X183675113Y-128809026D01*
X183735146Y-129072049D01*
X183833708Y-129323178D01*
X183968598Y-129556816D01*
X184022295Y-129624150D01*
X185106447Y-128540001D01*
X185106447Y-128540000D01*
X184022295Y-127455848D01*
X183968598Y-127523182D01*
X183833708Y-127756821D01*
X183735146Y-128007950D01*
X183675113Y-128270973D01*
X183654952Y-128539999D01*
X182370949Y-128539999D01*
X182388032Y-128519640D01*
X182388032Y-128519639D01*
X182388787Y-128518740D01*
X182399468Y-128501974D01*
X182399965Y-128500906D01*
X182399967Y-128500905D01*
X182432034Y-128432136D01*
X182433562Y-128428978D01*
X182467609Y-128361188D01*
X182467610Y-128361182D01*
X182468137Y-128360134D01*
X182474666Y-128341352D01*
X182485682Y-128288003D01*
X182490244Y-128265905D01*
X182491021Y-128262401D01*
X182508771Y-128187512D01*
X182510792Y-128167727D01*
X182510758Y-128166562D01*
X182510759Y-128166558D01*
X182508551Y-128090706D01*
X182508500Y-128087102D01*
X182508500Y-127101296D01*
X184374848Y-127101296D01*
X185460000Y-128186447D01*
X186897703Y-129624151D01*
X186897704Y-129624150D01*
X186951400Y-129556818D01*
X187086291Y-129323178D01*
X187184853Y-129072049D01*
X187244886Y-128809026D01*
X187265047Y-128539999D01*
X187244886Y-128270973D01*
X187184853Y-128007950D01*
X187086291Y-127756821D01*
X186982181Y-127576496D01*
X186965582Y-127512641D01*
X186984084Y-127449311D01*
X187032448Y-127404435D01*
X187096983Y-127390718D01*
X187159419Y-127412042D01*
X187218285Y-127452176D01*
X187455746Y-127566532D01*
X187707600Y-127644218D01*
X187908316Y-127674471D01*
X187968218Y-127683500D01*
X187968219Y-127683500D01*
X188231781Y-127683500D01*
X188231782Y-127683500D01*
X188271063Y-127677579D01*
X188492400Y-127644218D01*
X188744254Y-127566532D01*
X188768953Y-127554637D01*
X188830167Y-127542579D01*
X188889507Y-127561858D01*
X188931947Y-127607595D01*
X188946740Y-127668209D01*
X188930142Y-127728355D01*
X188913709Y-127756819D01*
X188815146Y-128007950D01*
X188755113Y-128270973D01*
X188734952Y-128539999D01*
X188755113Y-128809026D01*
X188815146Y-129072049D01*
X188913708Y-129323178D01*
X189048598Y-129556816D01*
X189102295Y-129624150D01*
X190186447Y-128540000D01*
X190893553Y-128540000D01*
X191977703Y-129624151D01*
X191977704Y-129624150D01*
X192031400Y-129556818D01*
X192166291Y-129323178D01*
X192264853Y-129072049D01*
X192324886Y-128809026D01*
X192345047Y-128539999D01*
X192324886Y-128270973D01*
X192264853Y-128007950D01*
X192166291Y-127756821D01*
X192031398Y-127523178D01*
X191977704Y-127455847D01*
X190893553Y-128540000D01*
X190186447Y-128540000D01*
X190540000Y-128186447D01*
X191625150Y-127101296D01*
X191442519Y-126976780D01*
X191199460Y-126859729D01*
X190941660Y-126780208D01*
X190674891Y-126740000D01*
X190405109Y-126740000D01*
X190138339Y-126780208D01*
X189880544Y-126859728D01*
X189841506Y-126878528D01*
X189780288Y-126890585D01*
X189720949Y-126871304D01*
X189678511Y-126825566D01*
X189663719Y-126764951D01*
X189680316Y-126704810D01*
X189688796Y-126690124D01*
X189785087Y-126444780D01*
X189843735Y-126187826D01*
X189863431Y-125925000D01*
X189843735Y-125662174D01*
X189785087Y-125405220D01*
X189747703Y-125309967D01*
X189741293Y-125241612D01*
X189772233Y-125180324D01*
X189831038Y-125144890D01*
X189899681Y-125146174D01*
X190138339Y-125219791D01*
X190405109Y-125260000D01*
X190674891Y-125260000D01*
X190941660Y-125219791D01*
X191199460Y-125140270D01*
X191442523Y-125023217D01*
X191625150Y-124898702D01*
X190540000Y-123813553D01*
X190186447Y-123460000D01*
X190893553Y-123460000D01*
X191977703Y-124544151D01*
X191977704Y-124544150D01*
X192031400Y-124476818D01*
X192166291Y-124243178D01*
X192264853Y-123992049D01*
X192324886Y-123729026D01*
X192345047Y-123460000D01*
X192324886Y-123190973D01*
X192264853Y-122927950D01*
X192166291Y-122676821D01*
X192031398Y-122443178D01*
X191977704Y-122375847D01*
X190893553Y-123460000D01*
X190186447Y-123460000D01*
X189102295Y-122375848D01*
X189048598Y-122443182D01*
X188913708Y-122676821D01*
X188815146Y-122927950D01*
X188755113Y-123190973D01*
X188734952Y-123460000D01*
X188755113Y-123729026D01*
X188815146Y-123992049D01*
X188860967Y-124108797D01*
X188867377Y-124177152D01*
X188836438Y-124238440D01*
X188777633Y-124273874D01*
X188708990Y-124272590D01*
X188492401Y-124205782D01*
X188231782Y-124166500D01*
X188231781Y-124166500D01*
X187968219Y-124166500D01*
X187968218Y-124166500D01*
X187707598Y-124205782D01*
X187455747Y-124283467D01*
X187265350Y-124375158D01*
X187207838Y-124387382D01*
X187151161Y-124371741D01*
X187108061Y-124331749D01*
X187088227Y-124276399D01*
X187096120Y-124218135D01*
X187184853Y-123992047D01*
X187244886Y-123729026D01*
X187265047Y-123460000D01*
X187244886Y-123190973D01*
X187184853Y-122927950D01*
X187086291Y-122676821D01*
X186951398Y-122443178D01*
X186897704Y-122375847D01*
X185460000Y-123813553D01*
X184374848Y-124898702D01*
X184557479Y-125023217D01*
X184800542Y-125140270D01*
X185058339Y-125219791D01*
X185325109Y-125260000D01*
X185594891Y-125260000D01*
X185861660Y-125219791D01*
X186119457Y-125140270D01*
X186327330Y-125040164D01*
X186384841Y-125027939D01*
X186441518Y-125043581D01*
X186484619Y-125083573D01*
X186504453Y-125138922D01*
X186496560Y-125197186D01*
X186414913Y-125405217D01*
X186356264Y-125662175D01*
X186336568Y-125924999D01*
X186356264Y-126187824D01*
X186414913Y-126444780D01*
X186511204Y-126690124D01*
X186609021Y-126859549D01*
X186625620Y-126923404D01*
X186607118Y-126986734D01*
X186558754Y-127031610D01*
X186494218Y-127045327D01*
X186431782Y-127024003D01*
X186362519Y-126976780D01*
X186119460Y-126859729D01*
X185861660Y-126780208D01*
X185594891Y-126740000D01*
X185325109Y-126740000D01*
X185058339Y-126780208D01*
X184800542Y-126859729D01*
X184557476Y-126976783D01*
X184374848Y-127101296D01*
X182508500Y-127101296D01*
X182508500Y-123460000D01*
X183654952Y-123460000D01*
X183675113Y-123729026D01*
X183735146Y-123992049D01*
X183833708Y-124243178D01*
X183968598Y-124476816D01*
X184022295Y-124544150D01*
X185106447Y-123460001D01*
X185106447Y-123460000D01*
X184022295Y-122375848D01*
X183968598Y-122443182D01*
X183833708Y-122676821D01*
X183735146Y-122927950D01*
X183675113Y-123190973D01*
X183654952Y-123460000D01*
X182508500Y-123460000D01*
X182508500Y-122214295D01*
X182509809Y-122196325D01*
X182510346Y-122192652D01*
X182513341Y-122172211D01*
X182508971Y-122122273D01*
X182508500Y-122111467D01*
X182508500Y-122105824D01*
X182508500Y-122105820D01*
X182504851Y-122074608D01*
X182504499Y-122071161D01*
X182500137Y-122021296D01*
X184374848Y-122021296D01*
X185460000Y-123106447D01*
X185460001Y-123106447D01*
X186545150Y-122021296D01*
X189454848Y-122021296D01*
X190540000Y-123106447D01*
X190540001Y-123106447D01*
X191625150Y-122021296D01*
X191442519Y-121896780D01*
X191199460Y-121779729D01*
X190941660Y-121700208D01*
X190674891Y-121660000D01*
X190405109Y-121660000D01*
X190138339Y-121700208D01*
X189880542Y-121779729D01*
X189637476Y-121896783D01*
X189454848Y-122021296D01*
X186545150Y-122021296D01*
X186362519Y-121896780D01*
X186119460Y-121779729D01*
X185861660Y-121700208D01*
X185594891Y-121660000D01*
X185325109Y-121660000D01*
X185058339Y-121700208D01*
X184800542Y-121779729D01*
X184557476Y-121896783D01*
X184374848Y-122021296D01*
X182500137Y-122021296D01*
X182497887Y-121995574D01*
X182497785Y-121994407D01*
X182493481Y-121974994D01*
X182493079Y-121973890D01*
X182493079Y-121973887D01*
X182467120Y-121902566D01*
X182465981Y-121899290D01*
X182442114Y-121827262D01*
X182442113Y-121827261D01*
X182441742Y-121826140D01*
X182433078Y-121808245D01*
X182390754Y-121743895D01*
X182388815Y-121740852D01*
X182348412Y-121675347D01*
X182335849Y-121659925D01*
X182279826Y-121607071D01*
X182277238Y-121604557D01*
X177291005Y-116618324D01*
X177266591Y-116583660D01*
X177255283Y-116542797D01*
X177254302Y-116532841D01*
X177243908Y-116427299D01*
X177186241Y-116237196D01*
X177092595Y-116061996D01*
X176966568Y-115908432D01*
X176813004Y-115782405D01*
X176813003Y-115782404D01*
X176718390Y-115731833D01*
X176637804Y-115688759D01*
X176447701Y-115631092D01*
X176447698Y-115631091D01*
X176250000Y-115611620D01*
X176052301Y-115631091D01*
X175988931Y-115650314D01*
X175862196Y-115688759D01*
X175862192Y-115688760D01*
X175862192Y-115688761D01*
X175686996Y-115782404D01*
X175533432Y-115908432D01*
X175407404Y-116061996D01*
X175313761Y-116237192D01*
X175313759Y-116237196D01*
X175275314Y-116363931D01*
X175256091Y-116427301D01*
X175236620Y-116625000D01*
X175256091Y-116822698D01*
X175256092Y-116822701D01*
X175313759Y-117012804D01*
X175407405Y-117188004D01*
X175533432Y-117341568D01*
X175686996Y-117467595D01*
X175862196Y-117561241D01*
X176052299Y-117618908D01*
X176112333Y-117624820D01*
X176153196Y-117636128D01*
X176187861Y-117660542D01*
X180955181Y-122427862D01*
X180982061Y-122468090D01*
X180991500Y-122515543D01*
X180991500Y-127734457D01*
X180982061Y-127781910D01*
X180955181Y-127822138D01*
X179347138Y-129430181D01*
X179306910Y-129457061D01*
X179259457Y-129466500D01*
X168450543Y-129466500D01*
X168403090Y-129457061D01*
X168362862Y-129430181D01*
X165434499Y-126501818D01*
X165429549Y-126496571D01*
X165387682Y-126449525D01*
X165336087Y-126413397D01*
X165330304Y-126409091D01*
X165280908Y-126370034D01*
X165280906Y-126370033D01*
X165270524Y-126365191D01*
X165251811Y-126354387D01*
X165242433Y-126347820D01*
X165183908Y-126324569D01*
X165177287Y-126321713D01*
X165120210Y-126295097D01*
X165110671Y-126293127D01*
X165108984Y-126292779D01*
X165088289Y-126286584D01*
X165077648Y-126282357D01*
X165015343Y-126273229D01*
X165008244Y-126271977D01*
X164946558Y-126259240D01*
X164935098Y-126259573D01*
X164913535Y-126258317D01*
X164902211Y-126256658D01*
X164839484Y-126262146D01*
X164832316Y-126262564D01*
X164769321Y-126264398D01*
X164769319Y-126264398D01*
X164758785Y-126264705D01*
X164745151Y-126266500D01*
X163379379Y-126266500D01*
X163337605Y-126259251D01*
X163300714Y-126238353D01*
X163263003Y-126207404D01*
X163168390Y-126156833D01*
X163087804Y-126113759D01*
X162897701Y-126056092D01*
X162897698Y-126056091D01*
X162700000Y-126036620D01*
X162502301Y-126056091D01*
X162438931Y-126075314D01*
X162312196Y-126113759D01*
X162312192Y-126113760D01*
X162312192Y-126113761D01*
X162136996Y-126207404D01*
X162099286Y-126238353D01*
X162062395Y-126259251D01*
X162020621Y-126266500D01*
X153790543Y-126266500D01*
X153743090Y-126257061D01*
X153702862Y-126230181D01*
X151088274Y-123615593D01*
X151063860Y-123580929D01*
X151052552Y-123540066D01*
X151044666Y-123460001D01*
X151043908Y-123452299D01*
X150986241Y-123262196D01*
X150892595Y-123086996D01*
X150766568Y-122933432D01*
X150613004Y-122807405D01*
X150613003Y-122807404D01*
X150518390Y-122756833D01*
X150437804Y-122713759D01*
X150247701Y-122656092D01*
X150247698Y-122656091D01*
X150050000Y-122636620D01*
X149852301Y-122656091D01*
X149788931Y-122675314D01*
X149662196Y-122713759D01*
X149662192Y-122713760D01*
X149662192Y-122713761D01*
X149486996Y-122807404D01*
X149333432Y-122933432D01*
X149207404Y-123086996D01*
X149151828Y-123190973D01*
X149113759Y-123262196D01*
X149075314Y-123388931D01*
X149056091Y-123452301D01*
X149036620Y-123650000D01*
X95000500Y-123650000D01*
X95000500Y-121925000D01*
X167111620Y-121925000D01*
X167131091Y-122122698D01*
X167131092Y-122122701D01*
X167188759Y-122312804D01*
X167188761Y-122312807D01*
X167271760Y-122468090D01*
X167282405Y-122488004D01*
X167408432Y-122641568D01*
X167561996Y-122767595D01*
X167737196Y-122861241D01*
X167927299Y-122918908D01*
X168015067Y-122927552D01*
X168055929Y-122938860D01*
X168090593Y-122963274D01*
X170555181Y-125427862D01*
X170582061Y-125468090D01*
X170591500Y-125515543D01*
X170591500Y-127015158D01*
X170584251Y-127056932D01*
X170563353Y-127093823D01*
X170507404Y-127161996D01*
X170413761Y-127337192D01*
X170413759Y-127337196D01*
X170391055Y-127412042D01*
X170356091Y-127527301D01*
X170338236Y-127708591D01*
X170336620Y-127725000D01*
X170338354Y-127742609D01*
X170356091Y-127922698D01*
X170356092Y-127922701D01*
X170413759Y-128112804D01*
X170413761Y-128112807D01*
X170498301Y-128270973D01*
X170507405Y-128288004D01*
X170633432Y-128441568D01*
X170786996Y-128567595D01*
X170962196Y-128661241D01*
X171152299Y-128718908D01*
X171350000Y-128738380D01*
X171547701Y-128718908D01*
X171737804Y-128661241D01*
X171913004Y-128567595D01*
X172066568Y-128441568D01*
X172192595Y-128288004D01*
X172286241Y-128112804D01*
X172343908Y-127922701D01*
X172363380Y-127725000D01*
X172343908Y-127527299D01*
X172286241Y-127337196D01*
X172192595Y-127161996D01*
X172136647Y-127093823D01*
X172115749Y-127056932D01*
X172108500Y-127015158D01*
X172108500Y-125214295D01*
X172109809Y-125196325D01*
X172110346Y-125192652D01*
X172113341Y-125172211D01*
X172108971Y-125122273D01*
X172108500Y-125111467D01*
X172108500Y-125105824D01*
X172108500Y-125105820D01*
X172104851Y-125074608D01*
X172104499Y-125071161D01*
X172097887Y-124995574D01*
X172097785Y-124994407D01*
X172093481Y-124974994D01*
X172093079Y-124973890D01*
X172093079Y-124973887D01*
X172067120Y-124902566D01*
X172065981Y-124899290D01*
X172042114Y-124827262D01*
X172042113Y-124827261D01*
X172041742Y-124826140D01*
X172033078Y-124808245D01*
X171990754Y-124743895D01*
X171988815Y-124740852D01*
X171948412Y-124675347D01*
X171935849Y-124659925D01*
X171879826Y-124607071D01*
X171877238Y-124604557D01*
X169163274Y-121890593D01*
X169138860Y-121855929D01*
X169127552Y-121815066D01*
X169120542Y-121743895D01*
X169118908Y-121727299D01*
X169061241Y-121537196D01*
X168967595Y-121361996D01*
X168841568Y-121208432D01*
X168688004Y-121082405D01*
X168688003Y-121082404D01*
X168593390Y-121031833D01*
X168512804Y-120988759D01*
X168322701Y-120931092D01*
X168322698Y-120931091D01*
X168125000Y-120911620D01*
X167927301Y-120931091D01*
X167863931Y-120950314D01*
X167737196Y-120988759D01*
X167737192Y-120988760D01*
X167737192Y-120988761D01*
X167561996Y-121082404D01*
X167408432Y-121208432D01*
X167282404Y-121361996D01*
X167188761Y-121537192D01*
X167188759Y-121537196D01*
X167159043Y-121635157D01*
X167131091Y-121727301D01*
X167111620Y-121925000D01*
X95000500Y-121925000D01*
X95000500Y-121394925D01*
X98238625Y-121394925D01*
X98322420Y-121453599D01*
X98536507Y-121553430D01*
X98764681Y-121614569D01*
X99000000Y-121635157D01*
X99235318Y-121614569D01*
X99463492Y-121553430D01*
X99677576Y-121453600D01*
X99761373Y-121394925D01*
X100778625Y-121394925D01*
X100862420Y-121453599D01*
X101076507Y-121553430D01*
X101304681Y-121614569D01*
X101540000Y-121635157D01*
X101775318Y-121614569D01*
X102003492Y-121553430D01*
X102217576Y-121453600D01*
X102301373Y-121394925D01*
X101540000Y-120633553D01*
X100778625Y-121394925D01*
X99761373Y-121394925D01*
X99000000Y-120633553D01*
X98238625Y-121394925D01*
X95000500Y-121394925D01*
X95000500Y-120280000D01*
X97644842Y-120280000D01*
X97665430Y-120515318D01*
X97726569Y-120743492D01*
X97826400Y-120957580D01*
X97885073Y-121041373D01*
X98646447Y-120280001D01*
X99353553Y-120280001D01*
X100114925Y-121041373D01*
X100168424Y-120964969D01*
X100212742Y-120926103D01*
X100269999Y-120912092D01*
X100327256Y-120926103D01*
X100371574Y-120964969D01*
X100425072Y-121041373D01*
X100425073Y-121041373D01*
X101186447Y-120280001D01*
X101893553Y-120280001D01*
X102654925Y-121041373D01*
X102713600Y-120957576D01*
X102813430Y-120743492D01*
X102874569Y-120515318D01*
X102895157Y-120280000D01*
X102874569Y-120044681D01*
X102813430Y-119816507D01*
X102713599Y-119602421D01*
X102654926Y-119518626D01*
X102654925Y-119518625D01*
X101893553Y-120280000D01*
X101893553Y-120280001D01*
X101186447Y-120280001D01*
X101186447Y-120280000D01*
X100425072Y-119518625D01*
X100425072Y-119518626D01*
X100371574Y-119595030D01*
X100327256Y-119633896D01*
X100269999Y-119647907D01*
X100212742Y-119633896D01*
X100168424Y-119595030D01*
X100114925Y-119518626D01*
X100114925Y-119518625D01*
X99353553Y-120280000D01*
X99353553Y-120280001D01*
X98646447Y-120280001D01*
X98646447Y-120279999D01*
X97885073Y-119518625D01*
X97885072Y-119518625D01*
X97826399Y-119602422D01*
X97726569Y-119816507D01*
X97665430Y-120044681D01*
X97644842Y-120280000D01*
X95000500Y-120280000D01*
X95000500Y-117740000D01*
X97636843Y-117740000D01*
X97655435Y-117964363D01*
X97710705Y-118182618D01*
X97801138Y-118388788D01*
X97801140Y-118388791D01*
X97924278Y-118577268D01*
X98076760Y-118742906D01*
X98254424Y-118881189D01*
X98297697Y-118904607D01*
X98343336Y-118947156D01*
X98362475Y-119006546D01*
X98350266Y-119067738D01*
X98309801Y-119115237D01*
X98238625Y-119165072D01*
X99000000Y-119926447D01*
X99000001Y-119926447D01*
X99761373Y-119165073D01*
X99761373Y-119165072D01*
X99690198Y-119115235D01*
X99649733Y-119067736D01*
X99637525Y-119006544D01*
X99656665Y-118947154D01*
X99702299Y-118904608D01*
X99745576Y-118881189D01*
X99923240Y-118742906D01*
X100075722Y-118577268D01*
X100166190Y-118438795D01*
X100210982Y-118397561D01*
X100270000Y-118382616D01*
X100329018Y-118397561D01*
X100373809Y-118438795D01*
X100464278Y-118577268D01*
X100616760Y-118742906D01*
X100794424Y-118881189D01*
X100837697Y-118904607D01*
X100883336Y-118947156D01*
X100902475Y-119006546D01*
X100890266Y-119067738D01*
X100849801Y-119115237D01*
X100778625Y-119165072D01*
X101540000Y-119926447D01*
X101540001Y-119926447D01*
X102301373Y-119165073D01*
X102301373Y-119165072D01*
X102230198Y-119115235D01*
X102189733Y-119067736D01*
X102177525Y-119006544D01*
X102196665Y-118947154D01*
X102242299Y-118904608D01*
X102285576Y-118881189D01*
X102463240Y-118742906D01*
X102615722Y-118577268D01*
X102738860Y-118388791D01*
X102829296Y-118182616D01*
X102884564Y-117964368D01*
X102903156Y-117740000D01*
X102885674Y-117529029D01*
X102892826Y-117476113D01*
X102921567Y-117431112D01*
X106540881Y-113811798D01*
X106554506Y-113800023D01*
X106574058Y-113785469D01*
X106606288Y-113747056D01*
X106613576Y-113739103D01*
X106617580Y-113735101D01*
X106637043Y-113710485D01*
X106639245Y-113707781D01*
X106688032Y-113649640D01*
X106688033Y-113649636D01*
X106688791Y-113648734D01*
X106699468Y-113631975D01*
X106699965Y-113630907D01*
X106699967Y-113630906D01*
X106732040Y-113562121D01*
X106733538Y-113559026D01*
X106767609Y-113491188D01*
X106767610Y-113491180D01*
X106768140Y-113490127D01*
X106774662Y-113471363D01*
X106774900Y-113470210D01*
X106774902Y-113470206D01*
X106790251Y-113395865D01*
X106790996Y-113392503D01*
X106808500Y-113318656D01*
X106808500Y-113318651D01*
X106808770Y-113317512D01*
X106810791Y-113297730D01*
X106810757Y-113296562D01*
X106810758Y-113296558D01*
X106808552Y-113220742D01*
X106808500Y-113217136D01*
X106808500Y-103460750D01*
X106824609Y-103399631D01*
X106868751Y-103354392D01*
X106929456Y-103336787D01*
X106990951Y-103351390D01*
X107149696Y-103436241D01*
X107339799Y-103493908D01*
X107537500Y-103513380D01*
X107735201Y-103493908D01*
X107925304Y-103436241D01*
X108100504Y-103342595D01*
X108168676Y-103286647D01*
X108205568Y-103265749D01*
X108247342Y-103258500D01*
X111334457Y-103258500D01*
X111381910Y-103267939D01*
X111422138Y-103294819D01*
X119811724Y-111684405D01*
X119836137Y-111719068D01*
X119847446Y-111759930D01*
X119856092Y-111847704D01*
X119913758Y-112037803D01*
X120007404Y-112213003D01*
X120030003Y-112240539D01*
X120133432Y-112366568D01*
X120286996Y-112492595D01*
X120462196Y-112586241D01*
X120652299Y-112643908D01*
X120850000Y-112663380D01*
X121047701Y-112643908D01*
X121237804Y-112586241D01*
X121413004Y-112492595D01*
X121566568Y-112366568D01*
X121692595Y-112213004D01*
X121786241Y-112037804D01*
X121843908Y-111847701D01*
X121863380Y-111650000D01*
X121843908Y-111452299D01*
X121786241Y-111262196D01*
X121692595Y-111086996D01*
X121566568Y-110933432D01*
X121440539Y-110830003D01*
X121413003Y-110807404D01*
X121237803Y-110713758D01*
X121047704Y-110656092D01*
X120959930Y-110647446D01*
X120919068Y-110636137D01*
X120884405Y-110611724D01*
X112281804Y-102009123D01*
X112270021Y-101995489D01*
X112255467Y-101975939D01*
X112217061Y-101943712D01*
X112209087Y-101936405D01*
X112205100Y-101932418D01*
X112180514Y-101912978D01*
X112177756Y-101910733D01*
X112119640Y-101861968D01*
X112119638Y-101861966D01*
X112118743Y-101861216D01*
X112101965Y-101850526D01*
X112032159Y-101817974D01*
X112028917Y-101816404D01*
X111960144Y-101781866D01*
X111941349Y-101775333D01*
X111865926Y-101759759D01*
X111862406Y-101758979D01*
X111805845Y-101745574D01*
X111788656Y-101741500D01*
X111787508Y-101741228D01*
X111767727Y-101739207D01*
X111766558Y-101739241D01*
X111690706Y-101741448D01*
X111687102Y-101741500D01*
X108247342Y-101741500D01*
X108205568Y-101734251D01*
X108168677Y-101713353D01*
X108100503Y-101657404D01*
X107993797Y-101600369D01*
X107925304Y-101563759D01*
X107735201Y-101506092D01*
X107735198Y-101506091D01*
X107537500Y-101486620D01*
X107339801Y-101506091D01*
X107202645Y-101547697D01*
X107149696Y-101563759D01*
X106990951Y-101648609D01*
X106929456Y-101663213D01*
X106868751Y-101645608D01*
X106824609Y-101600369D01*
X106808500Y-101539250D01*
X106808500Y-94624520D01*
X106826773Y-94559730D01*
X106876205Y-94514035D01*
X106942228Y-94500902D01*
X107100000Y-94513319D01*
X107344557Y-94494072D01*
X107583092Y-94436805D01*
X107809732Y-94342927D01*
X108018896Y-94214752D01*
X108205433Y-94055433D01*
X108364752Y-93868896D01*
X108492927Y-93659732D01*
X108586805Y-93433092D01*
X108644072Y-93194557D01*
X108663319Y-92950000D01*
X108644072Y-92705443D01*
X108598809Y-92516907D01*
X108586805Y-92466907D01*
X108559308Y-92400525D01*
X108492927Y-92240268D01*
X108364752Y-92031104D01*
X108205433Y-91844567D01*
X108174020Y-91817738D01*
X108146565Y-91794288D01*
X108114488Y-91751912D01*
X108103098Y-91699998D01*
X108114489Y-91648084D01*
X108146565Y-91605711D01*
X108205433Y-91555433D01*
X108364752Y-91368896D01*
X108492927Y-91159732D01*
X108586805Y-90933092D01*
X108644072Y-90694557D01*
X108663319Y-90450000D01*
X108644072Y-90205443D01*
X108586805Y-89966908D01*
X108492927Y-89740268D01*
X108364752Y-89531104D01*
X108205433Y-89344567D01*
X108018896Y-89185248D01*
X107809732Y-89057073D01*
X107723376Y-89021303D01*
X107583092Y-88963194D01*
X107344558Y-88905928D01*
X107100000Y-88886681D01*
X106855441Y-88905928D01*
X106616907Y-88963194D01*
X106390268Y-89057073D01*
X106181103Y-89185248D01*
X105994567Y-89344567D01*
X105835248Y-89531103D01*
X105707073Y-89740268D01*
X105613194Y-89966907D01*
X105555928Y-90205441D01*
X105536681Y-90450000D01*
X105555928Y-90694558D01*
X105613194Y-90933092D01*
X105667162Y-91063379D01*
X105707073Y-91159732D01*
X105835248Y-91368896D01*
X105994567Y-91555433D01*
X106043372Y-91597117D01*
X106053434Y-91605711D01*
X106085511Y-91648087D01*
X106096901Y-91700000D01*
X106085511Y-91751913D01*
X106053434Y-91794289D01*
X105994568Y-91844566D01*
X105835248Y-92031103D01*
X105707073Y-92240268D01*
X105613194Y-92466907D01*
X105555928Y-92705441D01*
X105536681Y-92950000D01*
X105555928Y-93194560D01*
X105583194Y-93308135D01*
X105585168Y-93356002D01*
X105568849Y-93401044D01*
X105536674Y-93436539D01*
X105525943Y-93444528D01*
X105493714Y-93482936D01*
X105486418Y-93490900D01*
X105482418Y-93494900D01*
X105462984Y-93519478D01*
X105460710Y-93522270D01*
X105411220Y-93581251D01*
X105400521Y-93598044D01*
X105367982Y-93667824D01*
X105366427Y-93671037D01*
X105332896Y-93737807D01*
X105331862Y-93739866D01*
X105325332Y-93758654D01*
X105309759Y-93834072D01*
X105308979Y-93837591D01*
X105291228Y-93912488D01*
X105289207Y-93932272D01*
X105291448Y-94009293D01*
X105291500Y-94012899D01*
X105291500Y-112864457D01*
X105282061Y-112911910D01*
X105255181Y-112952138D01*
X103092213Y-115115104D01*
X103031370Y-115148484D01*
X102962121Y-115143945D01*
X102906156Y-115102909D01*
X102881004Y-115038230D01*
X102874569Y-114964681D01*
X102813430Y-114736507D01*
X102713599Y-114522421D01*
X102654926Y-114438626D01*
X102654925Y-114438625D01*
X101540000Y-115553553D01*
X100778625Y-116314925D01*
X100849801Y-116364763D01*
X100890265Y-116412261D01*
X100902474Y-116473452D01*
X100883336Y-116532841D01*
X100837698Y-116575392D01*
X100794422Y-116598812D01*
X100616760Y-116737094D01*
X100464279Y-116902730D01*
X100373809Y-117041205D01*
X100329017Y-117082438D01*
X100270000Y-117097383D01*
X100210983Y-117082438D01*
X100166191Y-117041205D01*
X100146043Y-117010367D01*
X100075722Y-116902732D01*
X99923240Y-116737094D01*
X99770646Y-116618324D01*
X99745575Y-116598810D01*
X99702302Y-116575392D01*
X99656663Y-116532842D01*
X99637525Y-116473452D01*
X99649734Y-116412261D01*
X99690198Y-116364763D01*
X99761373Y-116314925D01*
X99000000Y-115553553D01*
X98238625Y-116314925D01*
X98309801Y-116364763D01*
X98350265Y-116412261D01*
X98362474Y-116473452D01*
X98343336Y-116532841D01*
X98297698Y-116575392D01*
X98254422Y-116598812D01*
X98076760Y-116737094D01*
X97924279Y-116902730D01*
X97801138Y-117091211D01*
X97730000Y-117253393D01*
X97710704Y-117297384D01*
X97699515Y-117341568D01*
X97655435Y-117515636D01*
X97636843Y-117740000D01*
X95000500Y-117740000D01*
X95000500Y-115200000D01*
X97644842Y-115200000D01*
X97665430Y-115435318D01*
X97726569Y-115663492D01*
X97826400Y-115877580D01*
X97885073Y-115961373D01*
X98646447Y-115200001D01*
X99353553Y-115200001D01*
X100114925Y-115961373D01*
X100168424Y-115884969D01*
X100212742Y-115846103D01*
X100269999Y-115832092D01*
X100327256Y-115846103D01*
X100371574Y-115884969D01*
X100425072Y-115961373D01*
X100425073Y-115961373D01*
X101186447Y-115200001D01*
X101186447Y-115200000D01*
X100425072Y-114438625D01*
X100425072Y-114438626D01*
X100371574Y-114515030D01*
X100327256Y-114553896D01*
X100269999Y-114567907D01*
X100212742Y-114553896D01*
X100168424Y-114515030D01*
X100114925Y-114438626D01*
X100114925Y-114438625D01*
X99353553Y-115200000D01*
X99353553Y-115200001D01*
X98646447Y-115200001D01*
X98646447Y-115199999D01*
X97885073Y-114438625D01*
X97885072Y-114438625D01*
X97826399Y-114522422D01*
X97726569Y-114736507D01*
X97665430Y-114964681D01*
X97644842Y-115200000D01*
X95000500Y-115200000D01*
X95000500Y-112660000D01*
X97636843Y-112660000D01*
X97655435Y-112884363D01*
X97655435Y-112884366D01*
X97655436Y-112884368D01*
X97663400Y-112915819D01*
X97710705Y-113102618D01*
X97801138Y-113308788D01*
X97801140Y-113308791D01*
X97924278Y-113497268D01*
X98076760Y-113662906D01*
X98254424Y-113801189D01*
X98297697Y-113824607D01*
X98343336Y-113867156D01*
X98362475Y-113926546D01*
X98350266Y-113987738D01*
X98309801Y-114035237D01*
X98238625Y-114085072D01*
X99000000Y-114846447D01*
X99000001Y-114846447D01*
X99761373Y-114085073D01*
X99761373Y-114085072D01*
X99690198Y-114035235D01*
X99649733Y-113987736D01*
X99637525Y-113926544D01*
X99656665Y-113867154D01*
X99702299Y-113824608D01*
X99745576Y-113801189D01*
X99923240Y-113662906D01*
X100075722Y-113497268D01*
X100166190Y-113358795D01*
X100210982Y-113317561D01*
X100270000Y-113302616D01*
X100329018Y-113317561D01*
X100373809Y-113358795D01*
X100460305Y-113491188D01*
X100464278Y-113497268D01*
X100616760Y-113662906D01*
X100794424Y-113801189D01*
X100837697Y-113824607D01*
X100883336Y-113867156D01*
X100902475Y-113926546D01*
X100890266Y-113987738D01*
X100849801Y-114035237D01*
X100778625Y-114085072D01*
X101540000Y-114846447D01*
X101540001Y-114846447D01*
X102301373Y-114085073D01*
X102301373Y-114085072D01*
X102230198Y-114035235D01*
X102189733Y-113987736D01*
X102177525Y-113926544D01*
X102196665Y-113867154D01*
X102242299Y-113824608D01*
X102285576Y-113801189D01*
X102463240Y-113662906D01*
X102615722Y-113497268D01*
X102738860Y-113308791D01*
X102829296Y-113102616D01*
X102884564Y-112884368D01*
X102903156Y-112660000D01*
X102884564Y-112435632D01*
X102829296Y-112217384D01*
X102738860Y-112011209D01*
X102615722Y-111822732D01*
X102463240Y-111657094D01*
X102324955Y-111549462D01*
X102285575Y-111518810D01*
X102242302Y-111495392D01*
X102196663Y-111452842D01*
X102177525Y-111393452D01*
X102189734Y-111332261D01*
X102230198Y-111284763D01*
X102301373Y-111234925D01*
X101540000Y-110473553D01*
X100778625Y-111234925D01*
X100849801Y-111284763D01*
X100890265Y-111332261D01*
X100902474Y-111393452D01*
X100883336Y-111452841D01*
X100837698Y-111495392D01*
X100794422Y-111518812D01*
X100616760Y-111657094D01*
X100464279Y-111822730D01*
X100373809Y-111961205D01*
X100329017Y-112002438D01*
X100270000Y-112017383D01*
X100210983Y-112002438D01*
X100166191Y-111961205D01*
X100146043Y-111930367D01*
X100075722Y-111822732D01*
X99923240Y-111657094D01*
X99784955Y-111549462D01*
X99745575Y-111518810D01*
X99702302Y-111495392D01*
X99656663Y-111452842D01*
X99637525Y-111393452D01*
X99649734Y-111332261D01*
X99690198Y-111284763D01*
X99761373Y-111234925D01*
X99000000Y-110473553D01*
X98238625Y-111234925D01*
X98309801Y-111284763D01*
X98350265Y-111332261D01*
X98362474Y-111393452D01*
X98343336Y-111452841D01*
X98297698Y-111495392D01*
X98254422Y-111518812D01*
X98076760Y-111657094D01*
X97924279Y-111822730D01*
X97801138Y-112011211D01*
X97710705Y-112217381D01*
X97655435Y-112435636D01*
X97636843Y-112660000D01*
X95000500Y-112660000D01*
X95000500Y-110120000D01*
X97644842Y-110120000D01*
X97665430Y-110355318D01*
X97726569Y-110583492D01*
X97826400Y-110797580D01*
X97885073Y-110881373D01*
X98646447Y-110120001D01*
X99353553Y-110120001D01*
X100114925Y-110881373D01*
X100168424Y-110804969D01*
X100212742Y-110766103D01*
X100269999Y-110752092D01*
X100327256Y-110766103D01*
X100371574Y-110804969D01*
X100425072Y-110881373D01*
X100425073Y-110881373D01*
X101186447Y-110120001D01*
X101893553Y-110120001D01*
X102654925Y-110881373D01*
X102713600Y-110797576D01*
X102813430Y-110583492D01*
X102874569Y-110355318D01*
X102895157Y-110120000D01*
X102874569Y-109884681D01*
X102813430Y-109656507D01*
X102713599Y-109442421D01*
X102654926Y-109358626D01*
X102654925Y-109358625D01*
X101893553Y-110120000D01*
X101893553Y-110120001D01*
X101186447Y-110120001D01*
X101186447Y-110120000D01*
X100425072Y-109358625D01*
X100425072Y-109358626D01*
X100371574Y-109435030D01*
X100327256Y-109473896D01*
X100269999Y-109487907D01*
X100212742Y-109473896D01*
X100168424Y-109435030D01*
X100114925Y-109358626D01*
X100114925Y-109358625D01*
X99353553Y-110120000D01*
X99353553Y-110120001D01*
X98646447Y-110120001D01*
X98646447Y-110119999D01*
X97885073Y-109358625D01*
X97885072Y-109358625D01*
X97826399Y-109442422D01*
X97726569Y-109656507D01*
X97665430Y-109884681D01*
X97644842Y-110120000D01*
X95000500Y-110120000D01*
X95000500Y-107580000D01*
X97636843Y-107580000D01*
X97655435Y-107804363D01*
X97655435Y-107804366D01*
X97655436Y-107804368D01*
X97670029Y-107861996D01*
X97710705Y-108022618D01*
X97801138Y-108228788D01*
X97801140Y-108228791D01*
X97924278Y-108417268D01*
X98076760Y-108582906D01*
X98254424Y-108721189D01*
X98297697Y-108744607D01*
X98343336Y-108787156D01*
X98362475Y-108846546D01*
X98350266Y-108907738D01*
X98309801Y-108955237D01*
X98238625Y-109005072D01*
X99000000Y-109766447D01*
X99000001Y-109766447D01*
X99761373Y-109005073D01*
X99761373Y-109005072D01*
X99690198Y-108955235D01*
X99649733Y-108907736D01*
X99637525Y-108846544D01*
X99656665Y-108787154D01*
X99702299Y-108744608D01*
X99745576Y-108721189D01*
X99923240Y-108582906D01*
X100075722Y-108417268D01*
X100166190Y-108278795D01*
X100210982Y-108237561D01*
X100270000Y-108222616D01*
X100329018Y-108237561D01*
X100373809Y-108278795D01*
X100459529Y-108410000D01*
X100464278Y-108417268D01*
X100616760Y-108582906D01*
X100794424Y-108721189D01*
X100837697Y-108744607D01*
X100883336Y-108787156D01*
X100902475Y-108846546D01*
X100890266Y-108907738D01*
X100849801Y-108955237D01*
X100778625Y-109005072D01*
X101540000Y-109766447D01*
X101540001Y-109766447D01*
X102301373Y-109005073D01*
X102301373Y-109005072D01*
X102230198Y-108955235D01*
X102189733Y-108907736D01*
X102177525Y-108846544D01*
X102196665Y-108787154D01*
X102242299Y-108744608D01*
X102285576Y-108721189D01*
X102463240Y-108582906D01*
X102615722Y-108417268D01*
X102738860Y-108228791D01*
X102829296Y-108022616D01*
X102884564Y-107804368D01*
X102903156Y-107580000D01*
X102884564Y-107355632D01*
X102829296Y-107137384D01*
X102738860Y-106931209D01*
X102615722Y-106742732D01*
X102463240Y-106577094D01*
X102285576Y-106438811D01*
X102249067Y-106419053D01*
X102201563Y-106373474D01*
X102184086Y-106310000D01*
X102201563Y-106246526D01*
X102249067Y-106200946D01*
X102285576Y-106181189D01*
X102463240Y-106042906D01*
X102615722Y-105877268D01*
X102738860Y-105688791D01*
X102829296Y-105482616D01*
X102884564Y-105264368D01*
X102903156Y-105040000D01*
X102884564Y-104815632D01*
X102829296Y-104597384D01*
X102743725Y-104402301D01*
X102738861Y-104391211D01*
X102734294Y-104384220D01*
X102615722Y-104202732D01*
X102463240Y-104037094D01*
X102285576Y-103898811D01*
X102249067Y-103879053D01*
X102201563Y-103833474D01*
X102184086Y-103770000D01*
X102201563Y-103706526D01*
X102249067Y-103660946D01*
X102285576Y-103641189D01*
X102463240Y-103502906D01*
X102615722Y-103337268D01*
X102738860Y-103148791D01*
X102829296Y-102942616D01*
X102884564Y-102724368D01*
X102903156Y-102500000D01*
X102884564Y-102275632D01*
X102829296Y-102057384D01*
X102743579Y-101861968D01*
X102738861Y-101851211D01*
X102738860Y-101851209D01*
X102615722Y-101662732D01*
X102463240Y-101497094D01*
X102285576Y-101358811D01*
X102087574Y-101251658D01*
X102087573Y-101251657D01*
X102087572Y-101251657D01*
X101874636Y-101178556D01*
X101652569Y-101141500D01*
X101427431Y-101141500D01*
X101205363Y-101178556D01*
X100992427Y-101251657D01*
X100794424Y-101358811D01*
X100616760Y-101497094D01*
X100501182Y-101622643D01*
X100447465Y-101656849D01*
X100383854Y-101659881D01*
X100327127Y-101630940D01*
X100299964Y-101589449D01*
X100299723Y-101589598D01*
X100294199Y-101580643D01*
X100292247Y-101577660D01*
X100292115Y-101577262D01*
X100199030Y-101426348D01*
X100199029Y-101426347D01*
X100199028Y-101426345D01*
X100073654Y-101300971D01*
X99922736Y-101207884D01*
X99754426Y-101152112D01*
X99660173Y-101142483D01*
X99650544Y-101141500D01*
X98349455Y-101141500D01*
X98245574Y-101152112D01*
X98077263Y-101207884D01*
X97926345Y-101300971D01*
X97800971Y-101426345D01*
X97707884Y-101577263D01*
X97652112Y-101745573D01*
X97641500Y-101849455D01*
X97641500Y-103150544D01*
X97652112Y-103254425D01*
X97707884Y-103422736D01*
X97707885Y-103422738D01*
X97728458Y-103456092D01*
X97800971Y-103573654D01*
X97926345Y-103699028D01*
X97926347Y-103699029D01*
X97926348Y-103699030D01*
X98077262Y-103792115D01*
X98077357Y-103792146D01*
X98077857Y-103792481D01*
X98089598Y-103799723D01*
X98089327Y-103800161D01*
X98132327Y-103828951D01*
X98160551Y-103888784D01*
X98153993Y-103954614D01*
X98114519Y-104007704D01*
X98076759Y-104037095D01*
X97924279Y-104202730D01*
X97801138Y-104391211D01*
X97730000Y-104553393D01*
X97710704Y-104597384D01*
X97697963Y-104647698D01*
X97655435Y-104815636D01*
X97636843Y-105040000D01*
X97655435Y-105264363D01*
X97655435Y-105264366D01*
X97655436Y-105264368D01*
X97705954Y-105463860D01*
X97710705Y-105482618D01*
X97801138Y-105688788D01*
X97801140Y-105688791D01*
X97924278Y-105877268D01*
X98076760Y-106042906D01*
X98254424Y-106181189D01*
X98254426Y-106181190D01*
X98290931Y-106200946D01*
X98338436Y-106246527D01*
X98355913Y-106310000D01*
X98338436Y-106373473D01*
X98290931Y-106419054D01*
X98254426Y-106438809D01*
X98076760Y-106577094D01*
X97924279Y-106742730D01*
X97801138Y-106931211D01*
X97768658Y-107005260D01*
X97710704Y-107137384D01*
X97657757Y-107346467D01*
X97655435Y-107355636D01*
X97636843Y-107580000D01*
X95000500Y-107580000D01*
X95000500Y-93000000D01*
X98436681Y-93000000D01*
X98455928Y-93244558D01*
X98513194Y-93483092D01*
X98553485Y-93580360D01*
X98607073Y-93709732D01*
X98735248Y-93918896D01*
X98894567Y-94105433D01*
X99081104Y-94264752D01*
X99290268Y-94392927D01*
X99450525Y-94459308D01*
X99516907Y-94486805D01*
X99547173Y-94494071D01*
X99755443Y-94544072D01*
X100000000Y-94563319D01*
X100244557Y-94544072D01*
X100483092Y-94486805D01*
X100709732Y-94392927D01*
X100918896Y-94264752D01*
X101105433Y-94105433D01*
X101264752Y-93918896D01*
X101392927Y-93709732D01*
X101486805Y-93483092D01*
X101544072Y-93244557D01*
X101563319Y-93000000D01*
X101544072Y-92755443D01*
X101502776Y-92583432D01*
X101486805Y-92516907D01*
X101444079Y-92413759D01*
X101392927Y-92290268D01*
X101264752Y-92081104D01*
X101105433Y-91894567D01*
X100918896Y-91735248D01*
X100897298Y-91722013D01*
X100835331Y-91684039D01*
X100812440Y-91665993D01*
X100000000Y-90853553D01*
X99187557Y-91665994D01*
X99164667Y-91684040D01*
X99081103Y-91735248D01*
X98894567Y-91894567D01*
X98735248Y-92081103D01*
X98607073Y-92290268D01*
X98513194Y-92516907D01*
X98455928Y-92755441D01*
X98436681Y-93000000D01*
X95000500Y-93000000D01*
X95000500Y-90500000D01*
X98445207Y-90500000D01*
X98464349Y-90743224D01*
X98521303Y-90980457D01*
X98614669Y-91205862D01*
X98738504Y-91407942D01*
X99646447Y-90500001D01*
X100353553Y-90500001D01*
X101261494Y-91407942D01*
X101385329Y-91205862D01*
X101478696Y-90980457D01*
X101535650Y-90743224D01*
X101554792Y-90500000D01*
X101535650Y-90256775D01*
X101478696Y-90019542D01*
X101385329Y-89794137D01*
X101261494Y-89592056D01*
X100353553Y-90500000D01*
X100353553Y-90500001D01*
X99646447Y-90500001D01*
X99646447Y-90500000D01*
X98738504Y-89592056D01*
X98614669Y-89794137D01*
X98521303Y-90019542D01*
X98464349Y-90256775D01*
X98445207Y-90500000D01*
X95000500Y-90500000D01*
X95000500Y-89238504D01*
X99092056Y-89238504D01*
X100000000Y-90146447D01*
X100000001Y-90146447D01*
X100907942Y-89238504D01*
X100705862Y-89114669D01*
X100480457Y-89021303D01*
X100243224Y-88964349D01*
X100000000Y-88945207D01*
X99756775Y-88964349D01*
X99519542Y-89021303D01*
X99294137Y-89114669D01*
X99092056Y-89238504D01*
X95000500Y-89238504D01*
X95000500Y-77447398D01*
X97733246Y-77447398D01*
X97741927Y-77629638D01*
X97743246Y-77657330D01*
X97792797Y-77861580D01*
X97880102Y-78052752D01*
X97976273Y-78187804D01*
X98002014Y-78223952D01*
X98154122Y-78368986D01*
X98188560Y-78391118D01*
X98330925Y-78482612D01*
X98370080Y-78498287D01*
X98526043Y-78560725D01*
X98654728Y-78585527D01*
X98732414Y-78600500D01*
X98732415Y-78600500D01*
X98889920Y-78600500D01*
X98889925Y-78600500D01*
X99046718Y-78585528D01*
X99248375Y-78526316D01*
X99435182Y-78430011D01*
X99600386Y-78300092D01*
X99738019Y-78141256D01*
X99843104Y-77959244D01*
X99911844Y-77760633D01*
X99941754Y-77552602D01*
X99936743Y-77447398D01*
X104733246Y-77447398D01*
X104741927Y-77629638D01*
X104743246Y-77657330D01*
X104792797Y-77861580D01*
X104880102Y-78052752D01*
X104976273Y-78187804D01*
X105002014Y-78223952D01*
X105154122Y-78368986D01*
X105188560Y-78391118D01*
X105330925Y-78482612D01*
X105370080Y-78498287D01*
X105526043Y-78560725D01*
X105654728Y-78585527D01*
X105732414Y-78600500D01*
X105732415Y-78600500D01*
X105889920Y-78600500D01*
X105889925Y-78600500D01*
X106046718Y-78585528D01*
X106248375Y-78526316D01*
X106435182Y-78430011D01*
X106600386Y-78300092D01*
X106738019Y-78141256D01*
X106843104Y-77959244D01*
X106911844Y-77760633D01*
X106941754Y-77552602D01*
X106931754Y-77342670D01*
X106882204Y-77138424D01*
X106882202Y-77138419D01*
X106794897Y-76947247D01*
X106709297Y-76827040D01*
X106672986Y-76776048D01*
X106520878Y-76631014D01*
X106478635Y-76603866D01*
X106344074Y-76517387D01*
X106188109Y-76454949D01*
X106148957Y-76439275D01*
X106148956Y-76439274D01*
X106148954Y-76439274D01*
X105942586Y-76399500D01*
X105942585Y-76399500D01*
X105785075Y-76399500D01*
X105687079Y-76408857D01*
X105628279Y-76414472D01*
X105426626Y-76473683D01*
X105239815Y-76569990D01*
X105074615Y-76699906D01*
X104936979Y-76858745D01*
X104831896Y-77040754D01*
X104763155Y-77239366D01*
X104738307Y-77412196D01*
X104733246Y-77447398D01*
X99936743Y-77447398D01*
X99931754Y-77342670D01*
X99882204Y-77138424D01*
X99882202Y-77138419D01*
X99794897Y-76947247D01*
X99709297Y-76827040D01*
X99672986Y-76776048D01*
X99520878Y-76631014D01*
X99478635Y-76603866D01*
X99344074Y-76517387D01*
X99188109Y-76454949D01*
X99148957Y-76439275D01*
X99148956Y-76439274D01*
X99148954Y-76439274D01*
X98942586Y-76399500D01*
X98942585Y-76399500D01*
X98785075Y-76399500D01*
X98687079Y-76408857D01*
X98628279Y-76414472D01*
X98426626Y-76473683D01*
X98239815Y-76569990D01*
X98074615Y-76699906D01*
X97936979Y-76858745D01*
X97831896Y-77040754D01*
X97763155Y-77239366D01*
X97738307Y-77412196D01*
X97733246Y-77447398D01*
X95000500Y-77447398D01*
X95000500Y-74850000D01*
X115786620Y-74850000D01*
X115806091Y-75047698D01*
X115806092Y-75047701D01*
X115863759Y-75237804D01*
X115884736Y-75277049D01*
X115957404Y-75413003D01*
X116013353Y-75481177D01*
X116034251Y-75518068D01*
X116041500Y-75559842D01*
X116041500Y-81435706D01*
X116040191Y-81453676D01*
X116036659Y-81477789D01*
X116041028Y-81527726D01*
X116041500Y-81538533D01*
X116041500Y-81544181D01*
X116045139Y-81575322D01*
X116045505Y-81578905D01*
X116052214Y-81655582D01*
X116056523Y-81675017D01*
X116056920Y-81676109D01*
X116056921Y-81676113D01*
X116071358Y-81715779D01*
X116082855Y-81747367D01*
X116084037Y-81750771D01*
X116108251Y-81823843D01*
X116116922Y-81841754D01*
X116159245Y-81906103D01*
X116161178Y-81909138D01*
X116200970Y-81973651D01*
X116200972Y-81973653D01*
X116201589Y-81974653D01*
X116214153Y-81990075D01*
X116214997Y-81990871D01*
X116214999Y-81990874D01*
X116264741Y-82037803D01*
X116270173Y-82042928D01*
X116272760Y-82045441D01*
X118261724Y-84034405D01*
X118286137Y-84069068D01*
X118297446Y-84109930D01*
X118306092Y-84197704D01*
X118363758Y-84387803D01*
X118454411Y-84557404D01*
X118457405Y-84563004D01*
X118583432Y-84716568D01*
X118736996Y-84842595D01*
X118912196Y-84936241D01*
X119102299Y-84993908D01*
X119300000Y-85013380D01*
X119497701Y-84993908D01*
X119687804Y-84936241D01*
X119863004Y-84842595D01*
X120016568Y-84716568D01*
X120142595Y-84563004D01*
X120236241Y-84387804D01*
X120293908Y-84197701D01*
X120313380Y-84000000D01*
X120293908Y-83802299D01*
X120236241Y-83612196D01*
X120142595Y-83436996D01*
X120016568Y-83283432D01*
X119863004Y-83157405D01*
X119863003Y-83157404D01*
X119687803Y-83063758D01*
X119497704Y-83006092D01*
X119409930Y-82997446D01*
X119369068Y-82986137D01*
X119334405Y-82961724D01*
X117594819Y-81222138D01*
X117567939Y-81181910D01*
X117558500Y-81134457D01*
X117558500Y-75559842D01*
X117565749Y-75518068D01*
X117586647Y-75481177D01*
X117599534Y-75465474D01*
X117642595Y-75413004D01*
X117736241Y-75237804D01*
X117747709Y-75200000D01*
X124536620Y-75200000D01*
X124556091Y-75397698D01*
X124556092Y-75397701D01*
X124613759Y-75587804D01*
X124639649Y-75636241D01*
X124693598Y-75737174D01*
X124707405Y-75763004D01*
X124833432Y-75916568D01*
X124986996Y-76042595D01*
X125162196Y-76136241D01*
X125352299Y-76193908D01*
X125550000Y-76213380D01*
X125747701Y-76193908D01*
X125937804Y-76136241D01*
X126113004Y-76042595D01*
X126266568Y-75916568D01*
X126392595Y-75763004D01*
X126486241Y-75587804D01*
X126543908Y-75397701D01*
X126552552Y-75309931D01*
X126563860Y-75269069D01*
X126588271Y-75234408D01*
X127627861Y-74194819D01*
X127668090Y-74167939D01*
X127715543Y-74158500D01*
X128943188Y-74158500D01*
X128998940Y-74171740D01*
X129042786Y-74208633D01*
X129065362Y-74261301D01*
X129061849Y-74318491D01*
X129025356Y-74438794D01*
X129006091Y-74502301D01*
X128986620Y-74699999D01*
X129006091Y-74897698D01*
X129006092Y-74897701D01*
X129063759Y-75087804D01*
X129089649Y-75136241D01*
X129157404Y-75263003D01*
X129180003Y-75290540D01*
X129283432Y-75416568D01*
X129436996Y-75542595D01*
X129612196Y-75636241D01*
X129802299Y-75693908D01*
X129834602Y-75697089D01*
X129875465Y-75708397D01*
X129910130Y-75732811D01*
X135861724Y-81684405D01*
X135886137Y-81719068D01*
X135897446Y-81759930D01*
X135906092Y-81847704D01*
X135963758Y-82037803D01*
X135967157Y-82044163D01*
X136057405Y-82213004D01*
X136183432Y-82366568D01*
X136336996Y-82492595D01*
X136512196Y-82586241D01*
X136702299Y-82643908D01*
X136900000Y-82663380D01*
X137097701Y-82643908D01*
X137287804Y-82586241D01*
X137463004Y-82492595D01*
X137538834Y-82430362D01*
X137602321Y-82403148D01*
X137670517Y-82414120D01*
X137722262Y-82459875D01*
X137741500Y-82526215D01*
X137741500Y-82884457D01*
X137732061Y-82931910D01*
X137705181Y-82972138D01*
X131422138Y-89255181D01*
X131381910Y-89282061D01*
X131334457Y-89291500D01*
X128759842Y-89291500D01*
X128718068Y-89284251D01*
X128681177Y-89263353D01*
X128613003Y-89207404D01*
X128439506Y-89114669D01*
X128437804Y-89113759D01*
X128247701Y-89056092D01*
X128247698Y-89056091D01*
X128050000Y-89036620D01*
X127852301Y-89056091D01*
X127788931Y-89075314D01*
X127662196Y-89113759D01*
X127662192Y-89113760D01*
X127662192Y-89113761D01*
X127486996Y-89207404D01*
X127333432Y-89333432D01*
X127207404Y-89486996D01*
X127151249Y-89592056D01*
X127113759Y-89662196D01*
X127090076Y-89740268D01*
X127056091Y-89852301D01*
X127036620Y-90050000D01*
X127056091Y-90247698D01*
X127056092Y-90247701D01*
X127113759Y-90437804D01*
X127207405Y-90613004D01*
X127333432Y-90766568D01*
X127486996Y-90892595D01*
X127662196Y-90986241D01*
X127852299Y-91043908D01*
X128050000Y-91063380D01*
X128247701Y-91043908D01*
X128437804Y-90986241D01*
X128613004Y-90892595D01*
X128681176Y-90836647D01*
X128718068Y-90815749D01*
X128759842Y-90808500D01*
X131569456Y-90808500D01*
X131625751Y-90822015D01*
X131669774Y-90859615D01*
X131691929Y-90913102D01*
X131687387Y-90970818D01*
X131657137Y-91020181D01*
X126034122Y-96643195D01*
X126020493Y-96654974D01*
X126000941Y-96669531D01*
X125968714Y-96707936D01*
X125961418Y-96715900D01*
X125957418Y-96719900D01*
X125937984Y-96744478D01*
X125935710Y-96747270D01*
X125886220Y-96806251D01*
X125875521Y-96823044D01*
X125842982Y-96892824D01*
X125841427Y-96896037D01*
X125823393Y-96931948D01*
X125806862Y-96964866D01*
X125800332Y-96983654D01*
X125784759Y-97059072D01*
X125783979Y-97062591D01*
X125766228Y-97137488D01*
X125764207Y-97157272D01*
X125766448Y-97234293D01*
X125766500Y-97237899D01*
X125766500Y-106060706D01*
X125765191Y-106078676D01*
X125761659Y-106102789D01*
X125766028Y-106152726D01*
X125766500Y-106163533D01*
X125766500Y-106169181D01*
X125770139Y-106200322D01*
X125770505Y-106203905D01*
X125777214Y-106280582D01*
X125781523Y-106300017D01*
X125781920Y-106301109D01*
X125781921Y-106301113D01*
X125807855Y-106372367D01*
X125809037Y-106375771D01*
X125833251Y-106448843D01*
X125841922Y-106466754D01*
X125884245Y-106531103D01*
X125886178Y-106534138D01*
X125925970Y-106598651D01*
X125925972Y-106598653D01*
X125926589Y-106599653D01*
X125939153Y-106615075D01*
X125939997Y-106615871D01*
X125939999Y-106615874D01*
X125952070Y-106627262D01*
X125995173Y-106667928D01*
X125997760Y-106670441D01*
X129611724Y-110284405D01*
X129636137Y-110319068D01*
X129647446Y-110359930D01*
X129656092Y-110447704D01*
X129713758Y-110637803D01*
X129804411Y-110807404D01*
X129807405Y-110813004D01*
X129933432Y-110966568D01*
X130086996Y-111092595D01*
X130262196Y-111186241D01*
X130452299Y-111243908D01*
X130650000Y-111263380D01*
X130847701Y-111243908D01*
X131037804Y-111186241D01*
X131213004Y-111092595D01*
X131366568Y-110966568D01*
X131492595Y-110813004D01*
X131586241Y-110637804D01*
X131643908Y-110447701D01*
X131663380Y-110250000D01*
X131643908Y-110052299D01*
X131586241Y-109862196D01*
X131492595Y-109686996D01*
X131366568Y-109533432D01*
X131232468Y-109423379D01*
X131213003Y-109407404D01*
X131037803Y-109313758D01*
X130847704Y-109256092D01*
X130759930Y-109247446D01*
X130719068Y-109236137D01*
X130684405Y-109211724D01*
X129882681Y-108410000D01*
X146836620Y-108410000D01*
X146856091Y-108607698D01*
X146856092Y-108607701D01*
X146913759Y-108797804D01*
X146930082Y-108828342D01*
X146969155Y-108901444D01*
X147007405Y-108973004D01*
X147133432Y-109126568D01*
X147286996Y-109252595D01*
X147462196Y-109346241D01*
X147652299Y-109403908D01*
X147850000Y-109423380D01*
X148047701Y-109403908D01*
X148237804Y-109346241D01*
X148413004Y-109252595D01*
X148462898Y-109211647D01*
X148499790Y-109190749D01*
X148541564Y-109183500D01*
X163865158Y-109183500D01*
X163906932Y-109190749D01*
X163943823Y-109211647D01*
X164011996Y-109267595D01*
X164187196Y-109361241D01*
X164377299Y-109418908D01*
X164575000Y-109438380D01*
X164772701Y-109418908D01*
X164962804Y-109361241D01*
X165138004Y-109267595D01*
X165291568Y-109141568D01*
X165417595Y-108988004D01*
X165511241Y-108812804D01*
X165568908Y-108622701D01*
X165588380Y-108425000D01*
X165568908Y-108227299D01*
X165511241Y-108037196D01*
X165417595Y-107861996D01*
X165291568Y-107708432D01*
X165138004Y-107582405D01*
X165138003Y-107582404D01*
X165043390Y-107531833D01*
X164962804Y-107488759D01*
X164772701Y-107431092D01*
X164772698Y-107431091D01*
X164575000Y-107411620D01*
X164377301Y-107431091D01*
X164313931Y-107450314D01*
X164187196Y-107488759D01*
X164187192Y-107488760D01*
X164187192Y-107488761D01*
X164011996Y-107582404D01*
X163943823Y-107638353D01*
X163906932Y-107659251D01*
X163865158Y-107666500D01*
X148578119Y-107666500D01*
X148536345Y-107659251D01*
X148499454Y-107638353D01*
X148413003Y-107567404D01*
X148318390Y-107516833D01*
X148237804Y-107473759D01*
X148047701Y-107416092D01*
X148047698Y-107416091D01*
X147850000Y-107396620D01*
X147652301Y-107416091D01*
X147588931Y-107435314D01*
X147462196Y-107473759D01*
X147462192Y-107473760D01*
X147462192Y-107473761D01*
X147286996Y-107567404D01*
X147133432Y-107693432D01*
X147007404Y-107846996D01*
X146913761Y-108022192D01*
X146913759Y-108022196D01*
X146883393Y-108122301D01*
X146856091Y-108212301D01*
X146836620Y-108410000D01*
X129882681Y-108410000D01*
X127319819Y-105847138D01*
X127292939Y-105806910D01*
X127283500Y-105759457D01*
X127283500Y-104605000D01*
X148191620Y-104605000D01*
X148211091Y-104802698D01*
X148211092Y-104802701D01*
X148268759Y-104992804D01*
X148268761Y-104992807D01*
X148361636Y-105166567D01*
X148362405Y-105168004D01*
X148488432Y-105321568D01*
X148641996Y-105447595D01*
X148817196Y-105541241D01*
X149007299Y-105598908D01*
X149205000Y-105618380D01*
X149402701Y-105598908D01*
X149592804Y-105541241D01*
X149768004Y-105447595D01*
X149842268Y-105386647D01*
X149879160Y-105365749D01*
X149920934Y-105358500D01*
X165665158Y-105358500D01*
X165706932Y-105365749D01*
X165743823Y-105386647D01*
X165811996Y-105442595D01*
X165987196Y-105536241D01*
X166177299Y-105593908D01*
X166375000Y-105613380D01*
X166572701Y-105593908D01*
X166762804Y-105536241D01*
X166938004Y-105442595D01*
X167091568Y-105316568D01*
X167217595Y-105163004D01*
X167311241Y-104987804D01*
X167368908Y-104797701D01*
X167388380Y-104600000D01*
X167373606Y-104450000D01*
X172436620Y-104450000D01*
X172456091Y-104647698D01*
X172456092Y-104647701D01*
X172513759Y-104837804D01*
X172513761Y-104837807D01*
X172596609Y-104992807D01*
X172607405Y-105013004D01*
X172733432Y-105166568D01*
X172886996Y-105292595D01*
X173062196Y-105386241D01*
X173252299Y-105443908D01*
X173340067Y-105452552D01*
X173380929Y-105463860D01*
X173415593Y-105488274D01*
X175107444Y-107180125D01*
X175138423Y-107231809D01*
X175141381Y-107291994D01*
X175115620Y-107346467D01*
X175103204Y-107361596D01*
X175035235Y-107488759D01*
X175009559Y-107536796D01*
X174995724Y-107582404D01*
X174951891Y-107726901D01*
X174932420Y-107924599D01*
X174951891Y-108122298D01*
X174951892Y-108122301D01*
X175009559Y-108312404D01*
X175009561Y-108312407D01*
X175069742Y-108425000D01*
X175103205Y-108487604D01*
X175229232Y-108641168D01*
X175382796Y-108767195D01*
X175557996Y-108860841D01*
X175748099Y-108918508D01*
X175945800Y-108937980D01*
X176143501Y-108918508D01*
X176333604Y-108860841D01*
X176508804Y-108767195D01*
X176662368Y-108641168D01*
X176788395Y-108487604D01*
X176882041Y-108312404D01*
X176939708Y-108122301D01*
X176959180Y-107924600D01*
X176939708Y-107726899D01*
X176882041Y-107536796D01*
X176788395Y-107361596D01*
X176736647Y-107298541D01*
X176715749Y-107261650D01*
X176708500Y-107219876D01*
X176708500Y-107014295D01*
X176709809Y-106996325D01*
X176710346Y-106992652D01*
X176713341Y-106972211D01*
X176708971Y-106922273D01*
X176708500Y-106911467D01*
X176708500Y-106905824D01*
X176708500Y-106905820D01*
X176704851Y-106874608D01*
X176704499Y-106871161D01*
X176697887Y-106795574D01*
X176697785Y-106794407D01*
X176693481Y-106774994D01*
X176693079Y-106773890D01*
X176693079Y-106773887D01*
X176667120Y-106702566D01*
X176665981Y-106699290D01*
X176642114Y-106627262D01*
X176642113Y-106627261D01*
X176641742Y-106626140D01*
X176633078Y-106608245D01*
X176590754Y-106543895D01*
X176588815Y-106540852D01*
X176548412Y-106475347D01*
X176535849Y-106459925D01*
X176479826Y-106407071D01*
X176477238Y-106404557D01*
X174488274Y-104415593D01*
X174463860Y-104380929D01*
X174452552Y-104340066D01*
X174443908Y-104252301D01*
X174443908Y-104252299D01*
X174386241Y-104062196D01*
X174292595Y-103886996D01*
X174166568Y-103733432D01*
X174017497Y-103611092D01*
X174013003Y-103607404D01*
X173918390Y-103556833D01*
X173837804Y-103513759D01*
X173647701Y-103456092D01*
X173647698Y-103456091D01*
X173450000Y-103436620D01*
X173252301Y-103456091D01*
X173188931Y-103475314D01*
X173062196Y-103513759D01*
X173062192Y-103513760D01*
X173062192Y-103513761D01*
X172886996Y-103607404D01*
X172733432Y-103733432D01*
X172607404Y-103886996D01*
X172524556Y-104041996D01*
X172513759Y-104062196D01*
X172475314Y-104188931D01*
X172456091Y-104252301D01*
X172436620Y-104450000D01*
X167373606Y-104450000D01*
X167368908Y-104402299D01*
X167311241Y-104212196D01*
X167217595Y-104036996D01*
X167091568Y-103883432D01*
X166938004Y-103757405D01*
X166938003Y-103757404D01*
X166828788Y-103699028D01*
X166762804Y-103663759D01*
X166587192Y-103610487D01*
X166572698Y-103606091D01*
X166375000Y-103586620D01*
X166177301Y-103606091D01*
X166113931Y-103625314D01*
X165987196Y-103663759D01*
X165987192Y-103663760D01*
X165987192Y-103663761D01*
X165811996Y-103757404D01*
X165743823Y-103813353D01*
X165706932Y-103834251D01*
X165665158Y-103841500D01*
X149908749Y-103841500D01*
X149866975Y-103834251D01*
X149830084Y-103813353D01*
X149768003Y-103762404D01*
X149649437Y-103699030D01*
X149592804Y-103668759D01*
X149402701Y-103611092D01*
X149402698Y-103611091D01*
X149229247Y-103594008D01*
X149205000Y-103591620D01*
X149204999Y-103591620D01*
X149007301Y-103611091D01*
X148943931Y-103630314D01*
X148817196Y-103668759D01*
X148817192Y-103668760D01*
X148817192Y-103668761D01*
X148641996Y-103762404D01*
X148488432Y-103888432D01*
X148362404Y-104041996D01*
X148268761Y-104217192D01*
X148268759Y-104217196D01*
X148231487Y-104340066D01*
X148211091Y-104407301D01*
X148191620Y-104605000D01*
X127283500Y-104605000D01*
X127283500Y-101349999D01*
X156211620Y-101349999D01*
X156231091Y-101547698D01*
X156231092Y-101547701D01*
X156288759Y-101737804D01*
X156382405Y-101913004D01*
X156508432Y-102066568D01*
X156661996Y-102192595D01*
X156837196Y-102286241D01*
X157027299Y-102343908D01*
X157225000Y-102363380D01*
X157422701Y-102343908D01*
X157612804Y-102286241D01*
X157788004Y-102192595D01*
X157941568Y-102066568D01*
X158067595Y-101913004D01*
X158161241Y-101737804D01*
X158218908Y-101547701D01*
X158227552Y-101459931D01*
X158238860Y-101419069D01*
X158263271Y-101384408D01*
X158702861Y-100944819D01*
X158743090Y-100917939D01*
X158790543Y-100908500D01*
X169290158Y-100908500D01*
X169331932Y-100915749D01*
X169368823Y-100936647D01*
X169436996Y-100992595D01*
X169612196Y-101086241D01*
X169802299Y-101143908D01*
X170000000Y-101163380D01*
X170197701Y-101143908D01*
X170387804Y-101086241D01*
X170563004Y-100992595D01*
X170716568Y-100866568D01*
X170842595Y-100713004D01*
X170936241Y-100537804D01*
X170993908Y-100347701D01*
X171013380Y-100150000D01*
X170993908Y-99952299D01*
X170936241Y-99762196D01*
X170842595Y-99586996D01*
X170716568Y-99433432D01*
X170590539Y-99330003D01*
X170563003Y-99307404D01*
X170468390Y-99256833D01*
X170387804Y-99213759D01*
X170197701Y-99156092D01*
X170197698Y-99156091D01*
X170000000Y-99136620D01*
X169802301Y-99156091D01*
X169738931Y-99175314D01*
X169612196Y-99213759D01*
X169612192Y-99213760D01*
X169612192Y-99213761D01*
X169436996Y-99307404D01*
X169368823Y-99363353D01*
X169331932Y-99384251D01*
X169290158Y-99391500D01*
X158489294Y-99391500D01*
X158471324Y-99390191D01*
X158458501Y-99388312D01*
X158447211Y-99386659D01*
X158447210Y-99386659D01*
X158397274Y-99391028D01*
X158386467Y-99391500D01*
X158380819Y-99391500D01*
X158349677Y-99395139D01*
X158346093Y-99395505D01*
X158269410Y-99402214D01*
X158249989Y-99406519D01*
X158177660Y-99432844D01*
X158174259Y-99434026D01*
X158101153Y-99458252D01*
X158083242Y-99466924D01*
X158018924Y-99509226D01*
X158015885Y-99511162D01*
X157950360Y-99551579D01*
X157934916Y-99564160D01*
X157882052Y-99620191D01*
X157879541Y-99622776D01*
X157190593Y-100311724D01*
X157155930Y-100336137D01*
X157115068Y-100347446D01*
X157027296Y-100356092D01*
X156837196Y-100413758D01*
X156661996Y-100507404D01*
X156508432Y-100633432D01*
X156382404Y-100786996D01*
X156302415Y-100936647D01*
X156288759Y-100962196D01*
X156279538Y-100992595D01*
X156231091Y-101152301D01*
X156211620Y-101349999D01*
X127283500Y-101349999D01*
X127283500Y-97590543D01*
X127292939Y-97543090D01*
X127319819Y-97502862D01*
X128772682Y-96049999D01*
X142516806Y-96049999D01*
X142535541Y-96264139D01*
X142575194Y-96412127D01*
X142591178Y-96471777D01*
X142682024Y-96666597D01*
X142805319Y-96842681D01*
X142957319Y-96994681D01*
X143133403Y-97117976D01*
X143328223Y-97208822D01*
X143535858Y-97264458D01*
X143750000Y-97283193D01*
X143964142Y-97264458D01*
X144171777Y-97208822D01*
X144366597Y-97117976D01*
X144432853Y-97071583D01*
X145621967Y-97071583D01*
X145677670Y-97110587D01*
X145871138Y-97200802D01*
X146077342Y-97256055D01*
X146290000Y-97274660D01*
X146502657Y-97256055D01*
X146708861Y-97200802D01*
X146902325Y-97110589D01*
X146958030Y-97071583D01*
X146290001Y-96403553D01*
X146290000Y-96403553D01*
X145621967Y-97071583D01*
X144432853Y-97071583D01*
X144542681Y-96994681D01*
X144694681Y-96842681D01*
X144817976Y-96666597D01*
X144908822Y-96471777D01*
X144908822Y-96471776D01*
X144912307Y-96464303D01*
X144958064Y-96412127D01*
X145024689Y-96392707D01*
X145091314Y-96412127D01*
X145137071Y-96464303D01*
X145229409Y-96662325D01*
X145268415Y-96718030D01*
X145268416Y-96718031D01*
X145936447Y-96050001D01*
X146643553Y-96050001D01*
X147311583Y-96718030D01*
X147350589Y-96662325D01*
X147442928Y-96464303D01*
X147488685Y-96412127D01*
X147555310Y-96392707D01*
X147621935Y-96412126D01*
X147667692Y-96464302D01*
X147671178Y-96471777D01*
X147762024Y-96666597D01*
X147885319Y-96842681D01*
X148037319Y-96994681D01*
X148213403Y-97117976D01*
X148408223Y-97208822D01*
X148615858Y-97264458D01*
X148830000Y-97283193D01*
X149044142Y-97264458D01*
X149251777Y-97208822D01*
X149446597Y-97117976D01*
X149622681Y-96994681D01*
X149774681Y-96842681D01*
X149897976Y-96666597D01*
X149988822Y-96471777D01*
X150044458Y-96264142D01*
X150063193Y-96050000D01*
X150044458Y-95835858D01*
X149988822Y-95628223D01*
X149897976Y-95433404D01*
X149892960Y-95426240D01*
X149774683Y-95257321D01*
X149708543Y-95191181D01*
X149622681Y-95105319D01*
X149446597Y-94982024D01*
X149251778Y-94891178D01*
X149044139Y-94835541D01*
X148830000Y-94816806D01*
X148615860Y-94835541D01*
X148408221Y-94891178D01*
X148213402Y-94982024D01*
X148037317Y-95105319D01*
X147885319Y-95257317D01*
X147762024Y-95433402D01*
X147667692Y-95635697D01*
X147621935Y-95687873D01*
X147555310Y-95707292D01*
X147488685Y-95687872D01*
X147442928Y-95635697D01*
X147350586Y-95437669D01*
X147311583Y-95381967D01*
X146643553Y-96050000D01*
X146643553Y-96050001D01*
X145936447Y-96050001D01*
X145936447Y-96050000D01*
X145268414Y-95381967D01*
X145229412Y-95437670D01*
X145137071Y-95635697D01*
X145091314Y-95687873D01*
X145024689Y-95707292D01*
X144958064Y-95687873D01*
X144912307Y-95635697D01*
X144906793Y-95623873D01*
X144817976Y-95433404D01*
X144812960Y-95426240D01*
X144694683Y-95257321D01*
X144628543Y-95191181D01*
X144542681Y-95105319D01*
X144432849Y-95028414D01*
X145621967Y-95028414D01*
X146290000Y-95696447D01*
X146290001Y-95696447D01*
X146958031Y-95028416D01*
X146958030Y-95028415D01*
X146902326Y-94989410D01*
X146708861Y-94899197D01*
X146502657Y-94843944D01*
X146290000Y-94825339D01*
X146077342Y-94843944D01*
X145871138Y-94899197D01*
X145677672Y-94989411D01*
X145621967Y-95028414D01*
X144432849Y-95028414D01*
X144366597Y-94982024D01*
X144171778Y-94891178D01*
X143964139Y-94835541D01*
X143750000Y-94816806D01*
X143535860Y-94835541D01*
X143328221Y-94891178D01*
X143133402Y-94982024D01*
X142957317Y-95105319D01*
X142805319Y-95257317D01*
X142682024Y-95433402D01*
X142591178Y-95628221D01*
X142535541Y-95835860D01*
X142516806Y-96049999D01*
X128772682Y-96049999D01*
X131472681Y-93350000D01*
X143036620Y-93350000D01*
X143056091Y-93547698D01*
X143056092Y-93547701D01*
X143113759Y-93737804D01*
X143156833Y-93818390D01*
X143206517Y-93911344D01*
X143207405Y-93913004D01*
X143333432Y-94066568D01*
X143486996Y-94192595D01*
X143662196Y-94286241D01*
X143852299Y-94343908D01*
X144050000Y-94363380D01*
X144247701Y-94343908D01*
X144437804Y-94286241D01*
X144613004Y-94192595D01*
X144681176Y-94136647D01*
X144718068Y-94115749D01*
X144759842Y-94108500D01*
X152909696Y-94108500D01*
X152951470Y-94115749D01*
X152988361Y-94136647D01*
X153086996Y-94217595D01*
X153262196Y-94311241D01*
X153452299Y-94368908D01*
X153650000Y-94388380D01*
X153847701Y-94368908D01*
X154037804Y-94311241D01*
X154213004Y-94217595D01*
X154366568Y-94091568D01*
X154492595Y-93938004D01*
X154586241Y-93762804D01*
X154643908Y-93572701D01*
X154663380Y-93375000D01*
X154643908Y-93177299D01*
X154586241Y-92987196D01*
X154492595Y-92811996D01*
X154366568Y-92658432D01*
X154213004Y-92532405D01*
X154213003Y-92532404D01*
X154090465Y-92466907D01*
X154037804Y-92438759D01*
X153847701Y-92381092D01*
X153847698Y-92381091D01*
X153650000Y-92361620D01*
X153452301Y-92381091D01*
X153388931Y-92400314D01*
X153262196Y-92438759D01*
X153262192Y-92438760D01*
X153262192Y-92438761D01*
X153086996Y-92532404D01*
X153049286Y-92563353D01*
X153012395Y-92584251D01*
X152970621Y-92591500D01*
X144759842Y-92591500D01*
X144718068Y-92584251D01*
X144681177Y-92563353D01*
X144613003Y-92507404D01*
X144518390Y-92456833D01*
X144437804Y-92413759D01*
X144247701Y-92356092D01*
X144247698Y-92356091D01*
X144050000Y-92336620D01*
X143852301Y-92356091D01*
X143805425Y-92370311D01*
X143662196Y-92413759D01*
X143662192Y-92413760D01*
X143662192Y-92413761D01*
X143486996Y-92507404D01*
X143333432Y-92633432D01*
X143207404Y-92786996D01*
X143136983Y-92918746D01*
X143113759Y-92962196D01*
X143075314Y-93088931D01*
X143056091Y-93152301D01*
X143036620Y-93350000D01*
X131472681Y-93350000D01*
X151227862Y-73594819D01*
X151268090Y-73567939D01*
X151315543Y-73558500D01*
X151842481Y-73558500D01*
X151903600Y-73574609D01*
X151948839Y-73618751D01*
X151966444Y-73679457D01*
X151951838Y-73740953D01*
X151913759Y-73812196D01*
X151875314Y-73938931D01*
X151856091Y-74002301D01*
X151836620Y-74200000D01*
X151856091Y-74397698D01*
X151856092Y-74397701D01*
X151913759Y-74587804D01*
X152007405Y-74763004D01*
X152133432Y-74916568D01*
X152286996Y-75042595D01*
X152462196Y-75136241D01*
X152652299Y-75193908D01*
X152740067Y-75202552D01*
X152780929Y-75213860D01*
X152815593Y-75238274D01*
X154067681Y-76490362D01*
X154094561Y-76530590D01*
X154104000Y-76578043D01*
X154104000Y-79148206D01*
X154102691Y-79166176D01*
X154099159Y-79190289D01*
X154103528Y-79240226D01*
X154104000Y-79251033D01*
X154104000Y-79256681D01*
X154107639Y-79287822D01*
X154108005Y-79291405D01*
X154114714Y-79368082D01*
X154119023Y-79387517D01*
X154119420Y-79388609D01*
X154119421Y-79388613D01*
X154145355Y-79459867D01*
X154146537Y-79463271D01*
X154170751Y-79536343D01*
X154179422Y-79554254D01*
X154221745Y-79618603D01*
X154223678Y-79621638D01*
X154263470Y-79686151D01*
X154263472Y-79686153D01*
X154264089Y-79687153D01*
X154276653Y-79702575D01*
X154277497Y-79703371D01*
X154277499Y-79703374D01*
X154332673Y-79755428D01*
X154335260Y-79757941D01*
X160011724Y-85434405D01*
X160036137Y-85469068D01*
X160047446Y-85509930D01*
X160056092Y-85597704D01*
X160113758Y-85787803D01*
X160186024Y-85923004D01*
X160207405Y-85963004D01*
X160333432Y-86116568D01*
X160486996Y-86242595D01*
X160662196Y-86336241D01*
X160828497Y-86386687D01*
X160874259Y-86412120D01*
X160905447Y-86454172D01*
X160916500Y-86505348D01*
X160916500Y-96836095D01*
X160904595Y-96889112D01*
X160871165Y-96931948D01*
X160808432Y-96983431D01*
X160682404Y-97136996D01*
X160614275Y-97264458D01*
X160588759Y-97312196D01*
X160550314Y-97438931D01*
X160531091Y-97502301D01*
X160511620Y-97700000D01*
X160531091Y-97897698D01*
X160531092Y-97897701D01*
X160588759Y-98087804D01*
X160682405Y-98263004D01*
X160808432Y-98416568D01*
X160961996Y-98542595D01*
X161137196Y-98636241D01*
X161327299Y-98693908D01*
X161525000Y-98713380D01*
X161722701Y-98693908D01*
X161912804Y-98636241D01*
X162088004Y-98542595D01*
X162241568Y-98416568D01*
X162367595Y-98263004D01*
X162461241Y-98087804D01*
X162518908Y-97897701D01*
X162538380Y-97700000D01*
X162518908Y-97502299D01*
X162461241Y-97312196D01*
X162367595Y-97136996D01*
X162241568Y-96983432D01*
X162230893Y-96974671D01*
X162178835Y-96931948D01*
X162145405Y-96889112D01*
X162133500Y-96836095D01*
X162133500Y-95986000D01*
X162427156Y-95986000D01*
X162445891Y-96200139D01*
X162501528Y-96407778D01*
X162531372Y-96471778D01*
X162592374Y-96602597D01*
X162715669Y-96778681D01*
X162867669Y-96930681D01*
X163043753Y-97053976D01*
X163238573Y-97144822D01*
X163446208Y-97200458D01*
X163660350Y-97219193D01*
X163874492Y-97200458D01*
X164082127Y-97144822D01*
X164276947Y-97053976D01*
X164343203Y-97007583D01*
X165532317Y-97007583D01*
X165588020Y-97046587D01*
X165781488Y-97136802D01*
X165987692Y-97192055D01*
X166200350Y-97210660D01*
X166413007Y-97192055D01*
X166619211Y-97136802D01*
X166812675Y-97046589D01*
X166868380Y-97007583D01*
X166200351Y-96339553D01*
X166200350Y-96339553D01*
X165532317Y-97007583D01*
X164343203Y-97007583D01*
X164453031Y-96930681D01*
X164605031Y-96778681D01*
X164728326Y-96602597D01*
X164819172Y-96407777D01*
X164819172Y-96407776D01*
X164822657Y-96400303D01*
X164868414Y-96348127D01*
X164935039Y-96328707D01*
X165001664Y-96348127D01*
X165047421Y-96400303D01*
X165139759Y-96598325D01*
X165178765Y-96654030D01*
X165178766Y-96654031D01*
X165846797Y-95986001D01*
X166553903Y-95986001D01*
X167221933Y-96654030D01*
X167260939Y-96598325D01*
X167353278Y-96400303D01*
X167399035Y-96348127D01*
X167465660Y-96328707D01*
X167532285Y-96348126D01*
X167578042Y-96400302D01*
X167611372Y-96471778D01*
X167672374Y-96602597D01*
X167795669Y-96778681D01*
X167947669Y-96930681D01*
X168123753Y-97053976D01*
X168318573Y-97144822D01*
X168526208Y-97200458D01*
X168740350Y-97219193D01*
X168954492Y-97200458D01*
X169162127Y-97144822D01*
X169356947Y-97053976D01*
X169533031Y-96930681D01*
X169682893Y-96780819D01*
X169723121Y-96753939D01*
X169770574Y-96744500D01*
X172695457Y-96744500D01*
X172742910Y-96753939D01*
X172783138Y-96780819D01*
X176061724Y-100059405D01*
X176086137Y-100094068D01*
X176097446Y-100134930D01*
X176106092Y-100222704D01*
X176163758Y-100412803D01*
X176230572Y-100537804D01*
X176257405Y-100588004D01*
X176383432Y-100741568D01*
X176536996Y-100867595D01*
X176712196Y-100961241D01*
X176902299Y-101018908D01*
X177100000Y-101038380D01*
X177297701Y-101018908D01*
X177487804Y-100961241D01*
X177663004Y-100867595D01*
X177816568Y-100741568D01*
X177942595Y-100588004D01*
X178036241Y-100412804D01*
X178093908Y-100222701D01*
X178113380Y-100025000D01*
X178093908Y-99827299D01*
X178036241Y-99637196D01*
X177942595Y-99461996D01*
X177816568Y-99308432D01*
X177663004Y-99182405D01*
X177663003Y-99182404D01*
X177487803Y-99088758D01*
X177297704Y-99031092D01*
X177209930Y-99022446D01*
X177169068Y-99011137D01*
X177134405Y-98986724D01*
X173642804Y-95495123D01*
X173631021Y-95481489D01*
X173616467Y-95461939D01*
X173578061Y-95429712D01*
X173570087Y-95422405D01*
X173566100Y-95418418D01*
X173541514Y-95398978D01*
X173538756Y-95396733D01*
X173480640Y-95347968D01*
X173480638Y-95347966D01*
X173479743Y-95347216D01*
X173462965Y-95336526D01*
X173393159Y-95303974D01*
X173389917Y-95302404D01*
X173321144Y-95267866D01*
X173302349Y-95261333D01*
X173226926Y-95245759D01*
X173223406Y-95244979D01*
X173148508Y-95227228D01*
X173128727Y-95225207D01*
X173127558Y-95225241D01*
X173051706Y-95227448D01*
X173048102Y-95227500D01*
X169770574Y-95227500D01*
X169723121Y-95218061D01*
X169682893Y-95191181D01*
X169533031Y-95041319D01*
X169356947Y-94918024D01*
X169162128Y-94827178D01*
X168954489Y-94771541D01*
X168740350Y-94752806D01*
X168526210Y-94771541D01*
X168318571Y-94827178D01*
X168123752Y-94918024D01*
X167947667Y-95041319D01*
X167795669Y-95193317D01*
X167672374Y-95369402D01*
X167578042Y-95571697D01*
X167532285Y-95623873D01*
X167465660Y-95643292D01*
X167399035Y-95623872D01*
X167353278Y-95571697D01*
X167260936Y-95373669D01*
X167221933Y-95317967D01*
X166553903Y-95986000D01*
X166553903Y-95986001D01*
X165846797Y-95986001D01*
X165846797Y-95986000D01*
X165178764Y-95317967D01*
X165139762Y-95373670D01*
X165047421Y-95571697D01*
X165001664Y-95623873D01*
X164935039Y-95643292D01*
X164868414Y-95623873D01*
X164822657Y-95571697D01*
X164728325Y-95369402D01*
X164605033Y-95193321D01*
X164602893Y-95191181D01*
X164453031Y-95041319D01*
X164343199Y-94964414D01*
X165532317Y-94964414D01*
X166200350Y-95632447D01*
X166200351Y-95632447D01*
X166868381Y-94964416D01*
X166868380Y-94964415D01*
X166812676Y-94925410D01*
X166619211Y-94835197D01*
X166413007Y-94779944D01*
X166200350Y-94761339D01*
X165987692Y-94779944D01*
X165781488Y-94835197D01*
X165588022Y-94925411D01*
X165532317Y-94964414D01*
X164343199Y-94964414D01*
X164276947Y-94918024D01*
X164276946Y-94918023D01*
X164082128Y-94827178D01*
X163874489Y-94771541D01*
X163660350Y-94752806D01*
X163446210Y-94771541D01*
X163238571Y-94827178D01*
X163043752Y-94918024D01*
X162867667Y-95041319D01*
X162715669Y-95193317D01*
X162592374Y-95369402D01*
X162501528Y-95564221D01*
X162445891Y-95771860D01*
X162427156Y-95986000D01*
X162133500Y-95986000D01*
X162133500Y-93299999D01*
X167911620Y-93299999D01*
X167931091Y-93497698D01*
X167931092Y-93497701D01*
X167988759Y-93687804D01*
X168026629Y-93758654D01*
X168068821Y-93837591D01*
X168082405Y-93863004D01*
X168208432Y-94016568D01*
X168361996Y-94142595D01*
X168537196Y-94236241D01*
X168727299Y-94293908D01*
X168925000Y-94313380D01*
X169122701Y-94293908D01*
X169312804Y-94236241D01*
X169488004Y-94142595D01*
X169641568Y-94016568D01*
X169693050Y-93953835D01*
X169735888Y-93920405D01*
X169788905Y-93908500D01*
X174149770Y-93908500D01*
X174202787Y-93920405D01*
X174245622Y-93953834D01*
X174302482Y-94023118D01*
X174456046Y-94149145D01*
X174631246Y-94242791D01*
X174821349Y-94300458D01*
X175019050Y-94319930D01*
X175216751Y-94300458D01*
X175406854Y-94242791D01*
X175582054Y-94149145D01*
X175735618Y-94023118D01*
X175861645Y-93869554D01*
X175955291Y-93694354D01*
X176012958Y-93504251D01*
X176032430Y-93306550D01*
X176012958Y-93108849D01*
X175955291Y-92918746D01*
X175861645Y-92743546D01*
X175735618Y-92589982D01*
X175582054Y-92463955D01*
X175582053Y-92463954D01*
X175487440Y-92413383D01*
X175406854Y-92370309D01*
X175216751Y-92312642D01*
X175216748Y-92312641D01*
X175019050Y-92293170D01*
X174821351Y-92312641D01*
X174757981Y-92331864D01*
X174631246Y-92370309D01*
X174631242Y-92370310D01*
X174631242Y-92370311D01*
X174456046Y-92463954D01*
X174302482Y-92589981D01*
X174256374Y-92646165D01*
X174213538Y-92679595D01*
X174160521Y-92691500D01*
X169788905Y-92691500D01*
X169735888Y-92679595D01*
X169693052Y-92646165D01*
X169641568Y-92583432D01*
X169488003Y-92457404D01*
X169393390Y-92406833D01*
X169312804Y-92363759D01*
X169122701Y-92306092D01*
X169122698Y-92306091D01*
X168949247Y-92289008D01*
X168925000Y-92286620D01*
X168924999Y-92286620D01*
X168727301Y-92306091D01*
X168663931Y-92325314D01*
X168537196Y-92363759D01*
X168537192Y-92363760D01*
X168537192Y-92363761D01*
X168361996Y-92457404D01*
X168208432Y-92583432D01*
X168082404Y-92736996D01*
X167988761Y-92912192D01*
X167988759Y-92912196D01*
X167966008Y-92987196D01*
X167931091Y-93102301D01*
X167911620Y-93299999D01*
X162133500Y-93299999D01*
X162133500Y-85923004D01*
X162134561Y-85906818D01*
X162138750Y-85874999D01*
X162134561Y-85843182D01*
X162134559Y-85843166D01*
X162133500Y-85835122D01*
X162133500Y-85835115D01*
X162117838Y-85716150D01*
X162060569Y-85577891D01*
X162051728Y-85518290D01*
X162063380Y-85400000D01*
X162043908Y-85202299D01*
X161986241Y-85012196D01*
X161892595Y-84836996D01*
X161766568Y-84683432D01*
X161640539Y-84580003D01*
X161613003Y-84557404D01*
X161437803Y-84463758D01*
X161247704Y-84406092D01*
X161159930Y-84397446D01*
X161119068Y-84386137D01*
X161084405Y-84361724D01*
X156776383Y-80053702D01*
X179799848Y-80053702D01*
X179982479Y-80178217D01*
X180225542Y-80295270D01*
X180483339Y-80374791D01*
X180750109Y-80415000D01*
X181019891Y-80415000D01*
X181286660Y-80374791D01*
X181544460Y-80295270D01*
X181787523Y-80178217D01*
X181970150Y-80053702D01*
X184879848Y-80053702D01*
X185062479Y-80178217D01*
X185305542Y-80295270D01*
X185563339Y-80374791D01*
X185830109Y-80415000D01*
X186099891Y-80415000D01*
X186366660Y-80374791D01*
X186624460Y-80295270D01*
X186867523Y-80178217D01*
X187050150Y-80053702D01*
X185965000Y-78968553D01*
X184879848Y-80053702D01*
X181970150Y-80053702D01*
X180885000Y-78968553D01*
X179799848Y-80053702D01*
X156776383Y-80053702D01*
X155657319Y-78934638D01*
X155630439Y-78894410D01*
X155621000Y-78846957D01*
X155621000Y-78615000D01*
X179079952Y-78615000D01*
X179100113Y-78884026D01*
X179160146Y-79147049D01*
X179258708Y-79398178D01*
X179393598Y-79631816D01*
X179447295Y-79699150D01*
X180531447Y-78615000D01*
X179447295Y-77530848D01*
X179393598Y-77598182D01*
X179258708Y-77831821D01*
X179160146Y-78082950D01*
X179100113Y-78345973D01*
X179079952Y-78615000D01*
X155621000Y-78615000D01*
X155621000Y-77600000D01*
X166886496Y-77600000D01*
X166906458Y-77789929D01*
X166965472Y-77971556D01*
X167060957Y-78136941D01*
X167090355Y-78169591D01*
X167188747Y-78278866D01*
X167304551Y-78363003D01*
X167343248Y-78391118D01*
X167517714Y-78468795D01*
X167704511Y-78508500D01*
X167704513Y-78508500D01*
X167895487Y-78508500D01*
X167895489Y-78508500D01*
X168082285Y-78468795D01*
X168082286Y-78468794D01*
X168082288Y-78468794D01*
X168256752Y-78391118D01*
X168411253Y-78278866D01*
X168539040Y-78136944D01*
X168587649Y-78052752D01*
X168634527Y-77971556D01*
X168645635Y-77937368D01*
X168693542Y-77789928D01*
X168706195Y-77669536D01*
X168726715Y-77613160D01*
X168771302Y-77573014D01*
X168829516Y-77558500D01*
X169051995Y-77558500D01*
X169068179Y-77559560D01*
X169100000Y-77563750D01*
X169131821Y-77559560D01*
X169131833Y-77559560D01*
X169139884Y-77558500D01*
X169139885Y-77558500D01*
X169239456Y-77545391D01*
X169258851Y-77542838D01*
X169406876Y-77481524D01*
X169475684Y-77428725D01*
X169501228Y-77409125D01*
X169536856Y-77390081D01*
X169576715Y-77383500D01*
X169670489Y-77383500D01*
X169857285Y-77343795D01*
X169857286Y-77343794D01*
X169857288Y-77343794D01*
X170031752Y-77266118D01*
X170186253Y-77153866D01*
X170314040Y-77011944D01*
X170321858Y-76998404D01*
X170409527Y-76846556D01*
X170426670Y-76793795D01*
X170468542Y-76664928D01*
X170488504Y-76475000D01*
X170468542Y-76285072D01*
X170430607Y-76168320D01*
X170409527Y-76103443D01*
X170314042Y-75938058D01*
X170294442Y-75916291D01*
X170186253Y-75796134D01*
X170031752Y-75683882D01*
X170031751Y-75683881D01*
X169857285Y-75606204D01*
X169670489Y-75566500D01*
X169670487Y-75566500D01*
X169479513Y-75566500D01*
X169479511Y-75566500D01*
X169292714Y-75606204D01*
X169118248Y-75683881D01*
X168963748Y-75796133D01*
X168835957Y-75938058D01*
X168740472Y-76103443D01*
X168719393Y-76168320D01*
X168690962Y-76255820D01*
X168665183Y-76300472D01*
X168623468Y-76330780D01*
X168573033Y-76341500D01*
X168498005Y-76341500D01*
X168481820Y-76340439D01*
X168450000Y-76336249D01*
X168418180Y-76340439D01*
X168418166Y-76340439D01*
X168321696Y-76353139D01*
X168310543Y-76354608D01*
X168310532Y-76354608D01*
X168291149Y-76357161D01*
X168143126Y-76418474D01*
X168116018Y-76439275D01*
X168048468Y-76491109D01*
X168048465Y-76491111D01*
X168048467Y-76491109D01*
X168016010Y-76516014D01*
X167996471Y-76541478D01*
X167985780Y-76553670D01*
X167884270Y-76655181D01*
X167844041Y-76682061D01*
X167796588Y-76691500D01*
X167704511Y-76691500D01*
X167517714Y-76731204D01*
X167343248Y-76808881D01*
X167188748Y-76921133D01*
X167060957Y-77063058D01*
X166965472Y-77228443D01*
X166906458Y-77410070D01*
X166886496Y-77600000D01*
X155621000Y-77600000D01*
X155621000Y-76276795D01*
X155622309Y-76258825D01*
X155622846Y-76255152D01*
X155625841Y-76234711D01*
X155621471Y-76184773D01*
X155621000Y-76173967D01*
X155621000Y-76168324D01*
X155621000Y-76168320D01*
X155617351Y-76137108D01*
X155616999Y-76133661D01*
X155610387Y-76058074D01*
X155610285Y-76056907D01*
X155605981Y-76037494D01*
X155605579Y-76036390D01*
X155605579Y-76036387D01*
X155579620Y-75965066D01*
X155578481Y-75961790D01*
X155554614Y-75889762D01*
X155554613Y-75889761D01*
X155554242Y-75888640D01*
X155545578Y-75870745D01*
X155503254Y-75806395D01*
X155501315Y-75803352D01*
X155460912Y-75737847D01*
X155448349Y-75722425D01*
X155392326Y-75669571D01*
X155389738Y-75667057D01*
X153888274Y-74165593D01*
X153863860Y-74130929D01*
X153852552Y-74090066D01*
X153843908Y-74002301D01*
X153843908Y-74002299D01*
X153786241Y-73812196D01*
X153748161Y-73740953D01*
X153733556Y-73679457D01*
X153751161Y-73618751D01*
X153796400Y-73574609D01*
X153857519Y-73558500D01*
X164058063Y-73558500D01*
X164096381Y-73564569D01*
X164130948Y-73582182D01*
X164143246Y-73591117D01*
X164317714Y-73668795D01*
X164504511Y-73708500D01*
X164504513Y-73708500D01*
X164695483Y-73708500D01*
X164695487Y-73708500D01*
X164712036Y-73704982D01*
X164774894Y-73707945D01*
X164828207Y-73741386D01*
X164858236Y-73796692D01*
X164857248Y-73859617D01*
X164825497Y-73913953D01*
X163759270Y-74980181D01*
X163719042Y-75007061D01*
X163671589Y-75016500D01*
X163579511Y-75016500D01*
X163392714Y-75056204D01*
X163218248Y-75133881D01*
X163063748Y-75246133D01*
X162935957Y-75388058D01*
X162840472Y-75553443D01*
X162781458Y-75735070D01*
X162762858Y-75912037D01*
X162761496Y-75925000D01*
X162765354Y-75961703D01*
X162781458Y-76114929D01*
X162840472Y-76296556D01*
X162935957Y-76461941D01*
X162961548Y-76490362D01*
X163063747Y-76603866D01*
X163195934Y-76699906D01*
X163218248Y-76716118D01*
X163392714Y-76793795D01*
X163579511Y-76833500D01*
X163579513Y-76833500D01*
X163770487Y-76833500D01*
X163770489Y-76833500D01*
X163957285Y-76793795D01*
X163957286Y-76793794D01*
X163957288Y-76793794D01*
X164131752Y-76716118D01*
X164286253Y-76603866D01*
X164414040Y-76461944D01*
X164439137Y-76418476D01*
X164509527Y-76296556D01*
X164529622Y-76234710D01*
X164568542Y-76114928D01*
X164588504Y-75925000D01*
X164588503Y-75924997D01*
X164589866Y-75912037D01*
X164592443Y-75912307D01*
X164596078Y-75881561D01*
X164625287Y-75835260D01*
X166245729Y-74214818D01*
X166285957Y-74187939D01*
X166333410Y-74178500D01*
X171570181Y-74178500D01*
X171620617Y-74189220D01*
X171662330Y-74219527D01*
X171688747Y-74248866D01*
X171784584Y-74318496D01*
X171843248Y-74361118D01*
X172017714Y-74438795D01*
X172204511Y-74478500D01*
X172204513Y-74478500D01*
X172291589Y-74478500D01*
X172339042Y-74487939D01*
X172379270Y-74514819D01*
X173105181Y-75240730D01*
X173132061Y-75280958D01*
X173141500Y-75328411D01*
X173141500Y-75770477D01*
X173133264Y-75814915D01*
X173109650Y-75853449D01*
X173010959Y-75963055D01*
X172915472Y-76128443D01*
X172856458Y-76310070D01*
X172837509Y-76490362D01*
X172836496Y-76500000D01*
X172841533Y-76547926D01*
X172856458Y-76689929D01*
X172915472Y-76871556D01*
X173010957Y-77036941D01*
X173014392Y-77040756D01*
X173138747Y-77178866D01*
X173258839Y-77266118D01*
X173293248Y-77291118D01*
X173467714Y-77368795D01*
X173654511Y-77408500D01*
X173654513Y-77408500D01*
X173845487Y-77408500D01*
X173845489Y-77408500D01*
X174032285Y-77368795D01*
X174032286Y-77368794D01*
X174032288Y-77368794D01*
X174206752Y-77291118D01*
X174361253Y-77178866D01*
X174363567Y-77176296D01*
X179799848Y-77176296D01*
X180885000Y-78261447D01*
X182322703Y-79699151D01*
X182322704Y-79699150D01*
X182376400Y-79631818D01*
X182511291Y-79398178D01*
X182609853Y-79147049D01*
X182669886Y-78884026D01*
X182690047Y-78615000D01*
X182669886Y-78345973D01*
X182609853Y-78082950D01*
X182511291Y-77831821D01*
X182407181Y-77651496D01*
X182390582Y-77587641D01*
X182409084Y-77524311D01*
X182457448Y-77479435D01*
X182521983Y-77465718D01*
X182584419Y-77487042D01*
X182643285Y-77527176D01*
X182880746Y-77641532D01*
X183132600Y-77719218D01*
X183346964Y-77751528D01*
X183393218Y-77758500D01*
X183393219Y-77758500D01*
X183656781Y-77758500D01*
X183656782Y-77758500D01*
X183696063Y-77752579D01*
X183917400Y-77719218D01*
X184169254Y-77641532D01*
X184193953Y-77629637D01*
X184255167Y-77617579D01*
X184314507Y-77636858D01*
X184356947Y-77682595D01*
X184371740Y-77743209D01*
X184355142Y-77803355D01*
X184338709Y-77831819D01*
X184240146Y-78082950D01*
X184180113Y-78345973D01*
X184159952Y-78615000D01*
X184180113Y-78884026D01*
X184240146Y-79147049D01*
X184338708Y-79398178D01*
X184473598Y-79631816D01*
X184527295Y-79699150D01*
X185611446Y-78615001D01*
X186318553Y-78615001D01*
X187402703Y-79699151D01*
X187402704Y-79699150D01*
X187456400Y-79631818D01*
X187591291Y-79398178D01*
X187689853Y-79147049D01*
X187749886Y-78884026D01*
X187770047Y-78615000D01*
X187749886Y-78345973D01*
X187689853Y-78082950D01*
X187591291Y-77831821D01*
X187456398Y-77598178D01*
X187402704Y-77530847D01*
X186318553Y-78615000D01*
X186318553Y-78615001D01*
X185611446Y-78615001D01*
X185965000Y-78261447D01*
X187050150Y-77176296D01*
X186867519Y-77051780D01*
X186624460Y-76934729D01*
X186366660Y-76855208D01*
X186099891Y-76815000D01*
X185830109Y-76815000D01*
X185563339Y-76855208D01*
X185305544Y-76934728D01*
X185266506Y-76953528D01*
X185205288Y-76965585D01*
X185145949Y-76946304D01*
X185103511Y-76900566D01*
X185088719Y-76839951D01*
X185105316Y-76779810D01*
X185113796Y-76765124D01*
X185210087Y-76519780D01*
X185268735Y-76262826D01*
X185288431Y-76000000D01*
X185282810Y-75924999D01*
X185270671Y-75763003D01*
X185268735Y-75737174D01*
X185210087Y-75480220D01*
X185190839Y-75431177D01*
X185172703Y-75384967D01*
X185166293Y-75316612D01*
X185197233Y-75255324D01*
X185256038Y-75219890D01*
X185324681Y-75221174D01*
X185563339Y-75294791D01*
X185830109Y-75335000D01*
X186099891Y-75335000D01*
X186366660Y-75294791D01*
X186624460Y-75215270D01*
X186867523Y-75098217D01*
X187050150Y-74973702D01*
X185965000Y-73888553D01*
X185611448Y-73535001D01*
X186318553Y-73535001D01*
X187402703Y-74619151D01*
X187402704Y-74619150D01*
X187456400Y-74551818D01*
X187591291Y-74318178D01*
X187689853Y-74067049D01*
X187749886Y-73804026D01*
X187770047Y-73534999D01*
X187749886Y-73265973D01*
X187689853Y-73002950D01*
X187591291Y-72751821D01*
X187456398Y-72518178D01*
X187402704Y-72450847D01*
X186318553Y-73535000D01*
X186318553Y-73535001D01*
X185611448Y-73535001D01*
X184527295Y-72450848D01*
X184473598Y-72518182D01*
X184338708Y-72751821D01*
X184240146Y-73002950D01*
X184180113Y-73265973D01*
X184159952Y-73534999D01*
X184180113Y-73804026D01*
X184240146Y-74067049D01*
X184285967Y-74183797D01*
X184292377Y-74252152D01*
X184261438Y-74313440D01*
X184202633Y-74348874D01*
X184133990Y-74347590D01*
X183917401Y-74280782D01*
X183656782Y-74241500D01*
X183656781Y-74241500D01*
X183393219Y-74241500D01*
X183393218Y-74241500D01*
X183132598Y-74280782D01*
X182880747Y-74358467D01*
X182690350Y-74450158D01*
X182632838Y-74462382D01*
X182576161Y-74446741D01*
X182533061Y-74406749D01*
X182513227Y-74351399D01*
X182521120Y-74293135D01*
X182609853Y-74067047D01*
X182669886Y-73804026D01*
X182690047Y-73534999D01*
X182669886Y-73265973D01*
X182609853Y-73002950D01*
X182511291Y-72751821D01*
X182376398Y-72518178D01*
X182322704Y-72450847D01*
X180885000Y-73888553D01*
X179799848Y-74973702D01*
X179982479Y-75098217D01*
X180225542Y-75215270D01*
X180483339Y-75294791D01*
X180750109Y-75335000D01*
X181019891Y-75335000D01*
X181286660Y-75294791D01*
X181544457Y-75215270D01*
X181752330Y-75115164D01*
X181809841Y-75102939D01*
X181866518Y-75118581D01*
X181909619Y-75158573D01*
X181929453Y-75213922D01*
X181921560Y-75272186D01*
X181839913Y-75480217D01*
X181781264Y-75737175D01*
X181761568Y-75999999D01*
X181781264Y-76262824D01*
X181839913Y-76519780D01*
X181936204Y-76765124D01*
X182034021Y-76934549D01*
X182050620Y-76998404D01*
X182032118Y-77061734D01*
X181983754Y-77106610D01*
X181919218Y-77120327D01*
X181856782Y-77099003D01*
X181787519Y-77051780D01*
X181544460Y-76934729D01*
X181286660Y-76855208D01*
X181019891Y-76815000D01*
X180750109Y-76815000D01*
X180483339Y-76855208D01*
X180225542Y-76934729D01*
X179982476Y-77051783D01*
X179799848Y-77176296D01*
X174363567Y-77176296D01*
X174489040Y-77036944D01*
X174502661Y-77013353D01*
X174584527Y-76871556D01*
X174604891Y-76808882D01*
X174643542Y-76689928D01*
X174663504Y-76500000D01*
X174643542Y-76310072D01*
X174601077Y-76179379D01*
X174584527Y-76128443D01*
X174489040Y-75963055D01*
X174390350Y-75853449D01*
X174366736Y-75814915D01*
X174358500Y-75770477D01*
X174358500Y-75073012D01*
X174359561Y-75056826D01*
X174363751Y-75024999D01*
X174360157Y-74997698D01*
X174342838Y-74866149D01*
X174281524Y-74718124D01*
X174208478Y-74622929D01*
X174208474Y-74622925D01*
X174207222Y-74621294D01*
X174203537Y-74616491D01*
X174203530Y-74616482D01*
X174183987Y-74591013D01*
X174179804Y-74587803D01*
X174158512Y-74571465D01*
X174146326Y-74560777D01*
X173249814Y-73664265D01*
X173220607Y-73617976D01*
X173216443Y-73582796D01*
X173214866Y-73582962D01*
X173211997Y-73555663D01*
X173209825Y-73534999D01*
X179079952Y-73534999D01*
X179100113Y-73804026D01*
X179160146Y-74067049D01*
X179258708Y-74318178D01*
X179393598Y-74551816D01*
X179447295Y-74619150D01*
X180531447Y-73535000D01*
X179447295Y-72450848D01*
X179393598Y-72518182D01*
X179258708Y-72751821D01*
X179160146Y-73002950D01*
X179100113Y-73265973D01*
X179079952Y-73534999D01*
X173209825Y-73534999D01*
X173193542Y-73380072D01*
X173134527Y-73198444D01*
X173134527Y-73198443D01*
X173039042Y-73033058D01*
X172986413Y-72974608D01*
X172911253Y-72891134D01*
X172798014Y-72808861D01*
X172756751Y-72778881D01*
X172582285Y-72701204D01*
X172395489Y-72661500D01*
X172395487Y-72661500D01*
X172204513Y-72661500D01*
X172204511Y-72661500D01*
X172017714Y-72701204D01*
X171843248Y-72778881D01*
X171688746Y-72891134D01*
X171662331Y-72920472D01*
X171620617Y-72950780D01*
X171570181Y-72961500D01*
X166078005Y-72961500D01*
X166061820Y-72960439D01*
X166030000Y-72956249D01*
X165998180Y-72960439D01*
X165998166Y-72960439D01*
X165901696Y-72973139D01*
X165890543Y-72974608D01*
X165890532Y-72974608D01*
X165871149Y-72977161D01*
X165723124Y-73038475D01*
X165696825Y-73058655D01*
X165644574Y-73082082D01*
X165587368Y-73079534D01*
X165537407Y-73051553D01*
X165505345Y-73004108D01*
X165498019Y-72947323D01*
X165513504Y-72800000D01*
X165493542Y-72610072D01*
X165434527Y-72428444D01*
X165434527Y-72428443D01*
X165339042Y-72263058D01*
X165295014Y-72214160D01*
X165211253Y-72121134D01*
X165177067Y-72096296D01*
X179799848Y-72096296D01*
X180885000Y-73181447D01*
X180885001Y-73181447D01*
X181970150Y-72096296D01*
X184879848Y-72096296D01*
X185965000Y-73181447D01*
X185965001Y-73181447D01*
X187050150Y-72096296D01*
X186867519Y-71971780D01*
X186624460Y-71854729D01*
X186366660Y-71775208D01*
X186099891Y-71735000D01*
X185830109Y-71735000D01*
X185563339Y-71775208D01*
X185305542Y-71854729D01*
X185062476Y-71971783D01*
X184879848Y-72096296D01*
X181970150Y-72096296D01*
X181787519Y-71971780D01*
X181544460Y-71854729D01*
X181286660Y-71775208D01*
X181019891Y-71735000D01*
X180750109Y-71735000D01*
X180483339Y-71775208D01*
X180225542Y-71854729D01*
X179982476Y-71971783D01*
X179799848Y-72096296D01*
X165177067Y-72096296D01*
X165094984Y-72036659D01*
X165056751Y-72008881D01*
X164882285Y-71931204D01*
X164695489Y-71891500D01*
X164695487Y-71891500D01*
X164504513Y-71891500D01*
X164504511Y-71891500D01*
X164317714Y-71931204D01*
X164143246Y-72008882D01*
X164130948Y-72017818D01*
X164096381Y-72035431D01*
X164058063Y-72041500D01*
X151014294Y-72041500D01*
X150996324Y-72040191D01*
X150983501Y-72038312D01*
X150972211Y-72036659D01*
X150972210Y-72036659D01*
X150922274Y-72041028D01*
X150911467Y-72041500D01*
X150905819Y-72041500D01*
X150874677Y-72045139D01*
X150871093Y-72045505D01*
X150794410Y-72052214D01*
X150774989Y-72056519D01*
X150702660Y-72082844D01*
X150699259Y-72084026D01*
X150626153Y-72108252D01*
X150608242Y-72116924D01*
X150543924Y-72159226D01*
X150540885Y-72161162D01*
X150475360Y-72201579D01*
X150459916Y-72214160D01*
X150407052Y-72270191D01*
X150404541Y-72272776D01*
X139470181Y-83207137D01*
X139420818Y-83237387D01*
X139363102Y-83241929D01*
X139309615Y-83219774D01*
X139272015Y-83175751D01*
X139258500Y-83119456D01*
X139258500Y-75509842D01*
X139265749Y-75468068D01*
X139286647Y-75431177D01*
X139314123Y-75397697D01*
X139342595Y-75363004D01*
X139436241Y-75187804D01*
X139493908Y-74997701D01*
X139513380Y-74800000D01*
X139493908Y-74602299D01*
X139436241Y-74412196D01*
X139342595Y-74236996D01*
X139216568Y-74083432D01*
X139063004Y-73957405D01*
X139063003Y-73957404D01*
X138934190Y-73888553D01*
X138887804Y-73863759D01*
X138697701Y-73806092D01*
X138697698Y-73806091D01*
X138500000Y-73786620D01*
X138302301Y-73806091D01*
X138238931Y-73825314D01*
X138112196Y-73863759D01*
X138112192Y-73863760D01*
X138112192Y-73863761D01*
X137936996Y-73957404D01*
X137783432Y-74083432D01*
X137657404Y-74236996D01*
X137571508Y-74397698D01*
X137563759Y-74412196D01*
X137545368Y-74472824D01*
X137506091Y-74602301D01*
X137486620Y-74799999D01*
X137506091Y-74997698D01*
X137506092Y-74997701D01*
X137563759Y-75187804D01*
X137594936Y-75246133D01*
X137657404Y-75363003D01*
X137713353Y-75431177D01*
X137734251Y-75468068D01*
X137741500Y-75509842D01*
X137741500Y-77592063D01*
X137725887Y-77652298D01*
X137682980Y-77697364D01*
X137623585Y-77715914D01*
X137562656Y-77703275D01*
X137515539Y-77662632D01*
X137497660Y-77613924D01*
X137497453Y-77613987D01*
X137496356Y-77610373D01*
X137494097Y-77604217D01*
X137493908Y-77602302D01*
X137493908Y-77602299D01*
X137436241Y-77412196D01*
X137342595Y-77236996D01*
X137216568Y-77083432D01*
X137063004Y-76957405D01*
X137063003Y-76957404D01*
X136902391Y-76871556D01*
X136887804Y-76863759D01*
X136712192Y-76810487D01*
X136697698Y-76806091D01*
X136524247Y-76789008D01*
X136500000Y-76786620D01*
X136499999Y-76786620D01*
X136302301Y-76806091D01*
X136272933Y-76815000D01*
X136112196Y-76863759D01*
X136112192Y-76863760D01*
X136112192Y-76863761D01*
X135936996Y-76957404D01*
X135868823Y-77013353D01*
X135831932Y-77034251D01*
X135790158Y-77041500D01*
X135415543Y-77041500D01*
X135368090Y-77032061D01*
X135327862Y-77005181D01*
X132043391Y-73720710D01*
X132011564Y-73666101D01*
X132010788Y-73602899D01*
X132041266Y-73547526D01*
X132095072Y-73514370D01*
X132187804Y-73486241D01*
X132363004Y-73392595D01*
X132431176Y-73336647D01*
X132468068Y-73315749D01*
X132509842Y-73308500D01*
X143834457Y-73308500D01*
X143881910Y-73317939D01*
X143922138Y-73344819D01*
X144811724Y-74234405D01*
X144836137Y-74269068D01*
X144847446Y-74309930D01*
X144856092Y-74397704D01*
X144913758Y-74587803D01*
X144973728Y-74700000D01*
X145007405Y-74763004D01*
X145133432Y-74916568D01*
X145286996Y-75042595D01*
X145462196Y-75136241D01*
X145652299Y-75193908D01*
X145850000Y-75213380D01*
X146047701Y-75193908D01*
X146237804Y-75136241D01*
X146413004Y-75042595D01*
X146566568Y-74916568D01*
X146692595Y-74763004D01*
X146786241Y-74587804D01*
X146843908Y-74397701D01*
X146863380Y-74200000D01*
X146843908Y-74002299D01*
X146786241Y-73812196D01*
X146692595Y-73636996D01*
X146566568Y-73483432D01*
X146413004Y-73357405D01*
X146413003Y-73357404D01*
X146237803Y-73263758D01*
X146047704Y-73206092D01*
X145959930Y-73197446D01*
X145919068Y-73186137D01*
X145884405Y-73161724D01*
X144781804Y-72059123D01*
X144770021Y-72045489D01*
X144769760Y-72045139D01*
X144766077Y-72040191D01*
X144755467Y-72025939D01*
X144717061Y-71993712D01*
X144709087Y-71986405D01*
X144705100Y-71982418D01*
X144680514Y-71962978D01*
X144677756Y-71960733D01*
X144619640Y-71911968D01*
X144619638Y-71911966D01*
X144618743Y-71911216D01*
X144601965Y-71900526D01*
X144532159Y-71867974D01*
X144528917Y-71866404D01*
X144460144Y-71831866D01*
X144441349Y-71825333D01*
X144365926Y-71809759D01*
X144362406Y-71808979D01*
X144287508Y-71791228D01*
X144267727Y-71789207D01*
X144266558Y-71789241D01*
X144190706Y-71791448D01*
X144187102Y-71791500D01*
X132509842Y-71791500D01*
X132468068Y-71784251D01*
X132431177Y-71763353D01*
X132363003Y-71707404D01*
X132268390Y-71656833D01*
X132187804Y-71613759D01*
X131997701Y-71556092D01*
X131997698Y-71556091D01*
X131800000Y-71536620D01*
X131602301Y-71556091D01*
X131538931Y-71575314D01*
X131412196Y-71613759D01*
X131412192Y-71613760D01*
X131412192Y-71613761D01*
X131236996Y-71707404D01*
X131083432Y-71833432D01*
X130957404Y-71986996D01*
X130885707Y-72121134D01*
X130863759Y-72162196D01*
X130833164Y-72263056D01*
X130806091Y-72352301D01*
X130788704Y-72528834D01*
X130769067Y-72584566D01*
X130725865Y-72624883D01*
X130668910Y-72640626D01*
X130640711Y-72641447D01*
X130637102Y-72641500D01*
X127414294Y-72641500D01*
X127396324Y-72640191D01*
X127383501Y-72638312D01*
X127372211Y-72636659D01*
X127372210Y-72636659D01*
X127322274Y-72641028D01*
X127311467Y-72641500D01*
X127305819Y-72641500D01*
X127274677Y-72645139D01*
X127271093Y-72645505D01*
X127194410Y-72652214D01*
X127174989Y-72656519D01*
X127102660Y-72682844D01*
X127099259Y-72684026D01*
X127026153Y-72708252D01*
X127008240Y-72716924D01*
X126943908Y-72759236D01*
X126940868Y-72761173D01*
X126875357Y-72801581D01*
X126859920Y-72814156D01*
X126807052Y-72870191D01*
X126804541Y-72872776D01*
X125515593Y-74161724D01*
X125480930Y-74186137D01*
X125440068Y-74197446D01*
X125352296Y-74206092D01*
X125162196Y-74263758D01*
X124986996Y-74357404D01*
X124833432Y-74483432D01*
X124707404Y-74636996D01*
X124620278Y-74799999D01*
X124613759Y-74812196D01*
X124582098Y-74916568D01*
X124556091Y-75002301D01*
X124536620Y-75200000D01*
X117747709Y-75200000D01*
X117793908Y-75047701D01*
X117813380Y-74850000D01*
X117793908Y-74652299D01*
X117736241Y-74462196D01*
X117642595Y-74286996D01*
X117516568Y-74133432D01*
X117363004Y-74007405D01*
X117363003Y-74007404D01*
X117268390Y-73956833D01*
X117187804Y-73913759D01*
X116997701Y-73856092D01*
X116997698Y-73856091D01*
X116824247Y-73839008D01*
X116800000Y-73836620D01*
X116799999Y-73836620D01*
X116602301Y-73856091D01*
X116538931Y-73875314D01*
X116412196Y-73913759D01*
X116412192Y-73913760D01*
X116412192Y-73913761D01*
X116236996Y-74007404D01*
X116083432Y-74133432D01*
X115957404Y-74286996D01*
X115876267Y-74438795D01*
X115863759Y-74462196D01*
X115847796Y-74514819D01*
X115806091Y-74652301D01*
X115786620Y-74850000D01*
X95000500Y-74850000D01*
X95000500Y-70124500D01*
X95017113Y-70062500D01*
X95062500Y-70017113D01*
X95124500Y-70000500D01*
X194875500Y-70000500D01*
X194937500Y-70017113D01*
G37*
G04 #@! TD.AperFunction*
M02*
